<svg width="186" height="42" viewBox="0 0 186 42" fill="none" xmlns="http://www.w3.org/2000/svg">
<path d="M37.6981 28.5068V13.5014C37.6981 11.5669 36.6641 9.77938 34.9858 8.81238L21.9667 1.30951C20.2884 0.342467 18.2203 0.342467 16.542 1.30951L3.52285 8.81238C1.8442 9.77938 0.810547 11.5669 0.810547 13.5014V28.5068C0.810547 30.4412 1.8442 32.2288 3.52285 33.1958L16.542 40.6986C18.2203 41.6657 20.2884 41.6657 21.9667 40.6986L34.9858 33.1958C36.6641 32.2288 37.6981 30.4412 37.6981 28.5068Z" fill="#008ACE"/>
<path d="M19.1925 9.24487H20.6996C20.9993 9.24487 21.242 9.48712 21.242 9.78595V28.237C21.242 29.3451 20.3423 30.2431 19.2325 30.2431C18.1223 30.2431 17.2227 29.3451 17.2227 28.237V11.2107C17.2227 10.1251 18.1045 9.24487 19.1925 9.24487Z" fill="white"/>
<path d="M26.1941 14.9756H27.7015C28.0012 14.9756 28.2439 15.2182 28.2439 15.517V28.238C28.2439 29.3461 27.3443 30.2441 26.2341 30.2441C25.1243 30.2441 24.2246 29.3461 24.2246 28.238V16.9418C24.2246 15.8558 25.1064 14.9756 26.1941 14.9756V14.9756Z" fill="white"/>
<path d="M12.2254 22.2083H13.7328C14.0326 22.2083 14.2753 22.4505 14.2753 22.7497V28.2705C14.2753 29.3786 13.3756 30.2766 12.2654 30.2766C11.1556 30.2766 10.2559 29.3786 10.2559 28.2705V24.1744C10.2559 23.0884 11.1377 22.2083 12.2254 22.2083H12.2254Z" fill="white"/>
<path fill-rule="evenodd" clip-rule="evenodd" d="M67.8444 26.3756C67.8444 29.1411 67.3249 30.6008 66.0426 31.7141C64.7225 32.8288 62.5594 33.5197 59.4361 33.5197C56.3521 33.5197 54.512 32.9822 53.2298 31.907C51.5893 30.5232 50.8691 28.1815 50.8691 24.6094V23.0345C50.8691 19.5005 51.5894 17.464 53.1521 15.9676C54.5503 14.6223 56.4751 14.0073 59.197 14.0073C60.7169 14.0073 62.0786 14.3926 63.0012 14.9686H63.0793V8.13265C63.0793 7.36286 63.3183 7.17139 64.1998 7.17139H66.7249C67.604 7.17139 67.8444 7.36286 67.8444 8.13265V26.3756ZM63.0857 21.1132C63.0857 19.5777 62.7658 18.9232 62.2871 18.5024C61.7254 18.0014 60.9243 17.6959 59.6038 17.6959C58.2028 17.6959 57.3209 18.118 56.7208 18.8079C55.8801 19.7692 55.7188 20.9978 55.7188 23.1497V24.3403C55.7188 26.7976 55.9596 27.9886 56.6811 28.8342C57.2801 29.5254 58.0808 29.8322 59.4425 29.8322C61.0048 29.8322 61.7651 29.5635 62.3254 28.9876C62.8857 28.4107 63.0857 27.4507 63.0857 26.1449L63.0857 21.1132Z" fill="#0D0F11"/>
<path fill-rule="evenodd" clip-rule="evenodd" d="M84.1017 31.56C83.3401 32.8281 82.0989 33.519 79.6968 33.519H78.2153C76.1331 33.519 74.8919 33.1727 73.8108 32.2903C72.6501 31.3291 72.0898 29.8317 72.0898 27.988V27.1052C72.0898 25.0309 72.609 23.5713 73.7714 22.6482C75.0125 21.6504 76.8947 21.228 79.6178 21.228H81.0599C81.7804 21.228 82.6195 21.266 83.3017 21.3055V20.2683C83.3017 19.2689 83.0996 18.6933 82.6195 18.309C82.0606 17.8868 81.2989 17.7715 79.8585 17.7715C78.4146 17.7715 76.5338 18.0403 74.9344 18.5018C74.292 18.6933 74.0529 18.4243 73.9324 17.8868L73.5714 16.0812C73.4132 15.4295 73.4923 15.1213 74.1717 14.9298C75.6536 14.4682 78.0962 14.0066 80.2181 14.0066C83.0599 14.0066 84.6223 14.3529 85.9839 15.2366C87.4247 16.1966 88.0645 17.58 88.0645 20.3061V32.4438C88.0645 32.9434 87.7839 33.1727 87.225 33.1727H85.384C84.7808 33.1727 84.5414 32.9816 84.4216 32.4819L84.1822 31.56H84.1017ZM83.3035 24.9533C82.6212 24.9156 81.7822 24.8774 80.9808 24.8774H79.5801C78.6585 24.8774 77.8972 24.9928 77.4965 25.3377C77.0551 25.684 76.8965 26.3368 76.8965 27.2195V27.6811C76.8965 28.5254 77.0961 29.0645 77.4965 29.4095C77.8164 29.6782 78.3784 29.8697 79.2602 29.8697H80.7007C82.5422 29.8697 83.3035 29.0645 83.3035 27.2967L83.3035 24.9533Z" fill="#0D0F11"/>
<path d="M98.9981 14.3538H102.962C103.642 14.3538 103.802 14.5845 103.802 15.3516V17.2346C103.802 17.8878 103.642 18.1946 102.962 18.1946H98.9981V26.5674C98.9981 27.9508 99.0772 28.411 99.4793 28.8346C99.8375 29.2189 100.279 29.3329 101.36 29.3329H103.32C104.164 29.3329 104.283 29.5639 104.283 30.3323V32.2141C104.283 32.9444 104.204 33.1737 103.32 33.1737H100.437C98.1162 33.1737 96.7563 32.8291 95.7546 31.945C94.7155 31.0232 94.234 29.5258 94.234 27.3358V18.1946H91.8312C91.2309 18.1946 91.0312 18.0412 91.0312 17.4643V15.7754C91.0312 15.1604 91.1901 15.0461 91.6709 14.9689L94.234 14.5467V10.1977C94.234 9.43064 94.4734 9.23779 95.3553 9.23779H97.8773C98.7574 9.23779 98.9982 9.43064 98.9982 10.1977L98.9981 14.3538Z" fill="#0D0F11"/>
<path fill-rule="evenodd" clip-rule="evenodd" d="M119.015 31.5603C118.252 32.8284 117.012 33.5193 114.609 33.5193H113.129C111.045 33.5193 109.805 33.173 108.724 32.2906C107.564 31.3293 107.002 29.8319 107.002 27.9882V27.1055C107.002 25.0312 107.523 23.5715 108.685 22.6484C109.925 21.6506 111.807 21.2282 114.528 21.2282H115.972C116.69 21.2282 117.532 21.2663 118.212 21.3057V20.2685C118.212 19.2692 118.013 18.6936 117.532 18.3092C116.971 17.8871 116.211 17.7718 114.769 17.7718C113.328 17.7718 111.444 18.0405 109.844 18.5021C109.204 18.6936 108.965 18.4245 108.843 17.8871L108.483 16.0815C108.323 15.4297 108.403 15.1216 109.085 14.9301C110.564 14.4685 113.007 14.0068 115.13 14.0068C117.972 14.0068 119.534 14.3531 120.895 15.2369C122.336 16.1968 122.978 17.5802 122.978 20.3063V32.444C122.978 32.9437 122.696 33.173 122.137 33.173H120.293C119.693 33.173 119.454 32.9818 119.335 32.4821L119.093 31.5603H119.015ZM118.214 24.9536C117.533 24.9158 116.692 24.8777 115.893 24.8777H114.492C113.569 24.8777 112.809 24.993 112.409 25.338C111.97 25.6843 111.809 26.337 111.809 27.2197V27.6813C111.809 28.5256 112.008 29.0647 112.409 29.4097C112.728 29.6784 113.29 29.8699 114.17 29.8699H115.611C117.453 29.8699 118.214 29.0647 118.214 27.297L118.214 24.9536Z" fill="#0D0F11"/>
<path fill-rule="evenodd" clip-rule="evenodd" d="M132.745 15.4299H132.823C133.943 14.5081 135.466 14.007 137.627 14.007C140.11 14.007 141.912 14.584 143.152 15.9674C144.474 17.3876 144.996 19.7691 144.996 23.0343V24.647C144.996 27.9884 144.314 30.2161 142.872 31.5995C141.392 33.0197 139.349 33.5194 136.266 33.5194C133.703 33.5194 131.902 33.2888 130.461 32.4048C128.9 31.407 127.979 30.0236 127.979 26.8356V8.13241C127.979 7.36262 128.22 7.17114 129.099 7.17114H131.621C132.502 7.17114 132.745 7.36262 132.745 8.13241L132.745 15.4299ZM140.151 23.1865C140.151 20.9598 140.072 19.693 139.391 18.7712C138.829 18.0014 137.829 17.7327 136.428 17.7327C135.106 17.7327 134.186 17.9646 133.625 18.4249C133.104 18.8474 132.746 19.461 132.746 20.9979V26.1826C132.746 27.7198 132.904 28.3348 133.304 28.8723C133.866 29.5254 134.706 29.8322 136.307 29.8322C137.789 29.8322 138.751 29.4873 139.311 28.7951C139.911 28.0658 140.151 27.0667 140.151 24.3771L140.151 23.1865Z" fill="#0D0F11"/>
<path fill-rule="evenodd" clip-rule="evenodd" d="M163.384 16.2727C164.866 17.8871 165.425 20.3063 165.425 23.1862V24.34C165.425 27.297 164.866 29.6404 163.384 31.2535C162.062 32.6736 159.98 33.5193 157.016 33.5193C154.054 33.5193 151.972 32.6736 150.65 31.2535C149.168 29.6404 148.609 27.297 148.609 24.34V23.1862C148.609 20.3063 149.168 17.8871 150.65 16.2727C151.972 14.8134 154.013 14.0068 157.016 14.0068C160.02 14.0068 162.062 14.8134 163.384 16.2727ZM159.705 28.8339C160.385 27.9883 160.585 26.4905 160.585 24.1475V23.341C160.585 20.9976 160.385 19.538 159.705 18.6937C159.143 18.0011 158.463 17.6565 157.021 17.6565C155.581 17.6565 154.9 18.0011 154.339 18.6937C153.659 19.538 153.459 20.9976 153.459 23.341V24.1475C153.459 26.4905 153.659 27.9883 154.339 28.8339C154.9 29.487 155.581 29.8701 157.021 29.8701C158.463 29.8701 159.143 29.487 159.705 28.8339Z" fill="#0D0F11"/>
<path d="M185.121 32.3289C185.36 32.751 185.319 33.1731 184.437 33.1731H181.236C180.396 33.1731 180.273 33.0579 179.955 32.4442L177.072 26.26C176.793 25.6845 176.671 25.4535 176.47 25.4535H175.992C175.79 25.4535 175.631 25.7603 175.389 26.26L172.428 32.4442C172.146 33.0578 171.988 33.1731 171.146 33.1731H167.944C167.064 33.1731 167.022 32.751 167.263 32.3289L171.946 23.8785C172.108 23.6098 172.108 23.4183 171.946 23.1495L167.542 15.1989C167.303 14.7767 167.341 14.3533 168.223 14.3533H171.346C172.187 14.3533 172.308 14.4686 172.628 15.0822L175.389 20.8048C175.631 21.2664 175.75 21.5351 175.992 21.5351H176.47C176.712 21.5351 176.871 21.2664 177.113 20.8048L179.915 15.0822C180.235 14.4686 180.355 14.3533 181.194 14.3533H184.319C185.2 14.3533 185.24 14.7767 184.999 15.1989L180.435 23.1495C180.273 23.4183 180.273 23.6098 180.435 23.8785L185.121 32.3289Z" fill="#0D0F11"/>
</svg>
