<svg width="416" height="401" viewBox="0 0 416 401" fill="none" xmlns="http://www.w3.org/2000/svg">
<g filter="url(#filter0_d_202_1508)">
<rect x="23" y="22" width="361" height="346" rx="16.225" fill="white"/>
</g>
<path d="M248.768 73.8499C259.955 82.2261 268.759 93.617 273.971 106.816" stroke="#192E53" stroke-width="2.16333" stroke-linecap="round" stroke-linejoin="round"/>
<path d="M183.953 61.2111C190.123 59.5939 196.598 58.7324 203.274 58.7324C215.664 58.7324 227.36 61.6977 237.694 66.9581" stroke="#192E53" stroke-width="2.16333" stroke-linecap="round" stroke-linejoin="round"/>
<path d="M133.037 105.662C139.181 90.8256 149.891 78.3574 163.414 70.0102" stroke="#192E53" stroke-width="2.16333" stroke-linecap="round" stroke-linejoin="round"/>
<path d="M180.531 71.6183C196.159 79.6962 245.249 116.302 263.485 168.031" stroke="#192E53" stroke-width="2.16333" stroke-linecap="round" stroke-linejoin="round" stroke-dasharray="17.38"/>
<path d="M271.269 125.031C271.269 125.031 266.212 134.944 245.25 147.79" stroke="#192E53" stroke-width="1.44792" stroke-linecap="round" stroke-linejoin="round" stroke-dasharray="17.38"/>
<path d="M138.332 111.459C148.466 107.958 205.886 71.6181 268.792 113.108" stroke="#192E53" stroke-width="2.16333" stroke-linecap="round" stroke-linejoin="round" stroke-dasharray="17.38"/>
<path d="M151.365 163.463C158.133 157.197 179.452 103.959 241.381 73.6572" stroke="#192E53" stroke-width="2.16333" stroke-linecap="round" stroke-linejoin="round" stroke-dasharray="17.38"/>
<path d="M132.921 163.463C129.292 154.594 127.293 144.887 127.293 134.715C127.293 129.78 127.763 124.956 128.661 120.285" stroke="#192E53" stroke-width="2.16333" stroke-linecap="round" stroke-linejoin="round"/>
<circle cx="246.726" cy="65.6443" r="7.6131" fill="url(#paint0_linear_202_1508)"/>
<circle cx="174.14" cy="61.8014" r="11.4076" fill="url(#paint1_linear_202_1508)"/>
<circle cx="144.214" cy="168.944" r="11.4076" fill="url(#paint2_linear_202_1508)"/>
<circle cx="132.132" cy="111.449" r="7.59445" fill="url(#paint3_linear_202_1508)"/>
<circle cx="269.598" cy="172.589" r="7.59445" fill="url(#paint4_linear_202_1508)"/>
<path d="M270.676 172.765C270.676 174.157 269.548 176.199 268.158 176.199C266.766 176.199 265.639 174.157 265.639 172.765C265.639 171.373 266.766 170.246 268.158 170.246C269.548 170.246 270.676 171.373 270.676 172.765Z" fill="white"/>
<path d="M270.148 176.84C269.733 177.755 268.997 178.557 268.158 178.557C267.316 178.557 266.581 177.755 266.167 176.838C264.932 177.053 263.808 177.457 262.871 178.005V179.686C264.293 180.071 266.138 180.765 268.158 180.765C270.18 180.765 272.026 180.07 273.45 179.685V178.01C272.511 177.458 271.385 177.054 270.148 176.84V176.84Z" fill="white"/>
<path d="M133.261 111.651C133.261 113.071 132.108 115.159 130.686 115.159C129.266 115.159 128.113 113.071 128.113 111.651C128.113 110.229 129.266 109.077 130.686 109.077C132.108 109.077 133.261 110.229 133.261 111.651Z" fill="white"/>
<path d="M132.726 115.814C132.301 116.75 131.55 117.569 130.69 117.569C129.831 117.569 129.08 116.75 128.655 115.814C127.394 116.031 126.246 116.444 125.289 117.006V118.724C126.741 119.117 128.626 119.825 130.69 119.825C132.757 119.825 134.644 119.115 136.099 118.721V117.01C135.139 116.445 133.988 116.033 132.726 115.814L132.726 115.814Z" fill="white"/>
<path d="M149.904 177.779C148.457 176.373 146.689 175.381 144.79 174.908C144.742 174.881 144.687 174.867 144.632 174.867H144.46C144.405 174.867 144.351 174.88 144.303 174.906C144.305 174.909 144.796 176.061 145.1 176.174C145.1 176.174 142.718 178.391 142.145 181.339H144.875C145.058 181.339 150.004 179.377 150.004 179.195V178.016C150.004 177.926 149.968 177.841 149.904 177.779Z" fill="white"/>
<path d="M139.189 176.175C139.495 176.061 139.986 174.906 139.986 174.906C139.938 174.88 139.884 174.867 139.829 174.867H139.705C139.678 174.867 139.654 174.87 139.629 174.875C137.679 175.338 135.865 176.341 134.385 177.779C134.321 177.841 134.285 177.927 134.285 178.016V179.195C134.285 179.377 139.765 181.668 139.948 181.668L142.146 181.339C141.572 178.391 139.189 176.175 139.189 176.175H139.189Z" fill="white"/>
<path d="M139.187 166.375C138.814 166.97 138.599 167.683 138.599 168.448C138.599 168.874 138.665 169.281 138.788 169.663C138.577 169.763 138.428 169.989 138.428 170.251C138.428 170.606 138.7 170.896 139.036 170.896L139.046 170.894C139.117 171.848 139.57 172.802 140.244 173.455V174.178C140.244 174.178 141.134 175.928 142.143 175.949C143.151 175.969 144.043 174.178 144.043 174.178V173.454C144.715 172.802 145.168 171.848 145.239 170.894L145.249 170.896C145.585 170.896 145.857 170.606 145.857 170.251C145.857 169.989 145.709 169.763 145.497 169.663C145.62 169.281 145.688 168.874 145.688 168.448C145.688 168.059 145.631 167.684 145.528 167.331C145.664 167.606 145.751 167.86 145.831 168.032C145.88 168.137 146.066 168.032 146.066 168.032C146.425 166.471 145.117 165.499 145.117 165.499C146.096 165.557 146.441 166.004 146.441 166.004C145.607 164.564 144.5 164.946 144.493 164.949C142.98 162.786 139.621 164.261 139.621 164.261C140.539 164.087 141.216 164.119 141.852 164.187C138.756 164.037 138.07 167.216 138.07 167.216C138.189 166.84 138.628 166.571 139.187 166.375H139.187Z" fill="white"/>
<path d="M179.916 69.7011C177.482 68.7601 174.779 68.8093 174.552 68.0811V66.9863C176.984 66.9791 177.948 66.1943 177.948 66.1943C176.933 65.6181 176.612 61.5914 176.612 61.5914C176.612 60.3577 176.094 59.2559 175.278 58.5015C174.97 58.144 174.547 57.8746 174.003 57.7139C173.595 57.5633 173.157 57.4764 172.7 57.4764C172.215 57.4764 171.751 57.5734 171.321 57.7443C170.881 57.8891 170.521 58.1091 170.24 58.3944C169.355 59.1473 168.787 60.2999 168.787 61.5914C168.787 61.5914 168.466 65.6181 167.451 66.1943C167.451 66.1943 168.417 66.979 170.848 66.9863V68.0811C170.62 68.8078 167.917 68.7601 165.483 69.7011C165.275 69.7808 165.139 69.9836 165.139 70.2095V72.1192C165.139 72.419 170.991 75.2351 171.288 75.2351L175.727 74.9065C176.023 74.9065 180.262 72.419 180.262 72.1192V70.2095C180.262 69.9836 180.125 69.7808 179.916 69.7011Z" fill="white"/>
<circle cx="172.698" cy="63.2901" r="11.4558" stroke="#192E53" stroke-width="1.44792" stroke-linecap="round" stroke-linejoin="round"/>
<circle cx="142.151" cy="170.211" r="11.4558" stroke="#192E53" stroke-width="1.44792" stroke-linecap="round" stroke-linejoin="round"/>
<circle cx="268.163" cy="174.03" r="7.63721" stroke="#192E53" stroke-width="1.44792" stroke-linecap="round" stroke-linejoin="round"/>
<path opacity="0.12" d="M208.169 178.887H205.809H203.45L200.072 182.228L203.785 187.651L200.884 222.638L205.809 228.207L210.735 222.638L207.834 187.651L211.547 182.228L208.169 178.887Z" fill="#192E53"/>
<path opacity="0.3" d="M224.045 200.987L219.107 196.572L216.039 202.708H229.957L228.219 198.933L224.045 200.987Z" fill="white"/>
<path fill-rule="evenodd" clip-rule="evenodd" d="M248.721 218.799C246.951 201.538 243.699 190.72 238.49 184.75C233.755 179.323 228.028 178.66 222.492 178.02C220.575 177.798 218.597 177.568 216.678 177.141L215.116 173.905C219.478 171.238 222.603 166.689 223.281 161.373C225.175 160.984 226.603 159.304 226.603 157.297C226.603 155.962 225.961 154.724 224.911 153.948C225.445 152.147 225.716 150.284 225.716 148.401C225.716 141.495 222.111 135.419 216.688 131.944C216.619 131.882 216.539 131.834 216.454 131.795C213.466 129.939 209.947 128.865 206.179 128.865C195.407 128.865 186.642 137.629 186.642 148.401C186.642 149.088 186.679 149.771 186.751 150.45C186.69 150.567 186.653 150.696 186.644 150.837C186.628 151.112 186.729 151.368 186.902 151.556C187.033 152.363 187.214 153.162 187.447 153.948C186.398 154.724 185.755 155.961 185.755 157.297C185.755 159.304 187.183 160.984 189.078 161.373C189.731 166.502 192.666 170.915 196.79 173.614L195.087 177.141C193.17 177.568 191.192 177.798 189.273 178.02C183.736 178.66 178.012 179.323 173.275 184.75C168.066 190.72 164.815 201.538 163.044 218.799C162.989 219.339 163.382 219.821 163.922 219.876C163.955 219.879 163.99 219.88 164.023 219.88C164.52 219.88 164.947 219.504 164.999 218.999C166.7 202.393 169.891 191.611 174.755 186.04C178.99 181.186 184.096 180.596 189.499 179.97C191.636 179.723 193.847 179.468 196.031 178.938C196.407 178.847 196.679 178.55 196.759 178.195L198.495 174.598C200.82 175.768 203.434 176.428 206.179 176.428C208.738 176.428 211.179 175.854 213.381 174.83L215.007 178.195C215.085 178.55 215.358 178.847 215.734 178.938C217.919 179.468 220.128 179.723 222.266 179.97C227.671 180.596 232.775 181.186 237.011 186.04C241.873 191.611 245.064 202.393 246.767 218.999C246.819 219.504 247.245 219.88 247.742 219.88C247.775 219.88 247.81 219.879 247.843 219.876C248.383 219.821 248.776 219.339 248.72 218.799L248.721 218.799ZM206.179 130.828C209.43 130.828 212.473 131.719 215.088 133.263C215.283 137.299 214.093 140.664 211.536 143.269C205.22 149.7 192.341 149.997 188.675 149.943C188.63 149.431 188.605 148.917 188.605 148.401C188.605 138.711 196.489 130.828 206.179 130.828ZM190.951 160.397C190.91 159.886 190.485 159.492 189.972 159.492C189.946 159.492 189.92 159.492 189.893 159.494C188.692 159.482 187.719 158.5 187.719 157.297C187.719 156.433 188.23 155.645 189.022 155.29C189.484 155.083 189.714 154.558 189.549 154.077C189.307 153.366 189.112 152.643 188.963 151.912C189.113 151.915 189.271 151.915 189.443 151.915C191.184 151.915 193.978 151.824 197.151 151.368C204.243 150.35 209.553 148.088 212.934 144.647C215.578 141.956 216.961 138.59 217.067 134.623C221.135 137.843 223.753 142.821 223.753 148.401C223.753 148.909 223.729 149.415 223.685 149.919C220.717 145.772 217.127 143.846 216.952 143.755C216.472 143.503 215.879 143.685 215.626 144.166C215.374 144.645 215.558 145.239 216.037 145.492C216.082 145.515 220.377 147.817 223.194 152.79C223.081 153.223 222.956 153.653 222.811 154.079C222.647 154.558 222.876 155.083 223.338 155.29C224.129 155.645 224.641 156.433 224.641 157.297C224.641 158.502 223.666 159.482 222.465 159.494C222.438 159.492 222.405 159.492 222.388 159.492C221.875 159.492 221.45 159.886 221.409 160.397C220.996 165.654 217.885 170.149 213.514 172.565C213.474 172.578 213.437 172.589 213.399 172.606C213.329 172.641 213.266 172.683 213.208 172.73C211.094 173.838 208.699 174.465 206.18 174.465C198.26 174.465 191.57 168.286 190.951 160.397V160.397Z" fill="#192E53"/>
<path d="M247.862 65.8651C247.862 67.2854 246.71 69.3748 245.289 69.3748C243.868 69.3748 242.715 67.2854 242.715 65.8651C242.715 64.4432 243.868 63.2906 245.289 63.2906C246.71 63.2906 247.862 64.4432 247.862 65.8651Z" fill="white"/>
<path d="M247.321 70.0276C246.897 70.963 246.146 71.7824 245.287 71.7824C244.427 71.7824 243.675 70.963 243.253 70.0276C241.992 70.2447 240.843 70.6574 239.885 71.2193V72.9378C241.338 73.3304 243.222 74.0382 245.287 74.0382C247.353 74.0382 249.241 73.3288 250.695 72.935V71.2235C249.735 70.6588 248.585 70.2463 247.321 70.0276Z" fill="white"/>
<circle cx="245.25" cy="67.1086" r="7.63721" stroke="#192E53" stroke-width="1.48643" stroke-linecap="round" stroke-linejoin="round"/>
<circle cx="130.694" cy="112.932" r="7.63721" stroke="#192E53" stroke-width="1.44792" stroke-linecap="round" stroke-linejoin="round"/>
<rect x="261.924" y="213.378" width="9.99034" height="1.81891" fill="#192E53"/>
<path opacity="0.6" d="M59.2891 308.685V310.065H52.8906V308.685H59.2891ZM53.2246 297.268V310.065H51.5283V297.268H53.2246ZM60.5547 305.415V305.213C60.5547 304.527 60.6543 303.892 60.8535 303.306C61.0527 302.714 61.3398 302.201 61.7148 301.768C62.0898 301.328 62.5439 300.988 63.0771 300.748C63.6104 300.502 64.208 300.379 64.8701 300.379C65.5381 300.379 66.1387 300.502 66.6719 300.748C67.2109 300.988 67.668 301.328 68.043 301.768C68.4238 302.201 68.7139 302.714 68.9131 303.306C69.1123 303.892 69.2119 304.527 69.2119 305.213V305.415C69.2119 306.101 69.1123 306.736 68.9131 307.322C68.7139 307.908 68.4238 308.421 68.043 308.86C67.668 309.294 67.2139 309.634 66.6807 309.88C66.1533 310.12 65.5557 310.24 64.8877 310.24C64.2197 310.24 63.6191 310.12 63.0859 309.88C62.5527 309.634 62.0957 309.294 61.7148 308.86C61.3398 308.421 61.0527 307.908 60.8535 307.322C60.6543 306.736 60.5547 306.101 60.5547 305.415ZM62.1807 305.213V305.415C62.1807 305.89 62.2363 306.338 62.3477 306.76C62.459 307.176 62.626 307.545 62.8486 307.867C63.0771 308.19 63.3613 308.444 63.7012 308.632C64.041 308.814 64.4365 308.904 64.8877 308.904C65.333 308.904 65.7227 308.814 66.0566 308.632C66.3965 308.444 66.6777 308.19 66.9004 307.867C67.123 307.545 67.29 307.176 67.4014 306.76C67.5186 306.338 67.5771 305.89 67.5771 305.415V305.213C67.5771 304.744 67.5186 304.302 67.4014 303.886C67.29 303.464 67.1201 303.092 66.8916 302.77C66.6689 302.442 66.3877 302.184 66.0479 301.996C65.7139 301.809 65.3213 301.715 64.8701 301.715C64.4248 301.715 64.0322 301.809 63.6924 301.996C63.3584 302.184 63.0771 302.442 62.8486 302.77C62.626 303.092 62.459 303.464 62.3477 303.886C62.2363 304.302 62.1807 304.744 62.1807 305.213ZM72.877 302.049V310.065H71.251V300.555H72.833L72.877 302.049ZM75.8477 300.502L75.8389 302.014C75.7041 301.984 75.5752 301.967 75.4521 301.961C75.335 301.949 75.2002 301.943 75.0479 301.943C74.6729 301.943 74.3418 302.002 74.0547 302.119C73.7676 302.236 73.5244 302.401 73.3252 302.611C73.126 302.822 72.9678 303.074 72.8506 303.367C72.7393 303.654 72.666 303.971 72.6309 304.317L72.1738 304.58C72.1738 304.006 72.2295 303.467 72.3408 302.963C72.458 302.459 72.6367 302.014 72.877 301.627C73.1172 301.234 73.4219 300.93 73.791 300.713C74.166 300.49 74.6113 300.379 75.127 300.379C75.2441 300.379 75.3789 300.394 75.5312 300.423C75.6836 300.446 75.7891 300.473 75.8477 300.502ZM81.1211 310.24C80.459 310.24 79.8584 310.129 79.3193 309.906C78.7861 309.678 78.3262 309.359 77.9395 308.948C77.5586 308.538 77.2656 308.052 77.0605 307.489C76.8555 306.927 76.7529 306.312 76.7529 305.644V305.275C76.7529 304.501 76.8672 303.813 77.0957 303.209C77.3242 302.6 77.6348 302.084 78.0273 301.662C78.4199 301.24 78.8652 300.921 79.3633 300.704C79.8613 300.487 80.377 300.379 80.9102 300.379C81.5898 300.379 82.1758 300.496 82.668 300.731C83.166 300.965 83.5732 301.293 83.8896 301.715C84.2061 302.131 84.4404 302.623 84.5928 303.192C84.7451 303.754 84.8213 304.369 84.8213 305.037V305.767H77.7197V304.44H83.1953V304.317C83.1719 303.895 83.084 303.484 82.9316 303.086C82.7852 302.688 82.5508 302.359 82.2285 302.102C81.9062 301.844 81.4668 301.715 80.9102 301.715C80.541 301.715 80.2012 301.794 79.8906 301.952C79.5801 302.105 79.3135 302.333 79.0908 302.638C78.8682 302.943 78.6953 303.315 78.5723 303.754C78.4492 304.193 78.3877 304.7 78.3877 305.275V305.644C78.3877 306.095 78.4492 306.52 78.5723 306.918C78.7012 307.311 78.8857 307.656 79.126 307.955C79.3721 308.254 79.668 308.488 80.0137 308.658C80.3652 308.828 80.7637 308.913 81.209 308.913C81.7832 308.913 82.2695 308.796 82.668 308.562C83.0664 308.327 83.415 308.014 83.7139 307.621L84.6982 308.403C84.4932 308.714 84.2324 309.01 83.916 309.291C83.5996 309.572 83.21 309.801 82.7471 309.977C82.29 310.152 81.748 310.24 81.1211 310.24ZM88.3369 302.444V310.065H86.7021V300.555H88.249L88.3369 302.444ZM88.0029 304.949L87.2471 304.923C87.2529 304.273 87.3379 303.672 87.502 303.121C87.666 302.565 87.9092 302.081 88.2314 301.671C88.5537 301.261 88.9551 300.944 89.4355 300.722C89.916 300.493 90.4727 300.379 91.1055 300.379C91.5508 300.379 91.9609 300.443 92.3359 300.572C92.7109 300.695 93.0361 300.892 93.3115 301.161C93.5869 301.431 93.8008 301.776 93.9531 302.198C94.1055 302.62 94.1816 303.13 94.1816 303.728V310.065H92.5557V303.807C92.5557 303.309 92.4707 302.91 92.3008 302.611C92.1367 302.313 91.9023 302.096 91.5977 301.961C91.293 301.82 90.9355 301.75 90.5254 301.75C90.0449 301.75 89.6436 301.835 89.3213 302.005C88.999 302.175 88.7412 302.409 88.5479 302.708C88.3545 303.007 88.2139 303.35 88.126 303.736C88.0439 304.117 88.0029 304.522 88.0029 304.949ZM94.1641 304.053L93.0742 304.387C93.0801 303.865 93.165 303.364 93.3291 302.884C93.499 302.403 93.7422 301.976 94.0586 301.601C94.3809 301.226 94.7764 300.93 95.2451 300.713C95.7139 300.49 96.25 300.379 96.8535 300.379C97.3633 300.379 97.8145 300.446 98.207 300.581C98.6055 300.716 98.9395 300.924 99.209 301.205C99.4844 301.481 99.6924 301.835 99.833 302.269C99.9736 302.702 100.044 303.218 100.044 303.816V310.065H98.4092V303.798C98.4092 303.265 98.3242 302.852 98.1543 302.559C97.9902 302.26 97.7559 302.052 97.4512 301.935C97.1523 301.812 96.7949 301.75 96.3789 301.75C96.0215 301.75 95.7051 301.812 95.4297 301.935C95.1543 302.058 94.9229 302.228 94.7354 302.444C94.5479 302.655 94.4043 302.899 94.3047 303.174C94.2109 303.449 94.1641 303.742 94.1641 304.053ZM108.736 300.555V310.065H107.102V300.555H108.736ZM106.979 298.032C106.979 297.769 107.058 297.546 107.216 297.364C107.38 297.183 107.62 297.092 107.937 297.092C108.247 297.092 108.484 297.183 108.648 297.364C108.818 297.546 108.903 297.769 108.903 298.032C108.903 298.284 108.818 298.501 108.648 298.683C108.484 298.859 108.247 298.946 107.937 298.946C107.62 298.946 107.38 298.859 107.216 298.683C107.058 298.501 106.979 298.284 106.979 298.032ZM112.973 302.383V313.721H111.338V300.555H112.832L112.973 302.383ZM119.38 305.231V305.415C119.38 306.107 119.298 306.748 119.134 307.34C118.97 307.926 118.729 308.436 118.413 308.869C118.103 309.303 117.719 309.64 117.262 309.88C116.805 310.12 116.28 310.24 115.688 310.24C115.085 310.24 114.552 310.141 114.089 309.942C113.626 309.742 113.233 309.452 112.911 309.071C112.589 308.691 112.331 308.234 112.138 307.7C111.95 307.167 111.821 306.567 111.751 305.899V304.914C111.821 304.211 111.953 303.581 112.146 303.025C112.34 302.468 112.595 301.993 112.911 301.601C113.233 301.202 113.623 300.901 114.08 300.695C114.537 300.484 115.064 300.379 115.662 300.379C116.26 300.379 116.79 300.496 117.253 300.731C117.716 300.959 118.105 301.287 118.422 301.715C118.738 302.143 118.976 302.655 119.134 303.253C119.298 303.845 119.38 304.504 119.38 305.231ZM117.745 305.415V305.231C117.745 304.756 117.695 304.311 117.596 303.895C117.496 303.473 117.341 303.104 117.13 302.787C116.925 302.465 116.661 302.213 116.339 302.031C116.017 301.844 115.633 301.75 115.188 301.75C114.777 301.75 114.42 301.82 114.115 301.961C113.816 302.102 113.562 302.292 113.351 302.532C113.14 302.767 112.967 303.036 112.832 303.341C112.703 303.64 112.606 303.95 112.542 304.273V306.549C112.659 306.959 112.823 307.346 113.034 307.709C113.245 308.067 113.526 308.357 113.878 308.579C114.229 308.796 114.672 308.904 115.205 308.904C115.645 308.904 116.022 308.814 116.339 308.632C116.661 308.444 116.925 308.19 117.13 307.867C117.341 307.545 117.496 307.176 117.596 306.76C117.695 306.338 117.745 305.89 117.745 305.415ZM126.991 307.542C126.991 307.308 126.938 307.091 126.833 306.892C126.733 306.687 126.525 306.502 126.209 306.338C125.898 306.168 125.43 306.022 124.803 305.899C124.275 305.787 123.798 305.655 123.37 305.503C122.948 305.351 122.588 305.166 122.289 304.949C121.996 304.733 121.771 304.478 121.612 304.185C121.454 303.892 121.375 303.549 121.375 303.156C121.375 302.781 121.457 302.427 121.621 302.093C121.791 301.759 122.028 301.463 122.333 301.205C122.644 300.947 123.016 300.745 123.449 300.599C123.883 300.452 124.366 300.379 124.899 300.379C125.661 300.379 126.312 300.514 126.851 300.783C127.39 301.053 127.803 301.413 128.09 301.864C128.377 302.31 128.521 302.805 128.521 303.35H126.895C126.895 303.086 126.815 302.831 126.657 302.585C126.505 302.333 126.279 302.125 125.98 301.961C125.688 301.797 125.327 301.715 124.899 301.715C124.448 301.715 124.082 301.785 123.801 301.926C123.525 302.061 123.323 302.234 123.194 302.444C123.071 302.655 123.01 302.878 123.01 303.112C123.01 303.288 123.039 303.446 123.098 303.587C123.162 303.722 123.273 303.848 123.432 303.965C123.59 304.076 123.812 304.182 124.1 304.281C124.387 304.381 124.753 304.481 125.198 304.58C125.978 304.756 126.619 304.967 127.123 305.213C127.627 305.459 128.002 305.761 128.248 306.118C128.494 306.476 128.617 306.909 128.617 307.419C128.617 307.835 128.529 308.216 128.354 308.562C128.184 308.907 127.935 309.206 127.606 309.458C127.284 309.704 126.897 309.898 126.446 310.038C126.001 310.173 125.5 310.24 124.943 310.24C124.105 310.24 123.396 310.091 122.816 309.792C122.236 309.493 121.797 309.107 121.498 308.632C121.199 308.157 121.05 307.656 121.05 307.129H122.685C122.708 307.574 122.837 307.929 123.071 308.193C123.306 308.45 123.593 308.635 123.933 308.746C124.272 308.852 124.609 308.904 124.943 308.904C125.389 308.904 125.761 308.846 126.06 308.729C126.364 308.611 126.596 308.45 126.754 308.245C126.912 308.04 126.991 307.806 126.991 307.542ZM136.571 307.867V300.555H138.206V310.065H136.65L136.571 307.867ZM136.879 305.863L137.556 305.846C137.556 306.479 137.488 307.065 137.354 307.604C137.225 308.137 137.014 308.6 136.721 308.992C136.428 309.385 136.044 309.693 135.569 309.915C135.095 310.132 134.518 310.24 133.838 310.24C133.375 310.24 132.95 310.173 132.563 310.038C132.183 309.903 131.854 309.695 131.579 309.414C131.304 309.133 131.09 308.767 130.938 308.316C130.791 307.864 130.718 307.322 130.718 306.69V300.555H132.344V306.707C132.344 307.135 132.391 307.489 132.484 307.771C132.584 308.046 132.716 308.266 132.88 308.43C133.05 308.588 133.237 308.699 133.442 308.764C133.653 308.828 133.87 308.86 134.093 308.86C134.784 308.86 135.332 308.729 135.736 308.465C136.141 308.195 136.431 307.835 136.606 307.384C136.788 306.927 136.879 306.42 136.879 305.863ZM142.302 302.444V310.065H140.667V300.555H142.214L142.302 302.444ZM141.968 304.949L141.212 304.923C141.218 304.273 141.303 303.672 141.467 303.121C141.631 302.565 141.874 302.081 142.196 301.671C142.519 301.261 142.92 300.944 143.4 300.722C143.881 300.493 144.438 300.379 145.07 300.379C145.516 300.379 145.926 300.443 146.301 300.572C146.676 300.695 147.001 300.892 147.276 301.161C147.552 301.431 147.766 301.776 147.918 302.198C148.07 302.62 148.146 303.13 148.146 303.728V310.065H146.521V303.807C146.521 303.309 146.436 302.91 146.266 302.611C146.102 302.313 145.867 302.096 145.562 301.961C145.258 301.82 144.9 301.75 144.49 301.75C144.01 301.75 143.608 301.835 143.286 302.005C142.964 302.175 142.706 302.409 142.513 302.708C142.319 303.007 142.179 303.35 142.091 303.736C142.009 304.117 141.968 304.522 141.968 304.949ZM148.129 304.053L147.039 304.387C147.045 303.865 147.13 303.364 147.294 302.884C147.464 302.403 147.707 301.976 148.023 301.601C148.346 301.226 148.741 300.93 149.21 300.713C149.679 300.49 150.215 300.379 150.818 300.379C151.328 300.379 151.779 300.446 152.172 300.581C152.57 300.716 152.904 300.924 153.174 301.205C153.449 301.481 153.657 301.835 153.798 302.269C153.938 302.702 154.009 303.218 154.009 303.816V310.065H152.374V303.798C152.374 303.265 152.289 302.852 152.119 302.559C151.955 302.26 151.721 302.052 151.416 301.935C151.117 301.812 150.76 301.75 150.344 301.75C149.986 301.75 149.67 301.812 149.395 301.935C149.119 302.058 148.888 302.228 148.7 302.444C148.513 302.655 148.369 302.899 148.27 303.174C148.176 303.449 148.129 303.742 148.129 304.053ZM166.929 308.219V296.565H168.563V310.065H167.069L166.929 308.219ZM160.53 305.415V305.231C160.53 304.504 160.618 303.845 160.794 303.253C160.976 302.655 161.23 302.143 161.559 301.715C161.893 301.287 162.288 300.959 162.745 300.731C163.208 300.496 163.724 300.379 164.292 300.379C164.89 300.379 165.411 300.484 165.856 300.695C166.308 300.901 166.688 301.202 166.999 301.601C167.315 301.993 167.564 302.468 167.746 303.025C167.928 303.581 168.054 304.211 168.124 304.914V305.723C168.06 306.42 167.934 307.047 167.746 307.604C167.564 308.16 167.315 308.635 166.999 309.027C166.688 309.42 166.308 309.722 165.856 309.933C165.405 310.138 164.878 310.24 164.274 310.24C163.718 310.24 163.208 310.12 162.745 309.88C162.288 309.64 161.893 309.303 161.559 308.869C161.23 308.436 160.976 307.926 160.794 307.34C160.618 306.748 160.53 306.107 160.53 305.415ZM162.165 305.231V305.415C162.165 305.89 162.212 306.335 162.306 306.751C162.405 307.167 162.558 307.533 162.763 307.85C162.968 308.166 163.229 308.415 163.545 308.597C163.861 308.773 164.239 308.86 164.679 308.86C165.218 308.86 165.66 308.746 166.006 308.518C166.357 308.289 166.639 307.987 166.85 307.612C167.061 307.237 167.225 306.83 167.342 306.391V304.273C167.271 303.95 167.169 303.64 167.034 303.341C166.905 303.036 166.735 302.767 166.524 302.532C166.319 302.292 166.064 302.102 165.76 301.961C165.461 301.82 165.106 301.75 164.696 301.75C164.251 301.75 163.867 301.844 163.545 302.031C163.229 302.213 162.968 302.465 162.763 302.787C162.558 303.104 162.405 303.473 162.306 303.895C162.212 304.311 162.165 304.756 162.165 305.231ZM170.664 305.415V305.213C170.664 304.527 170.764 303.892 170.963 303.306C171.162 302.714 171.449 302.201 171.824 301.768C172.199 301.328 172.653 300.988 173.187 300.748C173.72 300.502 174.317 300.379 174.979 300.379C175.647 300.379 176.248 300.502 176.781 300.748C177.32 300.988 177.777 301.328 178.152 301.768C178.533 302.201 178.823 302.714 179.022 303.306C179.222 303.892 179.321 304.527 179.321 305.213V305.415C179.321 306.101 179.222 306.736 179.022 307.322C178.823 307.908 178.533 308.421 178.152 308.86C177.777 309.294 177.323 309.634 176.79 309.88C176.263 310.12 175.665 310.24 174.997 310.24C174.329 310.24 173.729 310.12 173.195 309.88C172.662 309.634 172.205 309.294 171.824 308.86C171.449 308.421 171.162 307.908 170.963 307.322C170.764 306.736 170.664 306.101 170.664 305.415ZM172.29 305.213V305.415C172.29 305.89 172.346 306.338 172.457 306.76C172.568 307.176 172.735 307.545 172.958 307.867C173.187 308.19 173.471 308.444 173.811 308.632C174.15 308.814 174.546 308.904 174.997 308.904C175.442 308.904 175.832 308.814 176.166 308.632C176.506 308.444 176.787 308.19 177.01 307.867C177.232 307.545 177.399 307.176 177.511 306.76C177.628 306.338 177.687 305.89 177.687 305.415V305.213C177.687 304.744 177.628 304.302 177.511 303.886C177.399 303.464 177.229 303.092 177.001 302.77C176.778 302.442 176.497 302.184 176.157 301.996C175.823 301.809 175.431 301.715 174.979 301.715C174.534 301.715 174.142 301.809 173.802 301.996C173.468 302.184 173.187 302.442 172.958 302.77C172.735 303.092 172.568 303.464 172.457 303.886C172.346 304.302 172.29 304.744 172.29 305.213ZM183.127 296.565V310.065H181.492V296.565H183.127ZM185.307 305.415V305.213C185.307 304.527 185.406 303.892 185.605 303.306C185.805 302.714 186.092 302.201 186.467 301.768C186.842 301.328 187.296 300.988 187.829 300.748C188.362 300.502 188.96 300.379 189.622 300.379C190.29 300.379 190.891 300.502 191.424 300.748C191.963 300.988 192.42 301.328 192.795 301.768C193.176 302.201 193.466 302.714 193.665 303.306C193.864 303.892 193.964 304.527 193.964 305.213V305.415C193.964 306.101 193.864 306.736 193.665 307.322C193.466 307.908 193.176 308.421 192.795 308.86C192.42 309.294 191.966 309.634 191.433 309.88C190.905 310.12 190.308 310.24 189.64 310.24C188.972 310.24 188.371 310.12 187.838 309.88C187.305 309.634 186.848 309.294 186.467 308.86C186.092 308.421 185.805 307.908 185.605 307.322C185.406 306.736 185.307 306.101 185.307 305.415ZM186.933 305.213V305.415C186.933 305.89 186.988 306.338 187.1 306.76C187.211 307.176 187.378 307.545 187.601 307.867C187.829 308.19 188.113 308.444 188.453 308.632C188.793 308.814 189.188 308.904 189.64 308.904C190.085 308.904 190.475 308.814 190.809 308.632C191.148 308.444 191.43 308.19 191.652 307.867C191.875 307.545 192.042 307.176 192.153 306.76C192.271 306.338 192.329 305.89 192.329 305.415V305.213C192.329 304.744 192.271 304.302 192.153 303.886C192.042 303.464 191.872 303.092 191.644 302.77C191.421 302.442 191.14 302.184 190.8 301.996C190.466 301.809 190.073 301.715 189.622 301.715C189.177 301.715 188.784 301.809 188.444 301.996C188.11 302.184 187.829 302.442 187.601 302.77C187.378 303.092 187.211 303.464 187.1 303.886C186.988 304.302 186.933 304.744 186.933 305.213ZM197.629 302.049V310.065H196.003V300.555H197.585L197.629 302.049ZM200.6 300.502L200.591 302.014C200.456 301.984 200.327 301.967 200.204 301.961C200.087 301.949 199.952 301.943 199.8 301.943C199.425 301.943 199.094 302.002 198.807 302.119C198.52 302.236 198.276 302.401 198.077 302.611C197.878 302.822 197.72 303.074 197.603 303.367C197.491 303.654 197.418 303.971 197.383 304.317L196.926 304.58C196.926 304.006 196.981 303.467 197.093 302.963C197.21 302.459 197.389 302.014 197.629 301.627C197.869 301.234 198.174 300.93 198.543 300.713C198.918 300.49 199.363 300.379 199.879 300.379C199.996 300.379 200.131 300.394 200.283 300.423C200.436 300.446 200.541 300.473 200.6 300.502ZM212.104 307.542C212.104 307.308 212.052 307.091 211.946 306.892C211.847 306.687 211.639 306.502 211.322 306.338C211.012 306.168 210.543 306.022 209.916 305.899C209.389 305.787 208.911 305.655 208.483 305.503C208.062 305.351 207.701 305.166 207.402 304.949C207.109 304.733 206.884 304.478 206.726 304.185C206.567 303.892 206.488 303.549 206.488 303.156C206.488 302.781 206.57 302.427 206.734 302.093C206.904 301.759 207.142 301.463 207.446 301.205C207.757 300.947 208.129 300.745 208.562 300.599C208.996 300.452 209.479 300.379 210.013 300.379C210.774 300.379 211.425 300.514 211.964 300.783C212.503 301.053 212.916 301.413 213.203 301.864C213.49 302.31 213.634 302.805 213.634 303.35H212.008C212.008 303.086 211.929 302.831 211.771 302.585C211.618 302.333 211.393 302.125 211.094 301.961C210.801 301.797 210.44 301.715 210.013 301.715C209.562 301.715 209.195 301.785 208.914 301.926C208.639 302.061 208.437 302.234 208.308 302.444C208.185 302.655 208.123 302.878 208.123 303.112C208.123 303.288 208.152 303.446 208.211 303.587C208.275 303.722 208.387 303.848 208.545 303.965C208.703 304.076 208.926 304.182 209.213 304.281C209.5 304.381 209.866 304.481 210.312 304.58C211.091 304.756 211.732 304.967 212.236 305.213C212.74 305.459 213.115 305.761 213.361 306.118C213.607 306.476 213.73 306.909 213.73 307.419C213.73 307.835 213.643 308.216 213.467 308.562C213.297 308.907 213.048 309.206 212.72 309.458C212.397 309.704 212.011 309.898 211.56 310.038C211.114 310.173 210.613 310.24 210.057 310.24C209.219 310.24 208.51 310.091 207.93 309.792C207.35 309.493 206.91 309.107 206.611 308.632C206.312 308.157 206.163 307.656 206.163 307.129H207.798C207.821 307.574 207.95 307.929 208.185 308.193C208.419 308.45 208.706 308.635 209.046 308.746C209.386 308.852 209.723 308.904 210.057 308.904C210.502 308.904 210.874 308.846 211.173 308.729C211.478 308.611 211.709 308.45 211.867 308.245C212.025 308.04 212.104 307.806 212.104 307.542ZM217.633 300.555V310.065H215.998V300.555H217.633ZM215.875 298.032C215.875 297.769 215.954 297.546 216.112 297.364C216.276 297.183 216.517 297.092 216.833 297.092C217.144 297.092 217.381 297.183 217.545 297.364C217.715 297.546 217.8 297.769 217.8 298.032C217.8 298.284 217.715 298.501 217.545 298.683C217.381 298.859 217.144 298.946 216.833 298.946C216.517 298.946 216.276 298.859 216.112 298.683C215.954 298.501 215.875 298.284 215.875 298.032ZM224.225 300.555V301.803H219.083V300.555H224.225ZM220.823 298.243H222.449V307.709C222.449 308.031 222.499 308.275 222.599 308.439C222.698 308.603 222.827 308.711 222.985 308.764C223.144 308.817 223.313 308.843 223.495 308.843C223.63 308.843 223.771 308.831 223.917 308.808C224.069 308.778 224.184 308.755 224.26 308.737L224.269 310.065C224.14 310.106 223.97 310.144 223.759 310.179C223.554 310.22 223.305 310.24 223.012 310.24C222.613 310.24 222.247 310.161 221.913 310.003C221.579 309.845 221.312 309.581 221.113 309.212C220.92 308.837 220.823 308.333 220.823 307.7V298.243ZM236.204 308.439V303.543C236.204 303.168 236.128 302.843 235.976 302.568C235.829 302.286 235.606 302.069 235.308 301.917C235.009 301.765 234.64 301.689 234.2 301.689C233.79 301.689 233.43 301.759 233.119 301.9C232.814 302.04 232.574 302.225 232.398 302.453C232.229 302.682 232.144 302.928 232.144 303.192H230.518C230.518 302.852 230.605 302.515 230.781 302.181C230.957 301.847 231.209 301.545 231.537 301.276C231.871 301 232.27 300.783 232.732 300.625C233.201 300.461 233.723 300.379 234.297 300.379C234.988 300.379 235.598 300.496 236.125 300.731C236.658 300.965 237.074 301.319 237.373 301.794C237.678 302.263 237.83 302.852 237.83 303.561V307.99C237.83 308.307 237.856 308.644 237.909 309.001C237.968 309.359 238.053 309.666 238.164 309.924V310.065H236.468C236.386 309.877 236.321 309.628 236.274 309.318C236.228 309.001 236.204 308.708 236.204 308.439ZM236.485 304.299L236.503 305.442H234.859C234.396 305.442 233.983 305.48 233.62 305.556C233.257 305.626 232.952 305.734 232.706 305.881C232.46 306.027 232.272 306.212 232.144 306.435C232.015 306.651 231.95 306.906 231.95 307.199C231.95 307.498 232.018 307.771 232.152 308.017C232.287 308.263 232.489 308.459 232.759 308.606C233.034 308.746 233.371 308.817 233.77 308.817C234.268 308.817 234.707 308.711 235.088 308.5C235.469 308.289 235.771 308.031 235.993 307.727C236.222 307.422 236.345 307.126 236.362 306.839L237.057 307.621C237.016 307.867 236.904 308.14 236.723 308.439C236.541 308.737 236.298 309.025 235.993 309.3C235.694 309.569 235.337 309.795 234.921 309.977C234.511 310.152 234.048 310.24 233.532 310.24C232.888 310.24 232.322 310.114 231.836 309.862C231.355 309.61 230.98 309.274 230.711 308.852C230.447 308.424 230.315 307.946 230.315 307.419C230.315 306.909 230.415 306.461 230.614 306.074C230.813 305.682 231.101 305.357 231.476 305.099C231.851 304.835 232.302 304.636 232.829 304.501C233.356 304.366 233.945 304.299 234.596 304.299H236.485ZM242.005 302.444V310.065H240.37V300.555H241.917L242.005 302.444ZM241.671 304.949L240.915 304.923C240.921 304.273 241.006 303.672 241.17 303.121C241.334 302.565 241.577 302.081 241.899 301.671C242.222 301.261 242.623 300.944 243.104 300.722C243.584 300.493 244.141 300.379 244.773 300.379C245.219 300.379 245.629 300.443 246.004 300.572C246.379 300.695 246.704 300.892 246.979 301.161C247.255 301.431 247.469 301.776 247.621 302.198C247.773 302.62 247.85 303.13 247.85 303.728V310.065H246.224V303.807C246.224 303.309 246.139 302.91 245.969 302.611C245.805 302.313 245.57 302.096 245.266 301.961C244.961 301.82 244.604 301.75 244.193 301.75C243.713 301.75 243.312 301.835 242.989 302.005C242.667 302.175 242.409 302.409 242.216 302.708C242.022 303.007 241.882 303.35 241.794 303.736C241.712 304.117 241.671 304.522 241.671 304.949ZM247.832 304.053L246.742 304.387C246.748 303.865 246.833 303.364 246.997 302.884C247.167 302.403 247.41 301.976 247.727 301.601C248.049 301.226 248.444 300.93 248.913 300.713C249.382 300.49 249.918 300.379 250.521 300.379C251.031 300.379 251.482 300.446 251.875 300.581C252.273 300.716 252.607 300.924 252.877 301.205C253.152 301.481 253.36 301.835 253.501 302.269C253.642 302.702 253.712 303.218 253.712 303.816V310.065H252.077V303.798C252.077 303.265 251.992 302.852 251.822 302.559C251.658 302.26 251.424 302.052 251.119 301.935C250.82 301.812 250.463 301.75 250.047 301.75C249.689 301.75 249.373 301.812 249.098 301.935C248.822 302.058 248.591 302.228 248.403 302.444C248.216 302.655 248.072 302.899 247.973 303.174C247.879 303.449 247.832 303.742 247.832 304.053ZM260.119 310.24C259.457 310.24 258.856 310.129 258.317 309.906C257.784 309.678 257.324 309.359 256.938 308.948C256.557 308.538 256.264 308.052 256.059 307.489C255.854 306.927 255.751 306.312 255.751 305.644V305.275C255.751 304.501 255.865 303.813 256.094 303.209C256.322 302.6 256.633 302.084 257.025 301.662C257.418 301.24 257.863 300.921 258.361 300.704C258.859 300.487 259.375 300.379 259.908 300.379C260.588 300.379 261.174 300.496 261.666 300.731C262.164 300.965 262.571 301.293 262.888 301.715C263.204 302.131 263.438 302.623 263.591 303.192C263.743 303.754 263.819 304.369 263.819 305.037V305.767H256.718V304.44H262.193V304.317C262.17 303.895 262.082 303.484 261.93 303.086C261.783 302.688 261.549 302.359 261.227 302.102C260.904 301.844 260.465 301.715 259.908 301.715C259.539 301.715 259.199 301.794 258.889 301.952C258.578 302.105 258.312 302.333 258.089 302.638C257.866 302.943 257.693 303.315 257.57 303.754C257.447 304.193 257.386 304.7 257.386 305.275V305.644C257.386 306.095 257.447 306.52 257.57 306.918C257.699 307.311 257.884 307.656 258.124 307.955C258.37 308.254 258.666 308.488 259.012 308.658C259.363 308.828 259.762 308.913 260.207 308.913C260.781 308.913 261.268 308.796 261.666 308.562C262.064 308.327 262.413 308.014 262.712 307.621L263.696 308.403C263.491 308.714 263.23 309.01 262.914 309.291C262.598 309.572 262.208 309.801 261.745 309.977C261.288 310.152 260.746 310.24 260.119 310.24ZM269.699 300.555V301.803H264.558V300.555H269.699ZM266.298 298.243H267.924V307.709C267.924 308.031 267.974 308.275 268.073 308.439C268.173 308.603 268.302 308.711 268.46 308.764C268.618 308.817 268.788 308.843 268.97 308.843C269.104 308.843 269.245 308.831 269.392 308.808C269.544 308.778 269.658 308.755 269.734 308.737L269.743 310.065C269.614 310.106 269.444 310.144 269.233 310.179C269.028 310.22 268.779 310.24 268.486 310.24C268.088 310.24 267.722 310.161 267.388 310.003C267.054 309.845 266.787 309.581 266.588 309.212C266.395 308.837 266.298 308.333 266.298 307.7V298.243ZM55.0879 334.904C55.4746 334.904 55.832 334.825 56.1602 334.667C56.4883 334.509 56.7578 334.292 56.9688 334.017C57.1797 333.735 57.2998 333.416 57.3291 333.059H58.876C58.8467 333.621 58.6562 334.146 58.3047 334.632C57.959 335.112 57.5049 335.502 56.9424 335.801C56.3799 336.094 55.7617 336.24 55.0879 336.24C54.373 336.24 53.749 336.114 53.2158 335.862C52.6885 335.61 52.249 335.265 51.8975 334.825C51.5518 334.386 51.291 333.882 51.1152 333.314C50.9453 332.739 50.8604 332.133 50.8604 331.494V331.125C50.8604 330.486 50.9453 329.883 51.1152 329.315C51.291 328.74 51.5518 328.234 51.8975 327.794C52.249 327.355 52.6885 327.009 53.2158 326.757C53.749 326.505 54.373 326.379 55.0879 326.379C55.832 326.379 56.4824 326.531 57.0391 326.836C57.5957 327.135 58.0322 327.545 58.3486 328.067C58.6709 328.582 58.8467 329.168 58.876 329.824H57.3291C57.2998 329.432 57.1885 329.077 56.9951 328.761C56.8076 328.444 56.5498 328.193 56.2217 328.005C55.8994 327.812 55.5215 327.715 55.0879 327.715C54.5898 327.715 54.1709 327.815 53.8311 328.014C53.4971 328.207 53.2305 328.471 53.0312 328.805C52.8379 329.133 52.6973 329.499 52.6094 329.903C52.5273 330.302 52.4863 330.709 52.4863 331.125V331.494C52.4863 331.91 52.5273 332.32 52.6094 332.725C52.6914 333.129 52.8291 333.495 53.0225 333.823C53.2217 334.151 53.4883 334.415 53.8223 334.614C54.1621 334.808 54.584 334.904 55.0879 334.904ZM60.2734 331.415V331.213C60.2734 330.527 60.373 329.892 60.5723 329.306C60.7715 328.714 61.0586 328.201 61.4336 327.768C61.8086 327.328 62.2627 326.988 62.7959 326.748C63.3291 326.502 63.9268 326.379 64.5889 326.379C65.2568 326.379 65.8574 326.502 66.3906 326.748C66.9297 326.988 67.3867 327.328 67.7617 327.768C68.1426 328.201 68.4326 328.714 68.6318 329.306C68.8311 329.892 68.9307 330.527 68.9307 331.213V331.415C68.9307 332.101 68.8311 332.736 68.6318 333.322C68.4326 333.908 68.1426 334.421 67.7617 334.86C67.3867 335.294 66.9326 335.634 66.3994 335.88C65.8721 336.12 65.2744 336.24 64.6064 336.24C63.9385 336.24 63.3379 336.12 62.8047 335.88C62.2715 335.634 61.8145 335.294 61.4336 334.86C61.0586 334.421 60.7715 333.908 60.5723 333.322C60.373 332.736 60.2734 332.101 60.2734 331.415ZM61.8994 331.213V331.415C61.8994 331.89 61.9551 332.338 62.0664 332.76C62.1777 333.176 62.3447 333.545 62.5674 333.867C62.7959 334.19 63.0801 334.444 63.4199 334.632C63.7598 334.814 64.1553 334.904 64.6064 334.904C65.0518 334.904 65.4414 334.814 65.7754 334.632C66.1152 334.444 66.3965 334.19 66.6191 333.867C66.8418 333.545 67.0088 333.176 67.1201 332.76C67.2373 332.338 67.2959 331.89 67.2959 331.415V331.213C67.2959 330.744 67.2373 330.302 67.1201 329.886C67.0088 329.464 66.8389 329.092 66.6104 328.77C66.3877 328.442 66.1064 328.184 65.7666 327.996C65.4326 327.809 65.04 327.715 64.5889 327.715C64.1436 327.715 63.751 327.809 63.4111 327.996C63.0771 328.184 62.7959 328.442 62.5674 328.77C62.3447 329.092 62.1777 329.464 62.0664 329.886C61.9551 330.302 61.8994 330.744 61.8994 331.213ZM72.5957 328.585V336.065H70.9697V326.555H72.5078L72.5957 328.585ZM72.209 330.949L71.5322 330.923C71.5381 330.273 71.6348 329.672 71.8223 329.121C72.0098 328.565 72.2734 328.081 72.6133 327.671C72.9531 327.261 73.3574 326.944 73.8262 326.722C74.3008 326.493 74.8252 326.379 75.3994 326.379C75.8682 326.379 76.29 326.443 76.665 326.572C77.04 326.695 77.3594 326.895 77.623 327.17C77.8926 327.445 78.0977 327.803 78.2383 328.242C78.3789 328.676 78.4492 329.206 78.4492 329.833V336.065H76.8145V329.816C76.8145 329.318 76.7412 328.919 76.5947 328.62C76.4482 328.316 76.2344 328.096 75.9531 327.961C75.6719 327.82 75.3262 327.75 74.916 327.75C74.5117 327.75 74.1426 327.835 73.8086 328.005C73.4805 328.175 73.1963 328.409 72.9561 328.708C72.7217 329.007 72.5371 329.35 72.4023 329.736C72.2734 330.117 72.209 330.522 72.209 330.949ZM86.4561 333.542C86.4561 333.308 86.4033 333.091 86.2979 332.892C86.1982 332.687 85.9902 332.502 85.6738 332.338C85.3633 332.168 84.8945 332.022 84.2676 331.899C83.7402 331.787 83.2627 331.655 82.835 331.503C82.4131 331.351 82.0527 331.166 81.7539 330.949C81.4609 330.733 81.2354 330.478 81.0771 330.185C80.9189 329.892 80.8398 329.549 80.8398 329.156C80.8398 328.781 80.9219 328.427 81.0859 328.093C81.2559 327.759 81.4932 327.463 81.7979 327.205C82.1084 326.947 82.4805 326.745 82.9141 326.599C83.3477 326.452 83.8311 326.379 84.3643 326.379C85.126 326.379 85.7764 326.514 86.3154 326.783C86.8545 327.053 87.2676 327.413 87.5547 327.864C87.8418 328.31 87.9854 328.805 87.9854 329.35H86.3594C86.3594 329.086 86.2803 328.831 86.1221 328.585C85.9697 328.333 85.7441 328.125 85.4453 327.961C85.1523 327.797 84.792 327.715 84.3643 327.715C83.9131 327.715 83.5469 327.785 83.2656 327.926C82.9902 328.061 82.7881 328.234 82.6592 328.444C82.5361 328.655 82.4746 328.878 82.4746 329.112C82.4746 329.288 82.5039 329.446 82.5625 329.587C82.627 329.722 82.7383 329.848 82.8965 329.965C83.0547 330.076 83.2773 330.182 83.5645 330.281C83.8516 330.381 84.2178 330.481 84.6631 330.58C85.4424 330.756 86.084 330.967 86.5879 331.213C87.0918 331.459 87.4668 331.761 87.7129 332.118C87.959 332.476 88.082 332.909 88.082 333.419C88.082 333.835 87.9941 334.216 87.8184 334.562C87.6484 334.907 87.3994 335.206 87.0713 335.458C86.749 335.704 86.3623 335.898 85.9111 336.038C85.4658 336.173 84.9648 336.24 84.4082 336.24C83.5703 336.24 82.8613 336.091 82.2812 335.792C81.7012 335.493 81.2617 335.107 80.9629 334.632C80.6641 334.157 80.5146 333.656 80.5146 333.129H82.1494C82.1729 333.574 82.3018 333.929 82.5361 334.193C82.7705 334.45 83.0576 334.635 83.3975 334.746C83.7373 334.852 84.0742 334.904 84.4082 334.904C84.8535 334.904 85.2256 334.846 85.5244 334.729C85.8291 334.611 86.0605 334.45 86.2188 334.245C86.377 334.04 86.4561 333.806 86.4561 333.542ZM94.1641 336.24C93.502 336.24 92.9014 336.129 92.3623 335.906C91.8291 335.678 91.3691 335.359 90.9824 334.948C90.6016 334.538 90.3086 334.052 90.1035 333.489C89.8984 332.927 89.7959 332.312 89.7959 331.644V331.275C89.7959 330.501 89.9102 329.813 90.1387 329.209C90.3672 328.6 90.6777 328.084 91.0703 327.662C91.4629 327.24 91.9082 326.921 92.4062 326.704C92.9043 326.487 93.4199 326.379 93.9531 326.379C94.6328 326.379 95.2188 326.496 95.7109 326.731C96.209 326.965 96.6162 327.293 96.9326 327.715C97.249 328.131 97.4834 328.623 97.6357 329.192C97.7881 329.754 97.8643 330.369 97.8643 331.037V331.767H90.7627V330.44H96.2383V330.317C96.2148 329.895 96.127 329.484 95.9746 329.086C95.8281 328.688 95.5938 328.359 95.2715 328.102C94.9492 327.844 94.5098 327.715 93.9531 327.715C93.584 327.715 93.2441 327.794 92.9336 327.952C92.623 328.105 92.3564 328.333 92.1338 328.638C91.9111 328.943 91.7383 329.315 91.6152 329.754C91.4922 330.193 91.4307 330.7 91.4307 331.275V331.644C91.4307 332.095 91.4922 332.52 91.6152 332.918C91.7441 333.311 91.9287 333.656 92.1689 333.955C92.415 334.254 92.7109 334.488 93.0566 334.658C93.4082 334.828 93.8066 334.913 94.252 334.913C94.8262 334.913 95.3125 334.796 95.7109 334.562C96.1094 334.327 96.458 334.014 96.7568 333.621L97.7412 334.403C97.5361 334.714 97.2754 335.01 96.959 335.291C96.6426 335.572 96.2529 335.801 95.79 335.977C95.333 336.152 94.791 336.24 94.1641 336.24ZM103.568 334.904C103.955 334.904 104.312 334.825 104.641 334.667C104.969 334.509 105.238 334.292 105.449 334.017C105.66 333.735 105.78 333.416 105.81 333.059H107.356C107.327 333.621 107.137 334.146 106.785 334.632C106.439 335.112 105.985 335.502 105.423 335.801C104.86 336.094 104.242 336.24 103.568 336.24C102.854 336.24 102.229 336.114 101.696 335.862C101.169 335.61 100.729 335.265 100.378 334.825C100.032 334.386 99.7715 333.882 99.5957 333.314C99.4258 332.739 99.3408 332.133 99.3408 331.494V331.125C99.3408 330.486 99.4258 329.883 99.5957 329.315C99.7715 328.74 100.032 328.234 100.378 327.794C100.729 327.355 101.169 327.009 101.696 326.757C102.229 326.505 102.854 326.379 103.568 326.379C104.312 326.379 104.963 326.531 105.52 326.836C106.076 327.135 106.513 327.545 106.829 328.067C107.151 328.582 107.327 329.168 107.356 329.824H105.81C105.78 329.432 105.669 329.077 105.476 328.761C105.288 328.444 105.03 328.193 104.702 328.005C104.38 327.812 104.002 327.715 103.568 327.715C103.07 327.715 102.651 327.815 102.312 328.014C101.978 328.207 101.711 328.471 101.512 328.805C101.318 329.133 101.178 329.499 101.09 329.903C101.008 330.302 100.967 330.709 100.967 331.125V331.494C100.967 331.91 101.008 332.32 101.09 332.725C101.172 333.129 101.31 333.495 101.503 333.823C101.702 334.151 101.969 334.415 102.303 334.614C102.643 334.808 103.064 334.904 103.568 334.904ZM113.166 326.555V327.803H108.024V326.555H113.166ZM109.765 324.243H111.391V333.709C111.391 334.031 111.44 334.275 111.54 334.439C111.64 334.603 111.769 334.711 111.927 334.764C112.085 334.817 112.255 334.843 112.437 334.843C112.571 334.843 112.712 334.831 112.858 334.808C113.011 334.778 113.125 334.755 113.201 334.737L113.21 336.065C113.081 336.106 112.911 336.144 112.7 336.179C112.495 336.22 112.246 336.24 111.953 336.24C111.555 336.24 111.188 336.161 110.854 336.003C110.521 335.845 110.254 335.581 110.055 335.212C109.861 334.837 109.765 334.333 109.765 333.7V324.243ZM119.02 336.24C118.357 336.24 117.757 336.129 117.218 335.906C116.685 335.678 116.225 335.359 115.838 334.948C115.457 334.538 115.164 334.052 114.959 333.489C114.754 332.927 114.651 332.312 114.651 331.644V331.275C114.651 330.501 114.766 329.813 114.994 329.209C115.223 328.6 115.533 328.084 115.926 327.662C116.318 327.24 116.764 326.921 117.262 326.704C117.76 326.487 118.275 326.379 118.809 326.379C119.488 326.379 120.074 326.496 120.566 326.731C121.064 326.965 121.472 327.293 121.788 327.715C122.104 328.131 122.339 328.623 122.491 329.192C122.644 329.754 122.72 330.369 122.72 331.037V331.767H115.618V330.44H121.094V330.317C121.07 329.895 120.982 329.484 120.83 329.086C120.684 328.688 120.449 328.359 120.127 328.102C119.805 327.844 119.365 327.715 118.809 327.715C118.439 327.715 118.1 327.794 117.789 327.952C117.479 328.105 117.212 328.333 116.989 328.638C116.767 328.943 116.594 329.315 116.471 329.754C116.348 330.193 116.286 330.7 116.286 331.275V331.644C116.286 332.095 116.348 332.52 116.471 332.918C116.6 333.311 116.784 333.656 117.024 333.955C117.271 334.254 117.566 334.488 117.912 334.658C118.264 334.828 118.662 334.913 119.107 334.913C119.682 334.913 120.168 334.796 120.566 334.562C120.965 334.327 121.313 334.014 121.612 333.621L122.597 334.403C122.392 334.714 122.131 335.01 121.814 335.291C121.498 335.572 121.108 335.801 120.646 335.977C120.188 336.152 119.646 336.24 119.02 336.24ZM128.6 326.555V327.803H123.458V326.555H128.6ZM125.198 324.243H126.824V333.709C126.824 334.031 126.874 334.275 126.974 334.439C127.073 334.603 127.202 334.711 127.36 334.764C127.519 334.817 127.688 334.843 127.87 334.843C128.005 334.843 128.146 334.831 128.292 334.808C128.444 334.778 128.559 334.755 128.635 334.737L128.644 336.065C128.515 336.106 128.345 336.144 128.134 336.179C127.929 336.22 127.68 336.24 127.387 336.24C126.988 336.24 126.622 336.161 126.288 336.003C125.954 335.845 125.688 335.581 125.488 335.212C125.295 334.837 125.198 334.333 125.198 333.7V324.243ZM136.325 333.867V326.555H137.96V336.065H136.404L136.325 333.867ZM136.633 331.863L137.31 331.846C137.31 332.479 137.242 333.065 137.107 333.604C136.979 334.137 136.768 334.6 136.475 334.992C136.182 335.385 135.798 335.693 135.323 335.915C134.849 336.132 134.271 336.24 133.592 336.24C133.129 336.24 132.704 336.173 132.317 336.038C131.937 335.903 131.608 335.695 131.333 335.414C131.058 335.133 130.844 334.767 130.691 334.316C130.545 333.864 130.472 333.322 130.472 332.69V326.555H132.098V332.707C132.098 333.135 132.145 333.489 132.238 333.771C132.338 334.046 132.47 334.266 132.634 334.43C132.804 334.588 132.991 334.699 133.196 334.764C133.407 334.828 133.624 334.86 133.847 334.86C134.538 334.86 135.086 334.729 135.49 334.465C135.895 334.195 136.185 333.835 136.36 333.384C136.542 332.927 136.633 332.42 136.633 331.863ZM142.064 328.049V336.065H140.438V326.555H142.021L142.064 328.049ZM145.035 326.502L145.026 328.014C144.892 327.984 144.763 327.967 144.64 327.961C144.522 327.949 144.388 327.943 144.235 327.943C143.86 327.943 143.529 328.002 143.242 328.119C142.955 328.236 142.712 328.401 142.513 328.611C142.313 328.822 142.155 329.074 142.038 329.367C141.927 329.654 141.854 329.971 141.818 330.317L141.361 330.58C141.361 330.006 141.417 329.467 141.528 328.963C141.646 328.459 141.824 328.014 142.064 327.627C142.305 327.234 142.609 326.93 142.979 326.713C143.354 326.49 143.799 326.379 144.314 326.379C144.432 326.379 144.566 326.394 144.719 326.423C144.871 326.446 144.977 326.473 145.035 326.502ZM145.475 335.203C145.475 334.928 145.56 334.696 145.729 334.509C145.905 334.316 146.157 334.219 146.485 334.219C146.813 334.219 147.062 334.316 147.232 334.509C147.408 334.696 147.496 334.928 147.496 335.203C147.496 335.473 147.408 335.701 147.232 335.889C147.062 336.076 146.813 336.17 146.485 336.17C146.157 336.17 145.905 336.076 145.729 335.889C145.56 335.701 145.475 335.473 145.475 335.203ZM162.631 331.995H164.318C164.23 332.804 163.999 333.527 163.624 334.166C163.249 334.805 162.719 335.312 162.033 335.687C161.348 336.056 160.492 336.24 159.467 336.24C158.717 336.24 158.034 336.1 157.419 335.818C156.81 335.537 156.285 335.139 155.846 334.623C155.406 334.102 155.066 333.478 154.826 332.751C154.592 332.019 154.475 331.204 154.475 330.308V329.033C154.475 328.137 154.592 327.325 154.826 326.599C155.066 325.866 155.409 325.239 155.854 324.718C156.306 324.196 156.848 323.795 157.48 323.514C158.113 323.233 158.825 323.092 159.616 323.092C160.583 323.092 161.4 323.274 162.068 323.637C162.736 324 163.255 324.504 163.624 325.149C163.999 325.787 164.23 326.528 164.318 327.372H162.631C162.549 326.775 162.396 326.262 162.174 325.834C161.951 325.401 161.635 325.067 161.225 324.832C160.814 324.598 160.278 324.481 159.616 324.481C159.048 324.481 158.547 324.589 158.113 324.806C157.686 325.023 157.325 325.33 157.032 325.729C156.745 326.127 156.528 326.605 156.382 327.161C156.235 327.718 156.162 328.336 156.162 329.016V330.308C156.162 330.935 156.227 331.524 156.355 332.074C156.49 332.625 156.692 333.109 156.962 333.525C157.231 333.941 157.574 334.269 157.99 334.509C158.406 334.743 158.898 334.86 159.467 334.86C160.188 334.86 160.762 334.746 161.189 334.518C161.617 334.289 161.939 333.961 162.156 333.533C162.379 333.106 162.537 332.593 162.631 331.995ZM172.202 333.867V326.555H173.837V336.065H172.281L172.202 333.867ZM172.51 331.863L173.187 331.846C173.187 332.479 173.119 333.065 172.984 333.604C172.855 334.137 172.645 334.6 172.352 334.992C172.059 335.385 171.675 335.693 171.2 335.915C170.726 336.132 170.148 336.24 169.469 336.24C169.006 336.24 168.581 336.173 168.194 336.038C167.813 335.903 167.485 335.695 167.21 335.414C166.935 335.133 166.721 334.767 166.568 334.316C166.422 333.864 166.349 333.322 166.349 332.69V326.555H167.975V332.707C167.975 333.135 168.021 333.489 168.115 333.771C168.215 334.046 168.347 334.266 168.511 334.43C168.681 334.588 168.868 334.699 169.073 334.764C169.284 334.828 169.501 334.86 169.724 334.86C170.415 334.86 170.963 334.729 171.367 334.465C171.771 334.195 172.062 333.835 172.237 333.384C172.419 332.927 172.51 332.42 172.51 331.863ZM177.941 328.049V336.065H176.315V326.555H177.897L177.941 328.049ZM180.912 326.502L180.903 328.014C180.769 327.984 180.64 327.967 180.517 327.961C180.399 327.949 180.265 327.943 180.112 327.943C179.737 327.943 179.406 328.002 179.119 328.119C178.832 328.236 178.589 328.401 178.39 328.611C178.19 328.822 178.032 329.074 177.915 329.367C177.804 329.654 177.73 329.971 177.695 330.317L177.238 330.58C177.238 330.006 177.294 329.467 177.405 328.963C177.522 328.459 177.701 328.014 177.941 327.627C178.182 327.234 178.486 326.93 178.855 326.713C179.23 326.49 179.676 326.379 180.191 326.379C180.309 326.379 180.443 326.394 180.596 326.423C180.748 326.446 180.854 326.473 180.912 326.502ZM187.952 333.542C187.952 333.308 187.899 333.091 187.794 332.892C187.694 332.687 187.486 332.502 187.17 332.338C186.859 332.168 186.391 332.022 185.764 331.899C185.236 331.787 184.759 331.655 184.331 331.503C183.909 331.351 183.549 331.166 183.25 330.949C182.957 330.733 182.731 330.478 182.573 330.185C182.415 329.892 182.336 329.549 182.336 329.156C182.336 328.781 182.418 328.427 182.582 328.093C182.752 327.759 182.989 327.463 183.294 327.205C183.604 326.947 183.977 326.745 184.41 326.599C184.844 326.452 185.327 326.379 185.86 326.379C186.622 326.379 187.272 326.514 187.812 326.783C188.351 327.053 188.764 327.413 189.051 327.864C189.338 328.31 189.481 328.805 189.481 329.35H187.855C187.855 329.086 187.776 328.831 187.618 328.585C187.466 328.333 187.24 328.125 186.941 327.961C186.648 327.797 186.288 327.715 185.86 327.715C185.409 327.715 185.043 327.785 184.762 327.926C184.486 328.061 184.284 328.234 184.155 328.444C184.032 328.655 183.971 328.878 183.971 329.112C183.971 329.288 184 329.446 184.059 329.587C184.123 329.722 184.234 329.848 184.393 329.965C184.551 330.076 184.773 330.182 185.061 330.281C185.348 330.381 185.714 330.481 186.159 330.58C186.938 330.756 187.58 330.967 188.084 331.213C188.588 331.459 188.963 331.761 189.209 332.118C189.455 332.476 189.578 332.909 189.578 333.419C189.578 333.835 189.49 334.216 189.314 334.562C189.145 334.907 188.896 335.206 188.567 335.458C188.245 335.704 187.858 335.898 187.407 336.038C186.962 336.173 186.461 336.24 185.904 336.24C185.066 336.24 184.357 336.091 183.777 335.792C183.197 335.493 182.758 335.107 182.459 334.632C182.16 334.157 182.011 333.656 182.011 333.129H183.646C183.669 333.574 183.798 333.929 184.032 334.193C184.267 334.45 184.554 334.635 184.894 334.746C185.233 334.852 185.57 334.904 185.904 334.904C186.35 334.904 186.722 334.846 187.021 334.729C187.325 334.611 187.557 334.45 187.715 334.245C187.873 334.04 187.952 333.806 187.952 333.542ZM197.532 333.867V326.555H199.167V336.065H197.611L197.532 333.867ZM197.84 331.863L198.517 331.846C198.517 332.479 198.449 333.065 198.314 333.604C198.186 334.137 197.975 334.6 197.682 334.992C197.389 335.385 197.005 335.693 196.53 335.915C196.056 336.132 195.479 336.24 194.799 336.24C194.336 336.24 193.911 336.173 193.524 336.038C193.144 335.903 192.815 335.695 192.54 335.414C192.265 335.133 192.051 334.767 191.898 334.316C191.752 333.864 191.679 333.322 191.679 332.69V326.555H193.305V332.707C193.305 333.135 193.352 333.489 193.445 333.771C193.545 334.046 193.677 334.266 193.841 334.43C194.011 334.588 194.198 334.699 194.403 334.764C194.614 334.828 194.831 334.86 195.054 334.86C195.745 334.86 196.293 334.729 196.697 334.465C197.102 334.195 197.392 333.835 197.567 333.384C197.749 332.927 197.84 332.42 197.84 331.863ZM207.183 333.542C207.183 333.308 207.13 333.091 207.024 332.892C206.925 332.687 206.717 332.502 206.4 332.338C206.09 332.168 205.621 332.022 204.994 331.899C204.467 331.787 203.989 331.655 203.562 331.503C203.14 331.351 202.779 331.166 202.48 330.949C202.188 330.733 201.962 330.478 201.804 330.185C201.646 329.892 201.566 329.549 201.566 329.156C201.566 328.781 201.648 328.427 201.812 328.093C201.982 327.759 202.22 327.463 202.524 327.205C202.835 326.947 203.207 326.745 203.641 326.599C204.074 326.452 204.558 326.379 205.091 326.379C205.853 326.379 206.503 326.514 207.042 326.783C207.581 327.053 207.994 327.413 208.281 327.864C208.568 328.31 208.712 328.805 208.712 329.35H207.086C207.086 329.086 207.007 328.831 206.849 328.585C206.696 328.333 206.471 328.125 206.172 327.961C205.879 327.797 205.519 327.715 205.091 327.715C204.64 327.715 204.273 327.785 203.992 327.926C203.717 328.061 203.515 328.234 203.386 328.444C203.263 328.655 203.201 328.878 203.201 329.112C203.201 329.288 203.23 329.446 203.289 329.587C203.354 329.722 203.465 329.848 203.623 329.965C203.781 330.076 204.004 330.182 204.291 330.281C204.578 330.381 204.944 330.481 205.39 330.58C206.169 330.756 206.811 330.967 207.314 331.213C207.818 331.459 208.193 331.761 208.439 332.118C208.686 332.476 208.809 332.909 208.809 333.419C208.809 333.835 208.721 334.216 208.545 334.562C208.375 334.907 208.126 335.206 207.798 335.458C207.476 335.704 207.089 335.898 206.638 336.038C206.192 336.173 205.691 336.24 205.135 336.24C204.297 336.24 203.588 336.091 203.008 335.792C202.428 335.493 201.988 335.107 201.689 334.632C201.391 334.157 201.241 333.656 201.241 333.129H202.876C202.899 333.574 203.028 333.929 203.263 334.193C203.497 334.45 203.784 334.635 204.124 334.746C204.464 334.852 204.801 334.904 205.135 334.904C205.58 334.904 205.952 334.846 206.251 334.729C206.556 334.611 206.787 334.45 206.945 334.245C207.104 334.04 207.183 333.806 207.183 333.542ZM221.403 334.219V322.565H223.038V336.065H221.544L221.403 334.219ZM215.005 331.415V331.231C215.005 330.504 215.093 329.845 215.269 329.253C215.45 328.655 215.705 328.143 216.033 327.715C216.367 327.287 216.763 326.959 217.22 326.731C217.683 326.496 218.198 326.379 218.767 326.379C219.364 326.379 219.886 326.484 220.331 326.695C220.782 326.901 221.163 327.202 221.474 327.601C221.79 327.993 222.039 328.468 222.221 329.025C222.402 329.581 222.528 330.211 222.599 330.914V331.723C222.534 332.42 222.408 333.047 222.221 333.604C222.039 334.16 221.79 334.635 221.474 335.027C221.163 335.42 220.782 335.722 220.331 335.933C219.88 336.138 219.353 336.24 218.749 336.24C218.192 336.24 217.683 336.12 217.22 335.88C216.763 335.64 216.367 335.303 216.033 334.869C215.705 334.436 215.45 333.926 215.269 333.34C215.093 332.748 215.005 332.107 215.005 331.415ZM216.64 331.231V331.415C216.64 331.89 216.687 332.335 216.78 332.751C216.88 333.167 217.032 333.533 217.237 333.85C217.442 334.166 217.703 334.415 218.02 334.597C218.336 334.773 218.714 334.86 219.153 334.86C219.692 334.86 220.135 334.746 220.48 334.518C220.832 334.289 221.113 333.987 221.324 333.612C221.535 333.237 221.699 332.83 221.816 332.391V330.273C221.746 329.95 221.644 329.64 221.509 329.341C221.38 329.036 221.21 328.767 220.999 328.532C220.794 328.292 220.539 328.102 220.234 327.961C219.936 327.82 219.581 327.75 219.171 327.75C218.726 327.75 218.342 327.844 218.02 328.031C217.703 328.213 217.442 328.465 217.237 328.787C217.032 329.104 216.88 329.473 216.78 329.895C216.687 330.311 216.64 330.756 216.64 331.231ZM227.336 326.555V336.065H225.701V326.555H227.336ZM225.578 324.032C225.578 323.769 225.657 323.546 225.815 323.364C225.979 323.183 226.22 323.092 226.536 323.092C226.847 323.092 227.084 323.183 227.248 323.364C227.418 323.546 227.503 323.769 227.503 324.032C227.503 324.284 227.418 324.501 227.248 324.683C227.084 324.859 226.847 324.946 226.536 324.946C226.22 324.946 225.979 324.859 225.815 324.683C225.657 324.501 225.578 324.284 225.578 324.032ZM235.554 334.439V329.543C235.554 329.168 235.478 328.843 235.325 328.568C235.179 328.286 234.956 328.069 234.657 327.917C234.358 327.765 233.989 327.689 233.55 327.689C233.14 327.689 232.779 327.759 232.469 327.9C232.164 328.04 231.924 328.225 231.748 328.453C231.578 328.682 231.493 328.928 231.493 329.192H229.867C229.867 328.852 229.955 328.515 230.131 328.181C230.307 327.847 230.559 327.545 230.887 327.276C231.221 327 231.619 326.783 232.082 326.625C232.551 326.461 233.072 326.379 233.646 326.379C234.338 326.379 234.947 326.496 235.475 326.731C236.008 326.965 236.424 327.319 236.723 327.794C237.027 328.263 237.18 328.852 237.18 329.561V333.99C237.18 334.307 237.206 334.644 237.259 335.001C237.317 335.359 237.402 335.666 237.514 335.924V336.065H235.817C235.735 335.877 235.671 335.628 235.624 335.318C235.577 335.001 235.554 334.708 235.554 334.439ZM235.835 330.299L235.853 331.442H234.209C233.746 331.442 233.333 331.48 232.97 331.556C232.606 331.626 232.302 331.734 232.056 331.881C231.81 332.027 231.622 332.212 231.493 332.435C231.364 332.651 231.3 332.906 231.3 333.199C231.3 333.498 231.367 333.771 231.502 334.017C231.637 334.263 231.839 334.459 232.108 334.606C232.384 334.746 232.721 334.817 233.119 334.817C233.617 334.817 234.057 334.711 234.438 334.5C234.818 334.289 235.12 334.031 235.343 333.727C235.571 333.422 235.694 333.126 235.712 332.839L236.406 333.621C236.365 333.867 236.254 334.14 236.072 334.439C235.891 334.737 235.647 335.025 235.343 335.3C235.044 335.569 234.687 335.795 234.271 335.977C233.86 336.152 233.397 336.24 232.882 336.24C232.237 336.24 231.672 336.114 231.186 335.862C230.705 335.61 230.33 335.274 230.061 334.852C229.797 334.424 229.665 333.946 229.665 333.419C229.665 332.909 229.765 332.461 229.964 332.074C230.163 331.682 230.45 331.357 230.825 331.099C231.2 330.835 231.651 330.636 232.179 330.501C232.706 330.366 233.295 330.299 233.945 330.299H235.835ZM241.354 328.444V336.065H239.72V326.555H241.267L241.354 328.444ZM241.021 330.949L240.265 330.923C240.271 330.273 240.355 329.672 240.52 329.121C240.684 328.565 240.927 328.081 241.249 327.671C241.571 327.261 241.973 326.944 242.453 326.722C242.934 326.493 243.49 326.379 244.123 326.379C244.568 326.379 244.979 326.443 245.354 326.572C245.729 326.695 246.054 326.892 246.329 327.161C246.604 327.431 246.818 327.776 246.971 328.198C247.123 328.62 247.199 329.13 247.199 329.728V336.065H245.573V329.807C245.573 329.309 245.488 328.91 245.318 328.611C245.154 328.313 244.92 328.096 244.615 327.961C244.311 327.82 243.953 327.75 243.543 327.75C243.062 327.75 242.661 327.835 242.339 328.005C242.017 328.175 241.759 328.409 241.565 328.708C241.372 329.007 241.231 329.35 241.144 329.736C241.062 330.117 241.021 330.522 241.021 330.949ZM247.182 330.053L246.092 330.387C246.098 329.865 246.183 329.364 246.347 328.884C246.517 328.403 246.76 327.976 247.076 327.601C247.398 327.226 247.794 326.93 248.263 326.713C248.731 326.49 249.268 326.379 249.871 326.379C250.381 326.379 250.832 326.446 251.225 326.581C251.623 326.716 251.957 326.924 252.227 327.205C252.502 327.481 252.71 327.835 252.851 328.269C252.991 328.702 253.062 329.218 253.062 329.816V336.065H251.427V329.798C251.427 329.265 251.342 328.852 251.172 328.559C251.008 328.26 250.773 328.052 250.469 327.935C250.17 327.812 249.812 327.75 249.396 327.75C249.039 327.75 248.723 327.812 248.447 327.935C248.172 328.058 247.94 328.228 247.753 328.444C247.565 328.655 247.422 328.899 247.322 329.174C247.229 329.449 247.182 329.742 247.182 330.053ZM261.754 326.555V336.065H260.119V326.555H261.754ZM259.996 324.032C259.996 323.769 260.075 323.546 260.233 323.364C260.397 323.183 260.638 323.092 260.954 323.092C261.265 323.092 261.502 323.183 261.666 323.364C261.836 323.546 261.921 323.769 261.921 324.032C261.921 324.284 261.836 324.501 261.666 324.683C261.502 324.859 261.265 324.946 260.954 324.946C260.638 324.946 260.397 324.859 260.233 324.683C260.075 324.501 259.996 324.284 259.996 324.032ZM270.358 334.219V322.565H271.993V336.065H270.499L270.358 334.219ZM263.96 331.415V331.231C263.96 330.504 264.048 329.845 264.224 329.253C264.405 328.655 264.66 328.143 264.988 327.715C265.322 327.287 265.718 326.959 266.175 326.731C266.638 326.496 267.153 326.379 267.722 326.379C268.319 326.379 268.841 326.484 269.286 326.695C269.737 326.901 270.118 327.202 270.429 327.601C270.745 327.993 270.994 328.468 271.176 329.025C271.357 329.581 271.483 330.211 271.554 330.914V331.723C271.489 332.42 271.363 333.047 271.176 333.604C270.994 334.16 270.745 334.635 270.429 335.027C270.118 335.42 269.737 335.722 269.286 335.933C268.835 336.138 268.308 336.24 267.704 336.24C267.147 336.24 266.638 336.12 266.175 335.88C265.718 335.64 265.322 335.303 264.988 334.869C264.66 334.436 264.405 333.926 264.224 333.34C264.048 332.748 263.96 332.107 263.96 331.415ZM265.595 331.231V331.415C265.595 331.89 265.642 332.335 265.735 332.751C265.835 333.167 265.987 333.533 266.192 333.85C266.397 334.166 266.658 334.415 266.975 334.597C267.291 334.773 267.669 334.86 268.108 334.86C268.647 334.86 269.09 334.746 269.436 334.518C269.787 334.289 270.068 333.987 270.279 333.612C270.49 333.237 270.654 332.83 270.771 332.391V330.273C270.701 329.95 270.599 329.64 270.464 329.341C270.335 329.036 270.165 328.767 269.954 328.532C269.749 328.292 269.494 328.102 269.189 327.961C268.891 327.82 268.536 327.75 268.126 327.75C267.681 327.75 267.297 327.844 266.975 328.031C266.658 328.213 266.397 328.465 266.192 328.787C265.987 329.104 265.835 329.473 265.735 329.895C265.642 330.311 265.595 330.756 265.595 331.231ZM280.756 322.565V336.065H279.121V322.565H280.756ZM289.185 333.867V326.555H290.819V336.065H289.264L289.185 333.867ZM289.492 331.863L290.169 331.846C290.169 332.479 290.102 333.065 289.967 333.604C289.838 334.137 289.627 334.6 289.334 334.992C289.041 335.385 288.657 335.693 288.183 335.915C287.708 336.132 287.131 336.24 286.451 336.24C285.988 336.24 285.563 336.173 285.177 336.038C284.796 335.903 284.468 335.695 284.192 335.414C283.917 335.133 283.703 334.767 283.551 334.316C283.404 333.864 283.331 333.322 283.331 332.69V326.555H284.957V332.707C284.957 333.135 285.004 333.489 285.098 333.771C285.197 334.046 285.329 334.266 285.493 334.43C285.663 334.588 285.851 334.699 286.056 334.764C286.267 334.828 286.483 334.86 286.706 334.86C287.397 334.86 287.945 334.729 288.35 334.465C288.754 334.195 289.044 333.835 289.22 333.384C289.401 332.927 289.492 332.42 289.492 331.863ZM297.104 334.904C297.49 334.904 297.848 334.825 298.176 334.667C298.504 334.509 298.773 334.292 298.984 334.017C299.195 333.735 299.315 333.416 299.345 333.059H300.892C300.862 333.621 300.672 334.146 300.32 334.632C299.975 335.112 299.521 335.502 298.958 335.801C298.396 336.094 297.777 336.24 297.104 336.24C296.389 336.24 295.765 336.114 295.231 335.862C294.704 335.61 294.265 335.265 293.913 334.825C293.567 334.386 293.307 333.882 293.131 333.314C292.961 332.739 292.876 332.133 292.876 331.494V331.125C292.876 330.486 292.961 329.883 293.131 329.315C293.307 328.74 293.567 328.234 293.913 327.794C294.265 327.355 294.704 327.009 295.231 326.757C295.765 326.505 296.389 326.379 297.104 326.379C297.848 326.379 298.498 326.531 299.055 326.836C299.611 327.135 300.048 327.545 300.364 328.067C300.687 328.582 300.862 329.168 300.892 329.824H299.345C299.315 329.432 299.204 329.077 299.011 328.761C298.823 328.444 298.565 328.193 298.237 328.005C297.915 327.812 297.537 327.715 297.104 327.715C296.605 327.715 296.187 327.815 295.847 328.014C295.513 328.207 295.246 328.471 295.047 328.805C294.854 329.133 294.713 329.499 294.625 329.903C294.543 330.302 294.502 330.709 294.502 331.125V331.494C294.502 331.91 294.543 332.32 294.625 332.725C294.707 333.129 294.845 333.495 295.038 333.823C295.237 334.151 295.504 334.415 295.838 334.614C296.178 334.808 296.6 334.904 297.104 334.904ZM306.701 326.555V327.803H301.56V326.555H306.701ZM303.3 324.243H304.926V333.709C304.926 334.031 304.976 334.275 305.075 334.439C305.175 334.603 305.304 334.711 305.462 334.764C305.62 334.817 305.79 334.843 305.972 334.843C306.106 334.843 306.247 334.831 306.394 334.808C306.546 334.778 306.66 334.755 306.736 334.737L306.745 336.065C306.616 336.106 306.446 336.144 306.235 336.179C306.03 336.22 305.781 336.24 305.488 336.24C305.09 336.24 304.724 336.161 304.39 336.003C304.056 335.845 303.789 335.581 303.59 335.212C303.396 334.837 303.3 334.333 303.3 333.7V324.243ZM314.427 333.867V326.555H316.062V336.065H314.506L314.427 333.867ZM314.734 331.863L315.411 331.846C315.411 332.479 315.344 333.065 315.209 333.604C315.08 334.137 314.869 334.6 314.576 334.992C314.283 335.385 313.899 335.693 313.425 335.915C312.95 336.132 312.373 336.24 311.693 336.24C311.23 336.24 310.806 336.173 310.419 336.038C310.038 335.903 309.71 335.695 309.435 335.414C309.159 335.133 308.945 334.767 308.793 334.316C308.646 333.864 308.573 333.322 308.573 332.69V326.555H310.199V332.707C310.199 333.135 310.246 333.489 310.34 333.771C310.439 334.046 310.571 334.266 310.735 334.43C310.905 334.588 311.093 334.699 311.298 334.764C311.509 334.828 311.726 334.86 311.948 334.86C312.64 334.86 313.188 334.729 313.592 334.465C313.996 334.195 314.286 333.835 314.462 333.384C314.644 332.927 314.734 332.42 314.734 331.863ZM324.077 333.542C324.077 333.308 324.024 333.091 323.919 332.892C323.819 332.687 323.611 332.502 323.295 332.338C322.984 332.168 322.516 332.022 321.889 331.899C321.361 331.787 320.884 331.655 320.456 331.503C320.034 331.351 319.674 331.166 319.375 330.949C319.082 330.733 318.856 330.478 318.698 330.185C318.54 329.892 318.461 329.549 318.461 329.156C318.461 328.781 318.543 328.427 318.707 328.093C318.877 327.759 319.114 327.463 319.419 327.205C319.729 326.947 320.102 326.745 320.535 326.599C320.969 326.452 321.452 326.379 321.985 326.379C322.747 326.379 323.397 326.514 323.937 326.783C324.476 327.053 324.889 327.413 325.176 327.864C325.463 328.31 325.606 328.805 325.606 329.35H323.98C323.98 329.086 323.901 328.831 323.743 328.585C323.591 328.333 323.365 328.125 323.066 327.961C322.773 327.797 322.413 327.715 321.985 327.715C321.534 327.715 321.168 327.785 320.887 327.926C320.611 328.061 320.409 328.234 320.28 328.444C320.157 328.655 320.096 328.878 320.096 329.112C320.096 329.288 320.125 329.446 320.184 329.587C320.248 329.722 320.359 329.848 320.518 329.965C320.676 330.076 320.898 330.182 321.186 330.281C321.473 330.381 321.839 330.481 322.284 330.58C323.063 330.756 323.705 330.967 324.209 331.213C324.713 331.459 325.088 331.761 325.334 332.118C325.58 332.476 325.703 332.909 325.703 333.419C325.703 333.835 325.615 334.216 325.439 334.562C325.27 334.907 325.021 335.206 324.692 335.458C324.37 335.704 323.983 335.898 323.532 336.038C323.087 336.173 322.586 336.24 322.029 336.24C321.191 336.24 320.482 336.091 319.902 335.792C319.322 335.493 318.883 335.107 318.584 334.632C318.285 334.157 318.136 333.656 318.136 333.129H319.771C319.794 333.574 319.923 333.929 320.157 334.193C320.392 334.45 320.679 334.635 321.019 334.746C321.358 334.852 321.695 334.904 322.029 334.904C322.475 334.904 322.847 334.846 323.146 334.729C323.45 334.611 323.682 334.45 323.84 334.245C323.998 334.04 324.077 333.806 324.077 333.542ZM327.865 335.203C327.865 334.928 327.95 334.696 328.12 334.509C328.296 334.316 328.548 334.219 328.876 334.219C329.204 334.219 329.453 334.316 329.623 334.509C329.799 334.696 329.887 334.928 329.887 335.203C329.887 335.473 329.799 335.701 329.623 335.889C329.453 336.076 329.204 336.17 328.876 336.17C328.548 336.17 328.296 336.076 328.12 335.889C327.95 335.701 327.865 335.473 327.865 335.203Z" fill="#0D0F11"/>
<path d="M58.457 260.03L53.5938 274.502H50.1836L56.5586 257.44H58.7383L58.457 260.03ZM62.5234 274.502L57.6367 260.03L57.3438 257.44H59.5352L65.9453 274.502H62.5234ZM62.3008 268.162V270.705H53.1484V268.162H62.3008ZM75.0742 271.807V256.502H78.1914V274.502H75.3789L75.0742 271.807ZM66.9297 268.315V268.069C66.9297 267.1 67.0391 266.221 67.2578 265.432C67.4844 264.635 67.8125 263.951 68.2422 263.381C68.6719 262.811 69.1914 262.369 69.8008 262.057C70.418 261.744 71.1172 261.588 71.8984 261.588C72.6562 261.588 73.3164 261.74 73.8789 262.045C74.4492 262.35 74.9336 262.783 75.332 263.346C75.7383 263.908 76.0625 264.576 76.3047 265.35C76.5469 266.115 76.7227 266.959 76.832 267.881V268.549C76.7227 269.448 76.5469 270.272 76.3047 271.022C76.0625 271.772 75.7383 272.428 75.332 272.99C74.9336 273.545 74.4492 273.975 73.8789 274.28C73.3086 274.584 72.6406 274.737 71.875 274.737C71.1016 274.737 70.4062 274.576 69.7891 274.256C69.1797 273.936 68.6602 273.487 68.2305 272.908C67.8086 272.33 67.4844 271.651 67.2578 270.869C67.0391 270.088 66.9297 269.237 66.9297 268.315ZM70.0352 268.069V268.315C70.0352 268.862 70.082 269.373 70.1758 269.85C70.2695 270.326 70.4219 270.748 70.6328 271.115C70.8438 271.475 71.1133 271.756 71.4414 271.959C71.7773 272.162 72.1836 272.264 72.6602 272.264C73.2695 272.264 73.7695 272.131 74.1602 271.865C74.5586 271.592 74.8672 271.221 75.0859 270.752C75.3047 270.276 75.4453 269.74 75.5078 269.147V267.307C75.4766 266.838 75.3945 266.405 75.2617 266.006C75.1367 265.608 74.957 265.264 74.7227 264.975C74.4961 264.686 74.2148 264.459 73.8789 264.295C73.543 264.131 73.1445 264.049 72.6836 264.049C72.207 264.049 71.8008 264.155 71.4648 264.365C71.1289 264.569 70.8555 264.854 70.6445 265.221C70.4336 265.588 70.2773 266.014 70.1758 266.498C70.082 266.983 70.0352 267.506 70.0352 268.069ZM85.1992 272.158L88.1523 261.823H91.3867L87.0391 274.502H85.0703L85.1992 272.158ZM83.043 261.823L86.0312 272.182L86.1367 274.502H84.1562L79.7969 261.823H83.043ZM98.5469 274.737C97.5859 274.737 96.7227 274.58 95.957 274.268C95.1914 273.955 94.5391 273.522 94 272.967C93.4688 272.405 93.0586 271.752 92.7695 271.01C92.4883 270.26 92.3477 269.455 92.3477 268.596V268.127C92.3477 267.151 92.4883 266.264 92.7695 265.467C93.0508 264.662 93.4492 263.971 93.9648 263.393C94.4805 262.815 95.0977 262.369 95.8164 262.057C96.5352 261.744 97.3281 261.588 98.1953 261.588C99.0938 261.588 99.8867 261.74 100.574 262.045C101.262 262.342 101.836 262.764 102.297 263.311C102.758 263.858 103.105 264.514 103.34 265.28C103.574 266.037 103.691 266.877 103.691 267.799V269.1H93.7539V266.967H100.645V266.733C100.629 266.24 100.535 265.791 100.363 265.385C100.191 264.971 99.9258 264.643 99.5664 264.401C99.207 264.151 98.7422 264.026 98.1719 264.026C97.7109 264.026 97.3086 264.127 96.9648 264.33C96.6289 264.526 96.3477 264.807 96.1211 265.174C95.9023 265.533 95.7383 265.963 95.6289 266.463C95.5195 266.963 95.4648 267.518 95.4648 268.127V268.596C95.4648 269.127 95.5352 269.619 95.6758 270.073C95.8242 270.526 96.0391 270.92 96.3203 271.256C96.6094 271.584 96.9531 271.842 97.3516 272.03C97.7578 272.209 98.2188 272.299 98.7344 272.299C99.3828 272.299 99.9688 272.174 100.492 271.924C101.023 271.666 101.484 271.287 101.875 270.787L103.434 272.405C103.168 272.795 102.809 273.17 102.355 273.53C101.91 273.889 101.371 274.182 100.738 274.408C100.105 274.627 99.375 274.737 98.5469 274.737ZM108.859 264.412V274.502H105.766V261.823H108.695L108.859 264.412ZM112.715 261.74L112.668 264.623C112.496 264.592 112.301 264.569 112.082 264.553C111.871 264.537 111.672 264.53 111.484 264.53C111.008 264.53 110.59 264.596 110.23 264.729C109.871 264.854 109.57 265.037 109.328 265.28C109.094 265.522 108.914 265.819 108.789 266.17C108.664 266.514 108.594 266.905 108.578 267.342L107.91 267.26C107.91 266.455 107.992 265.709 108.156 265.022C108.32 264.334 108.559 263.733 108.871 263.217C109.184 262.701 109.574 262.303 110.043 262.022C110.52 261.733 111.066 261.588 111.684 261.588C111.855 261.588 112.039 261.604 112.234 261.635C112.438 261.658 112.598 261.694 112.715 261.74ZM121 261.823V264.049H113.734V261.823H121ZM115.68 258.705H118.785V270.846C118.785 271.221 118.836 271.51 118.938 271.713C119.039 271.916 119.191 272.053 119.395 272.123C119.598 272.194 119.84 272.229 120.121 272.229C120.324 272.229 120.512 272.217 120.684 272.194C120.855 272.17 121 272.147 121.117 272.123L121.129 274.444C120.871 274.53 120.578 274.6 120.25 274.655C119.93 274.709 119.566 274.737 119.16 274.737C118.465 274.737 117.855 274.619 117.332 274.385C116.809 274.143 116.402 273.756 116.113 273.225C115.824 272.686 115.68 271.975 115.68 271.092V258.705ZM126.344 261.823V274.502H123.238V261.823H126.344ZM123.027 258.506C123.027 258.045 123.184 257.662 123.496 257.358C123.816 257.053 124.246 256.901 124.785 256.901C125.324 256.901 125.75 257.053 126.062 257.358C126.383 257.662 126.543 258.045 126.543 258.506C126.543 258.959 126.383 259.338 126.062 259.643C125.75 259.948 125.324 260.1 124.785 260.1C124.246 260.1 123.816 259.948 123.496 259.643C123.184 259.338 123.027 258.959 123.027 258.506ZM136.27 271.033C136.27 270.768 136.199 270.53 136.059 270.319C135.918 270.108 135.652 269.916 135.262 269.744C134.879 269.565 134.316 269.397 133.574 269.24C132.918 269.1 132.312 268.924 131.758 268.713C131.203 268.502 130.727 268.248 130.328 267.951C129.93 267.647 129.617 267.291 129.391 266.885C129.172 266.471 129.062 265.994 129.062 265.455C129.062 264.932 129.176 264.44 129.402 263.979C129.629 263.51 129.957 263.1 130.387 262.748C130.816 262.389 131.34 262.108 131.957 261.905C132.574 261.694 133.27 261.588 134.043 261.588C135.121 261.588 136.047 261.764 136.82 262.115C137.602 262.467 138.199 262.951 138.613 263.569C139.027 264.178 139.234 264.865 139.234 265.631H136.141C136.141 265.295 136.062 264.99 135.906 264.717C135.758 264.444 135.527 264.225 135.215 264.061C134.902 263.889 134.508 263.803 134.031 263.803C133.602 263.803 133.238 263.873 132.941 264.014C132.652 264.155 132.434 264.338 132.285 264.565C132.137 264.791 132.062 265.041 132.062 265.315C132.062 265.518 132.102 265.701 132.18 265.865C132.266 266.022 132.402 266.166 132.59 266.299C132.777 266.432 133.031 266.553 133.352 266.662C133.68 266.772 134.082 266.877 134.559 266.979C135.504 267.166 136.328 267.416 137.031 267.729C137.742 268.033 138.297 268.44 138.695 268.948C139.094 269.455 139.293 270.104 139.293 270.893C139.293 271.455 139.172 271.971 138.93 272.44C138.688 272.901 138.336 273.303 137.875 273.647C137.414 273.99 136.863 274.26 136.223 274.455C135.582 274.643 134.859 274.737 134.055 274.737C132.891 274.737 131.906 274.53 131.102 274.115C130.297 273.694 129.688 273.162 129.273 272.522C128.859 271.873 128.652 271.201 128.652 270.506H131.617C131.641 270.998 131.773 271.393 132.016 271.69C132.258 271.987 132.562 272.201 132.93 272.334C133.305 272.459 133.699 272.522 134.113 272.522C134.582 272.522 134.977 272.459 135.297 272.334C135.617 272.201 135.859 272.026 136.023 271.807C136.188 271.58 136.27 271.323 136.27 271.033ZM144.93 261.823V274.502H141.824V261.823H144.93ZM141.613 258.506C141.613 258.045 141.77 257.662 142.082 257.358C142.402 257.053 142.832 256.901 143.371 256.901C143.91 256.901 144.336 257.053 144.648 257.358C144.969 257.662 145.129 258.045 145.129 258.506C145.129 258.959 144.969 259.338 144.648 259.643C144.336 259.948 143.91 260.1 143.371 260.1C142.832 260.1 142.402 259.948 142.082 259.643C141.77 259.338 141.613 258.959 141.613 258.506ZM150.918 264.53V274.502H147.824V261.823H150.73L150.918 264.53ZM150.426 267.705H149.512C149.52 266.783 149.645 265.948 149.887 265.198C150.129 264.448 150.469 263.803 150.906 263.264C151.352 262.725 151.879 262.311 152.488 262.022C153.098 261.733 153.777 261.588 154.527 261.588C155.137 261.588 155.688 261.674 156.18 261.846C156.672 262.018 157.094 262.291 157.445 262.666C157.805 263.041 158.078 263.533 158.266 264.143C158.461 264.744 158.559 265.487 158.559 266.369V274.502H155.441V266.346C155.441 265.768 155.355 265.311 155.184 264.975C155.02 264.639 154.777 264.401 154.457 264.26C154.145 264.119 153.758 264.049 153.297 264.049C152.82 264.049 152.402 264.147 152.043 264.342C151.691 264.53 151.395 264.791 151.152 265.127C150.918 265.463 150.738 265.85 150.613 266.287C150.488 266.725 150.426 267.198 150.426 267.705ZM169.352 261.823H172.164V274.115C172.164 275.264 171.914 276.237 171.414 277.033C170.922 277.838 170.23 278.448 169.34 278.862C168.449 279.283 167.414 279.494 166.234 279.494C165.727 279.494 165.176 279.424 164.582 279.283C163.996 279.143 163.43 278.92 162.883 278.615C162.344 278.319 161.895 277.932 161.535 277.455L162.93 275.627C163.352 276.119 163.828 276.49 164.359 276.74C164.891 276.998 165.465 277.127 166.082 277.127C166.707 277.127 167.238 277.01 167.676 276.776C168.121 276.549 168.461 276.213 168.695 275.768C168.938 275.33 169.059 274.791 169.059 274.151V264.717L169.352 261.823ZM160.785 268.315V268.069C160.785 267.1 160.902 266.221 161.137 265.432C161.371 264.635 161.707 263.951 162.145 263.381C162.59 262.811 163.125 262.369 163.75 262.057C164.383 261.744 165.094 261.588 165.883 261.588C166.719 261.588 167.422 261.74 167.992 262.045C168.57 262.35 169.047 262.783 169.422 263.346C169.805 263.908 170.102 264.576 170.312 265.35C170.531 266.115 170.699 266.959 170.816 267.881V268.549C170.707 269.448 170.531 270.272 170.289 271.022C170.055 271.772 169.742 272.428 169.352 272.99C168.961 273.545 168.477 273.975 167.898 274.28C167.32 274.584 166.641 274.737 165.859 274.737C165.078 274.737 164.375 274.576 163.75 274.256C163.125 273.936 162.59 273.487 162.145 272.908C161.707 272.33 161.371 271.651 161.137 270.869C160.902 270.088 160.785 269.237 160.785 268.315ZM163.879 268.069V268.315C163.879 268.862 163.934 269.373 164.043 269.85C164.152 270.326 164.32 270.748 164.547 271.115C164.773 271.475 165.059 271.756 165.402 271.959C165.746 272.162 166.156 272.264 166.633 272.264C167.273 272.264 167.797 272.131 168.203 271.865C168.617 271.592 168.93 271.221 169.141 270.752C169.359 270.276 169.5 269.74 169.562 269.147V267.307C169.523 266.838 169.438 266.405 169.305 266.006C169.18 265.608 169.004 265.264 168.777 264.975C168.551 264.686 168.262 264.459 167.91 264.295C167.559 264.131 167.141 264.049 166.656 264.049C166.188 264.049 165.777 264.155 165.426 264.365C165.074 264.569 164.785 264.854 164.559 265.221C164.332 265.588 164.16 266.014 164.043 266.498C163.934 266.983 163.879 267.506 163.879 268.069Z" fill="#0D0F11"/>
<defs>
<filter id="filter0_d_202_1508" x="0.0145841" y="0.366667" width="415.083" height="400.083" filterUnits="userSpaceOnUse" color-interpolation-filters="sRGB">
<feFlood flood-opacity="0" result="BackgroundImageFix"/>
<feColorMatrix in="SourceAlpha" type="matrix" values="0 0 0 0 0 0 0 0 0 0 0 0 0 0 0 0 0 0 127 0" result="hardAlpha"/>
<feOffset dx="4.05625" dy="5.40833"/>
<feGaussianBlur stdDeviation="13.5208"/>
<feComposite in2="hardAlpha" operator="out"/>
<feColorMatrix type="matrix" values="0 0 0 0 0.458824 0 0 0 0 0.501961 0 0 0 0 0.533333 0 0 0 0.1 0"/>
<feBlend mode="normal" in2="BackgroundImageFix" result="effect1_dropShadow_202_1508"/>
<feBlend mode="normal" in="SourceGraphic" in2="effect1_dropShadow_202_1508" result="shape"/>
</filter>
<linearGradient id="paint0_linear_202_1508" x1="239.113" y1="73.2575" x2="254.339" y2="73.2575" gradientUnits="userSpaceOnUse">
<stop stop-color="#0075C2"/>
<stop offset="1" stop-color="#82D1DA"/>
</linearGradient>
<linearGradient id="paint1_linear_202_1508" x1="162.733" y1="73.209" x2="185.548" y2="73.209" gradientUnits="userSpaceOnUse">
<stop stop-color="#F47A4B"/>
<stop offset="1" stop-color="#F79975"/>
</linearGradient>
<linearGradient id="paint2_linear_202_1508" x1="132.807" y1="180.352" x2="155.622" y2="180.352" gradientUnits="userSpaceOnUse">
<stop stop-color="#BFDEAB"/>
<stop offset="1" stop-color="#82D1DA"/>
</linearGradient>
<linearGradient id="paint3_linear_202_1508" x1="124.537" y1="119.043" x2="139.726" y2="119.043" gradientUnits="userSpaceOnUse">
<stop stop-color="#BFDEAB"/>
<stop offset="1" stop-color="#82D1DA"/>
</linearGradient>
<linearGradient id="paint4_linear_202_1508" x1="262.004" y1="180.184" x2="277.193" y2="180.184" gradientUnits="userSpaceOnUse">
<stop stop-color="#28B473"/>
<stop offset="1" stop-color="#1CBFD6"/>
</linearGradient>
</defs>
</svg>
