<svg width="416" height="401" viewBox="0 0 416 401" fill="none" xmlns="http://www.w3.org/2000/svg">
<g filter="url(#filter0_d_202_1506)">
<rect x="23" y="22.0001" width="361" height="346" rx="16.225" fill="white"/>
</g>
<g opacity="0.5">
<path d="M339.914 126.952L336.848 123.886C336.551 123.589 336.551 123.107 336.848 122.81C337.145 122.513 337.627 122.513 337.924 122.81L340.99 125.876C341.287 126.173 341.287 126.655 340.99 126.952C340.693 127.249 340.211 127.249 339.914 126.952Z" fill="#A5AFB9"/>
<path d="M336.848 126.952C336.551 126.655 336.551 126.174 336.848 125.876L339.914 122.81C340.21 122.514 340.693 122.514 340.989 122.81C341.287 123.107 341.287 123.589 340.989 123.886L337.923 126.952C337.627 127.25 337.144 127.25 336.848 126.952Z" fill="#A5AFB9"/>
<path d="M94.3082 99.9866L91.2421 96.9205C90.9453 96.6232 90.9453 96.1415 91.2421 95.8448C91.5388 95.5474 92.0211 95.5474 92.3178 95.8448L95.3839 98.9109C95.6813 99.2076 95.6813 99.6899 95.3839 99.9866C95.0872 100.283 94.605 100.283 94.3082 99.9866Z" fill="#A5AFB9"/>
<path d="M91.2421 99.9862C90.9453 99.6894 90.9453 99.2072 91.2421 98.9104L94.3088 95.8443C94.6056 95.5476 95.0872 95.5476 95.3846 95.8443C95.6813 96.1411 95.6813 96.6233 95.3846 96.9201L92.3185 99.9862C92.0211 100.284 91.5395 100.284 91.2421 99.9862Z" fill="#A5AFB9"/>
<path d="M147.077 77.437C147.271 77.437 147.466 77.5111 147.615 77.6595C147.912 77.9569 147.912 78.4385 147.615 78.7352L144.549 81.8007C144.251 82.0975 143.77 82.0975 143.473 81.8007C143.176 81.5034 143.176 81.0217 143.473 80.725L146.539 77.6595C146.687 77.5111 146.882 77.437 147.077 77.437Z" fill="#A5AFB9"/>
<path d="M144.011 77.437C144.205 77.437 144.4 77.5111 144.549 77.6595L147.615 80.725C147.912 81.0217 147.912 81.5034 147.615 81.8007C147.317 82.0975 146.836 82.0975 146.539 81.8007L143.473 78.7352C143.176 78.4385 143.176 77.9569 143.473 77.6595C143.621 77.5111 143.816 77.437 144.011 77.437Z" fill="#A5AFB9"/>
<path d="M155.214 144.899C155.019 144.899 154.824 144.825 154.676 144.676C154.379 144.379 154.379 143.897 154.676 143.6L157.742 140.534C158.039 140.237 158.521 140.237 158.818 140.534C159.115 140.832 159.115 141.313 158.818 141.61L155.752 144.676C155.603 144.825 155.408 144.899 155.214 144.899H155.214Z" fill="#A5AFB9"/>
<path d="M158.28 144.899C158.085 144.899 157.891 144.825 157.742 144.676L154.676 141.61C154.379 141.313 154.379 140.832 154.676 140.534C154.973 140.237 155.454 140.237 155.752 140.534L158.818 143.6C159.115 143.897 159.115 144.379 158.818 144.676C158.669 144.825 158.474 144.899 158.28 144.899H158.28Z" fill="#A5AFB9"/>
<rect x="187.342" y="73.3792" width="32.4519" height="1.52163" fill="#A5AFB9"/>
<rect x="150.596" y="78.9584" width="51.4516" height="1.52163" fill="#A5AFB9"/>
<rect x="179.193" y="73.3792" width="5.61348" height="1.52163" fill="#A5AFB9"/>
<rect x="313.705" y="140.511" width="17.6463" height="1.52163" fill="#A5AFB9"/>
<rect x="332.877" y="140.511" width="3.62178" height="1.52163" fill="#A5AFB9"/>
<rect x="71.6758" y="110.15" width="17.6463" height="1.52163" fill="#A5AFB9"/>
<rect x="90.8418" y="110.15" width="3.62228" height="1.52163" fill="#A5AFB9"/>
<path d="M94.9323 85.2847C94.9323 85.8855 94.4452 86.3727 93.8438 86.3727C93.243 86.3727 92.7559 85.8855 92.7559 85.2847C92.7559 84.6833 93.243 84.1962 93.8438 84.1962C94.4452 84.1962 94.9323 84.6833 94.9323 85.2847Z" fill="#A5AFB9"/>
<path d="M324.857 100.28C324.857 101.034 324.246 101.646 323.491 101.646C322.737 101.646 322.125 101.034 322.125 100.28C322.125 99.5256 322.737 98.9139 323.491 98.9139C324.246 98.9139 324.857 99.5256 324.857 100.28Z" fill="#A5AFB9"/>
<rect x="270.506" y="197.156" width="26.6007" height="1.52162" fill="#A5AFB9"/>
<rect x="87.8809" y="197.156" width="29.1047" height="1.52162" fill="#A5AFB9"/>
<rect x="128.949" y="197.156" width="28.0865" height="1.52162" fill="#A5AFB9"/>
<rect x="82.873" y="197.156" width="3.00701" height="1.52162" fill="#A5AFB9"/>
<rect x="319.9" y="197.156" width="6.64046" height="1.52162" fill="#A5AFB9"/>
</g>
<g opacity="0.8">
<path d="M151.451 106.037L152.417 106.795" stroke="#192E53" stroke-width="1.21622" stroke-linecap="round" stroke-linejoin="round"/>
<path d="M149.607 112.632L150.826 112.485" stroke="#192E53" stroke-width="1.21622" stroke-linecap="round" stroke-linejoin="round"/>
<path d="M150.695 115.95L151.765 115.347" stroke="#192E53" stroke-width="1.21622" stroke-linecap="round" stroke-linejoin="round"/>
<path d="M149.871 109.152L151.053 109.482" stroke="#192E53" stroke-width="1.21622" stroke-linecap="round" stroke-linejoin="round"/>
<path d="M168.21 108.431C169.28 106.165 168.551 104.415 167.555 103.229C166.302 101.738 164.373 100.919 162.429 101.052C160.885 101.158 159.119 101.849 158.231 104.192C157.244 106.8 155.631 108.415 154.284 109.375C153.29 110.082 153.105 111.471 153.891 112.403C156.61 115.621 161.107 117.534 165.314 117.255C166.53 117.175 167.401 116.077 167.221 114.87C166.975 113.235 167.019 110.952 168.21 108.431L168.21 108.431Z" stroke="#192E53" stroke-width="1.21622" stroke-linecap="round" stroke-linejoin="round"/>
<path d="M156.827 116.624C156.544 117.362 157.048 118.268 157.974 118.661C158.901 119.055 159.902 118.789 160.237 118.073" stroke="#192E53" stroke-width="1.21622" stroke-linecap="round" stroke-linejoin="round"/>
</g>
<g style="mix-blend-mode:multiply" opacity="0.8">
<path d="M169.622 107.215C170.692 104.949 169.964 103.199 168.967 102.013C167.714 100.522 165.786 99.7032 163.842 99.8363C162.297 99.9415 160.531 100.633 159.644 102.976C158.656 105.584 157.044 107.199 155.696 108.159C154.702 108.866 154.517 110.255 155.304 111.187C158.022 114.405 162.519 116.318 166.726 116.039C167.943 115.958 168.814 114.861 168.633 113.654C168.388 112.019 168.431 109.736 169.622 107.214L169.622 107.215Z" fill="url(#paint0_linear_202_1506)"/>
</g>
<g style="mix-blend-mode:multiply">
<circle cx="282.886" cy="99.8733" r="6.01729" fill="url(#paint1_linear_202_1506)"/>
</g>
<path d="M283.786 100.033C283.786 101.159 282.872 102.814 281.746 102.814C280.62 102.814 279.707 101.159 279.707 100.033C279.707 98.9066 280.62 97.9932 281.746 97.9932C282.872 97.9932 283.786 98.9066 283.786 100.033Z" fill="white"/>
<path d="M283.359 103.331C283.023 104.073 282.428 104.722 281.747 104.722C281.066 104.722 280.471 104.073 280.135 103.331C279.135 103.504 278.226 103.83 277.467 104.276V105.637C278.618 105.948 280.111 106.51 281.747 106.51C283.385 106.51 284.88 105.947 286.032 105.635V104.279C285.272 103.832 284.36 103.505 283.359 103.331Z" fill="white"/>
<circle cx="281.748" cy="101.048" r="6.05117" stroke="#192E53" stroke-width="1.21622" stroke-linecap="round" stroke-linejoin="round"/>
<g style="mix-blend-mode:multiply">
<circle cx="117.814" cy="97.1484" r="9.03855" fill="url(#paint2_linear_202_1506)"/>
</g>
<path d="M122.389 103.407C120.46 102.662 118.319 102.701 118.139 102.124V101.257C120.065 101.252 120.83 100.629 120.83 100.629C120.026 100.172 119.771 96.9814 119.771 96.9814C119.771 96.0048 119.36 95.1316 118.713 94.5338C118.47 94.251 118.135 94.0376 117.703 93.9105C117.38 93.7901 117.033 93.7214 116.671 93.7214C116.286 93.7214 115.919 93.7986 115.579 93.9336C115.23 94.0491 114.944 94.2237 114.722 94.4487C114.02 95.0464 113.571 95.9586 113.571 96.9815C113.571 96.9815 113.316 100.172 112.513 100.629C112.513 100.629 113.277 101.252 115.203 101.257V102.124C115.024 102.701 112.882 102.662 110.953 103.407C110.789 103.471 110.68 103.631 110.68 103.81V105.323C110.68 105.561 115.317 107.792 115.552 107.792L119.069 107.532C119.304 107.532 122.663 105.561 122.663 105.323V103.81C122.663 103.631 122.554 103.471 122.389 103.407L122.389 103.407Z" fill="white"/>
<circle cx="116.671" cy="98.3279" r="9.07676" stroke="#192E53" stroke-width="1.21622" stroke-linecap="round" stroke-linejoin="round"/>
<g style="mix-blend-mode:multiply">
<circle cx="196.314" cy="121.001" r="9.03855" fill="url(#paint3_linear_202_1506)"/>
</g>
<path d="M200.822 128.001C199.675 126.887 198.276 126.101 196.77 125.726C196.732 125.705 196.689 125.693 196.645 125.693H196.508C196.465 125.693 196.423 125.704 196.385 125.724C196.386 125.727 196.775 126.64 197.016 126.729C197.016 126.729 195.128 128.486 194.674 130.821H196.837C196.982 130.821 200.901 129.268 200.901 129.123V128.188C200.901 128.117 200.873 128.05 200.822 128.001L200.822 128.001Z" fill="white"/>
<path d="M192.333 126.729C192.575 126.64 192.964 125.724 192.964 125.724C192.927 125.704 192.884 125.693 192.841 125.693H192.742C192.722 125.693 192.701 125.696 192.681 125.701C191.136 126.066 189.7 126.862 188.527 128.001C188.476 128.05 188.447 128.117 188.447 128.188V129.123C188.447 129.268 192.79 131.082 192.935 131.082L194.675 130.821C194.221 128.486 192.333 126.729 192.333 126.729L192.333 126.729Z" fill="white"/>
<path d="M192.333 118.965C192.039 119.436 191.868 120.001 191.868 120.608C191.868 120.945 191.921 121.268 192.018 121.57C191.85 121.649 191.733 121.828 191.733 122.036C191.733 122.318 191.948 122.546 192.214 122.546L192.223 122.546C192.279 123.301 192.638 124.057 193.171 124.574V125.148C193.171 125.148 193.877 126.534 194.676 126.55C195.475 126.567 196.181 125.148 196.181 125.148V124.574C196.714 124.057 197.073 123.301 197.129 122.546L197.137 122.546C197.403 122.546 197.619 122.318 197.619 122.036C197.619 121.828 197.502 121.649 197.333 121.57C197.431 121.268 197.484 120.945 197.484 120.608C197.484 120.299 197.44 120.002 197.358 119.722C197.466 119.94 197.535 120.143 197.598 120.277C197.637 120.361 197.784 120.277 197.784 120.277C198.069 119.04 197.032 118.27 197.032 118.27C197.809 118.316 198.081 118.671 198.081 118.671C197.42 117.529 196.543 117.832 196.538 117.835C195.34 116.121 192.678 117.29 192.678 117.29C193.406 117.152 193.942 117.178 194.445 117.232C191.993 117.112 191.449 119.631 191.449 119.631C191.543 119.334 191.891 119.119 192.333 118.965H192.333Z" fill="white"/>
<circle cx="194.678" cy="122.005" r="9.07676" stroke="#192E53" stroke-width="1.21622" stroke-linecap="round" stroke-linejoin="round"/>
<g style="mix-blend-mode:multiply">
<circle cx="160.294" cy="166.046" r="9.03855" fill="url(#paint4_linear_202_1506)"/>
</g>
<path d="M164.527 172.832C162.619 172.094 160.501 171.179 160.324 170.608V170.01C160.719 169.605 161.031 169.041 161.216 168.38C161.461 168.208 161.623 167.917 161.623 167.587C161.623 167.353 161.538 167.14 161.403 166.974V165.634C161.403 164.251 160.633 163.305 158.872 163.305C157.157 163.305 156.341 164.251 156.341 165.634V166.974C156.206 167.14 156.121 167.353 156.121 167.587C156.121 167.916 156.282 168.206 156.528 168.38C156.713 169.041 157.025 169.605 157.421 170.01V170.608C157.244 171.178 155.125 172.094 153.217 172.832C153.055 172.894 152.947 173.053 152.947 173.229V174.352C152.947 174.587 156.859 176.174 157.09 176.174L160.779 176.145C161.011 176.145 164.797 174.567 164.797 174.333V173.229C164.797 173.053 164.689 172.894 164.527 172.832Z" fill="white"/>
<circle cx="158.87" cy="167.315" r="9.07676" stroke="#192E53" stroke-width="1.21622" stroke-linecap="round" stroke-linejoin="round"/>
<g opacity="0.8">
<path d="M251.896 156.11L258.478 146.821L261.847 150.637L267.755 142.58L271.435 146.326L277.032 137.986L282.163 142.651L283.925 140.107L290.611 147.048L295.43 141.096V156.11L251.896 156.11Z" fill="#FFCE03"/>
<path d="M250.92 156.365H300.362" stroke="#192E53" stroke-width="1.21622" stroke-linecap="round" stroke-linejoin="round"/>
<path d="M247.865 155.515L258.53 140.929L261.692 145.083L267.58 136.9L271.404 141.267L276.701 132.928L282.06 137.676L284.101 135.188L289.934 141.421" stroke="#192E53" stroke-width="1.21622" stroke-linecap="round" stroke-linejoin="round"/>
<g style="mix-blend-mode:multiply" opacity="0.5">
<mask id="mask0_202_1506" style="mask-type:alpha" maskUnits="userSpaceOnUse" x="250" y="127" width="49" height="30">
<path d="M250.848 156.111L257.442 145.412L260.713 147.188L266.736 140.177L270.37 141.205L275.926 127.65L281.274 140.27L282.987 137.092L289.529 145.786L294.462 138.12L298.408 141.953V156.111L250.848 156.111Z" fill="black"/>
</mask>
<g mask="url(#mask0_202_1506)">
<path d="M225.892 158.429L225.447 157.823L272.019 94.3146L272.463 94.9207L225.892 158.429Z" fill="#F6921E"/>
<path d="M226.775 159.633L226.33 159.027L272.902 95.5187L273.346 96.1247L226.775 159.633Z" fill="#F6921E"/>
<path d="M227.671 160.86L227.227 160.254L273.798 96.7458L274.243 97.3519L227.671 160.86Z" fill="#F6921E"/>
<path d="M228.575 162.087L228.131 161.481L274.702 97.9729L275.147 98.5789L228.575 162.087Z" fill="#F6921E"/>
<path d="M229.456 163.291L229.012 162.685L275.583 99.1769L276.028 99.783L229.456 163.291Z" fill="#F6921E"/>
<path d="M230.333 164.484L229.889 163.878L276.46 100.37L276.905 100.976L230.333 164.484Z" fill="#F6921E"/>
<path d="M231.231 165.711L230.787 165.105L277.359 101.597L277.803 102.203L231.231 165.711Z" fill="#F6921E"/>
<path d="M232.134 166.938L231.689 166.332L278.261 102.825L278.705 103.431L232.134 166.938Z" fill="#F6921E"/>
<path d="M233.017 168.143L232.572 167.536L279.144 104.029L279.588 104.635L233.017 168.143Z" fill="#F6921E"/>
<path d="M233.872 169.313L233.428 168.707L279.999 105.199L280.444 105.805L233.872 169.313Z" fill="#F6921E"/>
<path d="M234.775 170.54L234.33 169.934L280.902 106.426L281.346 107.032L234.775 170.54Z" fill="#F6921E"/>
<path d="M235.673 171.767L235.229 171.161L281.8 107.653L282.245 108.259L235.673 171.767Z" fill="#F6921E"/>
<path d="M236.554 172.972L236.109 172.366L282.681 108.858L283.125 109.464L236.554 172.972Z" fill="#F6921E"/>
<path d="M237.431 174.165L236.986 173.559L283.558 110.051L284.002 110.657L237.431 174.165Z" fill="#F6921E"/>
<path d="M238.329 175.392L237.885 174.786L284.456 111.278L284.901 111.884L238.329 175.392Z" fill="#F6921E"/>
<path d="M239.231 176.619L238.787 176.013L285.359 112.505L285.803 113.111L239.231 176.619Z" fill="#F6921E"/>
<path d="M240.114 177.823L239.67 177.217L286.241 113.709L286.686 114.315L240.114 177.823Z" fill="#F6921E"/>
<path d="M241.007 179.041L240.562 178.435L287.134 114.928L287.578 115.534L241.007 179.041Z" fill="#F6921E"/>
<path d="M241.905 180.269L241.461 179.663L288.032 116.155L288.477 116.761L241.905 180.269Z" fill="#F6921E"/>
<path d="M242.808 181.496L242.363 180.89L288.935 117.382L289.379 117.988L242.808 181.496Z" fill="#F6921E"/>
<path d="M243.689 182.7L243.244 182.094L289.816 118.586L290.26 119.192L243.689 182.7Z" fill="#F6921E"/>
<path d="M244.566 183.893L244.121 183.287L290.693 119.779L291.137 120.385L244.566 183.893Z" fill="#F6921E"/>
<path d="M245.464 185.12L245.02 184.514L291.591 121.006L292.036 121.612L245.464 185.12Z" fill="#F6921E"/>
<path d="M246.362 186.348L245.918 185.741L292.489 122.234L292.934 122.84L246.362 186.348Z" fill="#F6921E"/>
<path d="M247.247 187.552L246.803 186.946L293.374 123.438L293.819 124.044L247.247 187.552Z" fill="#F6921E"/>
<path d="M248.105 188.722L247.66 188.116L294.232 124.608L294.676 125.214L248.105 188.722Z" fill="#F6921E"/>
<path d="M249.011 189.949L248.566 189.343L295.138 125.835L295.582 126.441L249.011 189.949Z" fill="#F6921E"/>
<path d="M249.907 191.176L249.463 190.57L296.034 127.062L296.479 127.668L249.907 191.176Z" fill="#F6921E"/>
<path d="M250.79 192.38L250.346 191.774L296.917 128.267L297.362 128.873L250.79 192.38Z" fill="#F6921E"/>
<path d="M251.667 193.573L251.223 192.967L297.794 129.46L298.239 130.066L251.667 193.573Z" fill="#F6921E"/>
<path d="M252.566 194.801L252.121 194.195L298.693 130.687L299.137 131.293L252.566 194.801Z" fill="#F6921E"/>
<path d="M253.462 196.028L253.018 195.422L299.589 131.914L300.033 132.52L253.462 196.028Z" fill="#F6921E"/>
<path d="M254.351 197.232L253.906 196.626L300.478 133.118L300.922 133.724L254.351 197.232Z" fill="#F6921E"/>
<path d="M255.226 198.429L254.781 197.823L301.353 134.315L301.797 134.921L255.226 198.429Z" fill="#F6921E"/>
<path d="M256.124 199.656L255.68 199.05L302.251 135.542L302.696 136.148L256.124 199.656Z" fill="#F6921E"/>
<path d="M257.027 200.883L256.582 200.277L303.154 136.769L303.598 137.375L257.027 200.883Z" fill="#F6921E"/>
<path d="M257.909 202.087L257.465 201.481L304.036 137.973L304.481 138.579L257.909 202.087Z" fill="#F6921E"/>
<path d="M258.78 203.28L258.336 202.674L304.907 139.166L305.352 139.772L258.78 203.28Z" fill="#F6921E"/>
<path d="M259.685 204.507L259.24 203.901L305.812 140.393L306.256 140.999L259.685 204.507Z" fill="#F6921E"/>
<path d="M260.581 205.735L260.137 205.128L306.708 141.621L307.153 142.227L260.581 205.735Z" fill="#F6921E"/>
<path d="M261.464 206.939L261.02 206.333L307.591 142.825L308.035 143.431L261.464 206.939Z" fill="#F6921E"/>
<path d="M262.325 208.109L261.881 207.503L308.452 143.995L308.897 144.601L262.325 208.109Z" fill="#F6921E"/>
<path d="M263.222 209.336L262.777 208.73L309.349 145.222L309.793 145.829L263.222 209.336Z" fill="#F6921E"/>
<path d="M264.12 210.563L263.676 209.957L310.247 146.449L310.692 147.055L264.12 210.563Z" fill="#F6921E"/>
<path d="M265.007 211.767L264.562 211.161L311.134 147.654L311.578 148.26L265.007 211.767Z" fill="#F6921E"/>
<path d="M265.884 212.961L265.439 212.355L312.011 148.847L312.455 149.453L265.884 212.961Z" fill="#F6921E"/>
<path d="M266.782 214.188L266.338 213.582L312.909 150.074L313.354 150.68L266.782 214.188Z" fill="#F6921E"/>
<path d="M267.679 215.415L267.234 214.809L313.806 151.301L314.25 151.907L267.679 215.415Z" fill="#F6921E"/>
<path d="M268.562 216.619L268.117 216.013L314.689 152.505L315.133 153.111L268.562 216.619Z" fill="#F6921E"/>
<path d="M269.46 217.838L269.016 217.232L315.587 153.724L316.031 154.33L269.46 217.838Z" fill="#F6921E"/>
<path d="M270.356 219.065L269.912 218.459L316.484 154.951L316.928 155.557L270.356 219.065Z" fill="#F6921E"/>
</g>
</g>
<path d="M298.786 131.624L289.934 141.421" stroke="#192E53" stroke-width="1.21622" stroke-linecap="round" stroke-linejoin="round" stroke-dasharray="0.3 3.04"/>
</g>
<g opacity="0.8">
<ellipse cx="124.909" cy="156.161" rx="14.2297" ry="14.4208" fill="white" stroke="#192E53" stroke-width="1.21622" stroke-linecap="round" stroke-linejoin="round"/>
<g style="mix-blend-mode:multiply" opacity="0.5">
<circle cx="126.527" cy="155.015" r="14.3263" fill="url(#paint5_linear_202_1506)"/>
</g>
<path d="M124.348 143.807L124.26 157.076L133.601 147.841C133.601 147.841 130.662 144.556 124.348 143.807V143.807Z" fill="url(#paint6_linear_202_1506)"/>
<path d="M138.37 145.014L140.354 143.004C140.42 142.937 140.466 142.853 140.478 142.774C140.492 142.692 140.474 142.619 140.427 142.571L138.11 140.225C138.064 140.177 137.992 140.159 137.913 140.172C137.834 140.185 137.75 140.23 137.684 140.298L135.7 142.307C135.634 142.374 138.304 145.082 138.37 145.014L138.37 145.014Z" fill="white" stroke="#192E53" stroke-width="1.21622" stroke-linecap="round" stroke-linejoin="round"/>
<path d="M127.195 141.926V139.425H128.763V135.504C128.763 135.071 128.412 134.72 127.979 134.72H121.706C121.273 134.72 120.922 135.071 120.922 135.504V139.425H122.49V141.926" stroke="#192E53" stroke-width="1.21622" stroke-linecap="round" stroke-linejoin="round"/>
<path d="M133.275 147.865L124.586 156.773L133.275 147.865Z" fill="white"/>
<path d="M133.275 147.865L124.586 156.773" stroke="#192E53" stroke-width="1.21622" stroke-linecap="round" stroke-linejoin="round"/>
</g>
<rect x="164.834" y="127.789" width="98.4544" height="61.2928" rx="3.44754" fill="white" stroke="#192E53" stroke-width="1.21622" stroke-linecap="round" stroke-linejoin="round"/>
<path fill-rule="evenodd" clip-rule="evenodd" d="M159.922 193.454L160.298 196.608C160.368 197.392 161.024 197.993 161.811 197.993H266.397C267.16 197.993 267.805 197.427 267.903 196.67L268.205 193.454" fill="white"/>
<path d="M159.922 193.454L160.298 196.608C160.368 197.392 161.024 197.993 161.811 197.993H266.397C267.16 197.993 267.805 197.427 267.903 196.67L268.205 193.454" stroke="#192E53" stroke-width="1.21622" stroke-linecap="round" stroke-linejoin="round"/>
<path fill-rule="evenodd" clip-rule="evenodd" d="M164.835 187.194L159.902 192.703C159.685 193.654 160.407 194.56 161.382 194.56H266.742C267.718 194.56 268.44 193.654 268.223 192.703L263.29 187.194H164.835Z" fill="white" stroke="#192E53" stroke-width="1.21622" stroke-linecap="round" stroke-linejoin="round"/>
<rect opacity="0.25" x="229.945" y="174.543" width="52.1448" height="39.4203" transform="rotate(180 229.945 174.543)" fill="url(#paint7_linear_202_1506)"/>
<path d="M235.531 137.638H252.384" stroke="#192E53" stroke-width="1.21622" stroke-linecap="round" stroke-linejoin="round"/>
<path d="M235.531 141.668H252.384" stroke="#192E53" stroke-width="1.21622" stroke-linecap="round" stroke-linejoin="round"/>
<path d="M235.531 145.699H245.666" stroke="#192E53" stroke-width="1.21622" stroke-linecap="round" stroke-linejoin="round"/>
<path d="M235.531 167.868H252.384" stroke="#192E53" stroke-width="1.21622" stroke-linecap="round" stroke-linejoin="round"/>
<path d="M235.531 171.899H246.338" stroke="#192E53" stroke-width="1.21622" stroke-linecap="round" stroke-linejoin="round"/>
<path d="M235.531 153.089H252.384" stroke="#192E53" stroke-width="1.21622" stroke-linecap="round" stroke-linejoin="round"/>
<path d="M235.531 157.119H252.384" stroke="#192E53" stroke-width="1.21622" stroke-linecap="round" stroke-linejoin="round"/>
<path d="M235.531 161.15H240.292" stroke="#192E53" stroke-width="1.21622" stroke-linecap="round" stroke-linejoin="round"/>
<rect x="175.111" y="137.81" width="52.1448" height="39.4203" stroke="#192E53" stroke-width="1.21622" stroke-linecap="round" stroke-linejoin="round"/>
<path d="M208.318 151.992C207.838 151.646 206.5 151.187 200.895 151.187C194.889 151.187 193.997 151.714 193.711 151.887C192.189 152.801 192.045 156.849 192.031 157.67C192.05 158.755 192.225 162.361 193.71 163.253C193.996 163.425 194.882 163.95 200.896 163.95C206.504 163.95 207.84 163.492 208.318 163.149C209.615 162.215 209.765 159.001 209.769 157.656C209.765 156.574 209.652 152.952 208.318 151.992Z" fill="white" stroke="#192E53" stroke-width="1.21622" stroke-linecap="round" stroke-linejoin="round"/>
<path d="M203.442 157.899L200.359 160.139C200.118 160.315 199.77 160.146 199.77 159.838V155.36C199.77 155.059 200.112 154.88 200.359 155.06L203.442 157.299C203.646 157.446 203.646 157.752 203.442 157.899Z" fill="white" stroke="#192E53" stroke-width="1.21622" stroke-linecap="round" stroke-linejoin="round"/>
<g opacity="0.8">
<g style="mix-blend-mode:multiply">
<circle cx="299.857" cy="160.274" r="12.1829" fill="url(#paint8_linear_202_1506)"/>
</g>
<circle cx="298.441" cy="161.428" r="12.1829" stroke="#192E53" stroke-width="1.21622" stroke-linecap="round" stroke-linejoin="round"/>
<path d="M308.153 168.781L317.111 177.741C317.762 178.392 317.762 179.448 317.111 180.1V180.1C316.459 180.752 315.403 180.752 314.752 180.1L305.793 171.142" stroke="#192E53" stroke-width="1.21622" stroke-linecap="round" stroke-linejoin="round"/>
<path d="M303.267 159.734C303.845 159.733 304.313 159.266 304.313 158.689C304.313 158.111 303.845 157.643 303.268 157.643C302.69 157.643 302.223 158.111 302.223 158.689C302.223 159.266 302.69 159.733 303.267 159.734Z" stroke="white" stroke-width="1.21622" stroke-linecap="round" stroke-linejoin="round"/>
<path d="M298.317 166.842C298.894 166.841 299.362 166.374 299.362 165.796C299.362 165.219 298.894 164.751 298.317 164.751C297.74 164.751 297.271 165.219 297.271 165.797C297.271 166.374 297.74 166.841 298.317 166.842L298.317 166.842Z" stroke="white" stroke-width="1.21622" stroke-linecap="round" stroke-linejoin="round"/>
<path d="M293.366 161.331C293.943 161.331 294.411 160.863 294.411 160.286C294.411 159.708 293.943 159.241 293.366 159.241C292.789 159.241 292.32 159.709 292.32 160.286C292.32 160.863 292.789 161.331 293.366 161.331Z" stroke="white" stroke-width="1.21622" stroke-linecap="round" stroke-linejoin="round"/>
<path d="M304.137 159.268L306.175 160.783" stroke="white" stroke-width="1.21622" stroke-linecap="round" stroke-linejoin="round"/>
<path d="M302.696 159.565L298.879 164.92" stroke="white" stroke-width="1.21622" stroke-linecap="round" stroke-linejoin="round"/>
<path d="M297.613 165.028L294.086 161.072" stroke="white" stroke-width="1.21622" stroke-linecap="round" stroke-linejoin="round"/>
<path d="M292.451 160.785L290.678 161.644" stroke="white" stroke-width="1.21622" stroke-linecap="round" stroke-linejoin="round"/>
</g>
<g opacity="0.8">
<path d="M236.203 84.2144C224.682 84.2144 215.342 93.5543 215.342 105.075H221.601C221.601 97.0102 228.138 90.4724 236.203 90.4724C244.268 90.4724 250.806 97.0102 250.806 105.075H257.064C257.064 93.5543 247.724 84.2144 236.203 84.2144Z" fill="white" stroke="#192E53" stroke-width="1.21622" stroke-linecap="round" stroke-linejoin="round"/>
<g style="mix-blend-mode:multiply">
<path d="M216.705 103.718C216.802 96.9846 220.14 91.0387 225.227 87.3591L228.44 92.0077C224.826 94.6644 222.452 98.91 222.355 103.718H216.705Z" fill="url(#paint9_linear_202_1506)"/>
<path d="M216.705 103.718C216.802 96.9846 220.14 91.0387 225.227 87.3591L228.44 92.0077C224.826 94.6644 222.452 98.91 222.355 103.718H216.705Z" stroke="white" stroke-width="0.608108"/>
</g>
<g style="mix-blend-mode:multiply">
<path d="M246.234 92.1229L249.56 87.5563C254.495 91.2492 257.718 97.1037 257.814 103.718H252.162C252.067 98.9794 249.76 94.7866 246.234 92.1229Z" fill="url(#paint10_linear_202_1506)"/>
<path d="M246.234 92.1229L249.56 87.5563C254.495 91.2492 257.718 97.1037 257.814 103.718H252.162C252.067 98.9794 249.76 94.7866 246.234 92.1229Z" stroke="white" stroke-width="0.608108"/>
</g>
<g style="mix-blend-mode:multiply">
<path d="M225.72 87.0099C229.01 84.7747 232.978 83.4645 237.254 83.4645C241.651 83.4645 245.722 84.8484 249.064 87.1991L245.737 91.7662C243.329 90.0966 240.407 89.115 237.254 89.115C234.172 89.115 231.309 90.0539 228.932 91.6574L225.72 87.0099Z" fill="url(#paint11_linear_202_1506)"/>
<path d="M225.72 87.0099C229.01 84.7747 232.978 83.4645 237.254 83.4645C241.651 83.4645 245.722 84.8484 249.064 87.1991L245.737 91.7662C243.329 90.0966 240.407 89.115 237.254 89.115C234.172 89.115 231.309 90.0539 228.932 91.6574L225.72 87.0099Z" stroke="white" stroke-width="0.608108"/>
</g>
<ellipse cx="236.425" cy="103.179" rx="2.02445" ry="2.07083" transform="rotate(-14.2354 236.425 103.179)" fill="white" stroke="#192E53" stroke-width="1.21622" stroke-linecap="round" stroke-linejoin="round"/>
<path d="M237.455 101.408L244.881 89.1142L237.455 101.408Z" fill="white"/>
<path d="M237.455 101.408L244.881 89.1142" stroke="#192E53" stroke-width="1.21622" stroke-linecap="round" stroke-linejoin="round"/>
</g>
<path opacity="0.6" d="M59.2871 308.685V310.065H52.8887V308.685H59.2871ZM53.2227 297.268V310.065H51.5264V297.268H53.2227ZM60.5527 305.415V305.213C60.5527 304.527 60.6523 303.892 60.8516 303.306C61.0508 302.714 61.3379 302.201 61.7129 301.768C62.0879 301.328 62.542 300.988 63.0752 300.748C63.6084 300.502 64.2061 300.379 64.8682 300.379C65.5361 300.379 66.1367 300.502 66.6699 300.748C67.209 300.988 67.666 301.328 68.041 301.768C68.4219 302.201 68.7119 302.714 68.9111 303.306C69.1104 303.892 69.21 304.527 69.21 305.213V305.415C69.21 306.101 69.1104 306.736 68.9111 307.322C68.7119 307.908 68.4219 308.421 68.041 308.86C67.666 309.294 67.2119 309.634 66.6787 309.88C66.1514 310.12 65.5537 310.24 64.8857 310.24C64.2178 310.24 63.6172 310.12 63.084 309.88C62.5508 309.634 62.0938 309.294 61.7129 308.86C61.3379 308.421 61.0508 307.908 60.8516 307.322C60.6523 306.736 60.5527 306.101 60.5527 305.415ZM62.1787 305.213V305.415C62.1787 305.89 62.2344 306.338 62.3457 306.76C62.457 307.176 62.624 307.545 62.8467 307.867C63.0752 308.19 63.3594 308.444 63.6992 308.632C64.0391 308.814 64.4346 308.904 64.8857 308.904C65.3311 308.904 65.7207 308.814 66.0547 308.632C66.3945 308.444 66.6758 308.19 66.8984 307.867C67.1211 307.545 67.2881 307.176 67.3994 306.76C67.5166 306.338 67.5752 305.89 67.5752 305.415V305.213C67.5752 304.744 67.5166 304.302 67.3994 303.886C67.2881 303.464 67.1182 303.092 66.8896 302.77C66.667 302.442 66.3857 302.184 66.0459 301.996C65.7119 301.809 65.3193 301.715 64.8682 301.715C64.4229 301.715 64.0303 301.809 63.6904 301.996C63.3564 302.184 63.0752 302.442 62.8467 302.77C62.624 303.092 62.457 303.464 62.3457 303.886C62.2344 304.302 62.1787 304.744 62.1787 305.213ZM72.875 302.049V310.065H71.249V300.555H72.8311L72.875 302.049ZM75.8457 300.502L75.8369 302.014C75.7021 301.984 75.5732 301.967 75.4502 301.961C75.333 301.949 75.1982 301.943 75.0459 301.943C74.6709 301.943 74.3398 302.002 74.0527 302.119C73.7656 302.236 73.5225 302.401 73.3232 302.611C73.124 302.822 72.9658 303.074 72.8486 303.367C72.7373 303.654 72.6641 303.971 72.6289 304.317L72.1719 304.58C72.1719 304.006 72.2275 303.467 72.3389 302.963C72.4561 302.459 72.6348 302.014 72.875 301.627C73.1152 301.234 73.4199 300.93 73.7891 300.713C74.1641 300.49 74.6094 300.379 75.125 300.379C75.2422 300.379 75.377 300.394 75.5293 300.423C75.6816 300.446 75.7871 300.473 75.8457 300.502ZM81.1191 310.24C80.457 310.24 79.8564 310.129 79.3174 309.906C78.7842 309.678 78.3242 309.359 77.9375 308.948C77.5566 308.538 77.2637 308.052 77.0586 307.489C76.8535 306.927 76.751 306.312 76.751 305.644V305.275C76.751 304.501 76.8652 303.813 77.0938 303.209C77.3223 302.6 77.6328 302.084 78.0254 301.662C78.418 301.24 78.8633 300.921 79.3613 300.704C79.8594 300.487 80.375 300.379 80.9082 300.379C81.5879 300.379 82.1738 300.496 82.666 300.731C83.1641 300.965 83.5713 301.293 83.8877 301.715C84.2041 302.131 84.4385 302.623 84.5908 303.192C84.7432 303.754 84.8193 304.369 84.8193 305.037V305.767H77.7178V304.44H83.1934V304.317C83.1699 303.895 83.082 303.484 82.9297 303.086C82.7832 302.688 82.5488 302.359 82.2266 302.102C81.9043 301.844 81.4648 301.715 80.9082 301.715C80.5391 301.715 80.1992 301.794 79.8887 301.952C79.5781 302.105 79.3115 302.333 79.0889 302.638C78.8662 302.943 78.6934 303.315 78.5703 303.754C78.4473 304.193 78.3857 304.7 78.3857 305.275V305.644C78.3857 306.095 78.4473 306.52 78.5703 306.918C78.6992 307.311 78.8838 307.656 79.124 307.955C79.3701 308.254 79.666 308.488 80.0117 308.658C80.3633 308.828 80.7617 308.913 81.207 308.913C81.7812 308.913 82.2676 308.796 82.666 308.562C83.0645 308.327 83.4131 308.014 83.7119 307.621L84.6963 308.403C84.4912 308.714 84.2305 309.01 83.9141 309.291C83.5977 309.572 83.208 309.801 82.7451 309.977C82.2881 310.152 81.7461 310.24 81.1191 310.24ZM88.335 302.444V310.065H86.7002V300.555H88.2471L88.335 302.444ZM88.001 304.949L87.2451 304.923C87.251 304.273 87.3359 303.672 87.5 303.121C87.6641 302.565 87.9072 302.081 88.2295 301.671C88.5518 301.261 88.9531 300.944 89.4336 300.722C89.9141 300.493 90.4707 300.379 91.1035 300.379C91.5488 300.379 91.959 300.443 92.334 300.572C92.709 300.695 93.0342 300.892 93.3096 301.161C93.585 301.431 93.7988 301.776 93.9512 302.198C94.1035 302.62 94.1797 303.13 94.1797 303.728V310.065H92.5537V303.807C92.5537 303.309 92.4688 302.91 92.2988 302.611C92.1348 302.313 91.9004 302.096 91.5957 301.961C91.291 301.82 90.9336 301.75 90.5234 301.75C90.043 301.75 89.6416 301.835 89.3193 302.005C88.9971 302.175 88.7393 302.409 88.5459 302.708C88.3525 303.007 88.2119 303.35 88.124 303.736C88.042 304.117 88.001 304.522 88.001 304.949ZM94.1621 304.053L93.0723 304.387C93.0781 303.865 93.1631 303.364 93.3271 302.884C93.4971 302.403 93.7402 301.976 94.0566 301.601C94.3789 301.226 94.7744 300.93 95.2432 300.713C95.7119 300.49 96.248 300.379 96.8516 300.379C97.3613 300.379 97.8125 300.446 98.2051 300.581C98.6035 300.716 98.9375 300.924 99.207 301.205C99.4824 301.481 99.6904 301.835 99.8311 302.269C99.9717 302.702 100.042 303.218 100.042 303.816V310.065H98.4072V303.798C98.4072 303.265 98.3223 302.852 98.1523 302.559C97.9883 302.26 97.7539 302.052 97.4492 301.935C97.1504 301.812 96.793 301.75 96.377 301.75C96.0195 301.75 95.7031 301.812 95.4277 301.935C95.1523 302.058 94.9209 302.228 94.7334 302.444C94.5459 302.655 94.4023 302.899 94.3027 303.174C94.209 303.449 94.1621 303.742 94.1621 304.053ZM108.734 300.555V310.065H107.1V300.555H108.734ZM106.977 298.032C106.977 297.769 107.056 297.546 107.214 297.364C107.378 297.183 107.618 297.092 107.935 297.092C108.245 297.092 108.482 297.183 108.646 297.364C108.816 297.546 108.901 297.769 108.901 298.032C108.901 298.284 108.816 298.501 108.646 298.683C108.482 298.859 108.245 298.946 107.935 298.946C107.618 298.946 107.378 298.859 107.214 298.683C107.056 298.501 106.977 298.284 106.977 298.032ZM112.971 302.383V313.721H111.336V300.555H112.83L112.971 302.383ZM119.378 305.231V305.415C119.378 306.107 119.296 306.748 119.132 307.34C118.968 307.926 118.728 308.436 118.411 308.869C118.101 309.303 117.717 309.64 117.26 309.88C116.803 310.12 116.278 310.24 115.687 310.24C115.083 310.24 114.55 310.141 114.087 309.942C113.624 309.742 113.231 309.452 112.909 309.071C112.587 308.691 112.329 308.234 112.136 307.7C111.948 307.167 111.819 306.567 111.749 305.899V304.914C111.819 304.211 111.951 303.581 112.145 303.025C112.338 302.468 112.593 301.993 112.909 301.601C113.231 301.202 113.621 300.901 114.078 300.695C114.535 300.484 115.062 300.379 115.66 300.379C116.258 300.379 116.788 300.496 117.251 300.731C117.714 300.959 118.104 301.287 118.42 301.715C118.736 302.143 118.974 302.655 119.132 303.253C119.296 303.845 119.378 304.504 119.378 305.231ZM117.743 305.415V305.231C117.743 304.756 117.693 304.311 117.594 303.895C117.494 303.473 117.339 303.104 117.128 302.787C116.923 302.465 116.659 302.213 116.337 302.031C116.015 301.844 115.631 301.75 115.186 301.75C114.775 301.75 114.418 301.82 114.113 301.961C113.814 302.102 113.56 302.292 113.349 302.532C113.138 302.767 112.965 303.036 112.83 303.341C112.701 303.64 112.604 303.95 112.54 304.273V306.549C112.657 306.959 112.821 307.346 113.032 307.709C113.243 308.067 113.524 308.357 113.876 308.579C114.228 308.796 114.67 308.904 115.203 308.904C115.643 308.904 116.021 308.814 116.337 308.632C116.659 308.444 116.923 308.19 117.128 307.867C117.339 307.545 117.494 307.176 117.594 306.76C117.693 306.338 117.743 305.89 117.743 305.415ZM126.989 307.542C126.989 307.308 126.937 307.091 126.831 306.892C126.731 306.687 126.523 306.502 126.207 306.338C125.896 306.168 125.428 306.022 124.801 305.899C124.273 305.787 123.796 305.655 123.368 305.503C122.946 305.351 122.586 305.166 122.287 304.949C121.994 304.733 121.769 304.478 121.61 304.185C121.452 303.892 121.373 303.549 121.373 303.156C121.373 302.781 121.455 302.427 121.619 302.093C121.789 301.759 122.026 301.463 122.331 301.205C122.642 300.947 123.014 300.745 123.447 300.599C123.881 300.452 124.364 300.379 124.897 300.379C125.659 300.379 126.31 300.514 126.849 300.783C127.388 301.053 127.801 301.413 128.088 301.864C128.375 302.31 128.519 302.805 128.519 303.35H126.893C126.893 303.086 126.813 302.831 126.655 302.585C126.503 302.333 126.277 302.125 125.979 301.961C125.686 301.797 125.325 301.715 124.897 301.715C124.446 301.715 124.08 301.785 123.799 301.926C123.523 302.061 123.321 302.234 123.192 302.444C123.069 302.655 123.008 302.878 123.008 303.112C123.008 303.288 123.037 303.446 123.096 303.587C123.16 303.722 123.271 303.848 123.43 303.965C123.588 304.076 123.811 304.182 124.098 304.281C124.385 304.381 124.751 304.481 125.196 304.58C125.976 304.756 126.617 304.967 127.121 305.213C127.625 305.459 128 305.761 128.246 306.118C128.492 306.476 128.615 306.909 128.615 307.419C128.615 307.835 128.527 308.216 128.352 308.562C128.182 308.907 127.933 309.206 127.604 309.458C127.282 309.704 126.896 309.898 126.444 310.038C125.999 310.173 125.498 310.24 124.941 310.24C124.104 310.24 123.395 310.091 122.814 309.792C122.234 309.493 121.795 309.107 121.496 308.632C121.197 308.157 121.048 307.656 121.048 307.129H122.683C122.706 307.574 122.835 307.929 123.069 308.193C123.304 308.45 123.591 308.635 123.931 308.746C124.271 308.852 124.607 308.904 124.941 308.904C125.387 308.904 125.759 308.846 126.058 308.729C126.362 308.611 126.594 308.45 126.752 308.245C126.91 308.04 126.989 307.806 126.989 307.542ZM136.569 307.867V300.555H138.204V310.065H136.648L136.569 307.867ZM136.877 305.863L137.554 305.846C137.554 306.479 137.486 307.065 137.352 307.604C137.223 308.137 137.012 308.6 136.719 308.992C136.426 309.385 136.042 309.693 135.567 309.915C135.093 310.132 134.516 310.24 133.836 310.24C133.373 310.24 132.948 310.173 132.562 310.038C132.181 309.903 131.853 309.695 131.577 309.414C131.302 309.133 131.088 308.767 130.936 308.316C130.789 307.864 130.716 307.322 130.716 306.69V300.555H132.342V306.707C132.342 307.135 132.389 307.489 132.482 307.771C132.582 308.046 132.714 308.266 132.878 308.43C133.048 308.588 133.235 308.699 133.44 308.764C133.651 308.828 133.868 308.86 134.091 308.86C134.782 308.86 135.33 308.729 135.734 308.465C136.139 308.195 136.429 307.835 136.604 307.384C136.786 306.927 136.877 306.42 136.877 305.863ZM142.3 302.444V310.065H140.665V300.555H142.212L142.3 302.444ZM141.966 304.949L141.21 304.923C141.216 304.273 141.301 303.672 141.465 303.121C141.629 302.565 141.872 302.081 142.194 301.671C142.517 301.261 142.918 300.944 143.398 300.722C143.879 300.493 144.436 300.379 145.068 300.379C145.514 300.379 145.924 300.443 146.299 300.572C146.674 300.695 146.999 300.892 147.274 301.161C147.55 301.431 147.764 301.776 147.916 302.198C148.068 302.62 148.145 303.13 148.145 303.728V310.065H146.519V303.807C146.519 303.309 146.434 302.91 146.264 302.611C146.1 302.313 145.865 302.096 145.561 301.961C145.256 301.82 144.898 301.75 144.488 301.75C144.008 301.75 143.606 301.835 143.284 302.005C142.962 302.175 142.704 302.409 142.511 302.708C142.317 303.007 142.177 303.35 142.089 303.736C142.007 304.117 141.966 304.522 141.966 304.949ZM148.127 304.053L147.037 304.387C147.043 303.865 147.128 303.364 147.292 302.884C147.462 302.403 147.705 301.976 148.021 301.601C148.344 301.226 148.739 300.93 149.208 300.713C149.677 300.49 150.213 300.379 150.816 300.379C151.326 300.379 151.777 300.446 152.17 300.581C152.568 300.716 152.902 300.924 153.172 301.205C153.447 301.481 153.655 301.835 153.796 302.269C153.937 302.702 154.007 303.218 154.007 303.816V310.065H152.372V303.798C152.372 303.265 152.287 302.852 152.117 302.559C151.953 302.26 151.719 302.052 151.414 301.935C151.115 301.812 150.758 301.75 150.342 301.75C149.984 301.75 149.668 301.812 149.393 301.935C149.117 302.058 148.886 302.228 148.698 302.444C148.511 302.655 148.367 302.899 148.268 303.174C148.174 303.449 148.127 303.742 148.127 304.053ZM166.927 308.219V296.565H168.562V310.065H167.067L166.927 308.219ZM160.528 305.415V305.231C160.528 304.504 160.616 303.845 160.792 303.253C160.974 302.655 161.229 302.143 161.557 301.715C161.891 301.287 162.286 300.959 162.743 300.731C163.206 300.496 163.722 300.379 164.29 300.379C164.888 300.379 165.409 300.484 165.854 300.695C166.306 300.901 166.687 301.202 166.997 301.601C167.313 301.993 167.562 302.468 167.744 303.025C167.926 303.581 168.052 304.211 168.122 304.914V305.723C168.058 306.42 167.932 307.047 167.744 307.604C167.562 308.16 167.313 308.635 166.997 309.027C166.687 309.42 166.306 309.722 165.854 309.933C165.403 310.138 164.876 310.24 164.272 310.24C163.716 310.24 163.206 310.12 162.743 309.88C162.286 309.64 161.891 309.303 161.557 308.869C161.229 308.436 160.974 307.926 160.792 307.34C160.616 306.748 160.528 306.107 160.528 305.415ZM162.163 305.231V305.415C162.163 305.89 162.21 306.335 162.304 306.751C162.403 307.167 162.556 307.533 162.761 307.85C162.966 308.166 163.227 308.415 163.543 308.597C163.859 308.773 164.237 308.86 164.677 308.86C165.216 308.86 165.658 308.746 166.004 308.518C166.355 308.289 166.637 307.987 166.848 307.612C167.059 307.237 167.223 306.83 167.34 306.391V304.273C167.27 303.95 167.167 303.64 167.032 303.341C166.903 303.036 166.733 302.767 166.522 302.532C166.317 302.292 166.062 302.102 165.758 301.961C165.459 301.82 165.104 301.75 164.694 301.75C164.249 301.75 163.865 301.844 163.543 302.031C163.227 302.213 162.966 302.465 162.761 302.787C162.556 303.104 162.403 303.473 162.304 303.895C162.21 304.311 162.163 304.756 162.163 305.231ZM170.662 305.415V305.213C170.662 304.527 170.762 303.892 170.961 303.306C171.16 302.714 171.447 302.201 171.822 301.768C172.197 301.328 172.651 300.988 173.185 300.748C173.718 300.502 174.315 300.379 174.978 300.379C175.646 300.379 176.246 300.502 176.779 300.748C177.318 300.988 177.775 301.328 178.15 301.768C178.531 302.201 178.821 302.714 179.021 303.306C179.22 303.892 179.319 304.527 179.319 305.213V305.415C179.319 306.101 179.22 306.736 179.021 307.322C178.821 307.908 178.531 308.421 178.15 308.86C177.775 309.294 177.321 309.634 176.788 309.88C176.261 310.12 175.663 310.24 174.995 310.24C174.327 310.24 173.727 310.12 173.193 309.88C172.66 309.634 172.203 309.294 171.822 308.86C171.447 308.421 171.16 307.908 170.961 307.322C170.762 306.736 170.662 306.101 170.662 305.415ZM172.288 305.213V305.415C172.288 305.89 172.344 306.338 172.455 306.76C172.566 307.176 172.733 307.545 172.956 307.867C173.185 308.19 173.469 308.444 173.809 308.632C174.148 308.814 174.544 308.904 174.995 308.904C175.44 308.904 175.83 308.814 176.164 308.632C176.504 308.444 176.785 308.19 177.008 307.867C177.23 307.545 177.397 307.176 177.509 306.76C177.626 306.338 177.685 305.89 177.685 305.415V305.213C177.685 304.744 177.626 304.302 177.509 303.886C177.397 303.464 177.228 303.092 176.999 302.77C176.776 302.442 176.495 302.184 176.155 301.996C175.821 301.809 175.429 301.715 174.978 301.715C174.532 301.715 174.14 301.809 173.8 301.996C173.466 302.184 173.185 302.442 172.956 302.77C172.733 303.092 172.566 303.464 172.455 303.886C172.344 304.302 172.288 304.744 172.288 305.213ZM183.125 296.565V310.065H181.49V296.565H183.125ZM185.305 305.415V305.213C185.305 304.527 185.404 303.892 185.604 303.306C185.803 302.714 186.09 302.201 186.465 301.768C186.84 301.328 187.294 300.988 187.827 300.748C188.36 300.502 188.958 300.379 189.62 300.379C190.288 300.379 190.889 300.502 191.422 300.748C191.961 300.988 192.418 301.328 192.793 301.768C193.174 302.201 193.464 302.714 193.663 303.306C193.862 303.892 193.962 304.527 193.962 305.213V305.415C193.962 306.101 193.862 306.736 193.663 307.322C193.464 307.908 193.174 308.421 192.793 308.86C192.418 309.294 191.964 309.634 191.431 309.88C190.903 310.12 190.306 310.24 189.638 310.24C188.97 310.24 188.369 310.12 187.836 309.88C187.303 309.634 186.846 309.294 186.465 308.86C186.09 308.421 185.803 307.908 185.604 307.322C185.404 306.736 185.305 306.101 185.305 305.415ZM186.931 305.213V305.415C186.931 305.89 186.986 306.338 187.098 306.76C187.209 307.176 187.376 307.545 187.599 307.867C187.827 308.19 188.111 308.444 188.451 308.632C188.791 308.814 189.187 308.904 189.638 308.904C190.083 308.904 190.473 308.814 190.807 308.632C191.146 308.444 191.428 308.19 191.65 307.867C191.873 307.545 192.04 307.176 192.151 306.76C192.269 306.338 192.327 305.89 192.327 305.415V305.213C192.327 304.744 192.269 304.302 192.151 303.886C192.04 303.464 191.87 303.092 191.642 302.77C191.419 302.442 191.138 302.184 190.798 301.996C190.464 301.809 190.071 301.715 189.62 301.715C189.175 301.715 188.782 301.809 188.442 301.996C188.108 302.184 187.827 302.442 187.599 302.77C187.376 303.092 187.209 303.464 187.098 303.886C186.986 304.302 186.931 304.744 186.931 305.213ZM197.627 302.049V310.065H196.001V300.555H197.583L197.627 302.049ZM200.598 300.502L200.589 302.014C200.454 301.984 200.325 301.967 200.202 301.961C200.085 301.949 199.95 301.943 199.798 301.943C199.423 301.943 199.092 302.002 198.805 302.119C198.518 302.236 198.274 302.401 198.075 302.611C197.876 302.822 197.718 303.074 197.601 303.367C197.489 303.654 197.416 303.971 197.381 304.317L196.924 304.58C196.924 304.006 196.979 303.467 197.091 302.963C197.208 302.459 197.387 302.014 197.627 301.627C197.867 301.234 198.172 300.93 198.541 300.713C198.916 300.49 199.361 300.379 199.877 300.379C199.994 300.379 200.129 300.394 200.281 300.423C200.434 300.446 200.539 300.473 200.598 300.502ZM212.103 307.542C212.103 307.308 212.05 307.091 211.944 306.892C211.845 306.687 211.637 306.502 211.32 306.338C211.01 306.168 210.541 306.022 209.914 305.899C209.387 305.787 208.909 305.655 208.481 305.503C208.06 305.351 207.699 305.166 207.4 304.949C207.107 304.733 206.882 304.478 206.724 304.185C206.565 303.892 206.486 303.549 206.486 303.156C206.486 302.781 206.568 302.427 206.732 302.093C206.902 301.759 207.14 301.463 207.444 301.205C207.755 300.947 208.127 300.745 208.561 300.599C208.994 300.452 209.478 300.379 210.011 300.379C210.772 300.379 211.423 300.514 211.962 300.783C212.501 301.053 212.914 301.413 213.201 301.864C213.488 302.31 213.632 302.805 213.632 303.35H212.006C212.006 303.086 211.927 302.831 211.769 302.585C211.616 302.333 211.391 302.125 211.092 301.961C210.799 301.797 210.438 301.715 210.011 301.715C209.56 301.715 209.193 301.785 208.912 301.926C208.637 302.061 208.435 302.234 208.306 302.444C208.183 302.655 208.121 302.878 208.121 303.112C208.121 303.288 208.15 303.446 208.209 303.587C208.273 303.722 208.385 303.848 208.543 303.965C208.701 304.076 208.924 304.182 209.211 304.281C209.498 304.381 209.864 304.481 210.31 304.58C211.089 304.756 211.73 304.967 212.234 305.213C212.738 305.459 213.113 305.761 213.359 306.118C213.605 306.476 213.729 306.909 213.729 307.419C213.729 307.835 213.641 308.216 213.465 308.562C213.295 308.907 213.046 309.206 212.718 309.458C212.396 309.704 212.009 309.898 211.558 310.038C211.112 310.173 210.611 310.24 210.055 310.24C209.217 310.24 208.508 310.091 207.928 309.792C207.348 309.493 206.908 309.107 206.609 308.632C206.311 308.157 206.161 307.656 206.161 307.129H207.796C207.819 307.574 207.948 307.929 208.183 308.193C208.417 308.45 208.704 308.635 209.044 308.746C209.384 308.852 209.721 308.904 210.055 308.904C210.5 308.904 210.872 308.846 211.171 308.729C211.476 308.611 211.707 308.45 211.865 308.245C212.023 308.04 212.103 307.806 212.103 307.542ZM217.631 300.555V310.065H215.996V300.555H217.631ZM215.873 298.032C215.873 297.769 215.952 297.546 216.11 297.364C216.274 297.183 216.515 297.092 216.831 297.092C217.142 297.092 217.379 297.183 217.543 297.364C217.713 297.546 217.798 297.769 217.798 298.032C217.798 298.284 217.713 298.501 217.543 298.683C217.379 298.859 217.142 298.946 216.831 298.946C216.515 298.946 216.274 298.859 216.11 298.683C215.952 298.501 215.873 298.284 215.873 298.032ZM224.223 300.555V301.803H219.081V300.555H224.223ZM220.821 298.243H222.447V307.709C222.447 308.031 222.497 308.275 222.597 308.439C222.696 308.603 222.825 308.711 222.983 308.764C223.142 308.817 223.312 308.843 223.493 308.843C223.628 308.843 223.769 308.831 223.915 308.808C224.067 308.778 224.182 308.755 224.258 308.737L224.267 310.065C224.138 310.106 223.968 310.144 223.757 310.179C223.552 310.22 223.303 310.24 223.01 310.24C222.611 310.24 222.245 310.161 221.911 310.003C221.577 309.845 221.311 309.581 221.111 309.212C220.918 308.837 220.821 308.333 220.821 307.7V298.243ZM236.202 308.439V303.543C236.202 303.168 236.126 302.843 235.974 302.568C235.827 302.286 235.604 302.069 235.306 301.917C235.007 301.765 234.638 301.689 234.198 301.689C233.788 301.689 233.428 301.759 233.117 301.9C232.812 302.04 232.572 302.225 232.396 302.453C232.227 302.682 232.142 302.928 232.142 303.192H230.516C230.516 302.852 230.604 302.515 230.779 302.181C230.955 301.847 231.207 301.545 231.535 301.276C231.869 301 232.268 300.783 232.73 300.625C233.199 300.461 233.721 300.379 234.295 300.379C234.986 300.379 235.596 300.496 236.123 300.731C236.656 300.965 237.072 301.319 237.371 301.794C237.676 302.263 237.828 302.852 237.828 303.561V307.99C237.828 308.307 237.854 308.644 237.907 309.001C237.966 309.359 238.051 309.666 238.162 309.924V310.065H236.466C236.384 309.877 236.319 309.628 236.272 309.318C236.226 309.001 236.202 308.708 236.202 308.439ZM236.483 304.299L236.501 305.442H234.857C234.395 305.442 233.981 305.48 233.618 305.556C233.255 305.626 232.95 305.734 232.704 305.881C232.458 306.027 232.271 306.212 232.142 306.435C232.013 306.651 231.948 306.906 231.948 307.199C231.948 307.498 232.016 307.771 232.15 308.017C232.285 308.263 232.487 308.459 232.757 308.606C233.032 308.746 233.369 308.817 233.768 308.817C234.266 308.817 234.705 308.711 235.086 308.5C235.467 308.289 235.769 308.031 235.991 307.727C236.22 307.422 236.343 307.126 236.36 306.839L237.055 307.621C237.014 307.867 236.902 308.14 236.721 308.439C236.539 308.737 236.296 309.025 235.991 309.3C235.692 309.569 235.335 309.795 234.919 309.977C234.509 310.152 234.046 310.24 233.53 310.24C232.886 310.24 232.32 310.114 231.834 309.862C231.354 309.61 230.979 309.274 230.709 308.852C230.445 308.424 230.313 307.946 230.313 307.419C230.313 306.909 230.413 306.461 230.612 306.074C230.812 305.682 231.099 305.357 231.474 305.099C231.849 304.835 232.3 304.636 232.827 304.501C233.354 304.366 233.943 304.299 234.594 304.299H236.483ZM242.003 302.444V310.065H240.368V300.555H241.915L242.003 302.444ZM241.669 304.949L240.913 304.923C240.919 304.273 241.004 303.672 241.168 303.121C241.332 302.565 241.575 302.081 241.897 301.671C242.22 301.261 242.621 300.944 243.102 300.722C243.582 300.493 244.139 300.379 244.771 300.379C245.217 300.379 245.627 300.443 246.002 300.572C246.377 300.695 246.702 300.892 246.978 301.161C247.253 301.431 247.467 301.776 247.619 302.198C247.771 302.62 247.848 303.13 247.848 303.728V310.065H246.222V303.807C246.222 303.309 246.137 302.91 245.967 302.611C245.803 302.313 245.568 302.096 245.264 301.961C244.959 301.82 244.602 301.75 244.191 301.75C243.711 301.75 243.31 301.835 242.987 302.005C242.665 302.175 242.407 302.409 242.214 302.708C242.021 303.007 241.88 303.35 241.792 303.736C241.71 304.117 241.669 304.522 241.669 304.949ZM247.83 304.053L246.74 304.387C246.746 303.865 246.831 303.364 246.995 302.884C247.165 302.403 247.408 301.976 247.725 301.601C248.047 301.226 248.442 300.93 248.911 300.713C249.38 300.49 249.916 300.379 250.52 300.379C251.029 300.379 251.48 300.446 251.873 300.581C252.271 300.716 252.605 300.924 252.875 301.205C253.15 301.481 253.358 301.835 253.499 302.269C253.64 302.702 253.71 303.218 253.71 303.816V310.065H252.075V303.798C252.075 303.265 251.99 302.852 251.82 302.559C251.656 302.26 251.422 302.052 251.117 301.935C250.818 301.812 250.461 301.75 250.045 301.75C249.688 301.75 249.371 301.812 249.096 301.935C248.82 302.058 248.589 302.228 248.401 302.444C248.214 302.655 248.07 302.899 247.971 303.174C247.877 303.449 247.83 303.742 247.83 304.053ZM260.117 310.24C259.455 310.24 258.854 310.129 258.315 309.906C257.782 309.678 257.322 309.359 256.936 308.948C256.555 308.538 256.262 308.052 256.057 307.489C255.852 306.927 255.749 306.312 255.749 305.644V305.275C255.749 304.501 255.863 303.813 256.092 303.209C256.32 302.6 256.631 302.084 257.023 301.662C257.416 301.24 257.861 300.921 258.359 300.704C258.857 300.487 259.373 300.379 259.906 300.379C260.586 300.379 261.172 300.496 261.664 300.731C262.162 300.965 262.569 301.293 262.886 301.715C263.202 302.131 263.437 302.623 263.589 303.192C263.741 303.754 263.817 304.369 263.817 305.037V305.767H256.716V304.44H262.191V304.317C262.168 303.895 262.08 303.484 261.928 303.086C261.781 302.688 261.547 302.359 261.225 302.102C260.902 301.844 260.463 301.715 259.906 301.715C259.537 301.715 259.197 301.794 258.887 301.952C258.576 302.105 258.31 302.333 258.087 302.638C257.864 302.943 257.691 303.315 257.568 303.754C257.445 304.193 257.384 304.7 257.384 305.275V305.644C257.384 306.095 257.445 306.52 257.568 306.918C257.697 307.311 257.882 307.656 258.122 307.955C258.368 308.254 258.664 308.488 259.01 308.658C259.361 308.828 259.76 308.913 260.205 308.913C260.779 308.913 261.266 308.796 261.664 308.562C262.062 308.327 262.411 308.014 262.71 307.621L263.694 308.403C263.489 308.714 263.229 309.01 262.912 309.291C262.596 309.572 262.206 309.801 261.743 309.977C261.286 310.152 260.744 310.24 260.117 310.24ZM269.697 300.555V301.803H264.556V300.555H269.697ZM266.296 298.243H267.922V307.709C267.922 308.031 267.972 308.275 268.071 308.439C268.171 308.603 268.3 308.711 268.458 308.764C268.616 308.817 268.786 308.843 268.968 308.843C269.103 308.843 269.243 308.831 269.39 308.808C269.542 308.778 269.656 308.755 269.732 308.737L269.741 310.065C269.612 310.106 269.442 310.144 269.231 310.179C269.026 310.22 268.777 310.24 268.484 310.24C268.086 310.24 267.72 310.161 267.386 310.003C267.052 309.845 266.785 309.581 266.586 309.212C266.393 308.837 266.296 308.333 266.296 307.7V298.243ZM55.0859 334.904C55.4727 334.904 55.8301 334.825 56.1582 334.667C56.4863 334.509 56.7559 334.292 56.9668 334.017C57.1777 333.735 57.2979 333.416 57.3271 333.059H58.874C58.8447 333.621 58.6543 334.146 58.3027 334.632C57.957 335.112 57.5029 335.502 56.9404 335.801C56.3779 336.094 55.7598 336.24 55.0859 336.24C54.3711 336.24 53.7471 336.114 53.2139 335.862C52.6865 335.61 52.2471 335.265 51.8955 334.825C51.5498 334.386 51.2891 333.882 51.1133 333.314C50.9434 332.739 50.8584 332.133 50.8584 331.494V331.125C50.8584 330.486 50.9434 329.883 51.1133 329.315C51.2891 328.74 51.5498 328.234 51.8955 327.794C52.2471 327.355 52.6865 327.009 53.2139 326.757C53.7471 326.505 54.3711 326.379 55.0859 326.379C55.8301 326.379 56.4805 326.531 57.0371 326.836C57.5938 327.135 58.0303 327.545 58.3467 328.067C58.6689 328.582 58.8447 329.168 58.874 329.824H57.3271C57.2979 329.432 57.1865 329.077 56.9932 328.761C56.8057 328.444 56.5479 328.193 56.2197 328.005C55.8975 327.812 55.5195 327.715 55.0859 327.715C54.5879 327.715 54.1689 327.815 53.8291 328.014C53.4951 328.207 53.2285 328.471 53.0293 328.805C52.8359 329.133 52.6953 329.499 52.6074 329.903C52.5254 330.302 52.4844 330.709 52.4844 331.125V331.494C52.4844 331.91 52.5254 332.32 52.6074 332.725C52.6895 333.129 52.8271 333.495 53.0205 333.823C53.2197 334.151 53.4863 334.415 53.8203 334.614C54.1602 334.808 54.582 334.904 55.0859 334.904ZM60.2715 331.415V331.213C60.2715 330.527 60.3711 329.892 60.5703 329.306C60.7695 328.714 61.0566 328.201 61.4316 327.768C61.8066 327.328 62.2607 326.988 62.7939 326.748C63.3271 326.502 63.9248 326.379 64.5869 326.379C65.2549 326.379 65.8555 326.502 66.3887 326.748C66.9277 326.988 67.3848 327.328 67.7598 327.768C68.1406 328.201 68.4307 328.714 68.6299 329.306C68.8291 329.892 68.9287 330.527 68.9287 331.213V331.415C68.9287 332.101 68.8291 332.736 68.6299 333.322C68.4307 333.908 68.1406 334.421 67.7598 334.86C67.3848 335.294 66.9307 335.634 66.3975 335.88C65.8701 336.12 65.2725 336.24 64.6045 336.24C63.9365 336.24 63.3359 336.12 62.8027 335.88C62.2695 335.634 61.8125 335.294 61.4316 334.86C61.0566 334.421 60.7695 333.908 60.5703 333.322C60.3711 332.736 60.2715 332.101 60.2715 331.415ZM61.8975 331.213V331.415C61.8975 331.89 61.9531 332.338 62.0645 332.76C62.1758 333.176 62.3428 333.545 62.5654 333.867C62.7939 334.19 63.0781 334.444 63.418 334.632C63.7578 334.814 64.1533 334.904 64.6045 334.904C65.0498 334.904 65.4395 334.814 65.7734 334.632C66.1133 334.444 66.3945 334.19 66.6172 333.867C66.8398 333.545 67.0068 333.176 67.1182 332.76C67.2354 332.338 67.2939 331.89 67.2939 331.415V331.213C67.2939 330.744 67.2354 330.302 67.1182 329.886C67.0068 329.464 66.8369 329.092 66.6084 328.77C66.3857 328.442 66.1045 328.184 65.7646 327.996C65.4307 327.809 65.0381 327.715 64.5869 327.715C64.1416 327.715 63.749 327.809 63.4092 327.996C63.0752 328.184 62.7939 328.442 62.5654 328.77C62.3428 329.092 62.1758 329.464 62.0645 329.886C61.9531 330.302 61.8975 330.744 61.8975 331.213ZM72.5938 328.585V336.065H70.9678V326.555H72.5059L72.5938 328.585ZM72.207 330.949L71.5303 330.923C71.5361 330.273 71.6328 329.672 71.8203 329.121C72.0078 328.565 72.2715 328.081 72.6113 327.671C72.9512 327.261 73.3555 326.944 73.8242 326.722C74.2988 326.493 74.8232 326.379 75.3975 326.379C75.8662 326.379 76.2881 326.443 76.6631 326.572C77.0381 326.695 77.3574 326.895 77.6211 327.17C77.8906 327.445 78.0957 327.803 78.2363 328.242C78.377 328.676 78.4473 329.206 78.4473 329.833V336.065H76.8125V329.816C76.8125 329.318 76.7393 328.919 76.5928 328.62C76.4463 328.316 76.2324 328.096 75.9512 327.961C75.6699 327.82 75.3242 327.75 74.9141 327.75C74.5098 327.75 74.1406 327.835 73.8066 328.005C73.4785 328.175 73.1943 328.409 72.9541 328.708C72.7197 329.007 72.5352 329.35 72.4004 329.736C72.2715 330.117 72.207 330.522 72.207 330.949ZM86.4541 333.542C86.4541 333.308 86.4014 333.091 86.2959 332.892C86.1963 332.687 85.9883 332.502 85.6719 332.338C85.3613 332.168 84.8926 332.022 84.2656 331.899C83.7383 331.787 83.2607 331.655 82.833 331.503C82.4111 331.351 82.0508 331.166 81.752 330.949C81.459 330.733 81.2334 330.478 81.0752 330.185C80.917 329.892 80.8379 329.549 80.8379 329.156C80.8379 328.781 80.9199 328.427 81.084 328.093C81.2539 327.759 81.4912 327.463 81.7959 327.205C82.1064 326.947 82.4785 326.745 82.9121 326.599C83.3457 326.452 83.8291 326.379 84.3623 326.379C85.124 326.379 85.7744 326.514 86.3135 326.783C86.8525 327.053 87.2656 327.413 87.5527 327.864C87.8398 328.31 87.9834 328.805 87.9834 329.35H86.3574C86.3574 329.086 86.2783 328.831 86.1201 328.585C85.9678 328.333 85.7422 328.125 85.4434 327.961C85.1504 327.797 84.79 327.715 84.3623 327.715C83.9111 327.715 83.5449 327.785 83.2637 327.926C82.9883 328.061 82.7861 328.234 82.6572 328.444C82.5342 328.655 82.4727 328.878 82.4727 329.112C82.4727 329.288 82.502 329.446 82.5605 329.587C82.625 329.722 82.7363 329.848 82.8945 329.965C83.0527 330.076 83.2754 330.182 83.5625 330.281C83.8496 330.381 84.2158 330.481 84.6611 330.58C85.4404 330.756 86.082 330.967 86.5859 331.213C87.0898 331.459 87.4648 331.761 87.7109 332.118C87.957 332.476 88.0801 332.909 88.0801 333.419C88.0801 333.835 87.9922 334.216 87.8164 334.562C87.6465 334.907 87.3975 335.206 87.0693 335.458C86.7471 335.704 86.3604 335.898 85.9092 336.038C85.4639 336.173 84.9629 336.24 84.4062 336.24C83.5684 336.24 82.8594 336.091 82.2793 335.792C81.6992 335.493 81.2598 335.107 80.9609 334.632C80.6621 334.157 80.5127 333.656 80.5127 333.129H82.1475C82.1709 333.574 82.2998 333.929 82.5342 334.193C82.7686 334.45 83.0557 334.635 83.3955 334.746C83.7354 334.852 84.0723 334.904 84.4062 334.904C84.8516 334.904 85.2236 334.846 85.5225 334.729C85.8271 334.611 86.0586 334.45 86.2168 334.245C86.375 334.04 86.4541 333.806 86.4541 333.542ZM94.1621 336.24C93.5 336.24 92.8994 336.129 92.3604 335.906C91.8271 335.678 91.3672 335.359 90.9805 334.948C90.5996 334.538 90.3066 334.052 90.1016 333.489C89.8965 332.927 89.7939 332.312 89.7939 331.644V331.275C89.7939 330.501 89.9082 329.813 90.1367 329.209C90.3652 328.6 90.6758 328.084 91.0684 327.662C91.4609 327.24 91.9062 326.921 92.4043 326.704C92.9023 326.487 93.418 326.379 93.9512 326.379C94.6309 326.379 95.2168 326.496 95.709 326.731C96.207 326.965 96.6143 327.293 96.9307 327.715C97.2471 328.131 97.4814 328.623 97.6338 329.192C97.7861 329.754 97.8623 330.369 97.8623 331.037V331.767H90.7607V330.44H96.2363V330.317C96.2129 329.895 96.125 329.484 95.9727 329.086C95.8262 328.688 95.5918 328.359 95.2695 328.102C94.9473 327.844 94.5078 327.715 93.9512 327.715C93.582 327.715 93.2422 327.794 92.9316 327.952C92.6211 328.105 92.3545 328.333 92.1318 328.638C91.9092 328.943 91.7363 329.315 91.6133 329.754C91.4902 330.193 91.4287 330.7 91.4287 331.275V331.644C91.4287 332.095 91.4902 332.52 91.6133 332.918C91.7422 333.311 91.9268 333.656 92.167 333.955C92.4131 334.254 92.709 334.488 93.0547 334.658C93.4062 334.828 93.8047 334.913 94.25 334.913C94.8242 334.913 95.3105 334.796 95.709 334.562C96.1074 334.327 96.4561 334.014 96.7549 333.621L97.7393 334.403C97.5342 334.714 97.2734 335.01 96.957 335.291C96.6406 335.572 96.251 335.801 95.7881 335.977C95.3311 336.152 94.7891 336.24 94.1621 336.24ZM103.566 334.904C103.953 334.904 104.311 334.825 104.639 334.667C104.967 334.509 105.236 334.292 105.447 334.017C105.658 333.735 105.778 333.416 105.808 333.059H107.354C107.325 333.621 107.135 334.146 106.783 334.632C106.438 335.112 105.983 335.502 105.421 335.801C104.858 336.094 104.24 336.24 103.566 336.24C102.852 336.24 102.228 336.114 101.694 335.862C101.167 335.61 100.728 335.265 100.376 334.825C100.03 334.386 99.7695 333.882 99.5938 333.314C99.4238 332.739 99.3389 332.133 99.3389 331.494V331.125C99.3389 330.486 99.4238 329.883 99.5938 329.315C99.7695 328.74 100.03 328.234 100.376 327.794C100.728 327.355 101.167 327.009 101.694 326.757C102.228 326.505 102.852 326.379 103.566 326.379C104.311 326.379 104.961 326.531 105.518 326.836C106.074 327.135 106.511 327.545 106.827 328.067C107.149 328.582 107.325 329.168 107.354 329.824H105.808C105.778 329.432 105.667 329.077 105.474 328.761C105.286 328.444 105.028 328.193 104.7 328.005C104.378 327.812 104 327.715 103.566 327.715C103.068 327.715 102.649 327.815 102.31 328.014C101.976 328.207 101.709 328.471 101.51 328.805C101.316 329.133 101.176 329.499 101.088 329.903C101.006 330.302 100.965 330.709 100.965 331.125V331.494C100.965 331.91 101.006 332.32 101.088 332.725C101.17 333.129 101.308 333.495 101.501 333.823C101.7 334.151 101.967 334.415 102.301 334.614C102.641 334.808 103.062 334.904 103.566 334.904ZM113.164 326.555V327.803H108.022V326.555H113.164ZM109.763 324.243H111.389V333.709C111.389 334.031 111.438 334.275 111.538 334.439C111.638 334.603 111.767 334.711 111.925 334.764C112.083 334.817 112.253 334.843 112.435 334.843C112.569 334.843 112.71 334.831 112.856 334.808C113.009 334.778 113.123 334.755 113.199 334.737L113.208 336.065C113.079 336.106 112.909 336.144 112.698 336.179C112.493 336.22 112.244 336.24 111.951 336.24C111.553 336.24 111.187 336.161 110.853 336.003C110.519 335.845 110.252 335.581 110.053 335.212C109.859 334.837 109.763 334.333 109.763 333.7V324.243ZM119.018 336.24C118.355 336.24 117.755 336.129 117.216 335.906C116.683 335.678 116.223 335.359 115.836 334.948C115.455 334.538 115.162 334.052 114.957 333.489C114.752 332.927 114.649 332.312 114.649 331.644V331.275C114.649 330.501 114.764 329.813 114.992 329.209C115.221 328.6 115.531 328.084 115.924 327.662C116.316 327.24 116.762 326.921 117.26 326.704C117.758 326.487 118.273 326.379 118.807 326.379C119.486 326.379 120.072 326.496 120.564 326.731C121.062 326.965 121.47 327.293 121.786 327.715C122.103 328.131 122.337 328.623 122.489 329.192C122.642 329.754 122.718 330.369 122.718 331.037V331.767H115.616V330.44H121.092V330.317C121.068 329.895 120.98 329.484 120.828 329.086C120.682 328.688 120.447 328.359 120.125 328.102C119.803 327.844 119.363 327.715 118.807 327.715C118.438 327.715 118.098 327.794 117.787 327.952C117.477 328.105 117.21 328.333 116.987 328.638C116.765 328.943 116.592 329.315 116.469 329.754C116.346 330.193 116.284 330.7 116.284 331.275V331.644C116.284 332.095 116.346 332.52 116.469 332.918C116.598 333.311 116.782 333.656 117.022 333.955C117.269 334.254 117.564 334.488 117.91 334.658C118.262 334.828 118.66 334.913 119.105 334.913C119.68 334.913 120.166 334.796 120.564 334.562C120.963 334.327 121.312 334.014 121.61 333.621L122.595 334.403C122.39 334.714 122.129 335.01 121.812 335.291C121.496 335.572 121.106 335.801 120.644 335.977C120.187 336.152 119.645 336.24 119.018 336.24ZM128.598 326.555V327.803H123.456V326.555H128.598ZM125.196 324.243H126.822V333.709C126.822 334.031 126.872 334.275 126.972 334.439C127.071 334.603 127.2 334.711 127.358 334.764C127.517 334.817 127.687 334.843 127.868 334.843C128.003 334.843 128.144 334.831 128.29 334.808C128.442 334.778 128.557 334.755 128.633 334.737L128.642 336.065C128.513 336.106 128.343 336.144 128.132 336.179C127.927 336.22 127.678 336.24 127.385 336.24C126.986 336.24 126.62 336.161 126.286 336.003C125.952 335.845 125.686 335.581 125.486 335.212C125.293 334.837 125.196 334.333 125.196 333.7V324.243ZM136.323 333.867V326.555H137.958V336.065H136.402L136.323 333.867ZM136.631 331.863L137.308 331.846C137.308 332.479 137.24 333.065 137.105 333.604C136.977 334.137 136.766 334.6 136.473 334.992C136.18 335.385 135.796 335.693 135.321 335.915C134.847 336.132 134.27 336.24 133.59 336.24C133.127 336.24 132.702 336.173 132.315 336.038C131.935 335.903 131.606 335.695 131.331 335.414C131.056 335.133 130.842 334.767 130.689 334.316C130.543 333.864 130.47 333.322 130.47 332.69V326.555H132.096V332.707C132.096 333.135 132.143 333.489 132.236 333.771C132.336 334.046 132.468 334.266 132.632 334.43C132.802 334.588 132.989 334.699 133.194 334.764C133.405 334.828 133.622 334.86 133.845 334.86C134.536 334.86 135.084 334.729 135.488 334.465C135.893 334.195 136.183 333.835 136.358 333.384C136.54 332.927 136.631 332.42 136.631 331.863ZM142.062 328.049V336.065H140.437V326.555H142.019L142.062 328.049ZM145.033 326.502L145.024 328.014C144.89 327.984 144.761 327.967 144.638 327.961C144.521 327.949 144.386 327.943 144.233 327.943C143.858 327.943 143.527 328.002 143.24 328.119C142.953 328.236 142.71 328.401 142.511 328.611C142.312 328.822 142.153 329.074 142.036 329.367C141.925 329.654 141.852 329.971 141.816 330.317L141.359 330.58C141.359 330.006 141.415 329.467 141.526 328.963C141.644 328.459 141.822 328.014 142.062 327.627C142.303 327.234 142.607 326.93 142.977 326.713C143.352 326.49 143.797 326.379 144.312 326.379C144.43 326.379 144.564 326.394 144.717 326.423C144.869 326.446 144.975 326.473 145.033 326.502ZM145.473 335.203C145.473 334.928 145.558 334.696 145.728 334.509C145.903 334.316 146.155 334.219 146.483 334.219C146.812 334.219 147.061 334.316 147.23 334.509C147.406 334.696 147.494 334.928 147.494 335.203C147.494 335.473 147.406 335.701 147.23 335.889C147.061 336.076 146.812 336.17 146.483 336.17C146.155 336.17 145.903 336.076 145.728 335.889C145.558 335.701 145.473 335.473 145.473 335.203ZM162.629 331.995H164.316C164.229 332.804 163.997 333.527 163.622 334.166C163.247 334.805 162.717 335.312 162.031 335.687C161.346 336.056 160.49 336.24 159.465 336.24C158.715 336.24 158.032 336.1 157.417 335.818C156.808 335.537 156.283 335.139 155.844 334.623C155.404 334.102 155.064 333.478 154.824 332.751C154.59 332.019 154.473 331.204 154.473 330.308V329.033C154.473 328.137 154.59 327.325 154.824 326.599C155.064 325.866 155.407 325.239 155.853 324.718C156.304 324.196 156.846 323.795 157.479 323.514C158.111 323.233 158.823 323.092 159.614 323.092C160.581 323.092 161.398 323.274 162.066 323.637C162.734 324 163.253 324.504 163.622 325.149C163.997 325.787 164.229 326.528 164.316 327.372H162.629C162.547 326.775 162.395 326.262 162.172 325.834C161.949 325.401 161.633 325.067 161.223 324.832C160.812 324.598 160.276 324.481 159.614 324.481C159.046 324.481 158.545 324.589 158.111 324.806C157.684 325.023 157.323 325.33 157.03 325.729C156.743 326.127 156.526 326.605 156.38 327.161C156.233 327.718 156.16 328.336 156.16 329.016V330.308C156.16 330.935 156.225 331.524 156.354 332.074C156.488 332.625 156.69 333.109 156.96 333.525C157.229 333.941 157.572 334.269 157.988 334.509C158.404 334.743 158.896 334.86 159.465 334.86C160.186 334.86 160.76 334.746 161.188 334.518C161.615 334.289 161.938 333.961 162.154 333.533C162.377 333.106 162.535 332.593 162.629 331.995ZM172.2 333.867V326.555H173.835V336.065H172.279L172.2 333.867ZM172.508 331.863L173.185 331.846C173.185 332.479 173.117 333.065 172.982 333.604C172.854 334.137 172.643 334.6 172.35 334.992C172.057 335.385 171.673 335.693 171.198 335.915C170.724 336.132 170.146 336.24 169.467 336.24C169.004 336.24 168.579 336.173 168.192 336.038C167.812 335.903 167.483 335.695 167.208 335.414C166.933 335.133 166.719 334.767 166.566 334.316C166.42 333.864 166.347 333.322 166.347 332.69V326.555H167.973V332.707C167.973 333.135 168.02 333.489 168.113 333.771C168.213 334.046 168.345 334.266 168.509 334.43C168.679 334.588 168.866 334.699 169.071 334.764C169.282 334.828 169.499 334.86 169.722 334.86C170.413 334.86 170.961 334.729 171.365 334.465C171.77 334.195 172.06 333.835 172.235 333.384C172.417 332.927 172.508 332.42 172.508 331.863ZM177.939 328.049V336.065H176.313V326.555H177.896L177.939 328.049ZM180.91 326.502L180.901 328.014C180.767 327.984 180.638 327.967 180.515 327.961C180.397 327.949 180.263 327.943 180.11 327.943C179.735 327.943 179.404 328.002 179.117 328.119C178.83 328.236 178.587 328.401 178.388 328.611C178.188 328.822 178.03 329.074 177.913 329.367C177.802 329.654 177.729 329.971 177.693 330.317L177.236 330.58C177.236 330.006 177.292 329.467 177.403 328.963C177.521 328.459 177.699 328.014 177.939 327.627C178.18 327.234 178.484 326.93 178.854 326.713C179.229 326.49 179.674 326.379 180.189 326.379C180.307 326.379 180.441 326.394 180.594 326.423C180.746 326.446 180.852 326.473 180.91 326.502ZM187.95 333.542C187.95 333.308 187.897 333.091 187.792 332.892C187.692 332.687 187.484 332.502 187.168 332.338C186.857 332.168 186.389 332.022 185.762 331.899C185.234 331.787 184.757 331.655 184.329 331.503C183.907 331.351 183.547 331.166 183.248 330.949C182.955 330.733 182.729 330.478 182.571 330.185C182.413 329.892 182.334 329.549 182.334 329.156C182.334 328.781 182.416 328.427 182.58 328.093C182.75 327.759 182.987 327.463 183.292 327.205C183.603 326.947 183.975 326.745 184.408 326.599C184.842 326.452 185.325 326.379 185.858 326.379C186.62 326.379 187.271 326.514 187.81 326.783C188.349 327.053 188.762 327.413 189.049 327.864C189.336 328.31 189.479 328.805 189.479 329.35H187.854C187.854 329.086 187.774 328.831 187.616 328.585C187.464 328.333 187.238 328.125 186.939 327.961C186.646 327.797 186.286 327.715 185.858 327.715C185.407 327.715 185.041 327.785 184.76 327.926C184.484 328.061 184.282 328.234 184.153 328.444C184.03 328.655 183.969 328.878 183.969 329.112C183.969 329.288 183.998 329.446 184.057 329.587C184.121 329.722 184.232 329.848 184.391 329.965C184.549 330.076 184.771 330.182 185.059 330.281C185.346 330.381 185.712 330.481 186.157 330.58C186.937 330.756 187.578 330.967 188.082 331.213C188.586 331.459 188.961 331.761 189.207 332.118C189.453 332.476 189.576 332.909 189.576 333.419C189.576 333.835 189.488 334.216 189.312 334.562C189.143 334.907 188.894 335.206 188.565 335.458C188.243 335.704 187.856 335.898 187.405 336.038C186.96 336.173 186.459 336.24 185.902 336.24C185.064 336.24 184.355 336.091 183.775 335.792C183.195 335.493 182.756 335.107 182.457 334.632C182.158 334.157 182.009 333.656 182.009 333.129H183.644C183.667 333.574 183.796 333.929 184.03 334.193C184.265 334.45 184.552 334.635 184.892 334.746C185.231 334.852 185.568 334.904 185.902 334.904C186.348 334.904 186.72 334.846 187.019 334.729C187.323 334.611 187.555 334.45 187.713 334.245C187.871 334.04 187.95 333.806 187.95 333.542ZM197.53 333.867V326.555H199.165V336.065H197.609L197.53 333.867ZM197.838 331.863L198.515 331.846C198.515 332.479 198.447 333.065 198.312 333.604C198.184 334.137 197.973 334.6 197.68 334.992C197.387 335.385 197.003 335.693 196.528 335.915C196.054 336.132 195.477 336.24 194.797 336.24C194.334 336.24 193.909 336.173 193.522 336.038C193.142 335.903 192.813 335.695 192.538 335.414C192.263 335.133 192.049 334.767 191.896 334.316C191.75 333.864 191.677 333.322 191.677 332.69V326.555H193.303V332.707C193.303 333.135 193.35 333.489 193.443 333.771C193.543 334.046 193.675 334.266 193.839 334.43C194.009 334.588 194.196 334.699 194.401 334.764C194.612 334.828 194.829 334.86 195.052 334.86C195.743 334.86 196.291 334.729 196.695 334.465C197.1 334.195 197.39 333.835 197.565 333.384C197.747 332.927 197.838 332.42 197.838 331.863ZM207.181 333.542C207.181 333.308 207.128 333.091 207.022 332.892C206.923 332.687 206.715 332.502 206.398 332.338C206.088 332.168 205.619 332.022 204.992 331.899C204.465 331.787 203.987 331.655 203.56 331.503C203.138 331.351 202.777 331.166 202.479 330.949C202.186 330.733 201.96 330.478 201.802 330.185C201.644 329.892 201.564 329.549 201.564 329.156C201.564 328.781 201.646 328.427 201.811 328.093C201.98 327.759 202.218 327.463 202.522 327.205C202.833 326.947 203.205 326.745 203.639 326.599C204.072 326.452 204.556 326.379 205.089 326.379C205.851 326.379 206.501 326.514 207.04 326.783C207.579 327.053 207.992 327.413 208.279 327.864C208.566 328.31 208.71 328.805 208.71 329.35H207.084C207.084 329.086 207.005 328.831 206.847 328.585C206.694 328.333 206.469 328.125 206.17 327.961C205.877 327.797 205.517 327.715 205.089 327.715C204.638 327.715 204.271 327.785 203.99 327.926C203.715 328.061 203.513 328.234 203.384 328.444C203.261 328.655 203.199 328.878 203.199 329.112C203.199 329.288 203.229 329.446 203.287 329.587C203.352 329.722 203.463 329.848 203.621 329.965C203.779 330.076 204.002 330.182 204.289 330.281C204.576 330.381 204.942 330.481 205.388 330.58C206.167 330.756 206.809 330.967 207.312 331.213C207.816 331.459 208.191 331.761 208.438 332.118C208.684 332.476 208.807 332.909 208.807 333.419C208.807 333.835 208.719 334.216 208.543 334.562C208.373 334.907 208.124 335.206 207.796 335.458C207.474 335.704 207.087 335.898 206.636 336.038C206.19 336.173 205.689 336.24 205.133 336.24C204.295 336.24 203.586 336.091 203.006 335.792C202.426 335.493 201.986 335.107 201.688 334.632C201.389 334.157 201.239 333.656 201.239 333.129H202.874C202.897 333.574 203.026 333.929 203.261 334.193C203.495 334.45 203.782 334.635 204.122 334.746C204.462 334.852 204.799 334.904 205.133 334.904C205.578 334.904 205.95 334.846 206.249 334.729C206.554 334.611 206.785 334.45 206.943 334.245C207.102 334.04 207.181 333.806 207.181 333.542ZM221.401 334.219V322.565H223.036V336.065H221.542L221.401 334.219ZM215.003 331.415V331.231C215.003 330.504 215.091 329.845 215.267 329.253C215.448 328.655 215.703 328.143 216.031 327.715C216.365 327.287 216.761 326.959 217.218 326.731C217.681 326.496 218.196 326.379 218.765 326.379C219.362 326.379 219.884 326.484 220.329 326.695C220.78 326.901 221.161 327.202 221.472 327.601C221.788 327.993 222.037 328.468 222.219 329.025C222.4 329.581 222.526 330.211 222.597 330.914V331.723C222.532 332.42 222.406 333.047 222.219 333.604C222.037 334.16 221.788 334.635 221.472 335.027C221.161 335.42 220.78 335.722 220.329 335.933C219.878 336.138 219.351 336.24 218.747 336.24C218.19 336.24 217.681 336.12 217.218 335.88C216.761 335.64 216.365 335.303 216.031 334.869C215.703 334.436 215.448 333.926 215.267 333.34C215.091 332.748 215.003 332.107 215.003 331.415ZM216.638 331.231V331.415C216.638 331.89 216.685 332.335 216.778 332.751C216.878 333.167 217.03 333.533 217.235 333.85C217.44 334.166 217.701 334.415 218.018 334.597C218.334 334.773 218.712 334.86 219.151 334.86C219.69 334.86 220.133 334.746 220.479 334.518C220.83 334.289 221.111 333.987 221.322 333.612C221.533 333.237 221.697 332.83 221.814 332.391V330.273C221.744 329.95 221.642 329.64 221.507 329.341C221.378 329.036 221.208 328.767 220.997 328.532C220.792 328.292 220.537 328.102 220.232 327.961C219.934 327.82 219.579 327.75 219.169 327.75C218.724 327.75 218.34 327.844 218.018 328.031C217.701 328.213 217.44 328.465 217.235 328.787C217.03 329.104 216.878 329.473 216.778 329.895C216.685 330.311 216.638 330.756 216.638 331.231ZM227.334 326.555V336.065H225.699V326.555H227.334ZM225.576 324.032C225.576 323.769 225.655 323.546 225.813 323.364C225.978 323.183 226.218 323.092 226.534 323.092C226.845 323.092 227.082 323.183 227.246 323.364C227.416 323.546 227.501 323.769 227.501 324.032C227.501 324.284 227.416 324.501 227.246 324.683C227.082 324.859 226.845 324.946 226.534 324.946C226.218 324.946 225.978 324.859 225.813 324.683C225.655 324.501 225.576 324.284 225.576 324.032ZM235.552 334.439V329.543C235.552 329.168 235.476 328.843 235.323 328.568C235.177 328.286 234.954 328.069 234.655 327.917C234.356 327.765 233.987 327.689 233.548 327.689C233.138 327.689 232.777 327.759 232.467 327.9C232.162 328.04 231.922 328.225 231.746 328.453C231.576 328.682 231.491 328.928 231.491 329.192H229.865C229.865 328.852 229.953 328.515 230.129 328.181C230.305 327.847 230.557 327.545 230.885 327.276C231.219 327 231.617 326.783 232.08 326.625C232.549 326.461 233.07 326.379 233.645 326.379C234.336 326.379 234.945 326.496 235.473 326.731C236.006 326.965 236.422 327.319 236.721 327.794C237.025 328.263 237.178 328.852 237.178 329.561V333.99C237.178 334.307 237.204 334.644 237.257 335.001C237.315 335.359 237.4 335.666 237.512 335.924V336.065H235.815C235.733 335.877 235.669 335.628 235.622 335.318C235.575 335.001 235.552 334.708 235.552 334.439ZM235.833 330.299L235.851 331.442H234.207C233.744 331.442 233.331 331.48 232.968 331.556C232.604 331.626 232.3 331.734 232.054 331.881C231.808 332.027 231.62 332.212 231.491 332.435C231.362 332.651 231.298 332.906 231.298 333.199C231.298 333.498 231.365 333.771 231.5 334.017C231.635 334.263 231.837 334.459 232.106 334.606C232.382 334.746 232.719 334.817 233.117 334.817C233.615 334.817 234.055 334.711 234.436 334.5C234.816 334.289 235.118 334.031 235.341 333.727C235.569 333.422 235.692 333.126 235.71 332.839L236.404 333.621C236.363 333.867 236.252 334.14 236.07 334.439C235.889 334.737 235.646 335.025 235.341 335.3C235.042 335.569 234.685 335.795 234.269 335.977C233.858 336.152 233.396 336.24 232.88 336.24C232.235 336.24 231.67 336.114 231.184 335.862C230.703 335.61 230.328 335.274 230.059 334.852C229.795 334.424 229.663 333.946 229.663 333.419C229.663 332.909 229.763 332.461 229.962 332.074C230.161 331.682 230.448 331.357 230.823 331.099C231.198 330.835 231.649 330.636 232.177 330.501C232.704 330.366 233.293 330.299 233.943 330.299H235.833ZM241.353 328.444V336.065H239.718V326.555H241.265L241.353 328.444ZM241.019 330.949L240.263 330.923C240.269 330.273 240.354 329.672 240.518 329.121C240.682 328.565 240.925 328.081 241.247 327.671C241.569 327.261 241.971 326.944 242.451 326.722C242.932 326.493 243.488 326.379 244.121 326.379C244.566 326.379 244.977 326.443 245.352 326.572C245.727 326.695 246.052 326.892 246.327 327.161C246.603 327.431 246.816 327.776 246.969 328.198C247.121 328.62 247.197 329.13 247.197 329.728V336.065H245.571V329.807C245.571 329.309 245.486 328.91 245.316 328.611C245.152 328.313 244.918 328.096 244.613 327.961C244.309 327.82 243.951 327.75 243.541 327.75C243.061 327.75 242.659 327.835 242.337 328.005C242.015 328.175 241.757 328.409 241.563 328.708C241.37 329.007 241.229 329.35 241.142 329.736C241.06 330.117 241.019 330.522 241.019 330.949ZM247.18 330.053L246.09 330.387C246.096 329.865 246.181 329.364 246.345 328.884C246.515 328.403 246.758 327.976 247.074 327.601C247.396 327.226 247.792 326.93 248.261 326.713C248.729 326.49 249.266 326.379 249.869 326.379C250.379 326.379 250.83 326.446 251.223 326.581C251.621 326.716 251.955 326.924 252.225 327.205C252.5 327.481 252.708 327.835 252.849 328.269C252.989 328.702 253.06 329.218 253.06 329.816V336.065H251.425V329.798C251.425 329.265 251.34 328.852 251.17 328.559C251.006 328.26 250.771 328.052 250.467 327.935C250.168 327.812 249.811 327.75 249.395 327.75C249.037 327.75 248.721 327.812 248.445 327.935C248.17 328.058 247.938 328.228 247.751 328.444C247.563 328.655 247.42 328.899 247.32 329.174C247.227 329.449 247.18 329.742 247.18 330.053ZM261.752 326.555V336.065H260.117V326.555H261.752ZM259.994 324.032C259.994 323.769 260.073 323.546 260.231 323.364C260.396 323.183 260.636 323.092 260.952 323.092C261.263 323.092 261.5 323.183 261.664 323.364C261.834 323.546 261.919 323.769 261.919 324.032C261.919 324.284 261.834 324.501 261.664 324.683C261.5 324.859 261.263 324.946 260.952 324.946C260.636 324.946 260.396 324.859 260.231 324.683C260.073 324.501 259.994 324.284 259.994 324.032ZM270.356 334.219V322.565H271.991V336.065H270.497L270.356 334.219ZM263.958 331.415V331.231C263.958 330.504 264.046 329.845 264.222 329.253C264.403 328.655 264.658 328.143 264.986 327.715C265.32 327.287 265.716 326.959 266.173 326.731C266.636 326.496 267.151 326.379 267.72 326.379C268.317 326.379 268.839 326.484 269.284 326.695C269.735 326.901 270.116 327.202 270.427 327.601C270.743 327.993 270.992 328.468 271.174 329.025C271.355 329.581 271.481 330.211 271.552 330.914V331.723C271.487 332.42 271.361 333.047 271.174 333.604C270.992 334.16 270.743 334.635 270.427 335.027C270.116 335.42 269.735 335.722 269.284 335.933C268.833 336.138 268.306 336.24 267.702 336.24C267.146 336.24 266.636 336.12 266.173 335.88C265.716 335.64 265.32 335.303 264.986 334.869C264.658 334.436 264.403 333.926 264.222 333.34C264.046 332.748 263.958 332.107 263.958 331.415ZM265.593 331.231V331.415C265.593 331.89 265.64 332.335 265.733 332.751C265.833 333.167 265.985 333.533 266.19 333.85C266.396 334.166 266.656 334.415 266.973 334.597C267.289 334.773 267.667 334.86 268.106 334.86C268.646 334.86 269.088 334.746 269.434 334.518C269.785 334.289 270.066 333.987 270.277 333.612C270.488 333.237 270.652 332.83 270.77 332.391V330.273C270.699 329.95 270.597 329.64 270.462 329.341C270.333 329.036 270.163 328.767 269.952 328.532C269.747 328.292 269.492 328.102 269.188 327.961C268.889 327.82 268.534 327.75 268.124 327.75C267.679 327.75 267.295 327.844 266.973 328.031C266.656 328.213 266.396 328.465 266.19 328.787C265.985 329.104 265.833 329.473 265.733 329.895C265.64 330.311 265.593 330.756 265.593 331.231ZM280.754 322.565V336.065H279.119V322.565H280.754ZM289.183 333.867V326.555H290.817V336.065H289.262L289.183 333.867ZM289.49 331.863L290.167 331.846C290.167 332.479 290.1 333.065 289.965 333.604C289.836 334.137 289.625 334.6 289.332 334.992C289.039 335.385 288.655 335.693 288.181 335.915C287.706 336.132 287.129 336.24 286.449 336.24C285.986 336.24 285.562 336.173 285.175 336.038C284.794 335.903 284.466 335.695 284.19 335.414C283.915 335.133 283.701 334.767 283.549 334.316C283.402 333.864 283.329 333.322 283.329 332.69V326.555H284.955V332.707C284.955 333.135 285.002 333.489 285.096 333.771C285.195 334.046 285.327 334.266 285.491 334.43C285.661 334.588 285.849 334.699 286.054 334.764C286.265 334.828 286.481 334.86 286.704 334.86C287.396 334.86 287.943 334.729 288.348 334.465C288.752 334.195 289.042 333.835 289.218 333.384C289.399 332.927 289.49 332.42 289.49 331.863ZM297.102 334.904C297.488 334.904 297.846 334.825 298.174 334.667C298.502 334.509 298.771 334.292 298.982 334.017C299.193 333.735 299.313 333.416 299.343 333.059H300.89C300.86 333.621 300.67 334.146 300.318 334.632C299.973 335.112 299.519 335.502 298.956 335.801C298.394 336.094 297.775 336.24 297.102 336.24C296.387 336.24 295.763 336.114 295.229 335.862C294.702 335.61 294.263 335.265 293.911 334.825C293.565 334.386 293.305 333.882 293.129 333.314C292.959 332.739 292.874 332.133 292.874 331.494V331.125C292.874 330.486 292.959 329.883 293.129 329.315C293.305 328.74 293.565 328.234 293.911 327.794C294.263 327.355 294.702 327.009 295.229 326.757C295.763 326.505 296.387 326.379 297.102 326.379C297.846 326.379 298.496 326.531 299.053 326.836C299.609 327.135 300.046 327.545 300.362 328.067C300.685 328.582 300.86 329.168 300.89 329.824H299.343C299.313 329.432 299.202 329.077 299.009 328.761C298.821 328.444 298.563 328.193 298.235 328.005C297.913 327.812 297.535 327.715 297.102 327.715C296.604 327.715 296.185 327.815 295.845 328.014C295.511 328.207 295.244 328.471 295.045 328.805C294.852 329.133 294.711 329.499 294.623 329.903C294.541 330.302 294.5 330.709 294.5 331.125V331.494C294.5 331.91 294.541 332.32 294.623 332.725C294.705 333.129 294.843 333.495 295.036 333.823C295.235 334.151 295.502 334.415 295.836 334.614C296.176 334.808 296.598 334.904 297.102 334.904ZM306.699 326.555V327.803H301.558V326.555H306.699ZM303.298 324.243H304.924V333.709C304.924 334.031 304.974 334.275 305.073 334.439C305.173 334.603 305.302 334.711 305.46 334.764C305.618 334.817 305.788 334.843 305.97 334.843C306.104 334.843 306.245 334.831 306.392 334.808C306.544 334.778 306.658 334.755 306.734 334.737L306.743 336.065C306.614 336.106 306.444 336.144 306.233 336.179C306.028 336.22 305.779 336.24 305.486 336.24C305.088 336.24 304.722 336.161 304.388 336.003C304.054 335.845 303.787 335.581 303.588 335.212C303.395 334.837 303.298 334.333 303.298 333.7V324.243ZM314.425 333.867V326.555H316.06V336.065H314.504L314.425 333.867ZM314.732 331.863L315.409 331.846C315.409 332.479 315.342 333.065 315.207 333.604C315.078 334.137 314.867 334.6 314.574 334.992C314.281 335.385 313.897 335.693 313.423 335.915C312.948 336.132 312.371 336.24 311.691 336.24C311.229 336.24 310.804 336.173 310.417 336.038C310.036 335.903 309.708 335.695 309.433 335.414C309.157 335.133 308.943 334.767 308.791 334.316C308.645 333.864 308.571 333.322 308.571 332.69V326.555H310.197V332.707C310.197 333.135 310.244 333.489 310.338 333.771C310.438 334.046 310.569 334.266 310.733 334.43C310.903 334.588 311.091 334.699 311.296 334.764C311.507 334.828 311.724 334.86 311.946 334.86C312.638 334.86 313.186 334.729 313.59 334.465C313.994 334.195 314.284 333.835 314.46 333.384C314.642 332.927 314.732 332.42 314.732 331.863ZM324.075 333.542C324.075 333.308 324.022 333.091 323.917 332.892C323.817 332.687 323.609 332.502 323.293 332.338C322.982 332.168 322.514 332.022 321.887 331.899C321.359 331.787 320.882 331.655 320.454 331.503C320.032 331.351 319.672 331.166 319.373 330.949C319.08 330.733 318.854 330.478 318.696 330.185C318.538 329.892 318.459 329.549 318.459 329.156C318.459 328.781 318.541 328.427 318.705 328.093C318.875 327.759 319.112 327.463 319.417 327.205C319.728 326.947 320.1 326.745 320.533 326.599C320.967 326.452 321.45 326.379 321.983 326.379C322.745 326.379 323.396 326.514 323.935 326.783C324.474 327.053 324.887 327.413 325.174 327.864C325.461 328.31 325.604 328.805 325.604 329.35H323.979C323.979 329.086 323.899 328.831 323.741 328.585C323.589 328.333 323.363 328.125 323.064 327.961C322.771 327.797 322.411 327.715 321.983 327.715C321.532 327.715 321.166 327.785 320.885 327.926C320.609 328.061 320.407 328.234 320.278 328.444C320.155 328.655 320.094 328.878 320.094 329.112C320.094 329.288 320.123 329.446 320.182 329.587C320.246 329.722 320.357 329.848 320.516 329.965C320.674 330.076 320.896 330.182 321.184 330.281C321.471 330.381 321.837 330.481 322.282 330.58C323.062 330.756 323.703 330.967 324.207 331.213C324.711 331.459 325.086 331.761 325.332 332.118C325.578 332.476 325.701 332.909 325.701 333.419C325.701 333.835 325.613 334.216 325.438 334.562C325.268 334.907 325.019 335.206 324.69 335.458C324.368 335.704 323.981 335.898 323.53 336.038C323.085 336.173 322.584 336.24 322.027 336.24C321.189 336.24 320.48 336.091 319.9 335.792C319.32 335.493 318.881 335.107 318.582 334.632C318.283 334.157 318.134 333.656 318.134 333.129H319.769C319.792 333.574 319.921 333.929 320.155 334.193C320.39 334.45 320.677 334.635 321.017 334.746C321.356 334.852 321.693 334.904 322.027 334.904C322.473 334.904 322.845 334.846 323.144 334.729C323.448 334.611 323.68 334.45 323.838 334.245C323.996 334.04 324.075 333.806 324.075 333.542ZM327.863 335.203C327.863 334.928 327.948 334.696 328.118 334.509C328.294 334.316 328.546 334.219 328.874 334.219C329.202 334.219 329.451 334.316 329.621 334.509C329.797 334.696 329.885 334.928 329.885 335.203C329.885 335.473 329.797 335.701 329.621 335.889C329.451 336.076 329.202 336.17 328.874 336.17C328.546 336.17 328.294 336.076 328.118 335.889C327.948 335.701 327.863 335.473 327.863 335.203Z" fill="#0D0F11"/>
<path d="M60.5996 270.073C60.5996 269.744 60.5488 269.451 60.4473 269.194C60.3535 268.928 60.1777 268.69 59.9199 268.479C59.6699 268.26 59.3145 268.049 58.8535 267.846C58.4004 267.635 57.8145 267.416 57.0957 267.19C56.2988 266.94 55.5566 266.658 54.8691 266.346C54.1816 266.033 53.5762 265.67 53.0527 265.256C52.5371 264.842 52.1348 264.365 51.8457 263.826C51.5566 263.28 51.4121 262.647 51.4121 261.928C51.4121 261.225 51.5605 260.584 51.8574 260.006C52.1621 259.428 52.5918 258.932 53.1465 258.518C53.7012 258.096 54.3535 257.772 55.1035 257.545C55.8613 257.319 56.6973 257.205 57.6113 257.205C58.877 257.205 59.9707 257.436 60.8926 257.897C61.8223 258.358 62.541 258.983 63.0488 259.772C63.5566 260.561 63.8105 261.448 63.8105 262.432H60.5996C60.5996 261.901 60.4863 261.432 60.2598 261.026C60.041 260.619 59.7051 260.299 59.252 260.065C58.8066 259.83 58.2441 259.713 57.5645 259.713C56.9082 259.713 56.3613 259.811 55.9238 260.006C55.4941 260.201 55.1699 260.467 54.9512 260.803C54.7402 261.139 54.6348 261.514 54.6348 261.928C54.6348 262.24 54.709 262.522 54.8574 262.772C55.0059 263.014 55.2285 263.244 55.5254 263.463C55.8223 263.674 56.1895 263.873 56.627 264.061C57.0723 264.24 57.5879 264.42 58.1738 264.6C59.1113 264.881 59.9316 265.194 60.6348 265.537C61.3457 265.881 61.9355 266.272 62.4043 266.709C62.8809 267.147 63.2363 267.639 63.4707 268.186C63.7129 268.733 63.834 269.354 63.834 270.049C63.834 270.783 63.6895 271.44 63.4004 272.018C63.1113 272.596 62.6973 273.088 62.1582 273.494C61.6191 273.901 60.9707 274.209 60.2129 274.42C59.4629 274.631 58.623 274.737 57.6934 274.737C56.8652 274.737 56.0449 274.627 55.2324 274.408C54.4277 274.182 53.6973 273.846 53.041 273.401C52.3848 272.948 51.8613 272.377 51.4707 271.69C51.0801 270.994 50.8848 270.182 50.8848 269.252H54.1191C54.1191 269.791 54.2051 270.252 54.377 270.635C54.5566 271.01 54.8066 271.319 55.127 271.561C55.4551 271.795 55.8379 271.967 56.2754 272.076C56.7129 272.186 57.1855 272.24 57.6934 272.24C58.3496 272.24 58.8887 272.151 59.3105 271.971C59.7402 271.783 60.0605 271.526 60.2715 271.198C60.4902 270.869 60.5996 270.494 60.5996 270.073ZM73.0684 271.807V265.959C73.0684 265.53 72.9941 265.158 72.8457 264.846C72.6973 264.533 72.4707 264.291 72.166 264.119C71.8613 263.948 71.4746 263.862 71.0059 263.862C70.5918 263.862 70.2285 263.932 69.916 264.073C69.6113 264.213 69.377 264.412 69.2129 264.67C69.0488 264.92 68.9668 265.209 68.9668 265.537H65.8613C65.8613 265.014 65.9863 264.518 66.2363 264.049C66.4863 263.573 66.8418 263.151 67.3027 262.783C67.7715 262.408 68.3301 262.115 68.9785 261.905C69.6348 261.694 70.3691 261.588 71.1816 261.588C72.1426 261.588 72.998 261.752 73.748 262.08C74.5059 262.401 75.0996 262.885 75.5293 263.533C75.9668 264.182 76.1855 264.998 76.1855 265.983V271.514C76.1855 272.147 76.2246 272.69 76.3027 273.143C76.3887 273.588 76.5137 273.975 76.6777 274.303V274.502H73.5254C73.377 274.182 73.2637 273.776 73.1855 273.283C73.1074 272.783 73.0684 272.291 73.0684 271.807ZM73.502 266.78L73.5254 268.619H71.5684C71.084 268.619 70.6582 268.67 70.291 268.772C69.9238 268.865 69.623 269.006 69.3887 269.194C69.1543 269.373 68.9785 269.592 68.8613 269.85C68.7441 270.1 68.6855 270.385 68.6855 270.705C68.6855 271.018 68.7559 271.299 68.8965 271.549C69.0449 271.799 69.2559 271.998 69.5293 272.147C69.8105 272.287 70.1387 272.358 70.5137 272.358C71.0605 272.358 71.5371 272.248 71.9434 272.03C72.3496 271.803 72.666 271.53 72.8926 271.209C73.1191 270.889 73.2402 270.584 73.2559 270.295L74.1465 271.631C74.0371 271.951 73.873 272.291 73.6543 272.651C73.4355 273.01 73.1543 273.346 72.8105 273.658C72.4668 273.971 72.0527 274.229 71.5684 274.432C71.084 274.635 70.5215 274.737 69.8809 274.737C69.0605 274.737 68.3262 274.573 67.6777 274.244C67.0293 273.916 66.5176 273.467 66.1426 272.897C65.7676 272.326 65.5801 271.678 65.5801 270.951C65.5801 270.28 65.7051 269.686 65.9551 269.17C66.2051 268.655 66.5762 268.221 67.0684 267.869C67.5605 267.51 68.1699 267.24 68.8965 267.061C69.6309 266.873 70.4707 266.78 71.416 266.78H73.502ZM82.2559 256.502V274.502H79.1504V256.502H82.2559ZM90.9043 274.737C89.9434 274.737 89.0801 274.58 88.3145 274.268C87.5488 273.955 86.8965 273.522 86.3574 272.967C85.8262 272.405 85.416 271.752 85.127 271.01C84.8457 270.26 84.7051 269.455 84.7051 268.596V268.127C84.7051 267.151 84.8457 266.264 85.127 265.467C85.4082 264.662 85.8066 263.971 86.3223 263.393C86.8379 262.815 87.4551 262.369 88.1738 262.057C88.8926 261.744 89.6855 261.588 90.5527 261.588C91.4512 261.588 92.2441 261.74 92.9316 262.045C93.6191 262.342 94.1934 262.764 94.6543 263.311C95.1152 263.858 95.4629 264.514 95.6973 265.28C95.9316 266.037 96.0488 266.877 96.0488 267.799V269.1H86.1113V266.967H93.002V266.733C92.9863 266.24 92.8926 265.791 92.7207 265.385C92.5488 264.971 92.2832 264.643 91.9238 264.401C91.5645 264.151 91.0996 264.026 90.5293 264.026C90.0684 264.026 89.666 264.127 89.3223 264.33C88.9863 264.526 88.7051 264.807 88.4785 265.174C88.2598 265.533 88.0957 265.963 87.9863 266.463C87.877 266.963 87.8223 267.518 87.8223 268.127V268.596C87.8223 269.127 87.8926 269.619 88.0332 270.073C88.1816 270.526 88.3965 270.92 88.6777 271.256C88.9668 271.584 89.3105 271.842 89.709 272.03C90.1152 272.209 90.5762 272.299 91.0918 272.299C91.7402 272.299 92.3262 272.174 92.8496 271.924C93.3809 271.666 93.8418 271.287 94.2324 270.787L95.791 272.405C95.5254 272.795 95.166 273.17 94.7129 273.53C94.2676 273.889 93.7285 274.182 93.0957 274.408C92.4629 274.627 91.7324 274.737 90.9043 274.737ZM105.096 271.033C105.096 270.768 105.025 270.53 104.885 270.319C104.744 270.108 104.479 269.916 104.088 269.744C103.705 269.565 103.143 269.397 102.4 269.24C101.744 269.1 101.139 268.924 100.584 268.713C100.029 268.502 99.5527 268.248 99.1543 267.951C98.7559 267.647 98.4434 267.291 98.2168 266.885C97.998 266.471 97.8887 265.994 97.8887 265.455C97.8887 264.932 98.002 264.44 98.2285 263.979C98.4551 263.51 98.7832 263.1 99.2129 262.748C99.6426 262.389 100.166 262.108 100.783 261.905C101.4 261.694 102.096 261.588 102.869 261.588C103.947 261.588 104.873 261.764 105.646 262.115C106.428 262.467 107.025 262.951 107.439 263.569C107.854 264.178 108.061 264.865 108.061 265.631H104.967C104.967 265.295 104.889 264.99 104.732 264.717C104.584 264.444 104.354 264.225 104.041 264.061C103.729 263.889 103.334 263.803 102.857 263.803C102.428 263.803 102.064 263.873 101.768 264.014C101.479 264.155 101.26 264.338 101.111 264.565C100.963 264.791 100.889 265.041 100.889 265.315C100.889 265.518 100.928 265.701 101.006 265.865C101.092 266.022 101.229 266.166 101.416 266.299C101.604 266.432 101.857 266.553 102.178 266.662C102.506 266.772 102.908 266.877 103.385 266.979C104.33 267.166 105.154 267.416 105.857 267.729C106.568 268.033 107.123 268.44 107.521 268.948C107.92 269.455 108.119 270.104 108.119 270.893C108.119 271.455 107.998 271.971 107.756 272.44C107.514 272.901 107.162 273.303 106.701 273.647C106.24 273.99 105.689 274.26 105.049 274.455C104.408 274.643 103.686 274.737 102.881 274.737C101.717 274.737 100.732 274.53 99.9277 274.115C99.123 273.694 98.5137 273.162 98.0996 272.522C97.6855 271.873 97.4785 271.201 97.4785 270.506H100.443C100.467 270.998 100.6 271.393 100.842 271.69C101.084 271.987 101.389 272.201 101.756 272.334C102.131 272.459 102.525 272.522 102.939 272.522C103.408 272.522 103.803 272.459 104.123 272.334C104.443 272.201 104.686 272.026 104.85 271.807C105.014 271.58 105.096 271.323 105.096 271.033Z" fill="#0D0F11"/>
<defs>
<filter id="filter0_d_202_1506" x="0.0145841" y="0.366789" width="415.083" height="400.083" filterUnits="userSpaceOnUse" color-interpolation-filters="sRGB">
<feFlood flood-opacity="0" result="BackgroundImageFix"/>
<feColorMatrix in="SourceAlpha" type="matrix" values="0 0 0 0 0 0 0 0 0 0 0 0 0 0 0 0 0 0 127 0" result="hardAlpha"/>
<feOffset dx="4.05625" dy="5.40833"/>
<feGaussianBlur stdDeviation="13.5208"/>
<feComposite in2="hardAlpha" operator="out"/>
<feColorMatrix type="matrix" values="0 0 0 0 0.458824 0 0 0 0 0.501961 0 0 0 0 0.533333 0 0 0 0.1 0"/>
<feBlend mode="normal" in2="BackgroundImageFix" result="effect1_dropShadow_202_1506"/>
<feBlend mode="normal" in="SourceGraphic" in2="effect1_dropShadow_202_1506" result="shape"/>
</filter>
<linearGradient id="paint0_linear_202_1506" x1="154.814" y1="116.066" x2="170.15" y2="116.066" gradientUnits="userSpaceOnUse">
<stop stop-color="#F47A4B"/>
<stop offset="1" stop-color="#F79975"/>
</linearGradient>
<linearGradient id="paint1_linear_202_1506" x1="276.869" y1="105.891" x2="288.904" y2="105.891" gradientUnits="userSpaceOnUse">
<stop stop-color="#BFDEAB"/>
<stop offset="1" stop-color="#82D1DA"/>
</linearGradient>
<linearGradient id="paint2_linear_202_1506" x1="108.775" y1="106.187" x2="126.852" y2="106.187" gradientUnits="userSpaceOnUse">
<stop stop-color="#F47A4B"/>
<stop offset="1" stop-color="#F79975"/>
</linearGradient>
<linearGradient id="paint3_linear_202_1506" x1="187.275" y1="130.039" x2="205.352" y2="130.039" gradientUnits="userSpaceOnUse">
<stop stop-color="#BFDEAB"/>
<stop offset="1" stop-color="#82D1DA"/>
</linearGradient>
<linearGradient id="paint4_linear_202_1506" x1="151.256" y1="175.084" x2="169.333" y2="175.084" gradientUnits="userSpaceOnUse">
<stop stop-color="#0075C2"/>
<stop offset="1" stop-color="#82D1DA"/>
</linearGradient>
<linearGradient id="paint5_linear_202_1506" x1="112.201" y1="169.341" x2="140.854" y2="169.341" gradientUnits="userSpaceOnUse">
<stop stop-color="#FFDD15"/>
<stop offset="1" stop-color="#FBE29B"/>
</linearGradient>
<linearGradient id="paint6_linear_202_1506" x1="124.26" y1="157.075" x2="133.601" y2="157.075" gradientUnits="userSpaceOnUse">
<stop stop-color="#BFDEAB" stop-opacity="0.501961"/>
<stop offset="1" stop-color="#28B473"/>
</linearGradient>
<linearGradient id="paint7_linear_202_1506" x1="-1071.65" y1="-46.6011" x2="-1019.51" y2="-46.6011" gradientUnits="userSpaceOnUse">
<stop stop-color="#70CCD7"/>
<stop offset="1" stop-color="#00ADEE"/>
</linearGradient>
<linearGradient id="paint8_linear_202_1506" x1="287.674" y1="172.457" x2="312.039" y2="172.457" gradientUnits="userSpaceOnUse">
<stop stop-color="#0075C2"/>
<stop offset="1" stop-color="#82D1DA"/>
</linearGradient>
<linearGradient id="paint9_linear_202_1506" x1="216.398" y1="104.022" x2="228.86" y2="104.022" gradientUnits="userSpaceOnUse">
<stop stop-color="#F47A4B"/>
<stop offset="1" stop-color="#F79975"/>
</linearGradient>
<linearGradient id="paint10_linear_202_1506" x1="245.81" y1="104.021" x2="258.12" y2="104.021" gradientUnits="userSpaceOnUse">
<stop stop-color="#82D1DA"/>
<stop offset="1" stop-color="#BFDEAB"/>
</linearGradient>
<linearGradient id="paint11_linear_202_1506" x1="225.297" y1="92.188" x2="249.49" y2="92.188" gradientUnits="userSpaceOnUse">
<stop stop-color="#FFDD15"/>
<stop offset="1" stop-color="#FBE29B"/>
</linearGradient>
</defs>
</svg>
