<svg width="166" height="39" viewBox="0 0 166 39" fill="none" xmlns="http://www.w3.org/2000/svg">
<path fill-rule="evenodd" clip-rule="evenodd" d="M60.7348 24.6302C60.7348 27.2703 60.2704 28.6641 59.1234 29.727C57.9427 30.7913 56.0082 31.4517 53.2135 31.4517C50.4551 31.4517 48.8086 30.9388 47.6617 29.9118C46.1943 28.5896 45.5508 26.3535 45.5508 22.9428V21.4387C45.5508 18.0638 46.1943 16.1199 47.593 14.6903C48.8436 13.4054 50.5654 12.8181 52.9994 12.8181C54.3591 12.8181 55.5774 13.1862 56.4027 13.7363H56.4727V7.20845C56.4727 6.47364 56.6867 6.29028 57.4756 6.29028H59.7332C60.5207 6.29028 60.7348 6.47364 60.7348 7.20845V24.6302ZM56.4726 19.6037C56.4726 18.1382 56.1859 17.5137 55.7578 17.1111C55.2556 16.6327 54.5394 16.3404 53.3574 16.3404C52.1041 16.3404 51.3166 16.7444 50.7794 17.4034C50.0269 18.3215 49.8828 19.4948 49.8828 21.5489V22.6863C49.8828 25.0327 50.0982 26.1701 50.7431 26.978C51.2789 27.6369 51.9951 27.9306 53.2134 27.9306C54.6108 27.9306 55.292 27.6742 55.7927 27.1241C56.2935 26.5726 56.4726 25.6559 56.4726 24.4096L56.4726 19.6037Z" fill="#2D3237"/>
<path fill-rule="evenodd" clip-rule="evenodd" d="M75.2754 29.5799C74.5942 30.7903 73.4836 31.4507 71.335 31.4507H70.0104C68.1472 31.4507 67.0379 31.1198 66.07 30.2775C65.032 29.3593 64.5312 27.9297 64.5312 26.1692V25.3254C64.5312 23.3457 64.9957 21.9519 66.035 21.0696C67.1456 20.117 68.8284 19.713 71.265 19.713H72.5547C73.1995 19.713 73.9494 19.7503 74.5606 19.7875V18.7976C74.5606 17.8422 74.3789 17.2935 73.9494 16.9254C73.4499 16.5229 72.7688 16.4126 71.4804 16.4126C70.1881 16.4126 68.5066 16.669 67.0756 17.1102C66.5008 17.2935 66.2867 17.0357 66.179 16.5229L65.8559 14.7982C65.7146 14.1765 65.7859 13.8814 66.3931 13.6995C67.7191 13.2583 69.904 12.8171 71.8022 12.8171C74.3438 12.8171 75.7412 13.148 76.9595 13.9917C78.2479 14.9085 78.82 16.2306 78.82 18.8335V30.4236C78.82 30.9006 78.5696 31.1198 78.0688 31.1198H76.4224C75.8826 31.1198 75.6685 30.9378 75.5622 30.4608L75.3481 29.5799L75.2754 29.5799ZM74.5607 23.2712C73.9496 23.2354 73.1997 23.1982 72.4822 23.1982H71.2302C70.405 23.1982 69.7238 23.3085 69.3657 23.6379C68.9713 23.9688 68.8286 24.592 68.8286 25.4357V25.8755C68.8286 26.682 69.0076 27.1976 69.3657 27.5271C69.6524 27.7835 70.1546 27.9655 70.9435 27.9655H72.2318C73.8796 27.9655 74.5607 27.1976 74.5607 25.5087V23.2712Z" fill="#2D3237"/>
<path d="M88.5995 13.1469H92.1455C92.7526 13.1469 92.8967 13.3675 92.8967 14.0996V15.8987C92.8967 16.5218 92.7526 16.8155 92.1455 16.8155H88.5995V24.8101C88.5995 26.1309 88.6709 26.5706 89.0303 26.976C89.3507 27.3427 89.7452 27.4516 90.7118 27.4516H92.4659C93.2198 27.4516 93.3261 27.6722 93.3261 28.4056V30.202C93.3261 30.8995 93.2561 31.1187 92.4659 31.1187H89.8865C87.8107 31.1187 86.5937 30.7892 85.6984 29.9455C84.7682 29.066 84.3374 27.6349 84.3374 25.5436V16.8155H82.1888C81.6517 16.8155 81.4727 16.6679 81.4727 16.1179V14.5049C81.4727 13.9176 81.6154 13.8087 82.0448 13.7342L84.3374 13.3317V9.47977C84.3374 8.74634 84.5515 8.56299 85.3404 8.56299H87.5966C88.3842 8.56299 88.5996 8.74634 88.5996 9.47977L88.5995 13.1469Z" fill="#2D3237"/>
<path fill-rule="evenodd" clip-rule="evenodd" d="M106.509 29.5799C105.827 30.7903 104.719 31.4507 102.569 31.4507H101.244C99.381 31.4507 98.2717 31.1198 97.3037 30.2775C96.2658 29.3593 95.7637 27.9297 95.7637 26.1692V25.3254C95.7637 23.3457 96.2295 21.9519 97.2687 21.0696C98.378 20.117 100.062 19.713 102.496 19.713H103.787C104.429 19.713 105.183 19.7503 105.792 19.7875V18.7976C105.792 17.8422 105.614 17.2935 105.183 16.9254C104.681 16.5229 104.001 16.4126 102.712 16.4126C101.422 16.4126 99.7377 16.669 98.3053 17.1102C97.7332 17.2935 97.5191 17.0357 97.4101 16.5229L97.0884 14.7982C96.9443 14.1765 97.017 13.8814 97.6269 13.6995C98.9502 13.2583 101.135 12.8171 103.035 12.8171C105.576 12.8171 106.974 13.148 108.191 13.9917C109.48 14.9085 110.054 16.2306 110.054 18.8335V30.4236C110.054 30.9006 109.802 31.1198 109.303 31.1198H107.654C107.116 31.1198 106.902 30.9378 106.796 30.4608L106.579 29.5799L106.509 29.5799ZM105.791 23.2712C105.182 23.2354 104.428 23.1981 103.715 23.1981H102.461C101.636 23.1981 100.956 23.3084 100.597 23.6379C100.205 23.9688 100.061 24.5919 100.061 25.4357V25.8754C100.061 26.6819 100.239 27.1975 100.597 27.527C100.884 27.7835 101.386 27.9654 102.172 27.9654H103.462C105.109 27.9654 105.791 27.1975 105.791 25.5087V23.2712Z" fill="#2D3237"/>
<path fill-rule="evenodd" clip-rule="evenodd" d="M118.793 14.1774H118.863C119.864 13.2965 121.227 12.8181 123.16 12.8181C125.381 12.8181 126.993 13.3695 128.102 14.6903C129.284 16.0468 129.751 18.3216 129.751 21.4387V22.9786C129.751 26.1701 129.141 28.2974 127.851 29.6181C126.528 30.9747 124.7 31.4517 121.943 31.4517C119.65 31.4517 118.039 31.2311 116.749 30.3874C115.353 29.4347 114.529 28.114 114.529 25.0686V7.20845C114.529 6.47364 114.745 6.29028 115.532 6.29028H117.787C118.575 6.29028 118.793 6.47364 118.793 7.20845L118.793 14.1774ZM125.416 21.5837C125.416 19.4564 125.346 18.2474 124.736 17.3664C124.234 16.6316 123.338 16.3752 122.085 16.3752C120.903 16.3752 120.08 16.5972 119.578 17.0356C119.113 17.4395 118.792 18.0254 118.792 19.4937V24.4443C118.792 25.9126 118.934 26.4999 119.292 27.0127C119.794 27.6359 120.546 27.9295 121.977 27.9295C123.303 27.9295 124.164 27.6 124.664 26.9396C125.202 26.242 125.416 25.288 125.416 22.7196V21.5837Z" fill="#2D3237"/>
<path fill-rule="evenodd" clip-rule="evenodd" d="M146.19 14.9816C147.515 16.5229 148.016 18.8335 148.016 21.5838V22.6854C148.016 25.5088 147.515 27.7463 146.19 29.2876C145.007 30.6428 143.145 31.4507 140.495 31.4507C137.844 31.4507 135.982 30.6428 134.8 29.2876C133.474 27.7463 132.975 25.5088 132.975 22.6854V21.5838C132.975 18.8335 133.474 16.5229 134.8 14.9816C135.982 13.5878 137.808 12.8171 140.495 12.8171C143.18 12.8171 145.007 13.5878 146.19 14.9816ZM142.893 26.9754C143.502 26.1675 143.681 24.7365 143.681 22.499V21.7297C143.681 19.4922 143.502 18.0984 142.893 17.2919C142.391 16.6301 141.783 16.3006 140.493 16.3006C139.203 16.3006 138.595 16.6301 138.094 17.2919C137.484 18.0984 137.307 19.4922 137.307 21.7297V22.499C137.307 24.7365 137.484 26.1675 138.094 26.9754C138.595 27.5985 139.203 27.9638 140.493 27.9638C141.783 27.9638 142.391 27.5985 142.893 26.9754Z" fill="#2D3237"/>
<path d="M165.637 30.3132C165.851 30.7171 165.815 31.1196 165.026 31.1196H162.162C161.411 31.1196 161.302 31.0094 161.017 30.4234L158.437 24.5188C158.188 23.9687 158.079 23.7481 157.9 23.7481H157.472C157.291 23.7481 157.149 24.0418 156.932 24.5188L154.284 30.4234C154.033 31.0094 153.89 31.1196 153.137 31.1196H150.273C149.486 31.1196 149.447 30.7171 149.664 30.3132L153.852 22.244C153.998 21.9876 153.998 21.8042 153.852 21.5478L149.913 13.9557C149.699 13.5531 149.734 13.1478 150.523 13.1478H153.316C154.069 13.1478 154.177 13.2581 154.463 13.844L156.932 19.3089C157.149 19.7501 157.256 20.0065 157.472 20.0065H157.9C158.116 20.0065 158.258 19.7501 158.475 19.3089L160.982 13.844C161.267 13.2581 161.375 13.1478 162.126 13.1478H164.921C165.708 13.1478 165.745 13.5531 165.529 13.9557L161.446 21.5478C161.302 21.8043 161.302 21.9876 161.446 22.244L165.637 30.3132Z" fill="#2D3237"/>
<path d="M35.4274 26.6647V12.3353C35.4274 10.488 34.4343 8.78095 32.8225 7.8575L20.3187 0.692615C18.7069 -0.230871 16.7206 -0.230871 15.1087 0.692615L2.60494 7.8575C0.992741 8.78095 0 10.488 0 12.3353V26.6647C0 28.512 0.992741 30.219 2.60494 31.1425L15.1087 38.3074C16.7206 39.2309 18.7069 39.2309 20.3187 38.3074L32.8225 31.1425C34.4343 30.219 35.4274 28.512 35.4274 26.6647Z" fill="#008ACE"/>
<path d="M17.6614 8.27051H19.1088C19.3967 8.27051 19.6298 8.50184 19.6298 8.78721V26.4071C19.6298 27.4653 18.7657 28.3228 17.6998 28.3228C16.6336 28.3228 15.7695 27.4653 15.7695 26.4071V10.1478C15.7695 9.11106 16.6165 8.27051 17.6614 8.27051Z" fill="white"/>
<path d="M24.3857 13.7426H25.8334C26.1213 13.7426 26.3544 13.9742 26.3544 14.2596V26.4076C26.3544 27.4658 25.4903 28.3233 24.4241 28.3233C23.3582 28.3233 22.4941 27.4658 22.4941 26.4076V15.6202C22.4941 14.5831 23.3411 13.7426 24.3857 13.7426V13.7426Z" fill="white"/>
<path d="M10.9697 20.6499H12.4174C12.7053 20.6499 12.9384 20.8812 12.9384 21.1669V26.439C12.9384 27.4972 12.0743 28.3548 11.0081 28.3548C9.94224 28.3548 9.07812 27.4972 9.07812 26.439V22.5275C9.07812 21.4904 9.92506 20.6499 10.9697 20.6499H10.9697Z" fill="white"/>
</svg>
