<svg width="68" height="28" viewBox="0 0 68 28" fill="none" xmlns="http://www.w3.org/2000/svg">
<g clip-path="url(#clip0_201_827)">
<path d="M8.70348 6.7865C3.96882 6.7865 0.0234375 8.76862 0.0234375 14.7486C0.0234375 19.486 2.67642 22.4694 8.82573 22.4694C16.0638 22.4694 16.5277 17.7645 16.5277 17.7645H13.0206C13.0206 17.7645 12.2686 20.2979 8.61179 20.2979C5.6334 20.2979 3.49124 18.3125 3.49124 15.5297H16.8945V13.7835C16.8945 11.0304 15.1234 6.7865 8.70348 6.7865ZM8.58122 9.01829C11.4163 9.01829 13.3491 10.7322 13.3491 13.3009H3.56881C3.56881 10.5739 6.0916 9.01829 8.58122 9.01829Z" fill="#8E929B" fill-opacity="0.9"/>
<path d="M16.8903 0.995728V19.4661C16.8903 20.5145 16.8145 21.9867 16.8145 21.9867H20.1595C20.1595 21.9867 20.2796 20.9294 20.2796 19.9631C20.2796 19.9631 21.9323 22.5145 26.4261 22.5145C31.1583 22.5145 34.3726 19.2725 34.3726 14.6278C34.3726 10.3068 31.4201 6.83157 26.4337 6.83157C21.7644 6.83157 20.3134 9.31972 20.3134 9.31972V0.995728H16.8903ZM25.5703 9.11614C28.7838 9.11614 30.8273 11.4696 30.8273 14.6278C30.8273 18.0144 28.4672 20.2299 25.5932 20.2299C22.1635 20.2299 20.3134 17.5873 20.3134 14.6579C20.3134 11.9283 21.9735 9.11614 25.5703 9.11614Z" fill="#8E929B" fill-opacity="0.9"/>
<path d="M42.6859 6.7865C35.563 6.7865 35.1061 10.6351 35.1061 11.2501H38.6515C38.6515 11.2501 38.8374 9.00321 42.4414 9.00321C44.7833 9.00321 46.598 10.061 46.598 12.0946V12.8184H42.4414C36.9232 12.8184 34.0059 14.4113 34.0059 17.6439C34.0059 20.8252 36.7013 22.5561 40.344 22.5561C45.3083 22.5561 46.9075 19.8493 46.9075 19.8493C46.9075 20.9259 46.9916 21.9868 46.9916 21.9868H50.1434C50.1434 21.9868 50.0211 20.6718 50.0211 19.8304V12.5583C50.0211 7.78998 46.1235 6.7865 42.6859 6.7865ZM46.598 14.9899V15.955C46.598 17.2137 45.8109 20.3431 41.1768 20.3431C38.6392 20.3431 37.5512 19.0934 37.5512 17.6439C37.5512 15.0068 41.2152 14.9899 46.598 14.9899Z" fill="#8E929B" fill-opacity="0.9"/>
<path d="M48.1113 7.38989H52.0999L57.824 18.7061L63.535 7.38989H67.148L56.7455 27.5364H52.9556L55.9574 21.9203L48.1113 7.38989Z" fill="#8E929B" fill-opacity="0.9"/>
</g>
<defs>
<clipPath id="clip0_201_827">
<rect width="67.1718" height="26.5851" fill="white" transform="translate(0 0.973267)"/>
</clipPath>
</defs>
</svg>
