<svg width="48" height="28" viewBox="0 0 48 28" fill="none" xmlns="http://www.w3.org/2000/svg">
<path d="M29.0039 0.973267H40.601V3.83378H29.0039V0.973267Z" fill="#8E929B" fill-opacity="0.9"/>
<path d="M43.1203 11.7472C41.1471 12.0934 40.0947 13.5645 40.0947 16.1175C40.0947 18.7137 41.4979 20.4445 43.5588 20.4445C44.5674 20.4445 45.4443 20.0983 47.286 19.1896V21.3099C45.0497 22.3483 43.7342 22.608 41.9802 22.608C40.007 22.608 38.6037 22.1321 37.5075 20.9638C36.3674 19.8387 35.7535 18.3675 35.7535 16.6799C35.7535 13.002 38.5598 10.4491 42.6379 10.4491C45.3128 10.4491 47.1983 11.704 47.1983 13.478C47.1983 14.6463 46.3212 15.4685 45.0496 15.4685C44.3919 15.4685 43.8656 15.2521 43.1202 14.8627M33.2541 16.68C35.0519 14.4732 35.7097 13.5645 35.7097 12.4828C35.7097 11.401 34.8327 10.449 33.6049 10.449C32.9033 10.449 32.2456 10.8385 31.9386 11.1846V15.728L29.0006 19.6223V10.7953H26.1942L21.5461 18.3676V10.7953H19.9674L15.714 11.7473V12.829L18.038 13.0453V22.435H20.976L25.4487 15.1656V22.435H28.7374M6.81252 20.9638H7.47025C9.83807 20.9638 11.1536 19.5358 11.1536 16.6799C11.1536 14.3001 10.1013 13.002 8.12791 13.002C7.86483 13.002 7.47018 13.0453 6.81246 13.1751V20.9637L6.81252 20.9638ZM6.81252 26.0696L8.74186 26.5023V27.584H1.15587V26.5023L2.90981 26.0696V13.002H0.980469V11.9202L5.58468 10.5356H6.81258V12.0934C8.96117 10.7953 9.70663 10.5789 10.8467 10.5789C13.39 10.5789 15.3194 12.9155 15.3194 16.1608C15.3194 19.8821 12.7322 22.435 8.7857 22.435C8.34722 22.435 7.60176 22.3917 6.81252 22.3485" fill="#8E929B" fill-opacity="0.9"/>
</svg>
