<svg width="136" height="23" viewBox="0 0 136 23" fill="none" xmlns="http://www.w3.org/2000/svg">
<g clip-path="url(#clip0_201_833)">
<path d="M79.192 0.953247H80.744C82.656 1.27567 84.4097 2.3991 85.3746 4.07418C83.2176 3.92557 80.9202 4.47973 79.3733 6.04397C77.5813 7.67371 76.9023 10.2178 77.3056 12.5503C74.758 11.369 73.155 8.38153 73.8901 5.65354C74.4364 3.18501 76.6598 1.253 79.192 0.953247Z" fill="#8E929B" fill-opacity="0.9"/>
<path d="M1.33442 4.83026C1.71476 3.04687 3.47355 1.78238 5.27829 1.72696C8.51762 1.68414 11.757 1.74711 14.9937 1.69421C15.0244 2.60606 15.0218 3.51791 14.9963 4.42724C11.9356 4.39701 8.87244 4.42724 5.8118 4.4096C5.31658 4.42724 4.72946 4.39449 4.35933 4.78744C3.55779 5.42221 3.89219 6.8857 4.88773 7.12751C7.66503 7.99402 10.4398 8.8706 13.2171 9.73207C14.9988 10.2283 16.3747 11.9613 16.3084 13.8077C16.4462 16.0571 14.4373 18.1503 12.1654 18.1906C8.53549 18.2762 4.90049 18.1654 1.26805 18.246C0.956621 17.3719 1.05618 16.4551 1.25018 15.5709C4.8137 15.5608 8.37723 15.6037 11.9382 15.5558C13.0843 15.6011 14.0978 14.2661 13.5336 13.2233C13.2758 12.4147 12.367 12.2258 11.6549 11.9789C9.11495 11.2056 6.58525 10.4046 4.04024 9.64894C2.04916 9.057 0.765171 6.81769 1.33442 4.83026Z" fill="#8E929B" fill-opacity="0.9"/>
<path d="M112.269 1.67383C113.147 1.70406 114.026 1.72169 114.906 1.72924C114.893 2.61842 114.899 3.50508 114.914 4.39426C116.318 4.40181 117.724 4.38418 119.128 4.39929C119.116 5.2658 119.113 6.12979 119.123 6.99629C117.712 7.01896 116.297 6.98118 114.886 7.02904C114.942 9.28095 114.881 11.5329 114.909 13.7848C114.927 14.6689 115.644 15.5228 116.568 15.548C117.857 15.5732 119.149 15.5329 120.438 15.5682C120.43 16.4447 120.43 17.3188 120.44 18.1954C118.363 18.0216 116.004 18.6967 114.179 17.4221C112.959 16.6387 112.244 15.2231 112.254 13.7974C112.269 9.75451 112.236 5.71417 112.269 1.67383Z" fill="#8E929B" fill-opacity="0.9"/>
<path d="M107.623 4.44928C108.46 4.28555 109.343 4.45684 110.196 4.35608C110.239 8.98333 110.229 13.6156 110.204 18.2429C109.325 18.2227 108.445 18.2177 107.566 18.2051C107.646 13.6206 107.531 9.0337 107.623 4.44928Z" fill="#8E929B" fill-opacity="0.9"/>
<path d="M124.769 4.7263C125.652 4.33586 126.637 4.45173 127.579 4.4341C128.6 4.44921 129.621 4.40639 130.642 4.44921C132.766 4.54241 134.604 6.40137 134.711 8.48452C134.77 9.7742 134.701 11.0664 134.742 12.3561C131.388 12.3057 128.031 12.3687 124.679 12.3183C124.651 12.9757 124.547 13.6508 124.72 14.2982C124.894 14.9858 125.547 15.5551 126.282 15.54C128.667 15.5954 131.051 15.5123 133.435 15.5753C133.435 16.4518 133.443 17.3309 133.44 18.2075C131.487 18.2403 129.532 18.205 127.579 18.2252C126.494 18.2277 125.343 18.2403 124.363 17.7163C122.895 16.9909 121.966 15.3939 121.956 13.7868C121.953 12.1092 121.958 10.4316 121.953 8.75152C121.956 7.00339 123.135 5.37366 124.769 4.7263ZM125.147 7.60793C124.572 8.16713 124.631 9.00089 124.605 9.72886C127.11 9.78679 129.614 9.75657 132.115 9.74649C132.092 8.95807 132.128 7.99585 131.416 7.46687C130.551 6.74898 129.364 7.08148 128.337 7.01347C127.275 7.08148 125.956 6.72883 125.147 7.60793Z" fill="#8E929B" fill-opacity="0.9"/>
<path d="M19.2292 4.38965C21.8176 4.41484 24.406 4.3695 26.9945 4.4098C29.2485 4.47529 31.1936 6.54836 31.1017 8.77004C31.0762 11.9262 31.1451 15.085 31.0634 18.2412C28.1202 18.1782 25.1744 18.2663 22.2312 18.1983C20.988 18.1857 19.7985 17.6089 18.9893 16.687C17.8763 15.5006 17.6262 13.6844 18.1877 12.1932C18.8208 10.6088 20.4392 9.44259 22.175 9.39977C24.2937 9.34687 26.4124 9.43755 28.5286 9.35191C28.572 8.28893 27.967 7.07229 26.7571 7.03199C24.2503 6.9665 21.7385 7.02947 19.2267 7.00428C19.219 6.13274 19.2165 5.26119 19.2292 4.38965ZM20.6128 14.0724C20.6638 14.9489 21.5266 15.6013 22.3894 15.5661C24.4188 15.5711 26.4533 15.5988 28.4827 15.5434C28.4673 14.3822 28.4648 13.221 28.4648 12.0597C26.4405 11.9968 24.4137 12.0194 22.3894 12.0346C21.3428 11.9892 20.3575 13.0295 20.6128 14.0724Z" fill="#8E929B" fill-opacity="0.9"/>
<path d="M33.5585 6.91323C34.2732 5.44974 35.8176 4.38172 37.4896 4.39935C41.4794 4.39431 45.4718 4.38424 49.4616 4.40439C51.6697 4.42202 53.6148 6.36662 53.6735 8.53289C53.7041 11.7647 53.671 14.9989 53.6837 18.2307C52.7801 18.2232 51.879 18.2206 50.9779 18.2131C51.0264 15.0544 51.006 11.8931 50.9983 8.73188C51.0238 7.815 50.1559 7.03666 49.2523 7.0165C47.7105 6.97872 46.1661 7.01902 44.6217 7.00391C44.632 10.7395 44.5988 14.475 44.6396 18.2106C43.7411 18.2282 42.8451 18.2257 41.9491 18.2232C41.9746 14.4926 41.9185 10.7596 41.9772 7.02658C40.5528 6.9888 39.1284 6.99887 37.7015 7.00895C36.7085 6.95605 35.8023 7.82759 35.8074 8.80745C35.7819 11.941 35.8253 15.077 35.787 18.2131C34.891 18.2257 33.9975 18.2257 33.1016 18.2106C33.1475 15.5632 33.1143 12.9158 33.122 10.2659C33.1271 9.14247 33.0173 7.94598 33.5585 6.91323Z" fill="#8E929B" fill-opacity="0.9"/>
<path d="M55.7818 7.52263C55.8916 5.83244 57.4691 4.38407 59.1871 4.4017C61.8214 4.37399 64.4558 4.41933 67.0901 4.37903C67.0901 5.25309 67.0901 6.12716 67.0901 7.00122C64.5298 7.01885 61.9669 6.98862 59.4091 7.01633C58.4825 6.91558 58.0179 8.36647 58.9675 8.70149C61.1347 9.45716 63.3505 10.0693 65.5406 10.762C66.4902 11.0315 67.4066 11.5605 67.9223 12.4219C68.8948 13.8678 68.6268 15.9308 67.3888 17.1424C66.623 17.8401 65.584 18.2356 64.54 18.2205C61.5917 18.223 58.6433 18.2154 55.6925 18.223C55.695 17.3464 55.7001 16.4723 55.6797 15.5958C58.7148 15.5152 61.755 15.6285 64.7902 15.5555C65.4232 15.5479 65.9516 14.9182 65.801 14.296C65.8214 13.6285 65.0914 13.3716 64.5604 13.2103C62.4315 12.5655 60.3051 11.9055 58.1788 11.2506C56.614 10.7846 55.5291 9.12718 55.7818 7.52263Z" fill="#8E929B" fill-opacity="0.9"/>
<path d="M94.5072 4.82184C95.8167 4.16944 97.3304 4.44904 98.7395 4.39362C100.217 4.45408 101.821 4.15685 103.179 4.88985C104.606 5.62537 105.555 7.15687 105.565 8.74631C105.553 11.9101 105.583 15.0738 105.553 18.2376C104.664 18.2149 103.773 18.2149 102.885 18.2325C102.806 15.0738 102.939 11.9126 102.87 8.75386C102.918 7.68333 101.795 6.91002 100.784 7.00322C99.3317 7.01833 97.8767 6.97299 96.4268 7.02337C95.5155 7.05612 94.6425 7.82438 94.6629 8.75386C94.6271 11.9176 94.6884 15.0839 94.6348 18.2477C93.7516 18.225 92.8709 18.2225 91.9902 18.1998C92.0464 14.9705 91.98 11.7388 92.0234 8.50953C92.0515 6.94276 93.0828 5.48179 94.5072 4.82184Z" fill="#8E929B" fill-opacity="0.9"/>
<path d="M82.7065 5.29803C84.4448 4.87233 86.4002 5.11667 87.8833 6.14691C90.145 7.62047 91.1864 10.6961 90.2113 13.2074C89.7238 14.6432 88.6414 15.7969 87.3192 16.5324C87.6433 14.1445 86.7091 11.623 84.8048 10.0966C83.1379 8.70108 80.8686 8.26783 78.7422 8.58018C79.5641 7.02853 80.9732 5.75899 82.7065 5.29803Z" fill="#8E929B" fill-opacity="0.9"/>
<path d="M69.5356 11.2705C69.505 9.09667 70.8758 7.16718 72.6728 6.01855C72.5478 8.29313 73.2293 10.7188 75.0417 12.2352C76.6933 13.8045 79.103 14.3335 81.3264 13.9607C80.2543 16.2932 77.5944 17.7491 75.0238 17.4242C71.9479 17.1824 69.362 14.3234 69.5356 11.2705Z" fill="#8E929B" fill-opacity="0.9"/>
<path d="M82.7563 10.0188C84.9006 10.9785 86.399 13.2254 86.3224 15.5629C86.3684 16.9912 85.8093 18.4017 84.87 19.4773C83.3869 21.2758 80.778 22.0139 78.5317 21.4018C76.8954 21.0265 75.5323 19.8703 74.7129 18.4471C76.413 18.6234 78.2075 18.3186 79.6395 17.3614C82.0697 15.8476 83.369 12.7946 82.7563 10.0188Z" fill="#8E929B" fill-opacity="0.9"/>
</g>
<defs>
<clipPath id="clip0_201_833">
<rect width="134.27" height="21.1992" fill="white" transform="translate(0.964844 0.933105)"/>
</clipPath>
</defs>
</svg>
