<svg width="95" height="28" viewBox="0 0 95 28" fill="none" xmlns="http://www.w3.org/2000/svg">
<path d="M26.2936 0.973267H2.87599C1.81757 0.973267 0.935547 1.84362 0.935547 2.88805V25.8655C0.935547 26.9099 1.81757 27.7803 2.87599 27.7803H26.2936C27.3521 27.7803 28.2341 26.9099 28.2341 25.8655V2.88805C28.2341 1.80011 27.3521 0.973267 26.2936 0.973267ZM18.0467 21.122C15.6653 23.472 11.8726 23.559 9.35884 21.4267L9.31474 21.3832C9.18244 21.2526 9.13834 20.9915 9.31474 20.8174L17.7821 12.5055C17.9585 12.375 18.179 12.375 18.3554 12.5055C20.5605 15.0295 20.4723 18.7721 18.0467 21.122ZM19.8108 7.84909L11.3434 16.161C11.167 16.2916 10.9465 16.2916 10.7701 16.161C8.56502 13.6805 8.65322 9.93795 11.0347 7.58798C13.4161 5.23802 17.2088 5.15098 19.7226 7.28336C19.7226 7.28336 19.7667 7.28336 19.7667 7.32688C19.9872 7.45743 19.9872 7.71854 19.8108 7.84909Z" fill="#8E929B" fill-opacity="0.9"/>
<path fill-rule="evenodd" clip-rule="evenodd" d="M40.1385 13.0722C38.9478 12.5935 38.1981 12.2889 38.1981 11.5926C38.1981 11.0269 38.6391 10.5047 39.6534 10.5047C40.2708 10.5047 40.8 10.7658 41.1969 11.288C41.4615 11.5926 41.7261 11.7667 42.0348 11.7667C42.6523 11.7667 43.1374 11.288 43.1374 10.7223C43.1374 10.5047 43.0933 10.2871 42.961 10.1565C42.2995 9.15564 40.9323 8.45935 39.6534 8.45935C37.8894 8.45935 36.0812 9.5473 36.0812 11.6362C36.0812 13.7685 37.8453 14.4648 39.3006 14.987C40.4472 15.4222 41.4615 15.8139 41.4615 16.7277C41.4615 17.424 40.8 18.1203 39.5652 18.1203C39.1683 18.1203 38.4627 18.0333 37.9776 17.4676C37.7129 17.1629 37.4042 17.0324 37.1396 17.0324C36.5663 17.0324 36.0371 17.5111 36.0371 18.0768C36.0371 18.2944 36.1253 18.512 36.2576 18.686C36.9191 19.687 38.4186 20.1657 39.5652 20.1657C41.5056 20.1657 43.6225 18.9472 43.6225 16.7277C43.5784 14.3778 41.682 13.638 40.1385 13.0722ZM83.8867 8.41583H83.8426C81.7257 8.41583 80.0499 10.0695 80.0499 12.1149V24.9961C80.0499 25.5619 80.535 26.0406 81.1083 26.0406C81.6816 26.0406 82.1668 25.5619 82.1668 24.9961V19.6434C82.5637 19.9916 83.2252 20.1657 83.8426 20.1657H83.8867C86.0035 20.1657 87.5912 18.3814 87.5912 16.3361V12.0278C87.5912 9.98248 86.0035 8.41583 83.8867 8.41583ZM85.5625 16.4231C85.5625 17.5546 84.8128 18.0333 83.9308 18.0333H83.8867C82.9606 18.0333 82.255 17.5546 82.255 16.4231V12.1149C82.255 11.2445 83.0047 10.5047 83.8867 10.5047H83.9308C84.8569 10.5047 85.5625 11.201 85.5625 12.1149V16.4231ZM64.35 8.41583H64.3059C63.2474 8.41583 62.3213 8.85101 61.6598 9.50378C60.9983 8.85101 60.0281 8.41583 59.0137 8.41583H58.9696C56.941 8.41583 55.2651 10.026 55.2651 12.0713V19.1647C55.3092 19.7305 55.7503 20.1657 56.3236 20.1657C56.8969 20.1657 57.3379 19.7305 57.382 19.1647V12.0713C57.382 11.201 58.0876 10.5047 58.9696 10.5047H59.0137C59.8958 10.5047 60.5573 11.1575 60.6014 12.0278V19.1647C60.6547 19.6791 61.0217 20.1657 61.6157 20.1657C62.189 20.1657 62.63 19.7305 62.6741 19.1647V11.9843C62.7182 11.1575 63.4238 10.4612 64.2618 10.4612H64.3059C65.1879 10.4612 65.8935 11.1575 65.8935 12.0278V19.1647C65.9376 19.7305 66.3786 20.1657 66.9519 20.1657C67.5252 20.1657 67.9662 19.7305 68.0103 19.1647V12.0713C68.0544 10.0695 66.3786 8.41583 64.35 8.41583ZM51.8253 8.41583C51.252 8.41583 50.8109 8.85101 50.7668 9.41674V16.5102C50.7668 17.3805 50.0612 18.0768 49.1351 18.0768H49.091C48.209 18.0768 47.4593 17.3805 47.4593 16.5102V9.37323C47.4152 8.80749 46.9742 8.37231 46.4008 8.37231C45.8275 8.37231 45.3865 8.80749 45.3424 9.37323V16.4666C45.3424 18.4685 47.0183 20.1221 49.091 20.1221H49.1351C51.2079 20.1221 52.8837 18.4685 52.8837 16.4666V9.41674C52.8837 8.85101 52.3986 8.41583 51.8253 8.41583ZM76.8746 8.41583C76.3013 8.41583 75.8603 8.85101 75.8162 9.41674V16.5102C75.8162 17.3805 75.1106 18.0768 74.1845 18.0768H74.1404C73.2584 18.0768 72.5086 17.3805 72.5086 16.5102V9.37323C72.4645 8.80749 72.0235 8.37231 71.4502 8.37231C70.8769 8.37231 70.4359 8.80749 70.3918 9.37323V16.4666C70.3918 18.4685 72.0676 20.1221 74.1404 20.1221H74.1845C76.2572 20.1221 77.9331 18.4685 77.9331 16.4666V9.41674C77.889 8.85101 77.4479 8.41583 76.8746 8.41583Z" fill="#8E929B" fill-opacity="0.9"/>
<path d="M92.7557 10.5909C93.0203 10.5474 93.1968 10.3298 93.1968 10.0687C93.1968 9.72057 92.9321 9.50299 92.5351 9.50299H92.0058C91.8735 9.50299 91.7853 9.59002 91.7853 9.72058V11.1567C91.7853 11.2872 91.8735 11.3743 92.0058 11.3743C92.1382 11.3743 92.2264 11.2872 92.2264 11.1567V10.6345L92.7557 11.2872C92.7998 11.3743 92.8439 11.3743 92.9762 11.3743C93.1526 11.3743 93.1968 11.2437 93.1968 11.1567C93.1968 11.0696 93.1527 11.0261 93.1085 10.9826L92.7557 10.5909ZM92.5793 10.2863H92.3146V9.85113H92.5793C92.7116 9.85113 92.7998 9.93816 92.7998 10.0687C92.7998 10.1558 92.7116 10.2863 92.5793 10.2863ZM92.5351 8.41504C91.3883 8.41504 90.418 9.32891 90.418 10.5039C90.418 11.6354 91.3442 12.5928 92.5351 12.5928C93.6819 12.5928 94.6523 11.6789 94.6523 10.5039C94.6523 9.37243 93.726 8.41504 92.5351 8.41504ZM92.5351 12.0705C91.653 12.0705 90.9473 11.3743 90.9473 10.5039C90.9473 9.63354 91.653 8.93725 92.5351 8.93725C93.4173 8.93725 94.123 9.63354 94.123 10.5039C94.123 11.3743 93.4173 12.0705 92.5351 12.0705Z" fill="#8E929B" fill-opacity="0.9"/>
</svg>
