<svg width="128" height="23" viewBox="0 0 128 23" fill="none" xmlns="http://www.w3.org/2000/svg">
<g clip-path="url(#clip0_201_918)">
<mask id="mask0_201_918" style="mask-type:luminance" maskUnits="userSpaceOnUse" x="0" y="0" width="128" height="23">
<path d="M127.311 0.946289H0.826172V22.3085H127.311V0.946289Z" fill="white"/>
</mask>
<g mask="url(#mask0_201_918)">
<path d="M50.0316 14.3166C50.183 13.8684 50.3344 13.4202 50.3344 13.0468C50.3344 11.4035 49.3504 10.4325 47.3066 10.059L44.6574 9.53619C43.4463 9.31212 42.9164 8.86396 42.9164 8.04233C42.9164 7.51948 43.1435 7.07132 43.6733 6.77255C44.506 6.2497 45.7171 6.175 47.0039 6.62316C47.5337 6.77255 48.0636 7.14601 48.5934 7.51948L49.7289 6.10031C48.9719 5.57746 48.2907 5.27868 47.6094 4.97991C46.8525 4.75583 46.0955 4.60645 45.2629 4.60645C43.9004 4.60645 42.765 4.97991 41.9324 5.72684C41.0997 6.47377 40.7213 7.2954 40.7213 8.3411C40.7213 9.16273 41.024 9.83497 41.5539 10.3578C42.1595 10.8807 43.2949 11.2541 44.8844 11.5529L46.3983 11.8517C46.9282 11.9264 47.3823 12.1505 47.6851 12.3745C48.0636 12.6733 48.215 13.0468 48.215 13.4949C48.215 13.9431 47.9879 14.3166 47.458 14.69C46.9282 15.0635 46.3226 15.2129 45.5657 15.2129C44.8844 15.2129 44.1275 15.0635 43.4462 14.69C42.8407 14.3913 42.2351 14.0178 41.781 13.5696L40.1914 14.8394C41.781 16.1092 43.5219 16.7067 45.3386 16.7067C46.1712 16.7067 46.9282 16.5574 47.5337 16.3333C48.1393 16.1092 48.6691 15.8104 49.0476 15.437C49.5018 15.1382 49.8046 14.7647 50.0316 14.3166Z" fill="#8E929B" fill-opacity="0.9"/>
<path d="M61.7646 19.4705C62.0674 18.8729 62.2944 18.126 62.2944 17.3044V4.97998H60.175V11.553C60.175 12.5987 59.8722 13.3456 59.3424 13.9432C58.8125 14.5407 57.9799 14.8395 56.9202 14.8395C56.0118 14.8395 55.2549 14.6154 54.725 14.0925C54.1952 13.5697 53.8167 12.7481 53.8167 11.7771V4.97998H51.6973V11.7024C51.6973 13.2709 52.1514 14.5407 53.0598 15.437C53.9681 16.3333 55.0278 16.8562 56.3903 16.8562C59.1153 16.8562 60.3264 15.2129 60.3264 15.2129V17.0056C60.3264 18.0513 59.9479 18.9476 59.3424 19.4705C58.6611 20.068 57.8285 20.3668 56.9202 20.3668C56.3146 20.3668 55.8604 20.2921 55.3306 19.9933C54.9521 19.7692 54.498 19.4705 54.0438 19.097L52.2271 20.2174C52.8327 20.8896 53.5139 21.4125 54.1195 21.7113C54.8007 22.0847 55.7847 22.3088 56.9958 22.3088C57.6014 22.3088 58.207 22.1594 58.7368 22.01C59.3424 21.7859 59.9479 21.4872 60.4778 21.039C61.0833 20.6655 61.4618 20.1427 61.7646 19.4705Z" fill="#8E929B" fill-opacity="0.9"/>
<path d="M69.7107 6.77255C70.6947 6.77255 71.4517 7.07132 71.9815 7.59417C72.5114 8.11702 72.8141 8.93865 72.8141 10.059V16.4827H75.0093V9.5362C75.0093 8.86396 74.8579 8.19172 74.6308 7.59417C74.4037 6.99663 74.0253 6.47377 73.6468 6.02562C73.2683 5.57746 72.7385 5.27868 72.2086 4.97991C71.6787 4.75583 71.0732 4.60645 70.4676 4.60645C69.7107 4.60645 68.9538 4.75583 68.3482 5.0546C67.2885 5.57746 66.4558 6.39908 66.4558 6.39908V4.90522H64.4121V16.408H66.5315V9.98435C66.5315 8.93865 66.8343 8.19172 67.4399 7.59417C68.0454 7.07132 68.8024 6.77255 69.7107 6.77255Z" fill="#8E929B" fill-opacity="0.9"/>
<path d="M87.9567 14.2419L86.0643 13.1215C85.6858 13.6443 85.2317 14.0178 84.7775 14.3166C84.172 14.69 83.5664 14.8394 82.8095 14.8394C81.5984 14.8394 80.6143 14.4659 79.8574 13.6443C79.0248 12.8227 78.6463 11.8517 78.6463 10.7313C78.6463 9.61089 79.0248 8.56518 79.8574 7.81825C80.69 6.99663 81.6741 6.62316 82.8095 6.62316C83.5664 6.62316 84.2477 6.77255 84.7775 7.14601C85.3074 7.44479 85.6858 7.81825 86.0643 8.3411L87.9567 7.22071C87.3511 6.39908 86.6699 5.80154 85.9129 5.35338C85.0803 4.83052 84.0206 4.60645 82.8852 4.60645C81.9011 4.60645 80.9928 4.75583 80.2359 5.1293C79.4032 5.50276 78.722 5.95092 78.1921 6.47377C77.5866 7.07132 77.2081 7.74356 76.9053 8.4158C76.6026 9.16273 76.4512 9.90966 76.4512 10.6566C76.4512 11.4035 76.6026 12.1505 76.9053 12.8974C77.2081 13.6443 77.6623 14.3166 78.1921 14.8394C78.7977 15.437 79.4789 15.8851 80.2359 16.1839C81.0685 16.5574 81.9768 16.7067 82.8852 16.7067C83.9449 16.7067 85.0046 16.408 85.9129 15.8851C86.7456 15.5863 87.4268 14.9888 87.9567 14.2419Z" fill="#8E929B" fill-opacity="0.9"/>
<path d="M90.4519 14.9138C90.9818 15.5114 91.966 16.1089 93.253 16.7812L94.1615 15.1379L92.9502 14.4657C92.4959 14.2416 92.1931 13.8681 92.0417 13.4947C91.8903 13.1212 91.7389 12.5983 91.7389 11.9261V6.92166H93.8587V4.97964H91.7389V1.17029L89.6191 1.76783V12.3743C89.6191 13.42 89.922 14.3163 90.4519 14.9138Z" fill="#8E929B" fill-opacity="0.9"/>
<path d="M95.2237 8.48991C94.9209 9.23684 94.7695 9.98377 94.7695 10.7307C94.7695 11.4776 94.9209 12.2246 95.2237 12.9715C95.5265 13.7184 95.9806 14.3907 96.5105 14.9135C97.116 15.5111 97.7973 15.9592 98.5542 16.258C99.3869 16.6315 100.295 16.7809 101.204 16.7809C102.188 16.7809 103.247 16.4821 104.156 16.0339C104.988 15.5858 105.821 14.9882 106.502 14.1666L104.761 13.1956C103.777 14.3907 102.566 14.9882 101.204 14.9882C100.22 14.9882 99.3112 14.6894 98.5542 14.0172C97.7973 13.345 97.3431 12.5233 97.2674 11.627V11.4029H107.335V11.1789C107.335 10.1332 107.183 9.16215 106.729 8.34052C106.351 7.5189 105.821 6.84666 105.215 6.32381C104.61 5.80095 103.929 5.35279 103.247 5.12871C102.566 4.82994 101.885 4.75525 101.279 4.75525C100.295 4.75525 99.3869 4.90464 98.6299 5.2781C97.873 5.65157 97.116 6.09973 96.5862 6.62258C95.9049 7.07074 95.4508 7.74298 95.2237 8.48991ZM97.1917 9.46092C97.4188 8.5646 97.873 7.81767 98.5542 7.29482C99.2355 6.77196 99.9924 6.47319 100.901 6.47319C101.809 6.47319 102.566 6.69727 103.247 7.22012C103.929 7.74298 104.458 8.48991 104.685 9.38623L104.761 9.685H97.116L97.1917 9.46092Z" fill="#8E929B" fill-opacity="0.9"/>
<path d="M113.238 6.77197C113.389 6.77197 113.541 6.84666 113.844 6.92135C113.919 6.92135 114.071 6.99604 114.146 7.07074L114.904 4.97933C114.601 4.82994 113.995 4.75525 113.541 4.75525C113.087 4.75525 112.632 4.90464 112.254 5.12871C111.875 5.42749 111.118 6.3985 111.118 6.3985V4.97933H109.074V16.4821H111.194V8.78868C111.194 8.19114 111.421 7.74298 111.8 7.29482C112.254 6.92135 112.708 6.77197 113.238 6.77197Z" fill="#8E929B" fill-opacity="0.9"/>
<path d="M125.196 14.9884V16.4823H127.316V4.97956H125.196V6.47342C125.196 6.47342 123.531 4.68079 121.033 4.68079C120.125 4.68079 119.292 4.83017 118.535 5.20364C117.778 5.5771 117.097 6.02526 116.567 6.62281C116.037 7.22035 115.583 7.89259 115.28 8.56483C114.978 9.31176 114.826 9.984 114.826 10.7309C114.826 11.4779 114.978 12.2248 115.205 12.9717C115.432 13.7187 115.886 14.3909 116.416 14.9138C116.946 15.5113 117.627 15.9595 118.384 16.3329C119.141 16.7064 119.973 16.8558 120.882 16.8558C123.531 16.7811 125.196 14.9884 125.196 14.9884ZM122.774 14.5403C122.244 14.7644 121.714 14.8391 121.26 14.8391C120.73 14.8391 120.2 14.6897 119.671 14.5403C119.141 14.3162 118.762 14.0174 118.384 13.644C118.005 13.2705 117.703 12.8223 117.475 12.2995C117.248 11.7766 117.173 11.2538 117.173 10.7309C117.173 10.2081 117.248 9.61054 117.475 9.16238C117.703 8.63952 118.005 8.19137 118.384 7.8179C118.762 7.44443 119.216 7.14566 119.671 6.92158C120.655 6.54812 121.79 6.47342 122.774 6.92158C123.304 7.14566 123.682 7.44443 124.061 7.8179C124.439 8.19137 124.742 8.63952 124.893 9.16238C125.121 9.68523 125.196 10.2081 125.196 10.7309C125.196 11.2538 125.045 11.8513 124.893 12.2995C124.666 12.8223 124.364 13.2705 124.061 13.644C123.758 14.0174 123.304 14.3162 122.774 14.5403Z" fill="#8E929B" fill-opacity="0.9"/>
<path d="M7.56745 9.76008L16.8021 6.47358L17.4077 6.2495V0.946289L5.82648 5.05441C1.89039 6.47358 -0.153347 10.8058 1.28484 14.6898C2.42025 17.7523 5.29663 19.6196 8.47578 19.6196C9.30841 19.6196 10.2167 19.4702 11.1251 19.1714L12.3362 18.7233L17.1049 17.0053L17.4834 16.8559V11.5527L15.3639 12.2997L10.5952 14.0176L9.3841 14.4658C9.08133 14.6151 8.77855 14.6151 8.55147 14.6151C7.64314 14.6151 6.58342 14.0923 6.12926 12.9719C5.82648 12.1503 6.05357 11.4033 6.20495 11.0299C6.35634 10.7311 6.73481 10.0589 7.56745 9.76008Z" fill="#8E929B" fill-opacity="0.9"/>
<path d="M33.4544 8.49054C32.319 5.42812 29.4426 3.56079 26.2634 3.56079C25.4308 3.56079 24.5225 3.71018 23.6142 4.00895L22.4031 4.45711L17.6343 6.17505L17.2559 6.32444V11.6277L19.3753 10.8807L24.144 9.16278L25.3551 8.71462C25.6579 8.56523 25.9607 8.56523 26.1878 8.56523C27.0961 8.56523 28.1558 9.08809 28.61 10.2085C28.9127 11.0301 28.6857 11.777 28.5343 12.1505C28.3829 12.524 27.9287 13.1215 27.0961 13.4203L17.3316 16.9309V22.2341L28.9127 18.126C32.8488 16.7068 34.8926 12.3746 33.4544 8.49054Z" fill="#8E929B" fill-opacity="0.9"/>
</g>
</g>
<defs>
<clipPath id="clip0_201_918">
<rect width="127.166" height="21.661" fill="white" transform="translate(0.833984 0.946533)"/>
</clipPath>
</defs>
</svg>
