<svg width="138" height="30" viewBox="0 0 138 30" fill="none" xmlns="http://www.w3.org/2000/svg">
<g clip-path="url(#clip0_201_852)">
<path d="M29.959 7.24766C30.7733 7.24766 31.5853 7.24766 32.3973 7.24766C33.0056 11.3887 33.6184 15.5275 34.2358 19.6639C34.8859 15.5275 35.4835 11.3819 36.0833 7.23865H38.3119C37.5257 12.3455 36.7319 17.4523 35.9306 22.559C34.7444 22.5387 33.5561 22.5816 32.37 22.5433C31.4895 17.4696 30.7642 12.3507 29.959 7.24766Z" fill="#8E929B" fill-opacity="0.9"/>
<path d="M38.168 22.5632C38.9823 17.4579 39.8194 12.3549 40.6292 7.2428C41.8084 7.2428 42.9876 7.2428 44.1669 7.2428C45.0086 12.3481 45.8115 17.4601 46.6486 22.5632C45.8297 22.5632 45.0131 22.5632 44.1988 22.5474C44.059 21.6462 43.9228 20.7526 43.7905 19.8664C42.7915 19.8664 41.7924 19.8664 40.7933 19.8664C40.6724 20.7676 40.5287 21.6688 40.3919 22.5699C39.6506 22.5699 38.9093 22.5678 38.168 22.5632ZM42.333 9.90585C41.8586 12.5193 41.521 15.1576 41.1241 17.7914C41.8996 17.7914 42.6751 17.7914 43.4484 17.7914C43.0948 15.1531 42.6045 12.5419 42.333 9.90585Z" fill="#8E929B" fill-opacity="0.9"/>
<path d="M47.7363 7.24792H50.1317C50.1317 11.6255 50.1317 16.0008 50.1317 20.3784C51.464 20.3784 52.7963 20.3784 54.1262 20.3784C54.1262 21.1107 54.1262 21.8407 54.1262 22.5728H47.7386L47.7363 7.24792Z" fill="#8E929B" fill-opacity="0.9"/>
<path d="M55.1484 7.24792H57.5434C57.5434 11.1531 57.5434 15.0583 57.5434 18.9636C57.5639 19.4389 57.5435 20.0089 57.9586 20.3447C58.6999 20.9732 60.1095 20.4933 60.0296 19.4434C60.0889 15.388 60.0297 11.3146 60.0548 7.25018H62.3357C62.3357 10.9248 62.3357 14.6017 62.3357 18.2764C62.3928 19.7047 62.2035 21.4441 60.8531 22.2709C59.5073 23.0145 57.6735 23.0167 56.4006 22.1177C55.4267 21.3877 55.1461 20.1013 55.1507 18.9636C55.1568 15.0538 55.156 11.1487 55.1484 7.24792Z" fill="#8E929B" fill-opacity="0.9"/>
<path d="M63.9277 7.24792C66.1132 7.24792 68.2987 7.24792 70.4842 7.24792C70.4842 7.97564 70.4842 8.70562 70.4842 9.43559C69.0971 9.43559 67.7101 9.43559 66.3231 9.43559C66.3231 10.8798 66.3231 12.3262 66.3231 13.7704C67.4296 13.7861 68.536 13.7704 69.6446 13.7704C69.6446 14.5004 69.6446 15.2318 69.6446 15.9647H66.3231C66.3231 17.4307 66.3231 18.8982 66.3231 20.3672C67.7101 20.3672 69.0994 20.3672 70.4864 20.3672C70.4864 21.0971 70.4864 21.8248 70.4864 22.5548C68.301 22.5548 66.1155 22.5548 63.93 22.5548L63.9277 7.24792Z" fill="#8E929B" fill-opacity="0.9"/>
<path d="M71.457 7.24792C73.9273 7.24792 76.3953 7.24792 78.8655 7.24792C78.8655 7.97489 78.8655 8.70412 78.8655 9.43559C78.0285 9.43559 77.1913 9.43559 76.3565 9.43559C76.3565 13.8132 76.3565 18.1885 76.3565 22.5661H73.9661V9.4401H71.457C71.457 8.71237 71.457 7.98015 71.457 7.24792Z" fill="#8E929B" fill-opacity="0.9"/>
<path d="M78.3164 22.5632C79.1284 17.4579 79.9655 12.3549 80.7752 7.2428C81.959 7.2428 83.1429 7.2428 84.3267 7.2428C85.1432 12.3496 85.9659 17.4564 86.7947 22.5632C85.9781 22.5632 85.1615 22.5632 84.3472 22.5497C84.2035 21.6485 84.0689 20.7609 83.9343 19.8641C82.9353 19.8641 81.9363 19.8641 80.9395 19.8641C80.8186 20.7653 80.6749 21.6665 80.5381 22.5678C79.7974 22.5692 79.0569 22.5678 78.3164 22.5632ZM81.2702 17.7846C82.0457 17.7846 82.8212 17.7846 83.5968 17.7846C83.2432 15.1576 82.7323 12.5509 82.4882 9.91035C81.9955 12.517 81.6717 15.1576 81.2702 17.7846Z" fill="#8E929B" fill-opacity="0.9"/>
<path d="M88.1055 7.24792H90.5009C90.5009 12.3547 90.5009 17.4616 90.5009 22.5684H88.1055V7.24792Z" fill="#8E929B" fill-opacity="0.9"/>
<path d="M92.2168 7.24792H95.2342C96.0127 10.2805 96.9137 13.2837 97.6231 16.3343C97.7733 13.3085 97.6526 10.276 97.6913 7.24792H99.8581V22.5684C99.0299 22.5684 98.2017 22.5684 97.3762 22.5684C96.3702 18.8982 95.4194 15.2123 94.3885 11.5512C94.3747 15.2258 94.3885 18.9027 94.3885 22.5774H92.2168V7.24792Z" fill="#8E929B" fill-opacity="0.9"/>
<path d="M101.502 7.24766C102.622 7.24766 103.742 7.23639 104.859 7.26117C105.452 10.866 106 14.4866 106.639 18.0756C107.159 14.4707 107.718 10.8502 108.259 7.23865H111.6V22.559H109.319C109.259 18.9362 109.444 15.3044 109.209 11.6861C108.86 15.3269 108.163 18.9249 107.667 22.5477C106.91 22.5613 106.155 22.5477 105.4 22.5477C104.855 18.997 104.15 15.4688 103.717 11.9024C103.488 15.4441 103.672 18.9993 103.616 22.5477H101.504C101.503 17.4545 101.502 12.3545 101.502 7.24766Z" fill="#8E929B" fill-opacity="0.9"/>
<path d="M113.424 7.24792C115.609 7.24792 117.795 7.24792 119.981 7.24792C119.981 7.97564 119.981 8.70562 119.981 9.43559C118.594 9.43559 117.206 9.43559 115.82 9.43559C115.808 10.8775 115.82 12.3217 115.804 13.7636C116.912 13.7907 118.024 13.7771 119.132 13.7794C119.132 14.5094 119.132 15.2408 119.132 15.9738H115.82C115.82 17.4397 115.82 18.9072 115.82 20.3762C117.206 20.3762 118.594 20.3762 119.983 20.3762C119.983 21.1039 119.983 21.8338 119.983 22.5638C117.798 22.5638 115.612 22.5638 113.427 22.5638L113.424 7.24792Z" fill="#8E929B" fill-opacity="0.9"/>
<path d="M121.641 7.24792H124.658C125.435 10.2895 126.339 13.2882 127.046 16.3387C127.194 13.3107 127.076 10.2782 127.115 7.24792H129.282V22.5684C128.469 22.5684 127.659 22.5977 126.852 22.5548C125.721 18.9523 124.907 15.2461 123.807 11.6413C123.772 15.2844 123.807 18.9297 123.791 22.5728H121.641V7.24792Z" fill="#8E929B" fill-opacity="0.9"/>
<path d="M130.31 7.24792C132.778 7.24792 135.245 7.24792 137.711 7.24792C137.711 7.98015 137.711 8.71237 137.711 9.4446C136.874 9.4446 136.037 9.4446 135.203 9.4446C135.203 13.8199 135.203 18.1975 135.203 22.5751H132.818V9.4401H130.31C130.307 8.71237 130.31 7.98015 130.31 7.24792Z" fill="#8E929B" fill-opacity="0.9"/>
<path fill-rule="evenodd" clip-rule="evenodd" d="M15.2143 12.1366L16.8249 11.8391L16.3048 12.7381L14.7991 12.9949L14.498 14.2611L14.2812 13.2225L15.2143 12.1366Z" fill="#8E929B" fill-opacity="0.9"/>
<path fill-rule="evenodd" clip-rule="evenodd" d="M13.1777 17.1823L14.0903 17.7748L15.085 17.9528L14.7746 18.5543L13.6682 18.2953C13.6682 18.2953 13.285 17.4413 13.1777 17.2138V17.1823Z" fill="#8E929B" fill-opacity="0.9"/>
<path fill-rule="evenodd" clip-rule="evenodd" d="M15.5957 16.0009L17.5895 13.8155L17.512 12.1348L18.1324 14.1489L15.8922 16.7309L15.5957 16.0009Z" fill="#8E929B" fill-opacity="0.9"/>
<path fill-rule="evenodd" clip-rule="evenodd" d="M15.847 17.5619L15.9952 18.6523L15.0098 19.5401L17.1109 18.533L16.2165 17.0708L15.847 17.5619Z" fill="#8E929B" fill-opacity="0.9"/>
<path fill-rule="evenodd" clip-rule="evenodd" d="M15.8281 9.61288L19.1474 7.74512L20.0874 9.5227L18.771 10.665L19.4052 9.41006L18.9649 8.48861L15.8281 9.61288Z" fill="#8E929B" fill-opacity="0.9"/>
<path fill-rule="evenodd" clip-rule="evenodd" d="M15.541 9.85095L21.5226 15.1635L19.5287 17.8423L20.8701 15.3528L15.541 9.85095Z" fill="#8E929B" fill-opacity="0.9"/>
<path fill-rule="evenodd" clip-rule="evenodd" d="M18.0996 12.9585L20.4768 15.4322L18.8593 18.7081L19.9497 15.8513L18.5239 14.2584L18.0996 12.9585Z" fill="#8E929B" fill-opacity="0.9"/>
<path fill-rule="evenodd" clip-rule="evenodd" d="M18.3285 14.4963L19.6494 15.9314L18.219 19.4777L18.8897 16.7222L17.6738 15.366L18.3285 14.4963Z" fill="#8E929B" fill-opacity="0.9"/>
<path fill-rule="evenodd" clip-rule="evenodd" d="M17.5379 15.5809L18.5667 16.8517L17.7591 19.8188L18.0557 17.5861L16.9355 16.2343L17.5379 15.5809Z" fill="#8E929B" fill-opacity="0.9"/>
<path fill-rule="evenodd" clip-rule="evenodd" d="M14.8027 9.9776L18.9343 7.45421L18.2225 6.48767L14.8027 9.9776Z" fill="#8E929B" fill-opacity="0.9"/>
<path fill-rule="evenodd" clip-rule="evenodd" d="M14.4961 9.87016L16.4968 6.04456L17.95 6.36674L14.4961 9.87016Z" fill="#8E929B" fill-opacity="0.9"/>
<path fill-rule="evenodd" clip-rule="evenodd" d="M13.9824 9.37466L15.3238 5.53778L13.9962 4.93848L13.9824 9.37466Z" fill="#8E929B" fill-opacity="0.9"/>
<path fill-rule="evenodd" clip-rule="evenodd" d="M15.9395 9.79773L21.6518 14.9661L22.2518 14.0965L15.9395 9.79773Z" fill="#8E929B" fill-opacity="0.9"/>
<path fill-rule="evenodd" clip-rule="evenodd" d="M16.4121 9.70972L21.1823 12.3345L21.9352 13.5444L16.4121 9.70972Z" fill="#8E929B" fill-opacity="0.9"/>
<path fill-rule="evenodd" clip-rule="evenodd" d="M18.7188 10.7196L20.4001 11.0779L20.8814 11.8529L18.7188 10.7196Z" fill="#8E929B" fill-opacity="0.9"/>
<path fill-rule="evenodd" clip-rule="evenodd" d="M19.0508 10.6111L19.786 10.1036L20.2062 10.814L19.0508 10.6111Z" fill="#8E929B" fill-opacity="0.9"/>
<path fill-rule="evenodd" clip-rule="evenodd" d="M16.7627 16.4742L17.8327 17.7787L17.1574 20.5657L17.3467 18.2045L16.416 16.8731L16.7627 16.4742Z" fill="#8E929B" fill-opacity="0.9"/>
<path fill-rule="evenodd" clip-rule="evenodd" d="M17.0754 18.8972L16.9795 20.1003L16.3134 20.6613L16.1172 19.3636L17.0754 18.8972Z" fill="#8E929B" fill-opacity="0.9"/>
<path fill-rule="evenodd" clip-rule="evenodd" d="M15.9104 19.4692L16.1522 20.8007L15.4792 21.3708L15.1348 19.8477L15.9104 19.4692Z" fill="#8E929B" fill-opacity="0.9"/>
<path fill-rule="evenodd" clip-rule="evenodd" d="M14.884 19.9664L15.2672 21.5435L14.4095 22.269L13.9121 20.4395L14.884 19.9664Z" fill="#8E929B" fill-opacity="0.9"/>
<path fill-rule="evenodd" clip-rule="evenodd" d="M14.2305 9.68593L15.5286 5.65979L16.238 5.95268L14.2305 9.68593Z" fill="#8E929B" fill-opacity="0.9"/>
<path fill-rule="evenodd" clip-rule="evenodd" d="M13.1901 17.2222L12.6198 16.4652L11.8898 16.1633L11.7871 15.5032L12.8684 15.6293L13.1901 16.0776L13.5117 15.6293L14.5931 15.5032L14.4881 16.1633L13.7604 16.4652L13.1901 17.2222Z" fill="#8E929B" fill-opacity="0.9"/>
<path fill-rule="evenodd" clip-rule="evenodd" d="M11.1574 12.1366L9.54688 11.8391L10.067 12.7381L11.5727 12.9949L11.8738 14.2611L12.0905 13.2225L11.1574 12.1366Z" fill="#8E929B" fill-opacity="0.9"/>
<path fill-rule="evenodd" clip-rule="evenodd" d="M13.1792 17.1823L12.2895 17.7748L11.2949 17.9528L11.5823 18.5543L12.6887 18.2953C12.6887 18.2953 13.0721 17.4413 13.1792 17.2138V17.1823Z" fill="#8E929B" fill-opacity="0.9"/>
<path fill-rule="evenodd" clip-rule="evenodd" d="M10.7829 16.0009L8.78905 13.8155L8.86661 12.1348L8.24609 14.1489L10.3723 16.7714L10.7829 16.0009Z" fill="#8E929B" fill-opacity="0.9"/>
<path fill-rule="evenodd" clip-rule="evenodd" d="M10.5294 17.5619L10.3812 18.6523L11.3667 19.5401L9.26562 18.533L10.1599 17.0708L10.5294 17.5619Z" fill="#8E929B" fill-opacity="0.9"/>
<path fill-rule="evenodd" clip-rule="evenodd" d="M11.6172 18.668L12.0552 19.265L13.1844 19.2132L14.3137 19.265L14.7517 18.668L14.6422 19.7562L13.1867 20.4252L13.1844 20.3329L13.1822 20.4252L11.7267 19.7562L11.6172 18.668Z" fill="#8E929B" fill-opacity="0.9"/>
<path fill-rule="evenodd" clip-rule="evenodd" d="M10.5463 9.61288L7.22701 7.74512L6.28711 9.5227L7.60342 10.665L6.96921 9.41006L7.40951 8.48861L10.5463 9.61288Z" fill="#8E929B" fill-opacity="0.9"/>
<path fill-rule="evenodd" clip-rule="evenodd" d="M10.839 9.85095L4.85742 15.1635L6.85129 17.8423L5.50987 15.3528L10.839 9.85095Z" fill="#8E929B" fill-opacity="0.9"/>
<path fill-rule="evenodd" clip-rule="evenodd" d="M8.26579 12.9585L5.88867 15.4322L7.50612 18.7081L6.41566 15.8513L7.84147 14.2584L8.26579 12.9585Z" fill="#8E929B" fill-opacity="0.9"/>
<path fill-rule="evenodd" clip-rule="evenodd" d="M8.04744 14.4963L6.72656 15.9314L8.15694 19.4777L7.48623 16.7222L8.70217 15.366L8.04744 14.4963Z" fill="#8E929B" fill-opacity="0.9"/>
<path fill-rule="evenodd" clip-rule="evenodd" d="M8.84332 15.5809L7.81445 16.8517L8.62203 19.8188L8.32547 17.5861L9.44558 16.2343L8.84332 15.5809Z" fill="#8E929B" fill-opacity="0.9"/>
<path fill-rule="evenodd" clip-rule="evenodd" d="M11.5728 9.9776L7.44141 7.45421L8.15545 6.48767L11.5728 9.9776Z" fill="#8E929B" fill-opacity="0.9"/>
<path fill-rule="evenodd" clip-rule="evenodd" d="M11.8816 9.87016L9.88092 6.04456L8.42773 6.36674L11.8816 9.87016Z" fill="#8E929B" fill-opacity="0.9"/>
<path fill-rule="evenodd" clip-rule="evenodd" d="M12.3902 9.37466L11.0488 5.53778L12.3766 4.93848L12.3902 9.37466Z" fill="#8E929B" fill-opacity="0.9"/>
<path fill-rule="evenodd" clip-rule="evenodd" d="M13.1869 10.1384L12.6988 9.46246L12.5801 4.51489L13.1869 5.80587L13.7938 4.51489L13.6752 9.46246L13.1869 10.1384Z" fill="#8E929B" fill-opacity="0.9"/>
<path fill-rule="evenodd" clip-rule="evenodd" d="M10.4354 9.79773L4.72303 14.9661L4.12305 14.0965L10.4354 9.79773Z" fill="#8E929B" fill-opacity="0.9"/>
<path fill-rule="evenodd" clip-rule="evenodd" d="M9.96444 9.70972L5.19424 12.3345L4.44141 13.5444L9.96444 9.70972Z" fill="#8E929B" fill-opacity="0.9"/>
<path fill-rule="evenodd" clip-rule="evenodd" d="M7.65877 10.7196L5.97745 11.0779L5.49609 11.8529L7.65877 10.7196Z" fill="#8E929B" fill-opacity="0.9"/>
<path fill-rule="evenodd" clip-rule="evenodd" d="M7.31945 10.6111L6.5842 10.1036L6.16406 10.814L7.31945 10.6111Z" fill="#8E929B" fill-opacity="0.9"/>
<path fill-rule="evenodd" clip-rule="evenodd" d="M9.61485 16.4742L8.54492 17.7787L9.2179 20.5657L9.03084 18.2045L9.9616 16.8731L9.61485 16.4742Z" fill="#8E929B" fill-opacity="0.9"/>
<path fill-rule="evenodd" clip-rule="evenodd" d="M9.29883 18.8972L9.39465 20.1003L10.0608 20.6613L10.257 19.3636L9.29883 18.8972Z" fill="#8E929B" fill-opacity="0.9"/>
<path fill-rule="evenodd" clip-rule="evenodd" d="M10.4664 19.4692L10.2246 20.8007L10.8976 21.3708L11.2443 19.8477L10.4664 19.4692Z" fill="#8E929B" fill-opacity="0.9"/>
<path fill-rule="evenodd" clip-rule="evenodd" d="M11.4868 19.9664L11.1035 21.5435L11.9614 22.269L12.4586 20.4395L11.4868 19.9664Z" fill="#8E929B" fill-opacity="0.9"/>
<path fill-rule="evenodd" clip-rule="evenodd" d="M12.5974 20.5046L12.1777 22.4467L13.1929 23.3028L14.2081 22.4467L13.7883 20.5046L13.1929 20.7953L12.5974 20.5046Z" fill="#8E929B" fill-opacity="0.9"/>
<path fill-rule="evenodd" clip-rule="evenodd" d="M12.1404 9.68593L10.8423 5.65979L10.1328 5.95268L12.1404 9.68593Z" fill="#8E929B" fill-opacity="0.9"/>
<path d="M25.1261 5.97422L25.0554 5.18566L24.7361 4.87475C21.7322 1.93524 17.6917 0.260335 13.4636 0.202026H13.1374C8.83161 0.201826 4.69995 1.8812 1.64139 4.87475L1.3175 5.18566L1.24679 5.97422C1.04295 8.04284 0.993396 10.1235 1.09853 12.1993C1.17977 13.8111 1.43362 15.4098 1.8558 16.9688C2.21128 18.2566 2.7261 19.496 3.38861 20.6593C4.00126 21.7119 4.71794 22.7021 5.52814 23.6152L5.53955 23.6265C7.69961 25.9808 10.293 27.8126 11.4016 28.5831C11.5224 28.6687 12.6128 29.455 12.7314 29.5428L13.1876 29.874L13.7532 29.464L14.9758 28.5831C16.0844 27.8013 18.6779 25.9696 20.8402 23.6129C21.6532 22.7013 22.3723 21.7118 22.9866 20.6593C23.6494 19.4962 24.1642 18.2567 24.5194 16.9688C24.9385 15.4096 25.1893 13.8107 25.2676 12.1993C25.3749 10.1237 25.3276 8.043 25.1261 5.97422ZM23.7439 12.1091C23.7028 12.785 23.6389 13.4609 23.5522 14.0715L23.4085 14.9727C23.3082 15.5225 23.1804 16.0609 23.0413 16.5724C22.4164 18.816 21.2707 20.8849 19.6952 22.6149C17.6423 24.8454 15.1492 26.6095 14.0817 27.3642C13.9927 27.425 13.5457 27.7495 13.1876 28.0063L12.2935 27.3619C11.226 26.6095 8.72832 24.8454 6.6823 22.6171C5.10472 20.8847 3.95818 18.8126 3.33386 16.5656C3.19016 16.0541 3.06699 15.5179 2.96663 14.9727L2.82749 14.1166C2.73853 13.4857 2.67238 12.8098 2.63133 12.1091C2.53008 10.1055 2.57811 8.09712 2.77503 6.10038L2.79784 5.87508C5.56292 3.20898 9.27331 1.71569 13.1374 1.71379H13.2719C17.124 1.72592 20.8199 3.21834 23.5773 5.87508L23.6001 6.10038C23.797 8.09712 23.8451 10.1055 23.7439 12.1091Z" fill="#8E929B" fill-opacity="0.9"/>
</g>
<defs>
<clipPath id="clip0_201_852">
<rect width="137.085" height="30" fill="white" transform="translate(0.863281)"/>
</clipPath>
</defs>
</svg>
