<svg width="416" height="401" viewBox="0 0 416 401" fill="none" xmlns="http://www.w3.org/2000/svg">
<g filter="url(#filter0_d_202_1505)">
<rect x="23" y="22" width="361" height="346" rx="16.225" fill="white"/>
</g>
<rect opacity="0.25" x="227.443" y="190.594" width="100.338" height="96.655" transform="rotate(180 227.443 190.594)" fill="url(#paint0_linear_202_1505)"/>
<g style="mix-blend-mode:multiply" opacity="0.45">
<rect x="230.006" y="93.9387" width="52.4222" height="96.655" fill="url(#paint1_linear_202_1505)"/>
</g>
<path d="M175.885 207.706H225.127" stroke="#192E53" stroke-width="1.43196" stroke-linecap="round" stroke-linejoin="round"/>
<rect x="122.879" y="98.163" width="155.257" height="96.655" stroke="#192E53" stroke-width="1.43196" stroke-linecap="round" stroke-linejoin="round"/>
<path d="M166.336 112.717L188.997 112.717" stroke="#192E53" stroke-width="1.43196" stroke-linecap="round" stroke-linejoin="round"/>
<path opacity="0.3" d="M139.301 180.337L149.961 165.291L155.417 171.472L164.986 158.423L170.946 164.49L180.012 150.983L188.322 158.537L191.176 154.417L202.004 165.66L209.81 156.019V180.337L139.301 180.337Z" fill="#55B848"/>
<path d="M132.768 179.373L150.042 155.748L155.162 162.478L164.698 149.224L170.892 156.296L179.471 142.789L188.15 150.48L191.457 145.606L201.749 156.547L217.79 137.291" stroke="#192E53" stroke-width="1.43196" stroke-linecap="round" stroke-linejoin="round"/>
<path d="M159.371 121.378V127.077" stroke="#28B473" stroke-width="0.715978" stroke-linecap="round" stroke-linejoin="round"/>
<path d="M157.094 123.655L159.37 121.378L161.647 123.655" stroke="#28B473" stroke-width="0.715978" stroke-linecap="round" stroke-linejoin="round"/>
<path d="M169.242 120.601V128.307H167.721V122.355L165.893 122.936V121.737L169.078 120.601H169.242ZM177.005 127.119V128.307H171.745V127.293L174.233 124.626C174.482 124.348 174.68 124.103 174.824 123.892C174.968 123.677 175.072 123.485 175.136 123.316C175.203 123.144 175.236 122.98 175.236 122.825C175.236 122.593 175.197 122.394 175.12 122.228C175.042 122.059 174.928 121.929 174.776 121.837C174.629 121.746 174.446 121.7 174.227 121.7C173.995 121.7 173.794 121.756 173.625 121.869C173.46 121.982 173.333 122.138 173.245 122.339C173.16 122.54 173.118 122.767 173.118 123.02H171.592C171.592 122.563 171.701 122.144 171.919 121.763C172.138 121.38 172.446 121.075 172.843 120.85C173.241 120.621 173.713 120.506 174.259 120.506C174.798 120.506 175.252 120.594 175.622 120.77C175.995 120.943 176.276 121.193 176.467 121.52C176.66 121.844 176.757 122.232 176.757 122.682C176.757 122.936 176.717 123.184 176.636 123.427C176.555 123.666 176.438 123.906 176.287 124.145C176.139 124.381 175.96 124.621 175.748 124.864C175.537 125.106 175.303 125.358 175.046 125.619L173.71 127.119H177.005ZM178.093 127.573C178.093 127.348 178.171 127.159 178.326 127.008C178.484 126.856 178.694 126.781 178.954 126.781C179.215 126.781 179.422 126.856 179.577 127.008C179.736 127.159 179.815 127.348 179.815 127.573C179.815 127.798 179.736 127.987 179.577 128.138C179.422 128.289 179.215 128.365 178.954 128.365C178.694 128.365 178.484 128.289 178.326 128.138C178.171 127.987 178.093 127.798 178.093 127.573ZM186.48 125.434V126.628H180.94L180.866 125.703L184.072 120.617H185.281L183.971 122.809L182.376 125.434H186.48ZM185.609 120.617V128.307H184.088V120.617H185.609ZM187.283 122.503V122.096C187.283 121.804 187.346 121.538 187.473 121.299C187.6 121.059 187.786 120.867 188.033 120.723C188.279 120.579 188.582 120.506 188.941 120.506C189.311 120.506 189.619 120.579 189.866 120.723C190.116 120.867 190.302 121.059 190.425 121.299C190.552 121.538 190.615 121.804 190.615 122.096V122.503C190.615 122.788 190.552 123.05 190.425 123.29C190.302 123.529 190.117 123.721 189.871 123.865C189.624 124.01 189.32 124.082 188.957 124.082C188.591 124.082 188.283 124.01 188.033 123.865C187.786 123.721 187.6 123.529 187.473 123.29C187.346 123.05 187.283 122.788 187.283 122.503ZM188.292 122.096V122.503C188.292 122.626 188.315 122.744 188.36 122.857C188.41 122.966 188.484 123.056 188.582 123.126C188.684 123.193 188.807 123.226 188.952 123.226C189.103 123.226 189.226 123.193 189.322 123.126C189.417 123.056 189.487 122.966 189.533 122.857C189.579 122.744 189.601 122.626 189.601 122.503V122.096C189.601 121.966 189.577 121.846 189.528 121.737C189.482 121.624 189.41 121.534 189.311 121.468C189.216 121.397 189.093 121.362 188.941 121.362C188.8 121.362 188.681 121.397 188.582 121.468C188.484 121.534 188.41 121.624 188.36 121.737C188.315 121.846 188.292 121.966 188.292 122.096ZM190.959 126.828V126.422C190.959 126.133 191.022 125.869 191.149 125.629C191.279 125.39 191.468 125.198 191.714 125.054C191.964 124.909 192.27 124.837 192.633 124.837C192.999 124.837 193.305 124.909 193.552 125.054C193.798 125.198 193.985 125.39 194.112 125.629C194.239 125.869 194.302 126.133 194.302 126.422V126.828C194.302 127.117 194.239 127.381 194.112 127.62C193.989 127.86 193.804 128.052 193.557 128.196C193.311 128.34 193.006 128.413 192.644 128.413C192.277 128.413 191.969 128.34 191.719 128.196C191.469 128.052 191.279 127.86 191.149 127.62C191.022 127.381 190.959 127.117 190.959 126.828ZM191.973 126.422V126.828C191.973 126.955 192.001 127.075 192.057 127.187C192.114 127.3 192.191 127.39 192.29 127.457C192.392 127.524 192.51 127.557 192.644 127.557C192.813 127.557 192.945 127.524 193.04 127.457C193.135 127.39 193.2 127.3 193.235 127.187C193.274 127.075 193.293 126.955 193.293 126.828V126.422C193.293 126.295 193.269 126.177 193.219 126.068C193.17 125.955 193.096 125.865 192.997 125.798C192.902 125.728 192.781 125.693 192.633 125.693C192.485 125.693 192.362 125.728 192.263 125.798C192.168 125.865 192.096 125.955 192.047 126.068C191.997 126.177 191.973 126.295 191.973 126.422ZM193.008 121.716L189.253 127.726L188.513 127.335L192.269 121.325L193.008 121.716Z" fill="#28B473"/>
<rect x="195.672" y="194.818" width="9.67329" height="12.8886" stroke="#192E53" stroke-width="1.43196" stroke-linecap="round" stroke-linejoin="round"/>
<path d="M137.715 180.75H217.794" stroke="#192E53" stroke-width="1.43196" stroke-linecap="round" stroke-linejoin="round"/>
<g style="mix-blend-mode:multiply" opacity="0.5">
<mask id="mask0_202_1505" style="mask-type:alpha" maskUnits="userSpaceOnUse" x="138" y="135" width="76" height="46">
<path d="M138.453 180.379L148.706 163.515L153.859 166.273L163.25 155.205L168.968 156.785L177.562 135.445L186.081 155.212L188.742 150.204L199.099 163.794L206.771 151.709L213.005 157.69L213.14 179.923L138.453 180.379Z" fill="black"/>
</mask>
<g mask="url(#mask0_202_1505)">
<path d="M99.2935 184.259L98.5898 183.311L171.115 83.1342L171.819 84.0816L99.2935 184.259Z" fill="#28AAE1"/>
<path d="M100.694 186.141L99.9902 185.194L172.515 85.0167L173.219 85.9641L100.694 186.141Z" fill="#28AAE1"/>
<path d="M102.114 188.06L101.41 187.112L173.935 86.9354L174.639 87.8828L102.114 188.06Z" fill="#28AAE1"/>
<path d="M103.54 189.978L102.836 189.03L175.361 88.8535L176.065 89.8009L103.54 189.978Z" fill="#28AAE1"/>
<path d="M104.938 191.86L104.234 190.913L176.76 90.7358L177.463 91.6832L104.938 191.86Z" fill="#28AAE1"/>
<path d="M106.323 193.726L105.619 192.779L178.144 92.6016L178.848 93.549L106.323 193.726Z" fill="#28AAE1"/>
<path d="M107.751 195.644L107.047 194.697L179.572 94.5197L180.276 95.4671L107.751 195.644Z" fill="#28AAE1"/>
<path d="M109.174 197.563L108.471 196.615L180.996 96.4385L181.7 97.3859L109.174 197.563Z" fill="#28AAE1"/>
<path d="M110.575 199.445L109.871 198.498L182.396 98.3209L183.1 99.2683L110.575 199.445Z" fill="#28AAE1"/>
<path d="M111.934 201.274L111.23 200.327L183.756 100.15L184.459 101.097L111.934 201.274Z" fill="#28AAE1"/>
<path d="M113.358 203.193L112.654 202.246L185.179 102.069L185.883 103.016L113.358 203.193Z" fill="#28AAE1"/>
<path d="M114.786 205.111L114.082 204.164L186.607 103.987L187.311 104.934L114.786 205.111Z" fill="#28AAE1"/>
<path d="M116.178 206.994L115.475 206.046L188 105.869L188.704 106.817L116.178 206.994Z" fill="#28AAE1"/>
<path d="M117.563 208.86L116.859 207.912L189.385 107.735L190.088 108.683L117.563 208.86Z" fill="#28AAE1"/>
<path d="M118.995 210.778L118.291 209.83L190.816 109.653L191.52 110.601L118.995 210.778Z" fill="#28AAE1"/>
<path d="M120.415 212.696L119.711 211.749L192.236 111.572L192.94 112.52L120.415 212.696Z" fill="#28AAE1"/>
<path d="M121.815 214.579L121.111 213.631L193.637 113.454L194.34 114.402L121.815 214.579Z" fill="#28AAE1"/>
<path d="M123.229 216.484L122.525 215.537L195.051 115.36L195.754 116.307L123.229 216.484Z" fill="#28AAE1"/>
<path d="M124.655 218.402L123.951 217.455L196.476 117.278L197.18 118.225L124.655 218.402Z" fill="#28AAE1"/>
<path d="M126.077 220.32L125.373 219.373L197.898 119.196L198.602 120.143L126.077 220.32Z" fill="#28AAE1"/>
<path d="M127.475 222.203L126.771 221.255L199.297 121.078L200 122.026L127.475 222.203Z" fill="#28AAE1"/>
<path d="M128.866 224.068L128.162 223.121L200.687 122.944L201.391 123.892L128.866 224.068Z" fill="#28AAE1"/>
<path d="M130.288 225.987L129.584 225.04L202.109 124.863L202.813 125.81L130.288 225.987Z" fill="#28AAE1"/>
<path d="M131.711 227.905L131.008 226.958L203.533 126.781L204.237 127.728L131.711 227.905Z" fill="#28AAE1"/>
<path d="M133.112 229.787L132.408 228.84L204.933 128.663L205.637 129.611L133.112 229.787Z" fill="#28AAE1"/>
<path d="M134.467 231.618L133.764 230.67L206.289 130.493L206.993 131.441L134.467 231.618Z" fill="#28AAE1"/>
<path d="M135.895 233.536L135.191 232.588L207.717 132.411L208.42 133.359L135.895 233.536Z" fill="#28AAE1"/>
<path d="M137.321 235.455L136.617 234.507L209.142 134.33L209.846 135.278L137.321 235.455Z" fill="#28AAE1"/>
<path d="M138.715 237.337L138.012 236.39L210.537 136.213L211.241 137.16L138.715 237.337Z" fill="#28AAE1"/>
<path d="M140.1 239.203L139.396 238.255L211.922 138.078L212.625 139.026L140.1 239.203Z" fill="#28AAE1"/>
<path d="M141.53 241.121L140.826 240.173L213.351 139.996L214.055 140.944L141.53 241.121Z" fill="#28AAE1"/>
<path d="M142.952 243.039L142.248 242.092L214.773 141.915L215.477 142.862L142.952 243.039Z" fill="#28AAE1"/>
<path d="M144.352 244.921L143.648 243.974L216.174 143.797L216.877 144.744L144.352 244.921Z" fill="#28AAE1"/>
<path d="M145.739 246.792L145.035 245.845L217.56 145.668L218.264 146.615L145.739 246.792Z" fill="#28AAE1"/>
<path d="M147.167 248.71L146.463 247.763L218.988 147.586L219.692 148.533L147.167 248.71Z" fill="#28AAE1"/>
<path d="M148.592 250.629L147.889 249.682L220.414 149.505L221.118 150.452L148.592 250.629Z" fill="#28AAE1"/>
<path d="M149.985 252.511L149.281 251.564L221.806 151.387L222.51 152.334L149.985 252.511Z" fill="#28AAE1"/>
<path d="M151.376 254.377L150.672 253.43L223.197 153.253L223.901 154.2L151.376 254.377Z" fill="#28AAE1"/>
<path d="M152.799 256.295L152.096 255.348L224.621 155.171L225.325 156.118L152.799 256.295Z" fill="#28AAE1"/>
<path d="M154.221 258.213L153.518 257.266L226.043 157.089L226.746 158.036L154.221 258.213Z" fill="#28AAE1"/>
<path d="M155.622 260.096L154.918 259.148L227.443 158.971L228.147 159.919L155.622 260.096Z" fill="#28AAE1"/>
<path d="M156.979 261.926L156.275 260.978L228.801 160.801L229.504 161.749L156.979 261.926Z" fill="#28AAE1"/>
<path d="M158.405 263.845L157.701 262.897L230.226 162.72L230.93 163.668L158.405 263.845Z" fill="#28AAE1"/>
<path d="M159.831 265.763L159.127 264.815L231.652 164.638L232.356 165.586L159.831 265.763Z" fill="#28AAE1"/>
<path d="M161.231 267.645L160.527 266.698L233.053 166.521L233.756 167.468L161.231 267.645Z" fill="#28AAE1"/>
<path d="M162.616 269.511L161.912 268.563L234.437 168.386L235.141 169.334L162.616 269.511Z" fill="#28AAE1"/>
<path d="M164.04 271.429L163.336 270.481L235.861 170.305L236.565 171.252L164.04 271.429Z" fill="#28AAE1"/>
<path d="M165.467 273.347L164.764 272.4L237.289 172.223L237.993 173.17L165.467 273.347Z" fill="#28AAE1"/>
<path d="M166.862 275.23L166.158 274.283L238.683 174.106L239.387 175.053L166.862 275.23Z" fill="#28AAE1"/>
<path d="M168.276 277.135L167.572 276.188L240.097 176.011L240.801 176.958L168.276 277.135Z" fill="#28AAE1"/>
<path d="M169.704 279.053L169 278.106L241.525 177.929L242.229 178.876L169.704 279.053Z" fill="#28AAE1"/>
<path d="M171.128 280.972L170.424 280.024L242.949 179.847L243.653 180.795L171.128 280.972Z" fill="#28AAE1"/>
</g>
</g>
<circle cx="236.301" cy="109.61" r="2.28498" stroke="#192E53" stroke-width="1.43196" stroke-linecap="round" stroke-linejoin="round"/>
<path d="M242.504 108.112H269.729" stroke="#192E53" stroke-width="1.43196" stroke-linecap="round" stroke-linejoin="round"/>
<path d="M242.504 111.546H252.56" stroke="#192E53" stroke-width="1.43196" stroke-linecap="round" stroke-linejoin="round"/>
<rect x="233.73" y="116.949" width="36.4947" height="7.15583" stroke="#192E53" stroke-width="1.43196" stroke-linecap="round" stroke-linejoin="round"/>
<circle cx="236.301" cy="136.546" r="2.28498" stroke="#192E53" stroke-width="1.43196" stroke-linecap="round" stroke-linejoin="round"/>
<path d="M242.504 135.048H269.729" stroke="#192E53" stroke-width="1.43196" stroke-linecap="round" stroke-linejoin="round"/>
<path d="M242.504 138.482H252.56" stroke="#192E53" stroke-width="1.43196" stroke-linecap="round" stroke-linejoin="round"/>
<rect x="233.73" y="143.885" width="36.4947" height="7.15583" stroke="#192E53" stroke-width="1.43196" stroke-linecap="round" stroke-linejoin="round"/>
<circle cx="236.301" cy="162.713" r="2.28498" stroke="#192E53" stroke-width="1.43196" stroke-linecap="round" stroke-linejoin="round"/>
<path d="M242.504 161.215H269.729" stroke="#192E53" stroke-width="1.43196" stroke-linecap="round" stroke-linejoin="round"/>
<path d="M242.504 164.649H252.56" stroke="#192E53" stroke-width="1.43196" stroke-linecap="round" stroke-linejoin="round"/>
<rect x="233.73" y="170.052" width="36.4947" height="14.8519" stroke="#192E53" stroke-width="1.43196" stroke-linecap="round" stroke-linejoin="round"/>
<g opacity="0.5">
<path d="M325.693 123.888L322.083 120.278C321.733 119.927 321.733 119.36 322.083 119.01C322.432 118.661 323 118.661 323.349 119.01L326.959 122.62C327.31 122.97 327.31 123.537 326.959 123.888C326.61 124.237 326.042 124.237 325.693 123.888Z" fill="#A5AFB9"/>
<path d="M322.082 123.888C321.733 123.538 321.733 122.971 322.082 122.621L325.692 119.011C326.042 118.662 326.61 118.661 326.96 119.011C327.309 119.361 327.309 119.928 326.96 120.278L323.35 123.888C323 124.238 322.432 124.238 322.082 123.888Z" fill="#A5AFB9"/>
<path d="M108.102 99.2989L104.493 95.6889C104.143 95.3388 104.143 94.7717 104.493 94.4216C104.843 94.0722 105.41 94.0722 105.76 94.4216L109.37 98.0316C109.719 98.3817 109.719 98.9487 109.37 99.2989C109.02 99.6482 108.453 99.6482 108.102 99.2989Z" fill="#A5AFB9"/>
<path d="M104.493 99.2977C104.143 98.9484 104.143 98.3806 104.493 98.0312L108.103 94.4213C108.452 94.0712 109.02 94.0712 109.37 94.4213C109.72 94.7706 109.719 95.3385 109.37 95.6878L105.76 99.2977C105.41 99.6479 104.842 99.6479 104.493 99.2977Z" fill="#A5AFB9"/>
<path d="M177.389 72.749C177.618 72.749 177.847 72.8363 178.022 73.011C178.372 73.3611 178.372 73.9282 178.022 74.2776L174.412 77.8861C174.062 78.2362 173.496 78.2362 173.145 77.8861C172.795 77.5367 172.795 76.9697 173.145 76.6195L176.755 73.011C176.93 72.8363 177.159 72.749 177.389 72.749Z" fill="#A5AFB9"/>
<path d="M173.779 72.749C174.008 72.749 174.237 72.8363 174.412 73.011L178.022 76.6195C178.372 76.9697 178.372 77.5367 178.022 77.8861C177.672 78.2362 177.105 78.2362 176.755 77.8861L173.145 74.2776C172.795 73.9282 172.795 73.3611 173.145 73.011C173.32 72.8363 173.549 72.749 173.779 72.749Z" fill="#A5AFB9"/>
<path d="M106.787 145.733C106.557 145.733 106.328 145.646 106.153 145.471C105.803 145.121 105.803 144.554 106.153 144.205L109.763 140.595C110.113 140.245 110.68 140.245 111.03 140.595C111.38 140.944 111.38 141.511 111.03 141.861L107.42 145.471C107.245 145.646 107.016 145.733 106.787 145.733Z" fill="#A5AFB9"/>
<path d="M110.396 145.733C110.167 145.733 109.938 145.646 109.763 145.471L106.153 141.861C105.803 141.511 105.803 140.944 106.153 140.595C106.503 140.245 107.07 140.245 107.42 140.595L111.03 144.205C111.38 144.554 111.38 145.121 111.03 145.471C110.855 145.646 110.626 145.733 110.396 145.733Z" fill="#A5AFB9"/>
<rect x="224.811" y="67.9714" width="38.2085" height="1.79154" fill="#A5AFB9"/>
<rect x="181.543" y="74.5403" width="60.5784" height="1.79154" fill="#A5AFB9"/>
<rect x="215.209" y="67.9713" width="6.60924" height="1.79154" fill="#A5AFB9"/>
<rect x="287.672" y="139.85" width="20.7765" height="1.79154" fill="#A5AFB9"/>
<rect x="310.236" y="139.851" width="4.26424" height="1.79154" fill="#A5AFB9"/>
<rect x="63.5645" y="106.968" width="20.7765" height="1.79154" fill="#A5AFB9"/>
<rect x="86.1328" y="106.968" width="4.26483" height="1.79154" fill="#A5AFB9"/>
<path d="M108.846 81.9886C108.846 82.6959 108.272 83.2694 107.565 83.2694C106.857 83.2694 106.283 82.6959 106.283 81.9886C106.283 81.2805 106.857 80.707 107.565 80.707C108.272 80.707 108.846 81.2805 108.846 81.9886Z" fill="#A5AFB9"/>
<path d="M307.957 92.4841C307.957 93.3726 307.237 94.093 306.348 94.093C305.46 94.093 304.74 93.3726 304.74 92.4841C304.74 91.5963 305.46 90.876 306.348 90.876C307.237 90.876 307.957 91.5963 307.957 92.4841Z" fill="#A5AFB9"/>
<rect x="160.908" y="206.545" width="9.83996" height="1.79153" fill="#A5AFB9"/>
<rect x="90.5156" y="206.545" width="34.2675" height="1.79153" fill="#A5AFB9"/>
<rect x="230.514" y="206.545" width="71.7316" height="1.79153" fill="#A5AFB9"/>
<rect x="84.6211" y="206.545" width="3.54042" height="1.79153" fill="#A5AFB9"/>
<rect x="304.266" y="206.545" width="7.81839" height="1.79153" fill="#A5AFB9"/>
</g>
<path opacity="0.6" d="M59.2891 308.685V310.065H52.8906V308.685H59.2891ZM53.2246 297.268V310.065H51.5283V297.268H53.2246ZM60.5547 305.415V305.213C60.5547 304.527 60.6543 303.892 60.8535 303.306C61.0527 302.714 61.3398 302.201 61.7148 301.768C62.0898 301.328 62.5439 300.988 63.0771 300.748C63.6104 300.502 64.208 300.379 64.8701 300.379C65.5381 300.379 66.1387 300.502 66.6719 300.748C67.2109 300.988 67.668 301.328 68.043 301.768C68.4238 302.201 68.7139 302.714 68.9131 303.306C69.1123 303.892 69.2119 304.527 69.2119 305.213V305.415C69.2119 306.101 69.1123 306.736 68.9131 307.322C68.7139 307.908 68.4238 308.421 68.043 308.86C67.668 309.294 67.2139 309.634 66.6807 309.88C66.1533 310.12 65.5557 310.24 64.8877 310.24C64.2197 310.24 63.6191 310.12 63.0859 309.88C62.5527 309.634 62.0957 309.294 61.7148 308.86C61.3398 308.421 61.0527 307.908 60.8535 307.322C60.6543 306.736 60.5547 306.101 60.5547 305.415ZM62.1807 305.213V305.415C62.1807 305.89 62.2363 306.338 62.3477 306.76C62.459 307.176 62.626 307.545 62.8486 307.867C63.0771 308.19 63.3613 308.444 63.7012 308.632C64.041 308.814 64.4365 308.904 64.8877 308.904C65.333 308.904 65.7227 308.814 66.0566 308.632C66.3965 308.444 66.6777 308.19 66.9004 307.867C67.123 307.545 67.29 307.176 67.4014 306.76C67.5186 306.338 67.5771 305.89 67.5771 305.415V305.213C67.5771 304.744 67.5186 304.302 67.4014 303.886C67.29 303.464 67.1201 303.092 66.8916 302.77C66.6689 302.442 66.3877 302.184 66.0479 301.996C65.7139 301.809 65.3213 301.715 64.8701 301.715C64.4248 301.715 64.0322 301.809 63.6924 301.996C63.3584 302.184 63.0771 302.442 62.8486 302.77C62.626 303.092 62.459 303.464 62.3477 303.886C62.2363 304.302 62.1807 304.744 62.1807 305.213ZM72.877 302.049V310.065H71.251V300.555H72.833L72.877 302.049ZM75.8477 300.502L75.8389 302.014C75.7041 301.984 75.5752 301.967 75.4521 301.961C75.335 301.949 75.2002 301.943 75.0479 301.943C74.6729 301.943 74.3418 302.002 74.0547 302.119C73.7676 302.236 73.5244 302.401 73.3252 302.611C73.126 302.822 72.9678 303.074 72.8506 303.367C72.7393 303.654 72.666 303.971 72.6309 304.317L72.1738 304.58C72.1738 304.006 72.2295 303.467 72.3408 302.963C72.458 302.459 72.6367 302.014 72.877 301.627C73.1172 301.234 73.4219 300.93 73.791 300.713C74.166 300.49 74.6113 300.379 75.127 300.379C75.2441 300.379 75.3789 300.394 75.5312 300.423C75.6836 300.446 75.7891 300.473 75.8477 300.502ZM81.1211 310.24C80.459 310.24 79.8584 310.129 79.3193 309.906C78.7861 309.678 78.3262 309.359 77.9395 308.948C77.5586 308.538 77.2656 308.052 77.0605 307.489C76.8555 306.927 76.7529 306.312 76.7529 305.644V305.275C76.7529 304.501 76.8672 303.813 77.0957 303.209C77.3242 302.6 77.6348 302.084 78.0273 301.662C78.4199 301.24 78.8652 300.921 79.3633 300.704C79.8613 300.487 80.377 300.379 80.9102 300.379C81.5898 300.379 82.1758 300.496 82.668 300.731C83.166 300.965 83.5732 301.293 83.8896 301.715C84.2061 302.131 84.4404 302.623 84.5928 303.192C84.7451 303.754 84.8213 304.369 84.8213 305.037V305.767H77.7197V304.44H83.1953V304.317C83.1719 303.895 83.084 303.484 82.9316 303.086C82.7852 302.688 82.5508 302.359 82.2285 302.102C81.9062 301.844 81.4668 301.715 80.9102 301.715C80.541 301.715 80.2012 301.794 79.8906 301.952C79.5801 302.105 79.3135 302.333 79.0908 302.638C78.8682 302.943 78.6953 303.315 78.5723 303.754C78.4492 304.193 78.3877 304.7 78.3877 305.275V305.644C78.3877 306.095 78.4492 306.52 78.5723 306.918C78.7012 307.311 78.8857 307.656 79.126 307.955C79.3721 308.254 79.668 308.488 80.0137 308.658C80.3652 308.828 80.7637 308.913 81.209 308.913C81.7832 308.913 82.2695 308.796 82.668 308.562C83.0664 308.327 83.415 308.014 83.7139 307.621L84.6982 308.403C84.4932 308.714 84.2324 309.01 83.916 309.291C83.5996 309.572 83.21 309.801 82.7471 309.977C82.29 310.152 81.748 310.24 81.1211 310.24ZM88.3369 302.444V310.065H86.7021V300.555H88.249L88.3369 302.444ZM88.0029 304.949L87.2471 304.923C87.2529 304.273 87.3379 303.672 87.502 303.121C87.666 302.565 87.9092 302.081 88.2314 301.671C88.5537 301.261 88.9551 300.944 89.4355 300.722C89.916 300.493 90.4727 300.379 91.1055 300.379C91.5508 300.379 91.9609 300.443 92.3359 300.572C92.7109 300.695 93.0361 300.892 93.3115 301.161C93.5869 301.431 93.8008 301.776 93.9531 302.198C94.1055 302.62 94.1816 303.13 94.1816 303.728V310.065H92.5557V303.807C92.5557 303.309 92.4707 302.91 92.3008 302.611C92.1367 302.313 91.9023 302.096 91.5977 301.961C91.293 301.82 90.9355 301.75 90.5254 301.75C90.0449 301.75 89.6436 301.835 89.3213 302.005C88.999 302.175 88.7412 302.409 88.5479 302.708C88.3545 303.007 88.2139 303.35 88.126 303.736C88.0439 304.117 88.0029 304.522 88.0029 304.949ZM94.1641 304.053L93.0742 304.387C93.0801 303.865 93.165 303.364 93.3291 302.884C93.499 302.403 93.7422 301.976 94.0586 301.601C94.3809 301.226 94.7764 300.93 95.2451 300.713C95.7139 300.49 96.25 300.379 96.8535 300.379C97.3633 300.379 97.8145 300.446 98.207 300.581C98.6055 300.716 98.9395 300.924 99.209 301.205C99.4844 301.481 99.6924 301.835 99.833 302.269C99.9736 302.702 100.044 303.218 100.044 303.816V310.065H98.4092V303.798C98.4092 303.265 98.3242 302.852 98.1543 302.559C97.9902 302.26 97.7559 302.052 97.4512 301.935C97.1523 301.812 96.7949 301.75 96.3789 301.75C96.0215 301.75 95.7051 301.812 95.4297 301.935C95.1543 302.058 94.9229 302.228 94.7354 302.444C94.5479 302.655 94.4043 302.899 94.3047 303.174C94.2109 303.449 94.1641 303.742 94.1641 304.053ZM108.736 300.555V310.065H107.102V300.555H108.736ZM106.979 298.032C106.979 297.769 107.058 297.546 107.216 297.364C107.38 297.183 107.62 297.092 107.937 297.092C108.247 297.092 108.484 297.183 108.648 297.364C108.818 297.546 108.903 297.769 108.903 298.032C108.903 298.284 108.818 298.501 108.648 298.683C108.484 298.859 108.247 298.946 107.937 298.946C107.62 298.946 107.38 298.859 107.216 298.683C107.058 298.501 106.979 298.284 106.979 298.032ZM112.973 302.383V313.721H111.338V300.555H112.832L112.973 302.383ZM119.38 305.231V305.415C119.38 306.107 119.298 306.748 119.134 307.34C118.97 307.926 118.729 308.436 118.413 308.869C118.103 309.303 117.719 309.64 117.262 309.88C116.805 310.12 116.28 310.24 115.688 310.24C115.085 310.24 114.552 310.141 114.089 309.942C113.626 309.742 113.233 309.452 112.911 309.071C112.589 308.691 112.331 308.234 112.138 307.7C111.95 307.167 111.821 306.567 111.751 305.899V304.914C111.821 304.211 111.953 303.581 112.146 303.025C112.34 302.468 112.595 301.993 112.911 301.601C113.233 301.202 113.623 300.901 114.08 300.695C114.537 300.484 115.064 300.379 115.662 300.379C116.26 300.379 116.79 300.496 117.253 300.731C117.716 300.959 118.105 301.287 118.422 301.715C118.738 302.143 118.976 302.655 119.134 303.253C119.298 303.845 119.38 304.504 119.38 305.231ZM117.745 305.415V305.231C117.745 304.756 117.695 304.311 117.596 303.895C117.496 303.473 117.341 303.104 117.13 302.787C116.925 302.465 116.661 302.213 116.339 302.031C116.017 301.844 115.633 301.75 115.188 301.75C114.777 301.75 114.42 301.82 114.115 301.961C113.816 302.102 113.562 302.292 113.351 302.532C113.14 302.767 112.967 303.036 112.832 303.341C112.703 303.64 112.606 303.95 112.542 304.273V306.549C112.659 306.959 112.823 307.346 113.034 307.709C113.245 308.067 113.526 308.357 113.878 308.579C114.229 308.796 114.672 308.904 115.205 308.904C115.645 308.904 116.022 308.814 116.339 308.632C116.661 308.444 116.925 308.19 117.13 307.867C117.341 307.545 117.496 307.176 117.596 306.76C117.695 306.338 117.745 305.89 117.745 305.415ZM126.991 307.542C126.991 307.308 126.938 307.091 126.833 306.892C126.733 306.687 126.525 306.502 126.209 306.338C125.898 306.168 125.43 306.022 124.803 305.899C124.275 305.787 123.798 305.655 123.37 305.503C122.948 305.351 122.588 305.166 122.289 304.949C121.996 304.733 121.771 304.478 121.612 304.185C121.454 303.892 121.375 303.549 121.375 303.156C121.375 302.781 121.457 302.427 121.621 302.093C121.791 301.759 122.028 301.463 122.333 301.205C122.644 300.947 123.016 300.745 123.449 300.599C123.883 300.452 124.366 300.379 124.899 300.379C125.661 300.379 126.312 300.514 126.851 300.783C127.39 301.053 127.803 301.413 128.09 301.864C128.377 302.31 128.521 302.805 128.521 303.35H126.895C126.895 303.086 126.815 302.831 126.657 302.585C126.505 302.333 126.279 302.125 125.98 301.961C125.688 301.797 125.327 301.715 124.899 301.715C124.448 301.715 124.082 301.785 123.801 301.926C123.525 302.061 123.323 302.234 123.194 302.444C123.071 302.655 123.01 302.878 123.01 303.112C123.01 303.288 123.039 303.446 123.098 303.587C123.162 303.722 123.273 303.848 123.432 303.965C123.59 304.076 123.812 304.182 124.1 304.281C124.387 304.381 124.753 304.481 125.198 304.58C125.978 304.756 126.619 304.967 127.123 305.213C127.627 305.459 128.002 305.761 128.248 306.118C128.494 306.476 128.617 306.909 128.617 307.419C128.617 307.835 128.529 308.216 128.354 308.562C128.184 308.907 127.935 309.206 127.606 309.458C127.284 309.704 126.897 309.898 126.446 310.038C126.001 310.173 125.5 310.24 124.943 310.24C124.105 310.24 123.396 310.091 122.816 309.792C122.236 309.493 121.797 309.107 121.498 308.632C121.199 308.157 121.05 307.656 121.05 307.129H122.685C122.708 307.574 122.837 307.929 123.071 308.193C123.306 308.45 123.593 308.635 123.933 308.746C124.272 308.852 124.609 308.904 124.943 308.904C125.389 308.904 125.761 308.846 126.06 308.729C126.364 308.611 126.596 308.45 126.754 308.245C126.912 308.04 126.991 307.806 126.991 307.542ZM136.571 307.867V300.555H138.206V310.065H136.65L136.571 307.867ZM136.879 305.863L137.556 305.846C137.556 306.479 137.488 307.065 137.354 307.604C137.225 308.137 137.014 308.6 136.721 308.992C136.428 309.385 136.044 309.693 135.569 309.915C135.095 310.132 134.518 310.24 133.838 310.24C133.375 310.24 132.95 310.173 132.563 310.038C132.183 309.903 131.854 309.695 131.579 309.414C131.304 309.133 131.09 308.767 130.938 308.316C130.791 307.864 130.718 307.322 130.718 306.69V300.555H132.344V306.707C132.344 307.135 132.391 307.489 132.484 307.771C132.584 308.046 132.716 308.266 132.88 308.43C133.05 308.588 133.237 308.699 133.442 308.764C133.653 308.828 133.87 308.86 134.093 308.86C134.784 308.86 135.332 308.729 135.736 308.465C136.141 308.195 136.431 307.835 136.606 307.384C136.788 306.927 136.879 306.42 136.879 305.863ZM142.302 302.444V310.065H140.667V300.555H142.214L142.302 302.444ZM141.968 304.949L141.212 304.923C141.218 304.273 141.303 303.672 141.467 303.121C141.631 302.565 141.874 302.081 142.196 301.671C142.519 301.261 142.92 300.944 143.4 300.722C143.881 300.493 144.438 300.379 145.07 300.379C145.516 300.379 145.926 300.443 146.301 300.572C146.676 300.695 147.001 300.892 147.276 301.161C147.552 301.431 147.766 301.776 147.918 302.198C148.07 302.62 148.146 303.13 148.146 303.728V310.065H146.521V303.807C146.521 303.309 146.436 302.91 146.266 302.611C146.102 302.313 145.867 302.096 145.562 301.961C145.258 301.82 144.9 301.75 144.49 301.75C144.01 301.75 143.608 301.835 143.286 302.005C142.964 302.175 142.706 302.409 142.513 302.708C142.319 303.007 142.179 303.35 142.091 303.736C142.009 304.117 141.968 304.522 141.968 304.949ZM148.129 304.053L147.039 304.387C147.045 303.865 147.13 303.364 147.294 302.884C147.464 302.403 147.707 301.976 148.023 301.601C148.346 301.226 148.741 300.93 149.21 300.713C149.679 300.49 150.215 300.379 150.818 300.379C151.328 300.379 151.779 300.446 152.172 300.581C152.57 300.716 152.904 300.924 153.174 301.205C153.449 301.481 153.657 301.835 153.798 302.269C153.938 302.702 154.009 303.218 154.009 303.816V310.065H152.374V303.798C152.374 303.265 152.289 302.852 152.119 302.559C151.955 302.26 151.721 302.052 151.416 301.935C151.117 301.812 150.76 301.75 150.344 301.75C149.986 301.75 149.67 301.812 149.395 301.935C149.119 302.058 148.888 302.228 148.7 302.444C148.513 302.655 148.369 302.899 148.27 303.174C148.176 303.449 148.129 303.742 148.129 304.053ZM166.929 308.219V296.565H168.563V310.065H167.069L166.929 308.219ZM160.53 305.415V305.231C160.53 304.504 160.618 303.845 160.794 303.253C160.976 302.655 161.23 302.143 161.559 301.715C161.893 301.287 162.288 300.959 162.745 300.731C163.208 300.496 163.724 300.379 164.292 300.379C164.89 300.379 165.411 300.484 165.856 300.695C166.308 300.901 166.688 301.202 166.999 301.601C167.315 301.993 167.564 302.468 167.746 303.025C167.928 303.581 168.054 304.211 168.124 304.914V305.723C168.06 306.42 167.934 307.047 167.746 307.604C167.564 308.16 167.315 308.635 166.999 309.027C166.688 309.42 166.308 309.722 165.856 309.933C165.405 310.138 164.878 310.24 164.274 310.24C163.718 310.24 163.208 310.12 162.745 309.88C162.288 309.64 161.893 309.303 161.559 308.869C161.23 308.436 160.976 307.926 160.794 307.34C160.618 306.748 160.53 306.107 160.53 305.415ZM162.165 305.231V305.415C162.165 305.89 162.212 306.335 162.306 306.751C162.405 307.167 162.558 307.533 162.763 307.85C162.968 308.166 163.229 308.415 163.545 308.597C163.861 308.773 164.239 308.86 164.679 308.86C165.218 308.86 165.66 308.746 166.006 308.518C166.357 308.289 166.639 307.987 166.85 307.612C167.061 307.237 167.225 306.83 167.342 306.391V304.273C167.271 303.95 167.169 303.64 167.034 303.341C166.905 303.036 166.735 302.767 166.524 302.532C166.319 302.292 166.064 302.102 165.76 301.961C165.461 301.82 165.106 301.75 164.696 301.75C164.251 301.75 163.867 301.844 163.545 302.031C163.229 302.213 162.968 302.465 162.763 302.787C162.558 303.104 162.405 303.473 162.306 303.895C162.212 304.311 162.165 304.756 162.165 305.231ZM170.664 305.415V305.213C170.664 304.527 170.764 303.892 170.963 303.306C171.162 302.714 171.449 302.201 171.824 301.768C172.199 301.328 172.653 300.988 173.187 300.748C173.72 300.502 174.317 300.379 174.979 300.379C175.647 300.379 176.248 300.502 176.781 300.748C177.32 300.988 177.777 301.328 178.152 301.768C178.533 302.201 178.823 302.714 179.022 303.306C179.222 303.892 179.321 304.527 179.321 305.213V305.415C179.321 306.101 179.222 306.736 179.022 307.322C178.823 307.908 178.533 308.421 178.152 308.86C177.777 309.294 177.323 309.634 176.79 309.88C176.263 310.12 175.665 310.24 174.997 310.24C174.329 310.24 173.729 310.12 173.195 309.88C172.662 309.634 172.205 309.294 171.824 308.86C171.449 308.421 171.162 307.908 170.963 307.322C170.764 306.736 170.664 306.101 170.664 305.415ZM172.29 305.213V305.415C172.29 305.89 172.346 306.338 172.457 306.76C172.568 307.176 172.735 307.545 172.958 307.867C173.187 308.19 173.471 308.444 173.811 308.632C174.15 308.814 174.546 308.904 174.997 308.904C175.442 308.904 175.832 308.814 176.166 308.632C176.506 308.444 176.787 308.19 177.01 307.867C177.232 307.545 177.399 307.176 177.511 306.76C177.628 306.338 177.687 305.89 177.687 305.415V305.213C177.687 304.744 177.628 304.302 177.511 303.886C177.399 303.464 177.229 303.092 177.001 302.77C176.778 302.442 176.497 302.184 176.157 301.996C175.823 301.809 175.431 301.715 174.979 301.715C174.534 301.715 174.142 301.809 173.802 301.996C173.468 302.184 173.187 302.442 172.958 302.77C172.735 303.092 172.568 303.464 172.457 303.886C172.346 304.302 172.29 304.744 172.29 305.213ZM183.127 296.565V310.065H181.492V296.565H183.127ZM185.307 305.415V305.213C185.307 304.527 185.406 303.892 185.605 303.306C185.805 302.714 186.092 302.201 186.467 301.768C186.842 301.328 187.296 300.988 187.829 300.748C188.362 300.502 188.96 300.379 189.622 300.379C190.29 300.379 190.891 300.502 191.424 300.748C191.963 300.988 192.42 301.328 192.795 301.768C193.176 302.201 193.466 302.714 193.665 303.306C193.864 303.892 193.964 304.527 193.964 305.213V305.415C193.964 306.101 193.864 306.736 193.665 307.322C193.466 307.908 193.176 308.421 192.795 308.86C192.42 309.294 191.966 309.634 191.433 309.88C190.905 310.12 190.308 310.24 189.64 310.24C188.972 310.24 188.371 310.12 187.838 309.88C187.305 309.634 186.848 309.294 186.467 308.86C186.092 308.421 185.805 307.908 185.605 307.322C185.406 306.736 185.307 306.101 185.307 305.415ZM186.933 305.213V305.415C186.933 305.89 186.988 306.338 187.1 306.76C187.211 307.176 187.378 307.545 187.601 307.867C187.829 308.19 188.113 308.444 188.453 308.632C188.793 308.814 189.188 308.904 189.64 308.904C190.085 308.904 190.475 308.814 190.809 308.632C191.148 308.444 191.43 308.19 191.652 307.867C191.875 307.545 192.042 307.176 192.153 306.76C192.271 306.338 192.329 305.89 192.329 305.415V305.213C192.329 304.744 192.271 304.302 192.153 303.886C192.042 303.464 191.872 303.092 191.644 302.77C191.421 302.442 191.14 302.184 190.8 301.996C190.466 301.809 190.073 301.715 189.622 301.715C189.177 301.715 188.784 301.809 188.444 301.996C188.11 302.184 187.829 302.442 187.601 302.77C187.378 303.092 187.211 303.464 187.1 303.886C186.988 304.302 186.933 304.744 186.933 305.213ZM197.629 302.049V310.065H196.003V300.555H197.585L197.629 302.049ZM200.6 300.502L200.591 302.014C200.456 301.984 200.327 301.967 200.204 301.961C200.087 301.949 199.952 301.943 199.8 301.943C199.425 301.943 199.094 302.002 198.807 302.119C198.52 302.236 198.276 302.401 198.077 302.611C197.878 302.822 197.72 303.074 197.603 303.367C197.491 303.654 197.418 303.971 197.383 304.317L196.926 304.58C196.926 304.006 196.981 303.467 197.093 302.963C197.21 302.459 197.389 302.014 197.629 301.627C197.869 301.234 198.174 300.93 198.543 300.713C198.918 300.49 199.363 300.379 199.879 300.379C199.996 300.379 200.131 300.394 200.283 300.423C200.436 300.446 200.541 300.473 200.6 300.502ZM212.104 307.542C212.104 307.308 212.052 307.091 211.946 306.892C211.847 306.687 211.639 306.502 211.322 306.338C211.012 306.168 210.543 306.022 209.916 305.899C209.389 305.787 208.911 305.655 208.483 305.503C208.062 305.351 207.701 305.166 207.402 304.949C207.109 304.733 206.884 304.478 206.726 304.185C206.567 303.892 206.488 303.549 206.488 303.156C206.488 302.781 206.57 302.427 206.734 302.093C206.904 301.759 207.142 301.463 207.446 301.205C207.757 300.947 208.129 300.745 208.562 300.599C208.996 300.452 209.479 300.379 210.013 300.379C210.774 300.379 211.425 300.514 211.964 300.783C212.503 301.053 212.916 301.413 213.203 301.864C213.49 302.31 213.634 302.805 213.634 303.35H212.008C212.008 303.086 211.929 302.831 211.771 302.585C211.618 302.333 211.393 302.125 211.094 301.961C210.801 301.797 210.44 301.715 210.013 301.715C209.562 301.715 209.195 301.785 208.914 301.926C208.639 302.061 208.437 302.234 208.308 302.444C208.185 302.655 208.123 302.878 208.123 303.112C208.123 303.288 208.152 303.446 208.211 303.587C208.275 303.722 208.387 303.848 208.545 303.965C208.703 304.076 208.926 304.182 209.213 304.281C209.5 304.381 209.866 304.481 210.312 304.58C211.091 304.756 211.732 304.967 212.236 305.213C212.74 305.459 213.115 305.761 213.361 306.118C213.607 306.476 213.73 306.909 213.73 307.419C213.73 307.835 213.643 308.216 213.467 308.562C213.297 308.907 213.048 309.206 212.72 309.458C212.397 309.704 212.011 309.898 211.56 310.038C211.114 310.173 210.613 310.24 210.057 310.24C209.219 310.24 208.51 310.091 207.93 309.792C207.35 309.493 206.91 309.107 206.611 308.632C206.312 308.157 206.163 307.656 206.163 307.129H207.798C207.821 307.574 207.95 307.929 208.185 308.193C208.419 308.45 208.706 308.635 209.046 308.746C209.386 308.852 209.723 308.904 210.057 308.904C210.502 308.904 210.874 308.846 211.173 308.729C211.478 308.611 211.709 308.45 211.867 308.245C212.025 308.04 212.104 307.806 212.104 307.542ZM217.633 300.555V310.065H215.998V300.555H217.633ZM215.875 298.032C215.875 297.769 215.954 297.546 216.112 297.364C216.276 297.183 216.517 297.092 216.833 297.092C217.144 297.092 217.381 297.183 217.545 297.364C217.715 297.546 217.8 297.769 217.8 298.032C217.8 298.284 217.715 298.501 217.545 298.683C217.381 298.859 217.144 298.946 216.833 298.946C216.517 298.946 216.276 298.859 216.112 298.683C215.954 298.501 215.875 298.284 215.875 298.032ZM224.225 300.555V301.803H219.083V300.555H224.225ZM220.823 298.243H222.449V307.709C222.449 308.031 222.499 308.275 222.599 308.439C222.698 308.603 222.827 308.711 222.985 308.764C223.144 308.817 223.313 308.843 223.495 308.843C223.63 308.843 223.771 308.831 223.917 308.808C224.069 308.778 224.184 308.755 224.26 308.737L224.269 310.065C224.14 310.106 223.97 310.144 223.759 310.179C223.554 310.22 223.305 310.24 223.012 310.24C222.613 310.24 222.247 310.161 221.913 310.003C221.579 309.845 221.312 309.581 221.113 309.212C220.92 308.837 220.823 308.333 220.823 307.7V298.243ZM236.204 308.439V303.543C236.204 303.168 236.128 302.843 235.976 302.568C235.829 302.286 235.606 302.069 235.308 301.917C235.009 301.765 234.64 301.689 234.2 301.689C233.79 301.689 233.43 301.759 233.119 301.9C232.814 302.04 232.574 302.225 232.398 302.453C232.229 302.682 232.144 302.928 232.144 303.192H230.518C230.518 302.852 230.605 302.515 230.781 302.181C230.957 301.847 231.209 301.545 231.537 301.276C231.871 301 232.27 300.783 232.732 300.625C233.201 300.461 233.723 300.379 234.297 300.379C234.988 300.379 235.598 300.496 236.125 300.731C236.658 300.965 237.074 301.319 237.373 301.794C237.678 302.263 237.83 302.852 237.83 303.561V307.99C237.83 308.307 237.856 308.644 237.909 309.001C237.968 309.359 238.053 309.666 238.164 309.924V310.065H236.468C236.386 309.877 236.321 309.628 236.274 309.318C236.228 309.001 236.204 308.708 236.204 308.439ZM236.485 304.299L236.503 305.442H234.859C234.396 305.442 233.983 305.48 233.62 305.556C233.257 305.626 232.952 305.734 232.706 305.881C232.46 306.027 232.272 306.212 232.144 306.435C232.015 306.651 231.95 306.906 231.95 307.199C231.95 307.498 232.018 307.771 232.152 308.017C232.287 308.263 232.489 308.459 232.759 308.606C233.034 308.746 233.371 308.817 233.77 308.817C234.268 308.817 234.707 308.711 235.088 308.5C235.469 308.289 235.771 308.031 235.993 307.727C236.222 307.422 236.345 307.126 236.362 306.839L237.057 307.621C237.016 307.867 236.904 308.14 236.723 308.439C236.541 308.737 236.298 309.025 235.993 309.3C235.694 309.569 235.337 309.795 234.921 309.977C234.511 310.152 234.048 310.24 233.532 310.24C232.888 310.24 232.322 310.114 231.836 309.862C231.355 309.61 230.98 309.274 230.711 308.852C230.447 308.424 230.315 307.946 230.315 307.419C230.315 306.909 230.415 306.461 230.614 306.074C230.813 305.682 231.101 305.357 231.476 305.099C231.851 304.835 232.302 304.636 232.829 304.501C233.356 304.366 233.945 304.299 234.596 304.299H236.485ZM242.005 302.444V310.065H240.37V300.555H241.917L242.005 302.444ZM241.671 304.949L240.915 304.923C240.921 304.273 241.006 303.672 241.17 303.121C241.334 302.565 241.577 302.081 241.899 301.671C242.222 301.261 242.623 300.944 243.104 300.722C243.584 300.493 244.141 300.379 244.773 300.379C245.219 300.379 245.629 300.443 246.004 300.572C246.379 300.695 246.704 300.892 246.979 301.161C247.255 301.431 247.469 301.776 247.621 302.198C247.773 302.62 247.85 303.13 247.85 303.728V310.065H246.224V303.807C246.224 303.309 246.139 302.91 245.969 302.611C245.805 302.313 245.57 302.096 245.266 301.961C244.961 301.82 244.604 301.75 244.193 301.75C243.713 301.75 243.312 301.835 242.989 302.005C242.667 302.175 242.409 302.409 242.216 302.708C242.022 303.007 241.882 303.35 241.794 303.736C241.712 304.117 241.671 304.522 241.671 304.949ZM247.832 304.053L246.742 304.387C246.748 303.865 246.833 303.364 246.997 302.884C247.167 302.403 247.41 301.976 247.727 301.601C248.049 301.226 248.444 300.93 248.913 300.713C249.382 300.49 249.918 300.379 250.521 300.379C251.031 300.379 251.482 300.446 251.875 300.581C252.273 300.716 252.607 300.924 252.877 301.205C253.152 301.481 253.36 301.835 253.501 302.269C253.642 302.702 253.712 303.218 253.712 303.816V310.065H252.077V303.798C252.077 303.265 251.992 302.852 251.822 302.559C251.658 302.26 251.424 302.052 251.119 301.935C250.82 301.812 250.463 301.75 250.047 301.75C249.689 301.75 249.373 301.812 249.098 301.935C248.822 302.058 248.591 302.228 248.403 302.444C248.216 302.655 248.072 302.899 247.973 303.174C247.879 303.449 247.832 303.742 247.832 304.053ZM260.119 310.24C259.457 310.24 258.856 310.129 258.317 309.906C257.784 309.678 257.324 309.359 256.938 308.948C256.557 308.538 256.264 308.052 256.059 307.489C255.854 306.927 255.751 306.312 255.751 305.644V305.275C255.751 304.501 255.865 303.813 256.094 303.209C256.322 302.6 256.633 302.084 257.025 301.662C257.418 301.24 257.863 300.921 258.361 300.704C258.859 300.487 259.375 300.379 259.908 300.379C260.588 300.379 261.174 300.496 261.666 300.731C262.164 300.965 262.571 301.293 262.888 301.715C263.204 302.131 263.438 302.623 263.591 303.192C263.743 303.754 263.819 304.369 263.819 305.037V305.767H256.718V304.44H262.193V304.317C262.17 303.895 262.082 303.484 261.93 303.086C261.783 302.688 261.549 302.359 261.227 302.102C260.904 301.844 260.465 301.715 259.908 301.715C259.539 301.715 259.199 301.794 258.889 301.952C258.578 302.105 258.312 302.333 258.089 302.638C257.866 302.943 257.693 303.315 257.57 303.754C257.447 304.193 257.386 304.7 257.386 305.275V305.644C257.386 306.095 257.447 306.52 257.57 306.918C257.699 307.311 257.884 307.656 258.124 307.955C258.37 308.254 258.666 308.488 259.012 308.658C259.363 308.828 259.762 308.913 260.207 308.913C260.781 308.913 261.268 308.796 261.666 308.562C262.064 308.327 262.413 308.014 262.712 307.621L263.696 308.403C263.491 308.714 263.23 309.01 262.914 309.291C262.598 309.572 262.208 309.801 261.745 309.977C261.288 310.152 260.746 310.24 260.119 310.24ZM269.699 300.555V301.803H264.558V300.555H269.699ZM266.298 298.243H267.924V307.709C267.924 308.031 267.974 308.275 268.073 308.439C268.173 308.603 268.302 308.711 268.46 308.764C268.618 308.817 268.788 308.843 268.97 308.843C269.104 308.843 269.245 308.831 269.392 308.808C269.544 308.778 269.658 308.755 269.734 308.737L269.743 310.065C269.614 310.106 269.444 310.144 269.233 310.179C269.028 310.22 268.779 310.24 268.486 310.24C268.088 310.24 267.722 310.161 267.388 310.003C267.054 309.845 266.787 309.581 266.588 309.212C266.395 308.837 266.298 308.333 266.298 307.7V298.243ZM55.0879 334.904C55.4746 334.904 55.832 334.825 56.1602 334.667C56.4883 334.509 56.7578 334.292 56.9688 334.017C57.1797 333.735 57.2998 333.416 57.3291 333.059H58.876C58.8467 333.621 58.6562 334.146 58.3047 334.632C57.959 335.112 57.5049 335.502 56.9424 335.801C56.3799 336.094 55.7617 336.24 55.0879 336.24C54.373 336.24 53.749 336.114 53.2158 335.862C52.6885 335.61 52.249 335.265 51.8975 334.825C51.5518 334.386 51.291 333.882 51.1152 333.314C50.9453 332.739 50.8604 332.133 50.8604 331.494V331.125C50.8604 330.486 50.9453 329.883 51.1152 329.315C51.291 328.74 51.5518 328.234 51.8975 327.794C52.249 327.355 52.6885 327.009 53.2158 326.757C53.749 326.505 54.373 326.379 55.0879 326.379C55.832 326.379 56.4824 326.531 57.0391 326.836C57.5957 327.135 58.0322 327.545 58.3486 328.067C58.6709 328.582 58.8467 329.168 58.876 329.824H57.3291C57.2998 329.432 57.1885 329.077 56.9951 328.761C56.8076 328.444 56.5498 328.193 56.2217 328.005C55.8994 327.812 55.5215 327.715 55.0879 327.715C54.5898 327.715 54.1709 327.815 53.8311 328.014C53.4971 328.207 53.2305 328.471 53.0312 328.805C52.8379 329.133 52.6973 329.499 52.6094 329.903C52.5273 330.302 52.4863 330.709 52.4863 331.125V331.494C52.4863 331.91 52.5273 332.32 52.6094 332.725C52.6914 333.129 52.8291 333.495 53.0225 333.823C53.2217 334.151 53.4883 334.415 53.8223 334.614C54.1621 334.808 54.584 334.904 55.0879 334.904ZM60.2734 331.415V331.213C60.2734 330.527 60.373 329.892 60.5723 329.306C60.7715 328.714 61.0586 328.201 61.4336 327.768C61.8086 327.328 62.2627 326.988 62.7959 326.748C63.3291 326.502 63.9268 326.379 64.5889 326.379C65.2568 326.379 65.8574 326.502 66.3906 326.748C66.9297 326.988 67.3867 327.328 67.7617 327.768C68.1426 328.201 68.4326 328.714 68.6318 329.306C68.8311 329.892 68.9307 330.527 68.9307 331.213V331.415C68.9307 332.101 68.8311 332.736 68.6318 333.322C68.4326 333.908 68.1426 334.421 67.7617 334.86C67.3867 335.294 66.9326 335.634 66.3994 335.88C65.8721 336.12 65.2744 336.24 64.6064 336.24C63.9385 336.24 63.3379 336.12 62.8047 335.88C62.2715 335.634 61.8145 335.294 61.4336 334.86C61.0586 334.421 60.7715 333.908 60.5723 333.322C60.373 332.736 60.2734 332.101 60.2734 331.415ZM61.8994 331.213V331.415C61.8994 331.89 61.9551 332.338 62.0664 332.76C62.1777 333.176 62.3447 333.545 62.5674 333.867C62.7959 334.19 63.0801 334.444 63.4199 334.632C63.7598 334.814 64.1553 334.904 64.6064 334.904C65.0518 334.904 65.4414 334.814 65.7754 334.632C66.1152 334.444 66.3965 334.19 66.6191 333.867C66.8418 333.545 67.0088 333.176 67.1201 332.76C67.2373 332.338 67.2959 331.89 67.2959 331.415V331.213C67.2959 330.744 67.2373 330.302 67.1201 329.886C67.0088 329.464 66.8389 329.092 66.6104 328.77C66.3877 328.442 66.1064 328.184 65.7666 327.996C65.4326 327.809 65.04 327.715 64.5889 327.715C64.1436 327.715 63.751 327.809 63.4111 327.996C63.0771 328.184 62.7959 328.442 62.5674 328.77C62.3447 329.092 62.1777 329.464 62.0664 329.886C61.9551 330.302 61.8994 330.744 61.8994 331.213ZM72.5957 328.585V336.065H70.9697V326.555H72.5078L72.5957 328.585ZM72.209 330.949L71.5322 330.923C71.5381 330.273 71.6348 329.672 71.8223 329.121C72.0098 328.565 72.2734 328.081 72.6133 327.671C72.9531 327.261 73.3574 326.944 73.8262 326.722C74.3008 326.493 74.8252 326.379 75.3994 326.379C75.8682 326.379 76.29 326.443 76.665 326.572C77.04 326.695 77.3594 326.895 77.623 327.17C77.8926 327.445 78.0977 327.803 78.2383 328.242C78.3789 328.676 78.4492 329.206 78.4492 329.833V336.065H76.8145V329.816C76.8145 329.318 76.7412 328.919 76.5947 328.62C76.4482 328.316 76.2344 328.096 75.9531 327.961C75.6719 327.82 75.3262 327.75 74.916 327.75C74.5117 327.75 74.1426 327.835 73.8086 328.005C73.4805 328.175 73.1963 328.409 72.9561 328.708C72.7217 329.007 72.5371 329.35 72.4023 329.736C72.2734 330.117 72.209 330.522 72.209 330.949ZM86.4561 333.542C86.4561 333.308 86.4033 333.091 86.2979 332.892C86.1982 332.687 85.9902 332.502 85.6738 332.338C85.3633 332.168 84.8945 332.022 84.2676 331.899C83.7402 331.787 83.2627 331.655 82.835 331.503C82.4131 331.351 82.0527 331.166 81.7539 330.949C81.4609 330.733 81.2354 330.478 81.0771 330.185C80.9189 329.892 80.8398 329.549 80.8398 329.156C80.8398 328.781 80.9219 328.427 81.0859 328.093C81.2559 327.759 81.4932 327.463 81.7979 327.205C82.1084 326.947 82.4805 326.745 82.9141 326.599C83.3477 326.452 83.8311 326.379 84.3643 326.379C85.126 326.379 85.7764 326.514 86.3154 326.783C86.8545 327.053 87.2676 327.413 87.5547 327.864C87.8418 328.31 87.9854 328.805 87.9854 329.35H86.3594C86.3594 329.086 86.2803 328.831 86.1221 328.585C85.9697 328.333 85.7441 328.125 85.4453 327.961C85.1523 327.797 84.792 327.715 84.3643 327.715C83.9131 327.715 83.5469 327.785 83.2656 327.926C82.9902 328.061 82.7881 328.234 82.6592 328.444C82.5361 328.655 82.4746 328.878 82.4746 329.112C82.4746 329.288 82.5039 329.446 82.5625 329.587C82.627 329.722 82.7383 329.848 82.8965 329.965C83.0547 330.076 83.2773 330.182 83.5645 330.281C83.8516 330.381 84.2178 330.481 84.6631 330.58C85.4424 330.756 86.084 330.967 86.5879 331.213C87.0918 331.459 87.4668 331.761 87.7129 332.118C87.959 332.476 88.082 332.909 88.082 333.419C88.082 333.835 87.9941 334.216 87.8184 334.562C87.6484 334.907 87.3994 335.206 87.0713 335.458C86.749 335.704 86.3623 335.898 85.9111 336.038C85.4658 336.173 84.9648 336.24 84.4082 336.24C83.5703 336.24 82.8613 336.091 82.2812 335.792C81.7012 335.493 81.2617 335.107 80.9629 334.632C80.6641 334.157 80.5146 333.656 80.5146 333.129H82.1494C82.1729 333.574 82.3018 333.929 82.5361 334.193C82.7705 334.45 83.0576 334.635 83.3975 334.746C83.7373 334.852 84.0742 334.904 84.4082 334.904C84.8535 334.904 85.2256 334.846 85.5244 334.729C85.8291 334.611 86.0605 334.45 86.2188 334.245C86.377 334.04 86.4561 333.806 86.4561 333.542ZM94.1641 336.24C93.502 336.24 92.9014 336.129 92.3623 335.906C91.8291 335.678 91.3691 335.359 90.9824 334.948C90.6016 334.538 90.3086 334.052 90.1035 333.489C89.8984 332.927 89.7959 332.312 89.7959 331.644V331.275C89.7959 330.501 89.9102 329.813 90.1387 329.209C90.3672 328.6 90.6777 328.084 91.0703 327.662C91.4629 327.24 91.9082 326.921 92.4062 326.704C92.9043 326.487 93.4199 326.379 93.9531 326.379C94.6328 326.379 95.2188 326.496 95.7109 326.731C96.209 326.965 96.6162 327.293 96.9326 327.715C97.249 328.131 97.4834 328.623 97.6357 329.192C97.7881 329.754 97.8643 330.369 97.8643 331.037V331.767H90.7627V330.44H96.2383V330.317C96.2148 329.895 96.127 329.484 95.9746 329.086C95.8281 328.688 95.5938 328.359 95.2715 328.102C94.9492 327.844 94.5098 327.715 93.9531 327.715C93.584 327.715 93.2441 327.794 92.9336 327.952C92.623 328.105 92.3564 328.333 92.1338 328.638C91.9111 328.943 91.7383 329.315 91.6152 329.754C91.4922 330.193 91.4307 330.7 91.4307 331.275V331.644C91.4307 332.095 91.4922 332.52 91.6152 332.918C91.7441 333.311 91.9287 333.656 92.1689 333.955C92.415 334.254 92.7109 334.488 93.0566 334.658C93.4082 334.828 93.8066 334.913 94.252 334.913C94.8262 334.913 95.3125 334.796 95.7109 334.562C96.1094 334.327 96.458 334.014 96.7568 333.621L97.7412 334.403C97.5361 334.714 97.2754 335.01 96.959 335.291C96.6426 335.572 96.2529 335.801 95.79 335.977C95.333 336.152 94.791 336.24 94.1641 336.24ZM103.568 334.904C103.955 334.904 104.312 334.825 104.641 334.667C104.969 334.509 105.238 334.292 105.449 334.017C105.66 333.735 105.78 333.416 105.81 333.059H107.356C107.327 333.621 107.137 334.146 106.785 334.632C106.439 335.112 105.985 335.502 105.423 335.801C104.86 336.094 104.242 336.24 103.568 336.24C102.854 336.24 102.229 336.114 101.696 335.862C101.169 335.61 100.729 335.265 100.378 334.825C100.032 334.386 99.7715 333.882 99.5957 333.314C99.4258 332.739 99.3408 332.133 99.3408 331.494V331.125C99.3408 330.486 99.4258 329.883 99.5957 329.315C99.7715 328.74 100.032 328.234 100.378 327.794C100.729 327.355 101.169 327.009 101.696 326.757C102.229 326.505 102.854 326.379 103.568 326.379C104.312 326.379 104.963 326.531 105.52 326.836C106.076 327.135 106.513 327.545 106.829 328.067C107.151 328.582 107.327 329.168 107.356 329.824H105.81C105.78 329.432 105.669 329.077 105.476 328.761C105.288 328.444 105.03 328.193 104.702 328.005C104.38 327.812 104.002 327.715 103.568 327.715C103.07 327.715 102.651 327.815 102.312 328.014C101.978 328.207 101.711 328.471 101.512 328.805C101.318 329.133 101.178 329.499 101.09 329.903C101.008 330.302 100.967 330.709 100.967 331.125V331.494C100.967 331.91 101.008 332.32 101.09 332.725C101.172 333.129 101.31 333.495 101.503 333.823C101.702 334.151 101.969 334.415 102.303 334.614C102.643 334.808 103.064 334.904 103.568 334.904ZM113.166 326.555V327.803H108.024V326.555H113.166ZM109.765 324.243H111.391V333.709C111.391 334.031 111.44 334.275 111.54 334.439C111.64 334.603 111.769 334.711 111.927 334.764C112.085 334.817 112.255 334.843 112.437 334.843C112.571 334.843 112.712 334.831 112.858 334.808C113.011 334.778 113.125 334.755 113.201 334.737L113.21 336.065C113.081 336.106 112.911 336.144 112.7 336.179C112.495 336.22 112.246 336.24 111.953 336.24C111.555 336.24 111.188 336.161 110.854 336.003C110.521 335.845 110.254 335.581 110.055 335.212C109.861 334.837 109.765 334.333 109.765 333.7V324.243ZM119.02 336.24C118.357 336.24 117.757 336.129 117.218 335.906C116.685 335.678 116.225 335.359 115.838 334.948C115.457 334.538 115.164 334.052 114.959 333.489C114.754 332.927 114.651 332.312 114.651 331.644V331.275C114.651 330.501 114.766 329.813 114.994 329.209C115.223 328.6 115.533 328.084 115.926 327.662C116.318 327.24 116.764 326.921 117.262 326.704C117.76 326.487 118.275 326.379 118.809 326.379C119.488 326.379 120.074 326.496 120.566 326.731C121.064 326.965 121.472 327.293 121.788 327.715C122.104 328.131 122.339 328.623 122.491 329.192C122.644 329.754 122.72 330.369 122.72 331.037V331.767H115.618V330.44H121.094V330.317C121.07 329.895 120.982 329.484 120.83 329.086C120.684 328.688 120.449 328.359 120.127 328.102C119.805 327.844 119.365 327.715 118.809 327.715C118.439 327.715 118.1 327.794 117.789 327.952C117.479 328.105 117.212 328.333 116.989 328.638C116.767 328.943 116.594 329.315 116.471 329.754C116.348 330.193 116.286 330.7 116.286 331.275V331.644C116.286 332.095 116.348 332.52 116.471 332.918C116.6 333.311 116.784 333.656 117.024 333.955C117.271 334.254 117.566 334.488 117.912 334.658C118.264 334.828 118.662 334.913 119.107 334.913C119.682 334.913 120.168 334.796 120.566 334.562C120.965 334.327 121.313 334.014 121.612 333.621L122.597 334.403C122.392 334.714 122.131 335.01 121.814 335.291C121.498 335.572 121.108 335.801 120.646 335.977C120.188 336.152 119.646 336.24 119.02 336.24ZM128.6 326.555V327.803H123.458V326.555H128.6ZM125.198 324.243H126.824V333.709C126.824 334.031 126.874 334.275 126.974 334.439C127.073 334.603 127.202 334.711 127.36 334.764C127.519 334.817 127.688 334.843 127.87 334.843C128.005 334.843 128.146 334.831 128.292 334.808C128.444 334.778 128.559 334.755 128.635 334.737L128.644 336.065C128.515 336.106 128.345 336.144 128.134 336.179C127.929 336.22 127.68 336.24 127.387 336.24C126.988 336.24 126.622 336.161 126.288 336.003C125.954 335.845 125.688 335.581 125.488 335.212C125.295 334.837 125.198 334.333 125.198 333.7V324.243ZM136.325 333.867V326.555H137.96V336.065H136.404L136.325 333.867ZM136.633 331.863L137.31 331.846C137.31 332.479 137.242 333.065 137.107 333.604C136.979 334.137 136.768 334.6 136.475 334.992C136.182 335.385 135.798 335.693 135.323 335.915C134.849 336.132 134.271 336.24 133.592 336.24C133.129 336.24 132.704 336.173 132.317 336.038C131.937 335.903 131.608 335.695 131.333 335.414C131.058 335.133 130.844 334.767 130.691 334.316C130.545 333.864 130.472 333.322 130.472 332.69V326.555H132.098V332.707C132.098 333.135 132.145 333.489 132.238 333.771C132.338 334.046 132.47 334.266 132.634 334.43C132.804 334.588 132.991 334.699 133.196 334.764C133.407 334.828 133.624 334.86 133.847 334.86C134.538 334.86 135.086 334.729 135.49 334.465C135.895 334.195 136.185 333.835 136.36 333.384C136.542 332.927 136.633 332.42 136.633 331.863ZM142.064 328.049V336.065H140.438V326.555H142.021L142.064 328.049ZM145.035 326.502L145.026 328.014C144.892 327.984 144.763 327.967 144.64 327.961C144.522 327.949 144.388 327.943 144.235 327.943C143.86 327.943 143.529 328.002 143.242 328.119C142.955 328.236 142.712 328.401 142.513 328.611C142.313 328.822 142.155 329.074 142.038 329.367C141.927 329.654 141.854 329.971 141.818 330.317L141.361 330.58C141.361 330.006 141.417 329.467 141.528 328.963C141.646 328.459 141.824 328.014 142.064 327.627C142.305 327.234 142.609 326.93 142.979 326.713C143.354 326.49 143.799 326.379 144.314 326.379C144.432 326.379 144.566 326.394 144.719 326.423C144.871 326.446 144.977 326.473 145.035 326.502ZM145.475 335.203C145.475 334.928 145.56 334.696 145.729 334.509C145.905 334.316 146.157 334.219 146.485 334.219C146.813 334.219 147.062 334.316 147.232 334.509C147.408 334.696 147.496 334.928 147.496 335.203C147.496 335.473 147.408 335.701 147.232 335.889C147.062 336.076 146.813 336.17 146.485 336.17C146.157 336.17 145.905 336.076 145.729 335.889C145.56 335.701 145.475 335.473 145.475 335.203ZM162.631 331.995H164.318C164.23 332.804 163.999 333.527 163.624 334.166C163.249 334.805 162.719 335.312 162.033 335.687C161.348 336.056 160.492 336.24 159.467 336.24C158.717 336.24 158.034 336.1 157.419 335.818C156.81 335.537 156.285 335.139 155.846 334.623C155.406 334.102 155.066 333.478 154.826 332.751C154.592 332.019 154.475 331.204 154.475 330.308V329.033C154.475 328.137 154.592 327.325 154.826 326.599C155.066 325.866 155.409 325.239 155.854 324.718C156.306 324.196 156.848 323.795 157.48 323.514C158.113 323.233 158.825 323.092 159.616 323.092C160.583 323.092 161.4 323.274 162.068 323.637C162.736 324 163.255 324.504 163.624 325.149C163.999 325.787 164.23 326.528 164.318 327.372H162.631C162.549 326.775 162.396 326.262 162.174 325.834C161.951 325.401 161.635 325.067 161.225 324.832C160.814 324.598 160.278 324.481 159.616 324.481C159.048 324.481 158.547 324.589 158.113 324.806C157.686 325.023 157.325 325.33 157.032 325.729C156.745 326.127 156.528 326.605 156.382 327.161C156.235 327.718 156.162 328.336 156.162 329.016V330.308C156.162 330.935 156.227 331.524 156.355 332.074C156.49 332.625 156.692 333.109 156.962 333.525C157.231 333.941 157.574 334.269 157.99 334.509C158.406 334.743 158.898 334.86 159.467 334.86C160.188 334.86 160.762 334.746 161.189 334.518C161.617 334.289 161.939 333.961 162.156 333.533C162.379 333.106 162.537 332.593 162.631 331.995ZM172.202 333.867V326.555H173.837V336.065H172.281L172.202 333.867ZM172.51 331.863L173.187 331.846C173.187 332.479 173.119 333.065 172.984 333.604C172.855 334.137 172.645 334.6 172.352 334.992C172.059 335.385 171.675 335.693 171.2 335.915C170.726 336.132 170.148 336.24 169.469 336.24C169.006 336.24 168.581 336.173 168.194 336.038C167.813 335.903 167.485 335.695 167.21 335.414C166.935 335.133 166.721 334.767 166.568 334.316C166.422 333.864 166.349 333.322 166.349 332.69V326.555H167.975V332.707C167.975 333.135 168.021 333.489 168.115 333.771C168.215 334.046 168.347 334.266 168.511 334.43C168.681 334.588 168.868 334.699 169.073 334.764C169.284 334.828 169.501 334.86 169.724 334.86C170.415 334.86 170.963 334.729 171.367 334.465C171.771 334.195 172.062 333.835 172.237 333.384C172.419 332.927 172.51 332.42 172.51 331.863ZM177.941 328.049V336.065H176.315V326.555H177.897L177.941 328.049ZM180.912 326.502L180.903 328.014C180.769 327.984 180.64 327.967 180.517 327.961C180.399 327.949 180.265 327.943 180.112 327.943C179.737 327.943 179.406 328.002 179.119 328.119C178.832 328.236 178.589 328.401 178.39 328.611C178.19 328.822 178.032 329.074 177.915 329.367C177.804 329.654 177.73 329.971 177.695 330.317L177.238 330.58C177.238 330.006 177.294 329.467 177.405 328.963C177.522 328.459 177.701 328.014 177.941 327.627C178.182 327.234 178.486 326.93 178.855 326.713C179.23 326.49 179.676 326.379 180.191 326.379C180.309 326.379 180.443 326.394 180.596 326.423C180.748 326.446 180.854 326.473 180.912 326.502ZM187.952 333.542C187.952 333.308 187.899 333.091 187.794 332.892C187.694 332.687 187.486 332.502 187.17 332.338C186.859 332.168 186.391 332.022 185.764 331.899C185.236 331.787 184.759 331.655 184.331 331.503C183.909 331.351 183.549 331.166 183.25 330.949C182.957 330.733 182.731 330.478 182.573 330.185C182.415 329.892 182.336 329.549 182.336 329.156C182.336 328.781 182.418 328.427 182.582 328.093C182.752 327.759 182.989 327.463 183.294 327.205C183.604 326.947 183.977 326.745 184.41 326.599C184.844 326.452 185.327 326.379 185.86 326.379C186.622 326.379 187.272 326.514 187.812 326.783C188.351 327.053 188.764 327.413 189.051 327.864C189.338 328.31 189.481 328.805 189.481 329.35H187.855C187.855 329.086 187.776 328.831 187.618 328.585C187.466 328.333 187.24 328.125 186.941 327.961C186.648 327.797 186.288 327.715 185.86 327.715C185.409 327.715 185.043 327.785 184.762 327.926C184.486 328.061 184.284 328.234 184.155 328.444C184.032 328.655 183.971 328.878 183.971 329.112C183.971 329.288 184 329.446 184.059 329.587C184.123 329.722 184.234 329.848 184.393 329.965C184.551 330.076 184.773 330.182 185.061 330.281C185.348 330.381 185.714 330.481 186.159 330.58C186.938 330.756 187.58 330.967 188.084 331.213C188.588 331.459 188.963 331.761 189.209 332.118C189.455 332.476 189.578 332.909 189.578 333.419C189.578 333.835 189.49 334.216 189.314 334.562C189.145 334.907 188.896 335.206 188.567 335.458C188.245 335.704 187.858 335.898 187.407 336.038C186.962 336.173 186.461 336.24 185.904 336.24C185.066 336.24 184.357 336.091 183.777 335.792C183.197 335.493 182.758 335.107 182.459 334.632C182.16 334.157 182.011 333.656 182.011 333.129H183.646C183.669 333.574 183.798 333.929 184.032 334.193C184.267 334.45 184.554 334.635 184.894 334.746C185.233 334.852 185.57 334.904 185.904 334.904C186.35 334.904 186.722 334.846 187.021 334.729C187.325 334.611 187.557 334.45 187.715 334.245C187.873 334.04 187.952 333.806 187.952 333.542ZM197.532 333.867V326.555H199.167V336.065H197.611L197.532 333.867ZM197.84 331.863L198.517 331.846C198.517 332.479 198.449 333.065 198.314 333.604C198.186 334.137 197.975 334.6 197.682 334.992C197.389 335.385 197.005 335.693 196.53 335.915C196.056 336.132 195.479 336.24 194.799 336.24C194.336 336.24 193.911 336.173 193.524 336.038C193.144 335.903 192.815 335.695 192.54 335.414C192.265 335.133 192.051 334.767 191.898 334.316C191.752 333.864 191.679 333.322 191.679 332.69V326.555H193.305V332.707C193.305 333.135 193.352 333.489 193.445 333.771C193.545 334.046 193.677 334.266 193.841 334.43C194.011 334.588 194.198 334.699 194.403 334.764C194.614 334.828 194.831 334.86 195.054 334.86C195.745 334.86 196.293 334.729 196.697 334.465C197.102 334.195 197.392 333.835 197.567 333.384C197.749 332.927 197.84 332.42 197.84 331.863ZM207.183 333.542C207.183 333.308 207.13 333.091 207.024 332.892C206.925 332.687 206.717 332.502 206.4 332.338C206.09 332.168 205.621 332.022 204.994 331.899C204.467 331.787 203.989 331.655 203.562 331.503C203.14 331.351 202.779 331.166 202.48 330.949C202.188 330.733 201.962 330.478 201.804 330.185C201.646 329.892 201.566 329.549 201.566 329.156C201.566 328.781 201.648 328.427 201.812 328.093C201.982 327.759 202.22 327.463 202.524 327.205C202.835 326.947 203.207 326.745 203.641 326.599C204.074 326.452 204.558 326.379 205.091 326.379C205.853 326.379 206.503 326.514 207.042 326.783C207.581 327.053 207.994 327.413 208.281 327.864C208.568 328.31 208.712 328.805 208.712 329.35H207.086C207.086 329.086 207.007 328.831 206.849 328.585C206.696 328.333 206.471 328.125 206.172 327.961C205.879 327.797 205.519 327.715 205.091 327.715C204.64 327.715 204.273 327.785 203.992 327.926C203.717 328.061 203.515 328.234 203.386 328.444C203.263 328.655 203.201 328.878 203.201 329.112C203.201 329.288 203.23 329.446 203.289 329.587C203.354 329.722 203.465 329.848 203.623 329.965C203.781 330.076 204.004 330.182 204.291 330.281C204.578 330.381 204.944 330.481 205.39 330.58C206.169 330.756 206.811 330.967 207.314 331.213C207.818 331.459 208.193 331.761 208.439 332.118C208.686 332.476 208.809 332.909 208.809 333.419C208.809 333.835 208.721 334.216 208.545 334.562C208.375 334.907 208.126 335.206 207.798 335.458C207.476 335.704 207.089 335.898 206.638 336.038C206.192 336.173 205.691 336.24 205.135 336.24C204.297 336.24 203.588 336.091 203.008 335.792C202.428 335.493 201.988 335.107 201.689 334.632C201.391 334.157 201.241 333.656 201.241 333.129H202.876C202.899 333.574 203.028 333.929 203.263 334.193C203.497 334.45 203.784 334.635 204.124 334.746C204.464 334.852 204.801 334.904 205.135 334.904C205.58 334.904 205.952 334.846 206.251 334.729C206.556 334.611 206.787 334.45 206.945 334.245C207.104 334.04 207.183 333.806 207.183 333.542ZM221.403 334.219V322.565H223.038V336.065H221.544L221.403 334.219ZM215.005 331.415V331.231C215.005 330.504 215.093 329.845 215.269 329.253C215.45 328.655 215.705 328.143 216.033 327.715C216.367 327.287 216.763 326.959 217.22 326.731C217.683 326.496 218.198 326.379 218.767 326.379C219.364 326.379 219.886 326.484 220.331 326.695C220.782 326.901 221.163 327.202 221.474 327.601C221.79 327.993 222.039 328.468 222.221 329.025C222.402 329.581 222.528 330.211 222.599 330.914V331.723C222.534 332.42 222.408 333.047 222.221 333.604C222.039 334.16 221.79 334.635 221.474 335.027C221.163 335.42 220.782 335.722 220.331 335.933C219.88 336.138 219.353 336.24 218.749 336.24C218.192 336.24 217.683 336.12 217.22 335.88C216.763 335.64 216.367 335.303 216.033 334.869C215.705 334.436 215.45 333.926 215.269 333.34C215.093 332.748 215.005 332.107 215.005 331.415ZM216.64 331.231V331.415C216.64 331.89 216.687 332.335 216.78 332.751C216.88 333.167 217.032 333.533 217.237 333.85C217.442 334.166 217.703 334.415 218.02 334.597C218.336 334.773 218.714 334.86 219.153 334.86C219.692 334.86 220.135 334.746 220.48 334.518C220.832 334.289 221.113 333.987 221.324 333.612C221.535 333.237 221.699 332.83 221.816 332.391V330.273C221.746 329.95 221.644 329.64 221.509 329.341C221.38 329.036 221.21 328.767 220.999 328.532C220.794 328.292 220.539 328.102 220.234 327.961C219.936 327.82 219.581 327.75 219.171 327.75C218.726 327.75 218.342 327.844 218.02 328.031C217.703 328.213 217.442 328.465 217.237 328.787C217.032 329.104 216.88 329.473 216.78 329.895C216.687 330.311 216.64 330.756 216.64 331.231ZM227.336 326.555V336.065H225.701V326.555H227.336ZM225.578 324.032C225.578 323.769 225.657 323.546 225.815 323.364C225.979 323.183 226.22 323.092 226.536 323.092C226.847 323.092 227.084 323.183 227.248 323.364C227.418 323.546 227.503 323.769 227.503 324.032C227.503 324.284 227.418 324.501 227.248 324.683C227.084 324.859 226.847 324.946 226.536 324.946C226.22 324.946 225.979 324.859 225.815 324.683C225.657 324.501 225.578 324.284 225.578 324.032ZM235.554 334.439V329.543C235.554 329.168 235.478 328.843 235.325 328.568C235.179 328.286 234.956 328.069 234.657 327.917C234.358 327.765 233.989 327.689 233.55 327.689C233.14 327.689 232.779 327.759 232.469 327.9C232.164 328.04 231.924 328.225 231.748 328.453C231.578 328.682 231.493 328.928 231.493 329.192H229.867C229.867 328.852 229.955 328.515 230.131 328.181C230.307 327.847 230.559 327.545 230.887 327.276C231.221 327 231.619 326.783 232.082 326.625C232.551 326.461 233.072 326.379 233.646 326.379C234.338 326.379 234.947 326.496 235.475 326.731C236.008 326.965 236.424 327.319 236.723 327.794C237.027 328.263 237.18 328.852 237.18 329.561V333.99C237.18 334.307 237.206 334.644 237.259 335.001C237.317 335.359 237.402 335.666 237.514 335.924V336.065H235.817C235.735 335.877 235.671 335.628 235.624 335.318C235.577 335.001 235.554 334.708 235.554 334.439ZM235.835 330.299L235.853 331.442H234.209C233.746 331.442 233.333 331.48 232.97 331.556C232.606 331.626 232.302 331.734 232.056 331.881C231.81 332.027 231.622 332.212 231.493 332.435C231.364 332.651 231.3 332.906 231.3 333.199C231.3 333.498 231.367 333.771 231.502 334.017C231.637 334.263 231.839 334.459 232.108 334.606C232.384 334.746 232.721 334.817 233.119 334.817C233.617 334.817 234.057 334.711 234.438 334.5C234.818 334.289 235.12 334.031 235.343 333.727C235.571 333.422 235.694 333.126 235.712 332.839L236.406 333.621C236.365 333.867 236.254 334.14 236.072 334.439C235.891 334.737 235.647 335.025 235.343 335.3C235.044 335.569 234.687 335.795 234.271 335.977C233.86 336.152 233.397 336.24 232.882 336.24C232.237 336.24 231.672 336.114 231.186 335.862C230.705 335.61 230.33 335.274 230.061 334.852C229.797 334.424 229.665 333.946 229.665 333.419C229.665 332.909 229.765 332.461 229.964 332.074C230.163 331.682 230.45 331.357 230.825 331.099C231.2 330.835 231.651 330.636 232.179 330.501C232.706 330.366 233.295 330.299 233.945 330.299H235.835ZM241.354 328.444V336.065H239.72V326.555H241.267L241.354 328.444ZM241.021 330.949L240.265 330.923C240.271 330.273 240.355 329.672 240.52 329.121C240.684 328.565 240.927 328.081 241.249 327.671C241.571 327.261 241.973 326.944 242.453 326.722C242.934 326.493 243.49 326.379 244.123 326.379C244.568 326.379 244.979 326.443 245.354 326.572C245.729 326.695 246.054 326.892 246.329 327.161C246.604 327.431 246.818 327.776 246.971 328.198C247.123 328.62 247.199 329.13 247.199 329.728V336.065H245.573V329.807C245.573 329.309 245.488 328.91 245.318 328.611C245.154 328.313 244.92 328.096 244.615 327.961C244.311 327.82 243.953 327.75 243.543 327.75C243.062 327.75 242.661 327.835 242.339 328.005C242.017 328.175 241.759 328.409 241.565 328.708C241.372 329.007 241.231 329.35 241.144 329.736C241.062 330.117 241.021 330.522 241.021 330.949ZM247.182 330.053L246.092 330.387C246.098 329.865 246.183 329.364 246.347 328.884C246.517 328.403 246.76 327.976 247.076 327.601C247.398 327.226 247.794 326.93 248.263 326.713C248.731 326.49 249.268 326.379 249.871 326.379C250.381 326.379 250.832 326.446 251.225 326.581C251.623 326.716 251.957 326.924 252.227 327.205C252.502 327.481 252.71 327.835 252.851 328.269C252.991 328.702 253.062 329.218 253.062 329.816V336.065H251.427V329.798C251.427 329.265 251.342 328.852 251.172 328.559C251.008 328.26 250.773 328.052 250.469 327.935C250.17 327.812 249.812 327.75 249.396 327.75C249.039 327.75 248.723 327.812 248.447 327.935C248.172 328.058 247.94 328.228 247.753 328.444C247.565 328.655 247.422 328.899 247.322 329.174C247.229 329.449 247.182 329.742 247.182 330.053ZM261.754 326.555V336.065H260.119V326.555H261.754ZM259.996 324.032C259.996 323.769 260.075 323.546 260.233 323.364C260.397 323.183 260.638 323.092 260.954 323.092C261.265 323.092 261.502 323.183 261.666 323.364C261.836 323.546 261.921 323.769 261.921 324.032C261.921 324.284 261.836 324.501 261.666 324.683C261.502 324.859 261.265 324.946 260.954 324.946C260.638 324.946 260.397 324.859 260.233 324.683C260.075 324.501 259.996 324.284 259.996 324.032ZM270.358 334.219V322.565H271.993V336.065H270.499L270.358 334.219ZM263.96 331.415V331.231C263.96 330.504 264.048 329.845 264.224 329.253C264.405 328.655 264.66 328.143 264.988 327.715C265.322 327.287 265.718 326.959 266.175 326.731C266.638 326.496 267.153 326.379 267.722 326.379C268.319 326.379 268.841 326.484 269.286 326.695C269.737 326.901 270.118 327.202 270.429 327.601C270.745 327.993 270.994 328.468 271.176 329.025C271.357 329.581 271.483 330.211 271.554 330.914V331.723C271.489 332.42 271.363 333.047 271.176 333.604C270.994 334.16 270.745 334.635 270.429 335.027C270.118 335.42 269.737 335.722 269.286 335.933C268.835 336.138 268.308 336.24 267.704 336.24C267.147 336.24 266.638 336.12 266.175 335.88C265.718 335.64 265.322 335.303 264.988 334.869C264.66 334.436 264.405 333.926 264.224 333.34C264.048 332.748 263.96 332.107 263.96 331.415ZM265.595 331.231V331.415C265.595 331.89 265.642 332.335 265.735 332.751C265.835 333.167 265.987 333.533 266.192 333.85C266.397 334.166 266.658 334.415 266.975 334.597C267.291 334.773 267.669 334.86 268.108 334.86C268.647 334.86 269.09 334.746 269.436 334.518C269.787 334.289 270.068 333.987 270.279 333.612C270.49 333.237 270.654 332.83 270.771 332.391V330.273C270.701 329.95 270.599 329.64 270.464 329.341C270.335 329.036 270.165 328.767 269.954 328.532C269.749 328.292 269.494 328.102 269.189 327.961C268.891 327.82 268.536 327.75 268.126 327.75C267.681 327.75 267.297 327.844 266.975 328.031C266.658 328.213 266.397 328.465 266.192 328.787C265.987 329.104 265.835 329.473 265.735 329.895C265.642 330.311 265.595 330.756 265.595 331.231ZM280.756 322.565V336.065H279.121V322.565H280.756ZM289.185 333.867V326.555H290.819V336.065H289.264L289.185 333.867ZM289.492 331.863L290.169 331.846C290.169 332.479 290.102 333.065 289.967 333.604C289.838 334.137 289.627 334.6 289.334 334.992C289.041 335.385 288.657 335.693 288.183 335.915C287.708 336.132 287.131 336.24 286.451 336.24C285.988 336.24 285.563 336.173 285.177 336.038C284.796 335.903 284.468 335.695 284.192 335.414C283.917 335.133 283.703 334.767 283.551 334.316C283.404 333.864 283.331 333.322 283.331 332.69V326.555H284.957V332.707C284.957 333.135 285.004 333.489 285.098 333.771C285.197 334.046 285.329 334.266 285.493 334.43C285.663 334.588 285.851 334.699 286.056 334.764C286.267 334.828 286.483 334.86 286.706 334.86C287.397 334.86 287.945 334.729 288.35 334.465C288.754 334.195 289.044 333.835 289.22 333.384C289.401 332.927 289.492 332.42 289.492 331.863ZM297.104 334.904C297.49 334.904 297.848 334.825 298.176 334.667C298.504 334.509 298.773 334.292 298.984 334.017C299.195 333.735 299.315 333.416 299.345 333.059H300.892C300.862 333.621 300.672 334.146 300.32 334.632C299.975 335.112 299.521 335.502 298.958 335.801C298.396 336.094 297.777 336.24 297.104 336.24C296.389 336.24 295.765 336.114 295.231 335.862C294.704 335.61 294.265 335.265 293.913 334.825C293.567 334.386 293.307 333.882 293.131 333.314C292.961 332.739 292.876 332.133 292.876 331.494V331.125C292.876 330.486 292.961 329.883 293.131 329.315C293.307 328.74 293.567 328.234 293.913 327.794C294.265 327.355 294.704 327.009 295.231 326.757C295.765 326.505 296.389 326.379 297.104 326.379C297.848 326.379 298.498 326.531 299.055 326.836C299.611 327.135 300.048 327.545 300.364 328.067C300.687 328.582 300.862 329.168 300.892 329.824H299.345C299.315 329.432 299.204 329.077 299.011 328.761C298.823 328.444 298.565 328.193 298.237 328.005C297.915 327.812 297.537 327.715 297.104 327.715C296.605 327.715 296.187 327.815 295.847 328.014C295.513 328.207 295.246 328.471 295.047 328.805C294.854 329.133 294.713 329.499 294.625 329.903C294.543 330.302 294.502 330.709 294.502 331.125V331.494C294.502 331.91 294.543 332.32 294.625 332.725C294.707 333.129 294.845 333.495 295.038 333.823C295.237 334.151 295.504 334.415 295.838 334.614C296.178 334.808 296.6 334.904 297.104 334.904ZM306.701 326.555V327.803H301.56V326.555H306.701ZM303.3 324.243H304.926V333.709C304.926 334.031 304.976 334.275 305.075 334.439C305.175 334.603 305.304 334.711 305.462 334.764C305.62 334.817 305.79 334.843 305.972 334.843C306.106 334.843 306.247 334.831 306.394 334.808C306.546 334.778 306.66 334.755 306.736 334.737L306.745 336.065C306.616 336.106 306.446 336.144 306.235 336.179C306.03 336.22 305.781 336.24 305.488 336.24C305.09 336.24 304.724 336.161 304.39 336.003C304.056 335.845 303.789 335.581 303.59 335.212C303.396 334.837 303.3 334.333 303.3 333.7V324.243ZM314.427 333.867V326.555H316.062V336.065H314.506L314.427 333.867ZM314.734 331.863L315.411 331.846C315.411 332.479 315.344 333.065 315.209 333.604C315.08 334.137 314.869 334.6 314.576 334.992C314.283 335.385 313.899 335.693 313.425 335.915C312.95 336.132 312.373 336.24 311.693 336.24C311.23 336.24 310.806 336.173 310.419 336.038C310.038 335.903 309.71 335.695 309.435 335.414C309.159 335.133 308.945 334.767 308.793 334.316C308.646 333.864 308.573 333.322 308.573 332.69V326.555H310.199V332.707C310.199 333.135 310.246 333.489 310.34 333.771C310.439 334.046 310.571 334.266 310.735 334.43C310.905 334.588 311.093 334.699 311.298 334.764C311.509 334.828 311.726 334.86 311.948 334.86C312.64 334.86 313.188 334.729 313.592 334.465C313.996 334.195 314.286 333.835 314.462 333.384C314.644 332.927 314.734 332.42 314.734 331.863ZM324.077 333.542C324.077 333.308 324.024 333.091 323.919 332.892C323.819 332.687 323.611 332.502 323.295 332.338C322.984 332.168 322.516 332.022 321.889 331.899C321.361 331.787 320.884 331.655 320.456 331.503C320.034 331.351 319.674 331.166 319.375 330.949C319.082 330.733 318.856 330.478 318.698 330.185C318.54 329.892 318.461 329.549 318.461 329.156C318.461 328.781 318.543 328.427 318.707 328.093C318.877 327.759 319.114 327.463 319.419 327.205C319.729 326.947 320.102 326.745 320.535 326.599C320.969 326.452 321.452 326.379 321.985 326.379C322.747 326.379 323.397 326.514 323.937 326.783C324.476 327.053 324.889 327.413 325.176 327.864C325.463 328.31 325.606 328.805 325.606 329.35H323.98C323.98 329.086 323.901 328.831 323.743 328.585C323.591 328.333 323.365 328.125 323.066 327.961C322.773 327.797 322.413 327.715 321.985 327.715C321.534 327.715 321.168 327.785 320.887 327.926C320.611 328.061 320.409 328.234 320.28 328.444C320.157 328.655 320.096 328.878 320.096 329.112C320.096 329.288 320.125 329.446 320.184 329.587C320.248 329.722 320.359 329.848 320.518 329.965C320.676 330.076 320.898 330.182 321.186 330.281C321.473 330.381 321.839 330.481 322.284 330.58C323.063 330.756 323.705 330.967 324.209 331.213C324.713 331.459 325.088 331.761 325.334 332.118C325.58 332.476 325.703 332.909 325.703 333.419C325.703 333.835 325.615 334.216 325.439 334.562C325.27 334.907 325.021 335.206 324.692 335.458C324.37 335.704 323.983 335.898 323.532 336.038C323.087 336.173 322.586 336.24 322.029 336.24C321.191 336.24 320.482 336.091 319.902 335.792C319.322 335.493 318.883 335.107 318.584 334.632C318.285 334.157 318.136 333.656 318.136 333.129H319.771C319.794 333.574 319.923 333.929 320.157 334.193C320.392 334.45 320.679 334.635 321.019 334.746C321.358 334.852 321.695 334.904 322.029 334.904C322.475 334.904 322.847 334.846 323.146 334.729C323.45 334.611 323.682 334.45 323.84 334.245C323.998 334.04 324.077 333.806 324.077 333.542ZM327.865 335.203C327.865 334.928 327.95 334.696 328.12 334.509C328.296 334.316 328.548 334.219 328.876 334.219C329.204 334.219 329.453 334.316 329.623 334.509C329.799 334.696 329.887 334.928 329.887 335.203C329.887 335.473 329.799 335.701 329.623 335.889C329.453 336.076 329.204 336.17 328.876 336.17C328.548 336.17 328.296 336.076 328.12 335.889C327.95 335.701 327.865 335.473 327.865 335.203Z" fill="#0D0F11"/>
<path d="M53.0781 257.44H55.8672L60.5312 270.283L65.1836 257.44H67.9844L61.6445 274.502H59.4062L53.0781 257.44ZM51.6719 257.44H54.4023L54.8945 269.24V274.502H51.6719V257.44ZM66.6484 257.44H69.3906V274.502H66.168V269.24L66.6484 257.44ZM79.4219 271.807V265.959C79.4219 265.53 79.3477 265.158 79.1992 264.846C79.0508 264.533 78.8242 264.291 78.5195 264.119C78.2148 263.948 77.8281 263.862 77.3594 263.862C76.9453 263.862 76.582 263.932 76.2695 264.073C75.9648 264.213 75.7305 264.412 75.5664 264.67C75.4023 264.92 75.3203 265.209 75.3203 265.537H72.2148C72.2148 265.014 72.3398 264.518 72.5898 264.049C72.8398 263.573 73.1953 263.151 73.6562 262.783C74.125 262.408 74.6836 262.115 75.332 261.905C75.9883 261.694 76.7227 261.588 77.5352 261.588C78.4961 261.588 79.3516 261.752 80.1016 262.08C80.8594 262.401 81.4531 262.885 81.8828 263.533C82.3203 264.182 82.5391 264.998 82.5391 265.983V271.514C82.5391 272.147 82.5781 272.69 82.6562 273.143C82.7422 273.588 82.8672 273.975 83.0312 274.303V274.502H79.8789C79.7305 274.182 79.6172 273.776 79.5391 273.283C79.4609 272.783 79.4219 272.291 79.4219 271.807ZM79.8555 266.78L79.8789 268.619H77.9219C77.4375 268.619 77.0117 268.67 76.6445 268.772C76.2773 268.865 75.9766 269.006 75.7422 269.194C75.5078 269.373 75.332 269.592 75.2148 269.85C75.0977 270.1 75.0391 270.385 75.0391 270.705C75.0391 271.018 75.1094 271.299 75.25 271.549C75.3984 271.799 75.6094 271.998 75.8828 272.147C76.1641 272.287 76.4922 272.358 76.8672 272.358C77.4141 272.358 77.8906 272.248 78.2969 272.03C78.7031 271.803 79.0195 271.53 79.2461 271.209C79.4727 270.889 79.5938 270.584 79.6094 270.295L80.5 271.631C80.3906 271.951 80.2266 272.291 80.0078 272.651C79.7891 273.01 79.5078 273.346 79.1641 273.658C78.8203 273.971 78.4062 274.229 77.9219 274.432C77.4375 274.635 76.875 274.737 76.2344 274.737C75.4141 274.737 74.6797 274.573 74.0312 274.244C73.3828 273.916 72.8711 273.467 72.4961 272.897C72.1211 272.326 71.9336 271.678 71.9336 270.951C71.9336 270.28 72.0586 269.686 72.3086 269.17C72.5586 268.655 72.9297 268.221 73.4219 267.869C73.9141 267.51 74.5234 267.24 75.25 267.061C75.9844 266.873 76.8242 266.78 77.7695 266.78H79.8555ZM88.4219 264.412V274.502H85.3281V261.823H88.2578L88.4219 264.412ZM92.2773 261.74L92.2305 264.623C92.0586 264.592 91.8633 264.569 91.6445 264.553C91.4336 264.537 91.2344 264.53 91.0469 264.53C90.5703 264.53 90.1523 264.596 89.793 264.729C89.4336 264.854 89.1328 265.037 88.8906 265.28C88.6562 265.522 88.4766 265.819 88.3516 266.17C88.2266 266.514 88.1562 266.905 88.1406 267.342L87.4727 267.26C87.4727 266.455 87.5547 265.709 87.7188 265.022C87.8828 264.334 88.1211 263.733 88.4336 263.217C88.7461 262.701 89.1367 262.303 89.6055 262.022C90.082 261.733 90.6289 261.588 91.2461 261.588C91.418 261.588 91.6016 261.604 91.7969 261.635C92 261.658 92.1602 261.694 92.2773 261.74ZM97.0703 256.49V274.502H93.9766V256.49H97.0703ZM105.016 261.823L99.4961 268.022L96.5078 271.057L95.5234 268.655L97.832 265.748L101.277 261.823H105.016ZM101.852 274.502L97.9258 268.596L99.9883 266.592L105.438 274.502H101.852ZM112.117 274.737C111.156 274.737 110.293 274.58 109.527 274.268C108.762 273.955 108.109 273.522 107.57 272.967C107.039 272.405 106.629 271.752 106.34 271.01C106.059 270.26 105.918 269.455 105.918 268.596V268.127C105.918 267.151 106.059 266.264 106.34 265.467C106.621 264.662 107.02 263.971 107.535 263.393C108.051 262.815 108.668 262.369 109.387 262.057C110.105 261.744 110.898 261.588 111.766 261.588C112.664 261.588 113.457 261.74 114.145 262.045C114.832 262.342 115.406 262.764 115.867 263.311C116.328 263.858 116.676 264.514 116.91 265.28C117.145 266.037 117.262 266.877 117.262 267.799V269.1H107.324V266.967H114.215V266.733C114.199 266.24 114.105 265.791 113.934 265.385C113.762 264.971 113.496 264.643 113.137 264.401C112.777 264.151 112.312 264.026 111.742 264.026C111.281 264.026 110.879 264.127 110.535 264.33C110.199 264.526 109.918 264.807 109.691 265.174C109.473 265.533 109.309 265.963 109.199 266.463C109.09 266.963 109.035 267.518 109.035 268.127V268.596C109.035 269.127 109.105 269.619 109.246 270.073C109.395 270.526 109.609 270.92 109.891 271.256C110.18 271.584 110.523 271.842 110.922 272.03C111.328 272.209 111.789 272.299 112.305 272.299C112.953 272.299 113.539 272.174 114.062 271.924C114.594 271.666 115.055 271.287 115.445 270.787L117.004 272.405C116.738 272.795 116.379 273.17 115.926 273.53C115.48 273.889 114.941 274.182 114.309 274.408C113.676 274.627 112.945 274.737 112.117 274.737ZM125.336 261.823V264.049H118.07V261.823H125.336ZM120.016 258.705H123.121V270.846C123.121 271.221 123.172 271.51 123.273 271.713C123.375 271.916 123.527 272.053 123.73 272.123C123.934 272.194 124.176 272.229 124.457 272.229C124.66 272.229 124.848 272.217 125.02 272.194C125.191 272.17 125.336 272.147 125.453 272.123L125.465 274.444C125.207 274.53 124.914 274.6 124.586 274.655C124.266 274.709 123.902 274.737 123.496 274.737C122.801 274.737 122.191 274.619 121.668 274.385C121.145 274.143 120.738 273.756 120.449 273.225C120.16 272.686 120.016 271.975 120.016 271.092V258.705ZM130.68 261.823V274.502H127.574V261.823H130.68ZM127.363 258.506C127.363 258.045 127.52 257.662 127.832 257.358C128.152 257.053 128.582 256.901 129.121 256.901C129.66 256.901 130.086 257.053 130.398 257.358C130.719 257.662 130.879 258.045 130.879 258.506C130.879 258.959 130.719 259.338 130.398 259.643C130.086 259.948 129.66 260.1 129.121 260.1C128.582 260.1 128.152 259.948 127.832 259.643C127.52 259.338 127.363 258.959 127.363 258.506ZM136.668 264.53V274.502H133.574V261.823H136.48L136.668 264.53ZM136.176 267.705H135.262C135.27 266.783 135.395 265.948 135.637 265.198C135.879 264.448 136.219 263.803 136.656 263.264C137.102 262.725 137.629 262.311 138.238 262.022C138.848 261.733 139.527 261.588 140.277 261.588C140.887 261.588 141.438 261.674 141.93 261.846C142.422 262.018 142.844 262.291 143.195 262.666C143.555 263.041 143.828 263.533 144.016 264.143C144.211 264.744 144.309 265.487 144.309 266.369V274.502H141.191V266.346C141.191 265.768 141.105 265.311 140.934 264.975C140.77 264.639 140.527 264.401 140.207 264.26C139.895 264.119 139.508 264.049 139.047 264.049C138.57 264.049 138.152 264.147 137.793 264.342C137.441 264.53 137.145 264.791 136.902 265.127C136.668 265.463 136.488 265.85 136.363 266.287C136.238 266.725 136.176 267.198 136.176 267.705ZM155.102 261.823H157.914V274.115C157.914 275.264 157.664 276.237 157.164 277.033C156.672 277.838 155.98 278.448 155.09 278.862C154.199 279.283 153.164 279.494 151.984 279.494C151.477 279.494 150.926 279.424 150.332 279.283C149.746 279.143 149.18 278.92 148.633 278.615C148.094 278.319 147.645 277.932 147.285 277.455L148.68 275.627C149.102 276.119 149.578 276.49 150.109 276.74C150.641 276.998 151.215 277.127 151.832 277.127C152.457 277.127 152.988 277.01 153.426 276.776C153.871 276.549 154.211 276.213 154.445 275.768C154.688 275.33 154.809 274.791 154.809 274.151V264.717L155.102 261.823ZM146.535 268.315V268.069C146.535 267.1 146.652 266.221 146.887 265.432C147.121 264.635 147.457 263.951 147.895 263.381C148.34 262.811 148.875 262.369 149.5 262.057C150.133 261.744 150.844 261.588 151.633 261.588C152.469 261.588 153.172 261.74 153.742 262.045C154.32 262.35 154.797 262.783 155.172 263.346C155.555 263.908 155.852 264.576 156.062 265.35C156.281 266.115 156.449 266.959 156.566 267.881V268.549C156.457 269.448 156.281 270.272 156.039 271.022C155.805 271.772 155.492 272.428 155.102 272.99C154.711 273.545 154.227 273.975 153.648 274.28C153.07 274.584 152.391 274.737 151.609 274.737C150.828 274.737 150.125 274.576 149.5 274.256C148.875 273.936 148.34 273.487 147.895 272.908C147.457 272.33 147.121 271.651 146.887 270.869C146.652 270.088 146.535 269.237 146.535 268.315ZM149.629 268.069V268.315C149.629 268.862 149.684 269.373 149.793 269.85C149.902 270.326 150.07 270.748 150.297 271.115C150.523 271.475 150.809 271.756 151.152 271.959C151.496 272.162 151.906 272.264 152.383 272.264C153.023 272.264 153.547 272.131 153.953 271.865C154.367 271.592 154.68 271.221 154.891 270.752C155.109 270.276 155.25 269.74 155.312 269.147V267.307C155.273 266.838 155.188 266.405 155.055 266.006C154.93 265.608 154.754 265.264 154.527 264.975C154.301 264.686 154.012 264.459 153.66 264.295C153.309 264.131 152.891 264.049 152.406 264.049C151.938 264.049 151.527 264.155 151.176 264.365C150.824 264.569 150.535 264.854 150.309 265.221C150.082 265.588 149.91 266.014 149.793 266.498C149.684 266.983 149.629 267.506 149.629 268.069Z" fill="#0D0F11"/>
<defs>
<filter id="filter0_d_202_1505" x="0.0145841" y="0.366667" width="415.083" height="400.083" filterUnits="userSpaceOnUse" color-interpolation-filters="sRGB">
<feFlood flood-opacity="0" result="BackgroundImageFix"/>
<feColorMatrix in="SourceAlpha" type="matrix" values="0 0 0 0 0 0 0 0 0 0 0 0 0 0 0 0 0 0 127 0" result="hardAlpha"/>
<feOffset dx="4.05625" dy="5.40833"/>
<feGaussianBlur stdDeviation="13.5208"/>
<feComposite in2="hardAlpha" operator="out"/>
<feColorMatrix type="matrix" values="0 0 0 0 0.458824 0 0 0 0 0.501961 0 0 0 0 0.533333 0 0 0 0.1 0"/>
<feBlend mode="normal" in2="BackgroundImageFix" result="effect1_dropShadow_202_1505"/>
<feBlend mode="normal" in="SourceGraphic" in2="effect1_dropShadow_202_1505" result="shape"/>
</filter>
<linearGradient id="paint0_linear_202_1505" x1="562.082" y1="-1004.99" x2="662.421" y2="-1004.99" gradientUnits="userSpaceOnUse">
<stop stop-color="#70CCD7"/>
<stop offset="1" stop-color="#00ADEE"/>
</linearGradient>
<linearGradient id="paint1_linear_202_1505" x1="452.216" y1="-694.723" x2="504.639" y2="-694.723" gradientUnits="userSpaceOnUse">
<stop stop-color="#F8C176"/>
<stop offset="1" stop-color="#FBE29B"/>
</linearGradient>
</defs>
</svg>
